G04 #@! TF.FileFunction,Legend,Bot*
%FSLAX46Y46*%
G04 Gerber Fmt 4.6, Leading zero omitted, Abs format (unit mm)*
G04 Created by KiCad (PCBNEW (2015-11-03 BZR 6296)-product) date Tuesday, November 10, 2015 'PMt' 11:19:58 PM*
%MOMM*%
G01*
G04 APERTURE LIST*
%ADD10C,0.100000*%
%ADD11C,0.150000*%
G04 APERTURE END LIST*
D10*
D11*
X133174762Y-97987619D02*
X133222381Y-97892381D01*
X133222381Y-97701904D01*
X133174762Y-97606666D01*
X133127143Y-97559047D01*
X133031905Y-97511428D01*
X132746190Y-97511428D01*
X132650952Y-97559047D01*
X132603333Y-97606666D01*
X132555714Y-97701904D01*
X132555714Y-97892381D01*
X132603333Y-97987619D01*
X133222381Y-98416190D02*
X132222381Y-98416190D01*
X132841429Y-98511428D02*
X133222381Y-98797143D01*
X132555714Y-98797143D02*
X132936667Y-98416190D01*
X133222381Y-99654286D02*
X132222381Y-99654286D01*
X133174762Y-99654286D02*
X133222381Y-99559048D01*
X133222381Y-99368571D01*
X133174762Y-99273333D01*
X133127143Y-99225714D01*
X133031905Y-99178095D01*
X132746190Y-99178095D01*
X132650952Y-99225714D01*
X132603333Y-99273333D01*
X132555714Y-99368571D01*
X132555714Y-99559048D01*
X132603333Y-99654286D01*
X133127143Y-100130476D02*
X133174762Y-100178095D01*
X133222381Y-100130476D01*
X133174762Y-100082857D01*
X133127143Y-100130476D01*
X133222381Y-100130476D01*
X132555714Y-100463809D02*
X132555714Y-100844761D01*
X132222381Y-100606666D02*
X133079524Y-100606666D01*
X133174762Y-100654285D01*
X133222381Y-100749523D01*
X133222381Y-100844761D01*
X133174762Y-101559048D02*
X133222381Y-101463810D01*
X133222381Y-101273333D01*
X133174762Y-101178095D01*
X133079524Y-101130476D01*
X132698571Y-101130476D01*
X132603333Y-101178095D01*
X132555714Y-101273333D01*
X132555714Y-101463810D01*
X132603333Y-101559048D01*
X132698571Y-101606667D01*
X132793810Y-101606667D01*
X132889048Y-101130476D01*
X133174762Y-102463810D02*
X133222381Y-102368572D01*
X133222381Y-102178095D01*
X133174762Y-102082857D01*
X133127143Y-102035238D01*
X133031905Y-101987619D01*
X132746190Y-101987619D01*
X132650952Y-102035238D01*
X132603333Y-102082857D01*
X132555714Y-102178095D01*
X132555714Y-102368572D01*
X132603333Y-102463810D01*
X133222381Y-102892381D02*
X132222381Y-102892381D01*
X133222381Y-103320953D02*
X132698571Y-103320953D01*
X132603333Y-103273334D01*
X132555714Y-103178096D01*
X132555714Y-103035238D01*
X132603333Y-102940000D01*
X132650952Y-102892381D01*
X132174762Y-104511429D02*
X133460476Y-103654286D01*
X133174762Y-104797143D02*
X133222381Y-104892381D01*
X133222381Y-105082857D01*
X133174762Y-105178096D01*
X133079524Y-105225715D01*
X133031905Y-105225715D01*
X132936667Y-105178096D01*
X132889048Y-105082857D01*
X132889048Y-104940000D01*
X132841429Y-104844762D01*
X132746190Y-104797143D01*
X132698571Y-104797143D01*
X132603333Y-104844762D01*
X132555714Y-104940000D01*
X132555714Y-105082857D01*
X132603333Y-105178096D01*
X132555714Y-105654286D02*
X133555714Y-105654286D01*
X132603333Y-105654286D02*
X132555714Y-105749524D01*
X132555714Y-105940001D01*
X132603333Y-106035239D01*
X132650952Y-106082858D01*
X132746190Y-106130477D01*
X133031905Y-106130477D01*
X133127143Y-106082858D01*
X133174762Y-106035239D01*
X133222381Y-105940001D01*
X133222381Y-105749524D01*
X133174762Y-105654286D01*
X133174762Y-106987620D02*
X133222381Y-106892382D01*
X133222381Y-106701905D01*
X133174762Y-106606667D01*
X133127143Y-106559048D01*
X133031905Y-106511429D01*
X132746190Y-106511429D01*
X132650952Y-106559048D01*
X132603333Y-106606667D01*
X132555714Y-106701905D01*
X132555714Y-106892382D01*
X132603333Y-106987620D01*
X133222381Y-107416191D02*
X132555714Y-107416191D01*
X132746190Y-107416191D02*
X132650952Y-107463810D01*
X132603333Y-107511429D01*
X132555714Y-107606667D01*
X132555714Y-107701906D01*
X132174762Y-108749525D02*
X133460476Y-107892382D01*
X132555714Y-108987620D02*
X133222381Y-109225715D01*
X132555714Y-109463811D01*
X133222381Y-110368573D02*
X133222381Y-109797144D01*
X133222381Y-110082858D02*
X132222381Y-110082858D01*
X132365238Y-109987620D01*
X132460476Y-109892382D01*
X132508095Y-109797144D01*
M02*
