G04 #@! TF.FileFunction,Legend,Bot*
%FSLAX46Y46*%
G04 Gerber Fmt 4.6, Leading zero omitted, Abs format (unit mm)*
G04 Created by KiCad (PCBNEW 4.0.1-stable) date Monday, January 11, 2016 'PMt' 05:14:23 PM*
%MOMM*%
G01*
G04 APERTURE LIST*
%ADD10C,0.100000*%
%ADD11C,0.150000*%
%ADD12C,0.010000*%
G04 APERTURE END LIST*
D10*
D11*
X135264762Y-97967619D02*
X135312381Y-97872381D01*
X135312381Y-97681904D01*
X135264762Y-97586666D01*
X135217143Y-97539047D01*
X135121905Y-97491428D01*
X134836190Y-97491428D01*
X134740952Y-97539047D01*
X134693333Y-97586666D01*
X134645714Y-97681904D01*
X134645714Y-97872381D01*
X134693333Y-97967619D01*
X135312381Y-98396190D02*
X134312381Y-98396190D01*
X134931429Y-98491428D02*
X135312381Y-98777143D01*
X134645714Y-98777143D02*
X135026667Y-98396190D01*
X135312381Y-99634286D02*
X134312381Y-99634286D01*
X135264762Y-99634286D02*
X135312381Y-99539048D01*
X135312381Y-99348571D01*
X135264762Y-99253333D01*
X135217143Y-99205714D01*
X135121905Y-99158095D01*
X134836190Y-99158095D01*
X134740952Y-99205714D01*
X134693333Y-99253333D01*
X134645714Y-99348571D01*
X134645714Y-99539048D01*
X134693333Y-99634286D01*
X135217143Y-100110476D02*
X135264762Y-100158095D01*
X135312381Y-100110476D01*
X135264762Y-100062857D01*
X135217143Y-100110476D01*
X135312381Y-100110476D01*
X134645714Y-100443809D02*
X134645714Y-100824761D01*
X134312381Y-100586666D02*
X135169524Y-100586666D01*
X135264762Y-100634285D01*
X135312381Y-100729523D01*
X135312381Y-100824761D01*
X135264762Y-101539048D02*
X135312381Y-101443810D01*
X135312381Y-101253333D01*
X135264762Y-101158095D01*
X135169524Y-101110476D01*
X134788571Y-101110476D01*
X134693333Y-101158095D01*
X134645714Y-101253333D01*
X134645714Y-101443810D01*
X134693333Y-101539048D01*
X134788571Y-101586667D01*
X134883810Y-101586667D01*
X134979048Y-101110476D01*
X135264762Y-102443810D02*
X135312381Y-102348572D01*
X135312381Y-102158095D01*
X135264762Y-102062857D01*
X135217143Y-102015238D01*
X135121905Y-101967619D01*
X134836190Y-101967619D01*
X134740952Y-102015238D01*
X134693333Y-102062857D01*
X134645714Y-102158095D01*
X134645714Y-102348572D01*
X134693333Y-102443810D01*
X135312381Y-102872381D02*
X134312381Y-102872381D01*
X135312381Y-103300953D02*
X134788571Y-103300953D01*
X134693333Y-103253334D01*
X134645714Y-103158096D01*
X134645714Y-103015238D01*
X134693333Y-102920000D01*
X134740952Y-102872381D01*
X134264762Y-104491429D02*
X135550476Y-103634286D01*
X135264762Y-104777143D02*
X135312381Y-104872381D01*
X135312381Y-105062857D01*
X135264762Y-105158096D01*
X135169524Y-105205715D01*
X135121905Y-105205715D01*
X135026667Y-105158096D01*
X134979048Y-105062857D01*
X134979048Y-104920000D01*
X134931429Y-104824762D01*
X134836190Y-104777143D01*
X134788571Y-104777143D01*
X134693333Y-104824762D01*
X134645714Y-104920000D01*
X134645714Y-105062857D01*
X134693333Y-105158096D01*
X134645714Y-105634286D02*
X135645714Y-105634286D01*
X134693333Y-105634286D02*
X134645714Y-105729524D01*
X134645714Y-105920001D01*
X134693333Y-106015239D01*
X134740952Y-106062858D01*
X134836190Y-106110477D01*
X135121905Y-106110477D01*
X135217143Y-106062858D01*
X135264762Y-106015239D01*
X135312381Y-105920001D01*
X135312381Y-105729524D01*
X135264762Y-105634286D01*
X135264762Y-106967620D02*
X135312381Y-106872382D01*
X135312381Y-106681905D01*
X135264762Y-106586667D01*
X135217143Y-106539048D01*
X135121905Y-106491429D01*
X134836190Y-106491429D01*
X134740952Y-106539048D01*
X134693333Y-106586667D01*
X134645714Y-106681905D01*
X134645714Y-106872382D01*
X134693333Y-106967620D01*
X135312381Y-107396191D02*
X134645714Y-107396191D01*
X134836190Y-107396191D02*
X134740952Y-107443810D01*
X134693333Y-107491429D01*
X134645714Y-107586667D01*
X134645714Y-107681906D01*
X134264762Y-108729525D02*
X135550476Y-107872382D01*
X134645714Y-108967620D02*
X135312381Y-109205715D01*
X134645714Y-109443811D01*
X134407619Y-109777144D02*
X134360000Y-109824763D01*
X134312381Y-109920001D01*
X134312381Y-110158097D01*
X134360000Y-110253335D01*
X134407619Y-110300954D01*
X134502857Y-110348573D01*
X134598095Y-110348573D01*
X134740952Y-110300954D01*
X135312381Y-109729525D01*
X135312381Y-110348573D01*
D12*
G36*
X131756052Y-101963685D02*
X131766510Y-102039877D01*
X131782692Y-102113848D01*
X131802483Y-102180513D01*
X131810202Y-102203282D01*
X131817186Y-102223088D01*
X131822723Y-102237962D01*
X131826101Y-102245939D01*
X131826339Y-102246358D01*
X131828158Y-102247157D01*
X131832600Y-102247386D01*
X131840114Y-102246971D01*
X131851147Y-102245838D01*
X131866148Y-102243916D01*
X131885564Y-102241131D01*
X131909844Y-102237411D01*
X131939435Y-102232682D01*
X131974786Y-102226871D01*
X132016345Y-102219906D01*
X132064559Y-102211714D01*
X132119877Y-102202221D01*
X132182747Y-102191355D01*
X132253616Y-102179043D01*
X132332933Y-102165212D01*
X132421146Y-102149790D01*
X132440558Y-102146392D01*
X132535704Y-102129714D01*
X132621932Y-102114550D01*
X132699775Y-102100794D01*
X132769762Y-102088341D01*
X132832424Y-102077085D01*
X132888292Y-102066921D01*
X132937896Y-102057742D01*
X132981766Y-102049445D01*
X133020434Y-102041923D01*
X133054430Y-102035071D01*
X133084284Y-102028784D01*
X133110527Y-102022955D01*
X133133690Y-102017480D01*
X133154303Y-102012253D01*
X133172896Y-102007169D01*
X133190001Y-102002122D01*
X133206147Y-101997007D01*
X133221866Y-101991719D01*
X133225962Y-101990297D01*
X133304422Y-101959034D01*
X133374786Y-101922728D01*
X133437227Y-101881187D01*
X133491918Y-101834217D01*
X133539032Y-101781623D01*
X133578742Y-101723214D01*
X133611220Y-101658794D01*
X133636638Y-101588171D01*
X133655171Y-101511150D01*
X133655621Y-101508743D01*
X133658427Y-101488141D01*
X133660809Y-101460050D01*
X133662720Y-101426561D01*
X133664115Y-101389762D01*
X133664945Y-101351743D01*
X133665164Y-101314593D01*
X133664725Y-101280402D01*
X133663580Y-101251259D01*
X133661867Y-101230717D01*
X133658045Y-101203386D01*
X133652941Y-101173298D01*
X133646930Y-101142083D01*
X133640384Y-101111370D01*
X133633677Y-101082791D01*
X133627182Y-101057975D01*
X133621272Y-101038553D01*
X133616320Y-101026155D01*
X133614333Y-101023113D01*
X133608761Y-101022668D01*
X133595913Y-101023694D01*
X133577926Y-101025871D01*
X133556940Y-101028878D01*
X133535093Y-101032395D01*
X133514524Y-101036102D01*
X133497373Y-101039678D01*
X133488349Y-101041989D01*
X133486078Y-101043227D01*
X133484255Y-101046104D01*
X133482833Y-101051578D01*
X133481761Y-101060610D01*
X133480990Y-101074159D01*
X133480471Y-101093186D01*
X133480154Y-101118649D01*
X133479990Y-101151510D01*
X133479931Y-101192727D01*
X133479926Y-101205879D01*
X133479774Y-101245781D01*
X133479361Y-101283903D01*
X133478722Y-101318852D01*
X133477891Y-101349236D01*
X133476904Y-101373661D01*
X133475797Y-101390737D01*
X133475085Y-101396907D01*
X133461585Y-101453227D01*
X133440244Y-101504067D01*
X133411042Y-101549452D01*
X133373957Y-101589407D01*
X133328969Y-101623957D01*
X133276055Y-101653125D01*
X133242837Y-101667162D01*
X133225166Y-101673331D01*
X133202534Y-101680374D01*
X133177039Y-101687735D01*
X133150777Y-101694859D01*
X133125846Y-101701188D01*
X133104344Y-101706168D01*
X133088367Y-101709241D01*
X133081422Y-101709962D01*
X133078133Y-101708710D01*
X133077902Y-101703970D01*
X133081120Y-101694266D01*
X133088183Y-101678122D01*
X133092239Y-101669388D01*
X133106255Y-101637756D01*
X133116630Y-101609495D01*
X133123868Y-101582111D01*
X133128468Y-101553107D01*
X133130933Y-101519988D01*
X133131766Y-101480258D01*
X133131781Y-101472735D01*
X133131599Y-101440441D01*
X133130923Y-101415553D01*
X133129564Y-101395896D01*
X133127329Y-101379297D01*
X133124028Y-101363580D01*
X133121253Y-101352924D01*
X133102967Y-101299163D01*
X133079620Y-101253151D01*
X133050826Y-101214266D01*
X133016198Y-101181889D01*
X133013255Y-101179630D01*
X132965593Y-101149479D01*
X132910938Y-101125860D01*
X132849317Y-101108773D01*
X132780756Y-101098224D01*
X132713248Y-101094640D01*
X132713248Y-101417165D01*
X132771126Y-101421874D01*
X132821394Y-101431463D01*
X132840170Y-101436964D01*
X132876162Y-101453191D01*
X132905025Y-101475630D01*
X132926558Y-101503868D01*
X132940562Y-101537496D01*
X132946835Y-101576102D01*
X132945180Y-101619277D01*
X132940971Y-101644100D01*
X132935602Y-101663515D01*
X132927738Y-101684724D01*
X132918419Y-101705608D01*
X132908687Y-101724047D01*
X132899581Y-101737922D01*
X132892145Y-101745111D01*
X132891180Y-101745500D01*
X132885296Y-101746676D01*
X132870784Y-101749345D01*
X132848421Y-101753372D01*
X132818984Y-101758620D01*
X132783251Y-101764954D01*
X132741999Y-101772238D01*
X132696005Y-101780337D01*
X132646047Y-101789115D01*
X132592903Y-101798436D01*
X132537348Y-101808164D01*
X132480162Y-101818165D01*
X132422121Y-101828302D01*
X132364002Y-101838439D01*
X132306583Y-101848442D01*
X132250641Y-101858173D01*
X132196954Y-101867499D01*
X132146299Y-101876282D01*
X132099453Y-101884388D01*
X132057194Y-101891681D01*
X132020298Y-101898024D01*
X131989544Y-101903283D01*
X131965709Y-101907322D01*
X131949570Y-101910005D01*
X131941904Y-101911196D01*
X131941409Y-101911245D01*
X131939306Y-101908670D01*
X131937932Y-101900334D01*
X131937249Y-101885319D01*
X131937219Y-101862708D01*
X131937806Y-101831583D01*
X131937944Y-101826179D01*
X131939006Y-101792812D01*
X131940355Y-101767112D01*
X131942197Y-101747160D01*
X131944737Y-101731039D01*
X131948183Y-101716831D01*
X131950504Y-101709243D01*
X131968723Y-101667589D01*
X131995357Y-101629183D01*
X132030518Y-101593955D01*
X132074318Y-101561831D01*
X132126868Y-101532738D01*
X132188281Y-101506603D01*
X132258670Y-101483354D01*
X132324981Y-101465962D01*
X132414365Y-101446639D01*
X132498320Y-101432073D01*
X132576409Y-101422289D01*
X132648198Y-101417312D01*
X132713248Y-101417165D01*
X132713248Y-101094640D01*
X132705281Y-101094216D01*
X132622920Y-101096751D01*
X132533698Y-101105834D01*
X132495113Y-101111456D01*
X132390468Y-101130422D01*
X132294600Y-101152971D01*
X132207373Y-101179166D01*
X132128651Y-101209069D01*
X132058295Y-101242743D01*
X131996169Y-101280250D01*
X131942135Y-101321653D01*
X131896058Y-101367015D01*
X131872143Y-101396198D01*
X131837616Y-101447507D01*
X131809321Y-101501809D01*
X131786951Y-101560117D01*
X131770201Y-101623449D01*
X131758762Y-101692821D01*
X131752329Y-101769247D01*
X131751238Y-101796629D01*
X131751050Y-101883269D01*
X131756052Y-101963685D01*
X131756052Y-101963685D01*
G37*
X131756052Y-101963685D02*
X131766510Y-102039877D01*
X131782692Y-102113848D01*
X131802483Y-102180513D01*
X131810202Y-102203282D01*
X131817186Y-102223088D01*
X131822723Y-102237962D01*
X131826101Y-102245939D01*
X131826339Y-102246358D01*
X131828158Y-102247157D01*
X131832600Y-102247386D01*
X131840114Y-102246971D01*
X131851147Y-102245838D01*
X131866148Y-102243916D01*
X131885564Y-102241131D01*
X131909844Y-102237411D01*
X131939435Y-102232682D01*
X131974786Y-102226871D01*
X132016345Y-102219906D01*
X132064559Y-102211714D01*
X132119877Y-102202221D01*
X132182747Y-102191355D01*
X132253616Y-102179043D01*
X132332933Y-102165212D01*
X132421146Y-102149790D01*
X132440558Y-102146392D01*
X132535704Y-102129714D01*
X132621932Y-102114550D01*
X132699775Y-102100794D01*
X132769762Y-102088341D01*
X132832424Y-102077085D01*
X132888292Y-102066921D01*
X132937896Y-102057742D01*
X132981766Y-102049445D01*
X133020434Y-102041923D01*
X133054430Y-102035071D01*
X133084284Y-102028784D01*
X133110527Y-102022955D01*
X133133690Y-102017480D01*
X133154303Y-102012253D01*
X133172896Y-102007169D01*
X133190001Y-102002122D01*
X133206147Y-101997007D01*
X133221866Y-101991719D01*
X133225962Y-101990297D01*
X133304422Y-101959034D01*
X133374786Y-101922728D01*
X133437227Y-101881187D01*
X133491918Y-101834217D01*
X133539032Y-101781623D01*
X133578742Y-101723214D01*
X133611220Y-101658794D01*
X133636638Y-101588171D01*
X133655171Y-101511150D01*
X133655621Y-101508743D01*
X133658427Y-101488141D01*
X133660809Y-101460050D01*
X133662720Y-101426561D01*
X133664115Y-101389762D01*
X133664945Y-101351743D01*
X133665164Y-101314593D01*
X133664725Y-101280402D01*
X133663580Y-101251259D01*
X133661867Y-101230717D01*
X133658045Y-101203386D01*
X133652941Y-101173298D01*
X133646930Y-101142083D01*
X133640384Y-101111370D01*
X133633677Y-101082791D01*
X133627182Y-101057975D01*
X133621272Y-101038553D01*
X133616320Y-101026155D01*
X133614333Y-101023113D01*
X133608761Y-101022668D01*
X133595913Y-101023694D01*
X133577926Y-101025871D01*
X133556940Y-101028878D01*
X133535093Y-101032395D01*
X133514524Y-101036102D01*
X133497373Y-101039678D01*
X133488349Y-101041989D01*
X133486078Y-101043227D01*
X133484255Y-101046104D01*
X133482833Y-101051578D01*
X133481761Y-101060610D01*
X133480990Y-101074159D01*
X133480471Y-101093186D01*
X133480154Y-101118649D01*
X133479990Y-101151510D01*
X133479931Y-101192727D01*
X133479926Y-101205879D01*
X133479774Y-101245781D01*
X133479361Y-101283903D01*
X133478722Y-101318852D01*
X133477891Y-101349236D01*
X133476904Y-101373661D01*
X133475797Y-101390737D01*
X133475085Y-101396907D01*
X133461585Y-101453227D01*
X133440244Y-101504067D01*
X133411042Y-101549452D01*
X133373957Y-101589407D01*
X133328969Y-101623957D01*
X133276055Y-101653125D01*
X133242837Y-101667162D01*
X133225166Y-101673331D01*
X133202534Y-101680374D01*
X133177039Y-101687735D01*
X133150777Y-101694859D01*
X133125846Y-101701188D01*
X133104344Y-101706168D01*
X133088367Y-101709241D01*
X133081422Y-101709962D01*
X133078133Y-101708710D01*
X133077902Y-101703970D01*
X133081120Y-101694266D01*
X133088183Y-101678122D01*
X133092239Y-101669388D01*
X133106255Y-101637756D01*
X133116630Y-101609495D01*
X133123868Y-101582111D01*
X133128468Y-101553107D01*
X133130933Y-101519988D01*
X133131766Y-101480258D01*
X133131781Y-101472735D01*
X133131599Y-101440441D01*
X133130923Y-101415553D01*
X133129564Y-101395896D01*
X133127329Y-101379297D01*
X133124028Y-101363580D01*
X133121253Y-101352924D01*
X133102967Y-101299163D01*
X133079620Y-101253151D01*
X133050826Y-101214266D01*
X133016198Y-101181889D01*
X133013255Y-101179630D01*
X132965593Y-101149479D01*
X132910938Y-101125860D01*
X132849317Y-101108773D01*
X132780756Y-101098224D01*
X132713248Y-101094640D01*
X132713248Y-101417165D01*
X132771126Y-101421874D01*
X132821394Y-101431463D01*
X132840170Y-101436964D01*
X132876162Y-101453191D01*
X132905025Y-101475630D01*
X132926558Y-101503868D01*
X132940562Y-101537496D01*
X132946835Y-101576102D01*
X132945180Y-101619277D01*
X132940971Y-101644100D01*
X132935602Y-101663515D01*
X132927738Y-101684724D01*
X132918419Y-101705608D01*
X132908687Y-101724047D01*
X132899581Y-101737922D01*
X132892145Y-101745111D01*
X132891180Y-101745500D01*
X132885296Y-101746676D01*
X132870784Y-101749345D01*
X132848421Y-101753372D01*
X132818984Y-101758620D01*
X132783251Y-101764954D01*
X132741999Y-101772238D01*
X132696005Y-101780337D01*
X132646047Y-101789115D01*
X132592903Y-101798436D01*
X132537348Y-101808164D01*
X132480162Y-101818165D01*
X132422121Y-101828302D01*
X132364002Y-101838439D01*
X132306583Y-101848442D01*
X132250641Y-101858173D01*
X132196954Y-101867499D01*
X132146299Y-101876282D01*
X132099453Y-101884388D01*
X132057194Y-101891681D01*
X132020298Y-101898024D01*
X131989544Y-101903283D01*
X131965709Y-101907322D01*
X131949570Y-101910005D01*
X131941904Y-101911196D01*
X131941409Y-101911245D01*
X131939306Y-101908670D01*
X131937932Y-101900334D01*
X131937249Y-101885319D01*
X131937219Y-101862708D01*
X131937806Y-101831583D01*
X131937944Y-101826179D01*
X131939006Y-101792812D01*
X131940355Y-101767112D01*
X131942197Y-101747160D01*
X131944737Y-101731039D01*
X131948183Y-101716831D01*
X131950504Y-101709243D01*
X131968723Y-101667589D01*
X131995357Y-101629183D01*
X132030518Y-101593955D01*
X132074318Y-101561831D01*
X132126868Y-101532738D01*
X132188281Y-101506603D01*
X132258670Y-101483354D01*
X132324981Y-101465962D01*
X132414365Y-101446639D01*
X132498320Y-101432073D01*
X132576409Y-101422289D01*
X132648198Y-101417312D01*
X132713248Y-101417165D01*
X132713248Y-101094640D01*
X132705281Y-101094216D01*
X132622920Y-101096751D01*
X132533698Y-101105834D01*
X132495113Y-101111456D01*
X132390468Y-101130422D01*
X132294600Y-101152971D01*
X132207373Y-101179166D01*
X132128651Y-101209069D01*
X132058295Y-101242743D01*
X131996169Y-101280250D01*
X131942135Y-101321653D01*
X131896058Y-101367015D01*
X131872143Y-101396198D01*
X131837616Y-101447507D01*
X131809321Y-101501809D01*
X131786951Y-101560117D01*
X131770201Y-101623449D01*
X131758762Y-101692821D01*
X131752329Y-101769247D01*
X131751238Y-101796629D01*
X131751050Y-101883269D01*
X131756052Y-101963685D01*
G36*
X131481615Y-104239752D02*
X131481913Y-104274505D01*
X131482380Y-104304969D01*
X131482988Y-104330006D01*
X131483713Y-104348479D01*
X131484530Y-104359252D01*
X131485104Y-104361591D01*
X131490290Y-104361171D01*
X131503576Y-104359304D01*
X131523623Y-104356217D01*
X131549093Y-104352135D01*
X131578646Y-104347283D01*
X131610945Y-104341887D01*
X131644650Y-104336172D01*
X131678424Y-104330365D01*
X131710928Y-104324689D01*
X131740823Y-104319371D01*
X131766770Y-104314637D01*
X131787432Y-104310712D01*
X131789425Y-104310319D01*
X131802604Y-104307711D01*
X131802604Y-104668103D01*
X131817326Y-104665159D01*
X131827704Y-104663194D01*
X131845105Y-104660016D01*
X131867110Y-104656062D01*
X131891302Y-104651770D01*
X131891515Y-104651732D01*
X131950982Y-104641250D01*
X131958714Y-104614652D01*
X131972996Y-104558253D01*
X131985129Y-104495712D01*
X131994591Y-104430330D01*
X132000862Y-104365412D01*
X132002499Y-104337329D01*
X132003761Y-104311515D01*
X132005009Y-104293716D01*
X132006550Y-104282366D01*
X132008690Y-104275899D01*
X132011737Y-104272751D01*
X132015413Y-104271482D01*
X132021683Y-104270294D01*
X132036620Y-104267574D01*
X132059454Y-104263460D01*
X132089414Y-104258089D01*
X132125730Y-104251599D01*
X132167631Y-104244128D01*
X132214346Y-104235813D01*
X132265105Y-104226792D01*
X132319136Y-104217202D01*
X132368113Y-104208520D01*
X132434208Y-104196829D01*
X132491630Y-104186725D01*
X132541139Y-104178095D01*
X132583494Y-104170821D01*
X132619455Y-104164789D01*
X132649782Y-104159884D01*
X132675233Y-104155989D01*
X132696570Y-104152990D01*
X132714551Y-104150771D01*
X132729936Y-104149217D01*
X132743484Y-104148212D01*
X132755955Y-104147642D01*
X132768109Y-104147390D01*
X132770679Y-104147366D01*
X132808046Y-104148017D01*
X132837868Y-104150962D01*
X132862027Y-104156769D01*
X132882409Y-104166007D01*
X132900894Y-104179241D01*
X132912664Y-104190133D01*
X132922150Y-104200066D01*
X132929773Y-104209743D01*
X132935735Y-104220320D01*
X132940238Y-104232953D01*
X132943487Y-104248797D01*
X132945682Y-104269008D01*
X132947027Y-104294740D01*
X132947724Y-104327151D01*
X132947977Y-104367393D01*
X132948000Y-104391575D01*
X132948043Y-104425301D01*
X132948165Y-104455645D01*
X132948355Y-104481363D01*
X132948599Y-104501205D01*
X132948887Y-104513927D01*
X132949198Y-104518284D01*
X132960483Y-104516972D01*
X132977477Y-104514063D01*
X132998092Y-104510021D01*
X133020242Y-104505308D01*
X133041840Y-104500388D01*
X133060799Y-104495725D01*
X133075032Y-104491782D01*
X133082453Y-104489022D01*
X133082999Y-104488571D01*
X133087527Y-104478490D01*
X133093251Y-104461231D01*
X133099553Y-104439028D01*
X133105814Y-104414116D01*
X133111415Y-104388727D01*
X133113253Y-104379358D01*
X133122534Y-104321650D01*
X133129107Y-104262542D01*
X133132873Y-104204195D01*
X133133737Y-104148771D01*
X133131600Y-104098432D01*
X133127472Y-104062012D01*
X133115889Y-104007633D01*
X133099130Y-103961037D01*
X133076888Y-103921749D01*
X133048854Y-103889296D01*
X133014721Y-103863202D01*
X132989626Y-103849665D01*
X132944300Y-103833123D01*
X132892435Y-103822683D01*
X132834966Y-103818444D01*
X132772825Y-103820503D01*
X132742324Y-103823667D01*
X132732478Y-103825134D01*
X132714262Y-103828084D01*
X132688606Y-103832356D01*
X132656440Y-103837788D01*
X132618695Y-103844217D01*
X132576301Y-103851482D01*
X132530188Y-103859421D01*
X132481286Y-103867871D01*
X132430525Y-103876671D01*
X132378836Y-103885658D01*
X132327148Y-103894671D01*
X132276392Y-103903547D01*
X132227497Y-103912126D01*
X132181395Y-103920244D01*
X132139015Y-103927739D01*
X132101287Y-103934450D01*
X132069142Y-103940215D01*
X132043510Y-103944871D01*
X132025320Y-103948257D01*
X132015503Y-103950211D01*
X132014792Y-103950375D01*
X132010732Y-103951104D01*
X132007832Y-103950101D01*
X132005862Y-103946004D01*
X132004591Y-103937448D01*
X132003788Y-103923071D01*
X132003222Y-103901509D01*
X132002811Y-103879513D01*
X132001491Y-103806074D01*
X131903245Y-103823141D01*
X131805000Y-103840207D01*
X131803677Y-103913232D01*
X131803118Y-103941112D01*
X131802460Y-103960873D01*
X131801471Y-103973978D01*
X131799918Y-103981891D01*
X131797569Y-103986078D01*
X131794190Y-103988002D01*
X131791696Y-103988652D01*
X131784373Y-103990058D01*
X131768892Y-103992860D01*
X131746539Y-103996830D01*
X131718604Y-104001741D01*
X131686374Y-104007366D01*
X131651138Y-104013478D01*
X131642057Y-104015047D01*
X131606264Y-104021250D01*
X131573151Y-104027029D01*
X131544007Y-104032156D01*
X131520122Y-104036403D01*
X131502785Y-104039542D01*
X131493286Y-104041345D01*
X131492292Y-104041558D01*
X131481509Y-104044069D01*
X131481509Y-104201846D01*
X131481615Y-104239752D01*
X131481615Y-104239752D01*
G37*
X131481615Y-104239752D02*
X131481913Y-104274505D01*
X131482380Y-104304969D01*
X131482988Y-104330006D01*
X131483713Y-104348479D01*
X131484530Y-104359252D01*
X131485104Y-104361591D01*
X131490290Y-104361171D01*
X131503576Y-104359304D01*
X131523623Y-104356217D01*
X131549093Y-104352135D01*
X131578646Y-104347283D01*
X131610945Y-104341887D01*
X131644650Y-104336172D01*
X131678424Y-104330365D01*
X131710928Y-104324689D01*
X131740823Y-104319371D01*
X131766770Y-104314637D01*
X131787432Y-104310712D01*
X131789425Y-104310319D01*
X131802604Y-104307711D01*
X131802604Y-104668103D01*
X131817326Y-104665159D01*
X131827704Y-104663194D01*
X131845105Y-104660016D01*
X131867110Y-104656062D01*
X131891302Y-104651770D01*
X131891515Y-104651732D01*
X131950982Y-104641250D01*
X131958714Y-104614652D01*
X131972996Y-104558253D01*
X131985129Y-104495712D01*
X131994591Y-104430330D01*
X132000862Y-104365412D01*
X132002499Y-104337329D01*
X132003761Y-104311515D01*
X132005009Y-104293716D01*
X132006550Y-104282366D01*
X132008690Y-104275899D01*
X132011737Y-104272751D01*
X132015413Y-104271482D01*
X132021683Y-104270294D01*
X132036620Y-104267574D01*
X132059454Y-104263460D01*
X132089414Y-104258089D01*
X132125730Y-104251599D01*
X132167631Y-104244128D01*
X132214346Y-104235813D01*
X132265105Y-104226792D01*
X132319136Y-104217202D01*
X132368113Y-104208520D01*
X132434208Y-104196829D01*
X132491630Y-104186725D01*
X132541139Y-104178095D01*
X132583494Y-104170821D01*
X132619455Y-104164789D01*
X132649782Y-104159884D01*
X132675233Y-104155989D01*
X132696570Y-104152990D01*
X132714551Y-104150771D01*
X132729936Y-104149217D01*
X132743484Y-104148212D01*
X132755955Y-104147642D01*
X132768109Y-104147390D01*
X132770679Y-104147366D01*
X132808046Y-104148017D01*
X132837868Y-104150962D01*
X132862027Y-104156769D01*
X132882409Y-104166007D01*
X132900894Y-104179241D01*
X132912664Y-104190133D01*
X132922150Y-104200066D01*
X132929773Y-104209743D01*
X132935735Y-104220320D01*
X132940238Y-104232953D01*
X132943487Y-104248797D01*
X132945682Y-104269008D01*
X132947027Y-104294740D01*
X132947724Y-104327151D01*
X132947977Y-104367393D01*
X132948000Y-104391575D01*
X132948043Y-104425301D01*
X132948165Y-104455645D01*
X132948355Y-104481363D01*
X132948599Y-104501205D01*
X132948887Y-104513927D01*
X132949198Y-104518284D01*
X132960483Y-104516972D01*
X132977477Y-104514063D01*
X132998092Y-104510021D01*
X133020242Y-104505308D01*
X133041840Y-104500388D01*
X133060799Y-104495725D01*
X133075032Y-104491782D01*
X133082453Y-104489022D01*
X133082999Y-104488571D01*
X133087527Y-104478490D01*
X133093251Y-104461231D01*
X133099553Y-104439028D01*
X133105814Y-104414116D01*
X133111415Y-104388727D01*
X133113253Y-104379358D01*
X133122534Y-104321650D01*
X133129107Y-104262542D01*
X133132873Y-104204195D01*
X133133737Y-104148771D01*
X133131600Y-104098432D01*
X133127472Y-104062012D01*
X133115889Y-104007633D01*
X133099130Y-103961037D01*
X133076888Y-103921749D01*
X133048854Y-103889296D01*
X133014721Y-103863202D01*
X132989626Y-103849665D01*
X132944300Y-103833123D01*
X132892435Y-103822683D01*
X132834966Y-103818444D01*
X132772825Y-103820503D01*
X132742324Y-103823667D01*
X132732478Y-103825134D01*
X132714262Y-103828084D01*
X132688606Y-103832356D01*
X132656440Y-103837788D01*
X132618695Y-103844217D01*
X132576301Y-103851482D01*
X132530188Y-103859421D01*
X132481286Y-103867871D01*
X132430525Y-103876671D01*
X132378836Y-103885658D01*
X132327148Y-103894671D01*
X132276392Y-103903547D01*
X132227497Y-103912126D01*
X132181395Y-103920244D01*
X132139015Y-103927739D01*
X132101287Y-103934450D01*
X132069142Y-103940215D01*
X132043510Y-103944871D01*
X132025320Y-103948257D01*
X132015503Y-103950211D01*
X132014792Y-103950375D01*
X132010732Y-103951104D01*
X132007832Y-103950101D01*
X132005862Y-103946004D01*
X132004591Y-103937448D01*
X132003788Y-103923071D01*
X132003222Y-103901509D01*
X132002811Y-103879513D01*
X132001491Y-103806074D01*
X131903245Y-103823141D01*
X131805000Y-103840207D01*
X131803677Y-103913232D01*
X131803118Y-103941112D01*
X131802460Y-103960873D01*
X131801471Y-103973978D01*
X131799918Y-103981891D01*
X131797569Y-103986078D01*
X131794190Y-103988002D01*
X131791696Y-103988652D01*
X131784373Y-103990058D01*
X131768892Y-103992860D01*
X131746539Y-103996830D01*
X131718604Y-104001741D01*
X131686374Y-104007366D01*
X131651138Y-104013478D01*
X131642057Y-104015047D01*
X131606264Y-104021250D01*
X131573151Y-104027029D01*
X131544007Y-104032156D01*
X131520122Y-104036403D01*
X131502785Y-104039542D01*
X131493286Y-104041345D01*
X131492292Y-104041558D01*
X131481509Y-104044069D01*
X131481509Y-104201846D01*
X131481615Y-104239752D01*
G36*
X131219858Y-105571214D02*
X131222609Y-105627425D01*
X131226837Y-105682298D01*
X131232515Y-105734037D01*
X131235384Y-105754792D01*
X131239728Y-105781070D01*
X131245047Y-105808569D01*
X131250902Y-105835470D01*
X131256853Y-105859949D01*
X131262462Y-105880189D01*
X131267289Y-105894366D01*
X131270485Y-105900326D01*
X131276582Y-105901135D01*
X131290233Y-105900326D01*
X131309590Y-105898157D01*
X131332808Y-105894892D01*
X131358041Y-105890790D01*
X131383443Y-105886112D01*
X131407167Y-105881119D01*
X131408425Y-105880832D01*
X131419208Y-105878357D01*
X131419208Y-105673222D01*
X131419277Y-105617673D01*
X131419541Y-105570701D01*
X131420086Y-105531301D01*
X131420995Y-105498466D01*
X131422352Y-105471189D01*
X131424244Y-105448463D01*
X131426754Y-105429283D01*
X131429967Y-105412642D01*
X131433968Y-105397533D01*
X131438841Y-105382950D01*
X131444670Y-105367887D01*
X131444941Y-105367221D01*
X131468975Y-105320141D01*
X131500210Y-105279323D01*
X131538516Y-105244855D01*
X131583764Y-105216822D01*
X131635826Y-105195312D01*
X131694571Y-105180410D01*
X131732668Y-105174711D01*
X131778959Y-105172511D01*
X131820605Y-105177542D01*
X131859122Y-105190336D01*
X131896024Y-105211424D01*
X131932825Y-105241336D01*
X131938798Y-105246969D01*
X131956892Y-105265128D01*
X131973416Y-105283658D01*
X131989191Y-105303801D01*
X132005035Y-105326801D01*
X132021770Y-105353899D01*
X132040215Y-105386338D01*
X132061191Y-105425359D01*
X132078606Y-105458782D01*
X132103059Y-105504993D01*
X132125082Y-105543832D01*
X132145751Y-105576848D01*
X132166140Y-105605591D01*
X132187323Y-105631611D01*
X132210377Y-105656457D01*
X132227189Y-105673013D01*
X132273756Y-105711841D01*
X132324098Y-105742486D01*
X132379888Y-105765933D01*
X132392075Y-105769916D01*
X132406335Y-105774086D01*
X132419601Y-105777073D01*
X132433884Y-105779062D01*
X132451197Y-105780235D01*
X132473551Y-105780776D01*
X132502960Y-105780868D01*
X132511887Y-105780842D01*
X132547226Y-105780446D01*
X132575471Y-105779414D01*
X132599103Y-105777544D01*
X132620601Y-105774635D01*
X132642448Y-105770484D01*
X132644582Y-105770028D01*
X132721098Y-105749388D01*
X132791736Y-105721761D01*
X132856190Y-105687365D01*
X132914157Y-105646421D01*
X132965332Y-105599148D01*
X133009409Y-105545767D01*
X133046085Y-105486495D01*
X133051071Y-105476830D01*
X133075031Y-105423503D01*
X133094639Y-105366957D01*
X133110502Y-105305174D01*
X133123059Y-105237207D01*
X133125739Y-105214432D01*
X133128061Y-105183923D01*
X133129988Y-105147522D01*
X133131486Y-105107076D01*
X133132519Y-105064429D01*
X133133049Y-105021425D01*
X133133042Y-104979909D01*
X133132462Y-104941726D01*
X133131273Y-104908719D01*
X133129865Y-104887358D01*
X133126261Y-104851535D01*
X133121608Y-104814571D01*
X133116155Y-104777744D01*
X133110155Y-104742331D01*
X133103860Y-104709610D01*
X133097520Y-104680860D01*
X133091387Y-104657359D01*
X133085714Y-104640383D01*
X133080750Y-104631212D01*
X133079234Y-104630084D01*
X133072028Y-104629962D01*
X133056925Y-104631559D01*
X133035412Y-104634647D01*
X133008977Y-104638993D01*
X132979107Y-104644367D01*
X132947289Y-104650539D01*
X132946802Y-104650637D01*
X132933623Y-104653289D01*
X132933529Y-104867371D01*
X132933411Y-104925464D01*
X132933096Y-104974841D01*
X132932561Y-105016368D01*
X132931783Y-105050911D01*
X132930739Y-105079338D01*
X132929406Y-105102513D01*
X132927760Y-105121306D01*
X132926485Y-105131773D01*
X132917098Y-105185876D01*
X132904618Y-105232247D01*
X132888330Y-105272440D01*
X132867521Y-105308009D01*
X132841478Y-105340506D01*
X132821249Y-105360864D01*
X132792155Y-105385532D01*
X132762328Y-105405038D01*
X132728618Y-105421204D01*
X132696296Y-105433103D01*
X132639889Y-105448291D01*
X132587542Y-105454845D01*
X132539059Y-105452717D01*
X132494243Y-105441862D01*
X132452899Y-105422232D01*
X132414829Y-105393781D01*
X132381236Y-105358194D01*
X132370240Y-105344125D01*
X132359464Y-105329042D01*
X132348225Y-105311789D01*
X132335840Y-105291210D01*
X132321625Y-105266149D01*
X132304899Y-105235450D01*
X132284977Y-105197959D01*
X132272340Y-105173887D01*
X132239583Y-105113859D01*
X132208389Y-105062285D01*
X132178035Y-105018315D01*
X132147796Y-104981093D01*
X132116948Y-104949768D01*
X132084767Y-104923486D01*
X132050530Y-104901396D01*
X132033055Y-104891980D01*
X131975998Y-104868164D01*
X131915200Y-104852870D01*
X131850368Y-104846050D01*
X131781208Y-104847657D01*
X131769057Y-104848759D01*
X131692228Y-104859357D01*
X131622767Y-104875245D01*
X131559812Y-104896805D01*
X131502496Y-104924418D01*
X131449956Y-104958466D01*
X131401328Y-104999331D01*
X131379906Y-105020658D01*
X131336849Y-105071374D01*
X131300832Y-105126327D01*
X131271405Y-105186449D01*
X131248118Y-105252672D01*
X131230521Y-105325931D01*
X131229184Y-105332992D01*
X131224154Y-105368935D01*
X131220732Y-105412526D01*
X131218894Y-105461968D01*
X131218611Y-105515463D01*
X131219858Y-105571214D01*
X131219858Y-105571214D01*
G37*
X131219858Y-105571214D02*
X131222609Y-105627425D01*
X131226837Y-105682298D01*
X131232515Y-105734037D01*
X131235384Y-105754792D01*
X131239728Y-105781070D01*
X131245047Y-105808569D01*
X131250902Y-105835470D01*
X131256853Y-105859949D01*
X131262462Y-105880189D01*
X131267289Y-105894366D01*
X131270485Y-105900326D01*
X131276582Y-105901135D01*
X131290233Y-105900326D01*
X131309590Y-105898157D01*
X131332808Y-105894892D01*
X131358041Y-105890790D01*
X131383443Y-105886112D01*
X131407167Y-105881119D01*
X131408425Y-105880832D01*
X131419208Y-105878357D01*
X131419208Y-105673222D01*
X131419277Y-105617673D01*
X131419541Y-105570701D01*
X131420086Y-105531301D01*
X131420995Y-105498466D01*
X131422352Y-105471189D01*
X131424244Y-105448463D01*
X131426754Y-105429283D01*
X131429967Y-105412642D01*
X131433968Y-105397533D01*
X131438841Y-105382950D01*
X131444670Y-105367887D01*
X131444941Y-105367221D01*
X131468975Y-105320141D01*
X131500210Y-105279323D01*
X131538516Y-105244855D01*
X131583764Y-105216822D01*
X131635826Y-105195312D01*
X131694571Y-105180410D01*
X131732668Y-105174711D01*
X131778959Y-105172511D01*
X131820605Y-105177542D01*
X131859122Y-105190336D01*
X131896024Y-105211424D01*
X131932825Y-105241336D01*
X131938798Y-105246969D01*
X131956892Y-105265128D01*
X131973416Y-105283658D01*
X131989191Y-105303801D01*
X132005035Y-105326801D01*
X132021770Y-105353899D01*
X132040215Y-105386338D01*
X132061191Y-105425359D01*
X132078606Y-105458782D01*
X132103059Y-105504993D01*
X132125082Y-105543832D01*
X132145751Y-105576848D01*
X132166140Y-105605591D01*
X132187323Y-105631611D01*
X132210377Y-105656457D01*
X132227189Y-105673013D01*
X132273756Y-105711841D01*
X132324098Y-105742486D01*
X132379888Y-105765933D01*
X132392075Y-105769916D01*
X132406335Y-105774086D01*
X132419601Y-105777073D01*
X132433884Y-105779062D01*
X132451197Y-105780235D01*
X132473551Y-105780776D01*
X132502960Y-105780868D01*
X132511887Y-105780842D01*
X132547226Y-105780446D01*
X132575471Y-105779414D01*
X132599103Y-105777544D01*
X132620601Y-105774635D01*
X132642448Y-105770484D01*
X132644582Y-105770028D01*
X132721098Y-105749388D01*
X132791736Y-105721761D01*
X132856190Y-105687365D01*
X132914157Y-105646421D01*
X132965332Y-105599148D01*
X133009409Y-105545767D01*
X133046085Y-105486495D01*
X133051071Y-105476830D01*
X133075031Y-105423503D01*
X133094639Y-105366957D01*
X133110502Y-105305174D01*
X133123059Y-105237207D01*
X133125739Y-105214432D01*
X133128061Y-105183923D01*
X133129988Y-105147522D01*
X133131486Y-105107076D01*
X133132519Y-105064429D01*
X133133049Y-105021425D01*
X133133042Y-104979909D01*
X133132462Y-104941726D01*
X133131273Y-104908719D01*
X133129865Y-104887358D01*
X133126261Y-104851535D01*
X133121608Y-104814571D01*
X133116155Y-104777744D01*
X133110155Y-104742331D01*
X133103860Y-104709610D01*
X133097520Y-104680860D01*
X133091387Y-104657359D01*
X133085714Y-104640383D01*
X133080750Y-104631212D01*
X133079234Y-104630084D01*
X133072028Y-104629962D01*
X133056925Y-104631559D01*
X133035412Y-104634647D01*
X133008977Y-104638993D01*
X132979107Y-104644367D01*
X132947289Y-104650539D01*
X132946802Y-104650637D01*
X132933623Y-104653289D01*
X132933529Y-104867371D01*
X132933411Y-104925464D01*
X132933096Y-104974841D01*
X132932561Y-105016368D01*
X132931783Y-105050911D01*
X132930739Y-105079338D01*
X132929406Y-105102513D01*
X132927760Y-105121306D01*
X132926485Y-105131773D01*
X132917098Y-105185876D01*
X132904618Y-105232247D01*
X132888330Y-105272440D01*
X132867521Y-105308009D01*
X132841478Y-105340506D01*
X132821249Y-105360864D01*
X132792155Y-105385532D01*
X132762328Y-105405038D01*
X132728618Y-105421204D01*
X132696296Y-105433103D01*
X132639889Y-105448291D01*
X132587542Y-105454845D01*
X132539059Y-105452717D01*
X132494243Y-105441862D01*
X132452899Y-105422232D01*
X132414829Y-105393781D01*
X132381236Y-105358194D01*
X132370240Y-105344125D01*
X132359464Y-105329042D01*
X132348225Y-105311789D01*
X132335840Y-105291210D01*
X132321625Y-105266149D01*
X132304899Y-105235450D01*
X132284977Y-105197959D01*
X132272340Y-105173887D01*
X132239583Y-105113859D01*
X132208389Y-105062285D01*
X132178035Y-105018315D01*
X132147796Y-104981093D01*
X132116948Y-104949768D01*
X132084767Y-104923486D01*
X132050530Y-104901396D01*
X132033055Y-104891980D01*
X131975998Y-104868164D01*
X131915200Y-104852870D01*
X131850368Y-104846050D01*
X131781208Y-104847657D01*
X131769057Y-104848759D01*
X131692228Y-104859357D01*
X131622767Y-104875245D01*
X131559812Y-104896805D01*
X131502496Y-104924418D01*
X131449956Y-104958466D01*
X131401328Y-104999331D01*
X131379906Y-105020658D01*
X131336849Y-105071374D01*
X131300832Y-105126327D01*
X131271405Y-105186449D01*
X131248118Y-105252672D01*
X131230521Y-105325931D01*
X131229184Y-105332992D01*
X131224154Y-105368935D01*
X131220732Y-105412526D01*
X131218894Y-105461968D01*
X131218611Y-105515463D01*
X131219858Y-105571214D01*
G36*
X131481615Y-106449073D02*
X131481913Y-106483828D01*
X131482380Y-106514292D01*
X131482988Y-106539331D01*
X131483713Y-106557806D01*
X131484530Y-106568581D01*
X131485104Y-106570921D01*
X131490308Y-106570514D01*
X131503600Y-106568663D01*
X131523629Y-106565596D01*
X131549046Y-106561540D01*
X131578500Y-106556721D01*
X131610641Y-106551366D01*
X131644118Y-106545703D01*
X131677582Y-106539958D01*
X131709681Y-106534359D01*
X131739067Y-106529132D01*
X131764387Y-106524505D01*
X131784293Y-106520705D01*
X131787028Y-106520160D01*
X131802604Y-106517032D01*
X131802604Y-106877424D01*
X131817326Y-106874480D01*
X131827704Y-106872515D01*
X131845105Y-106869337D01*
X131867110Y-106865383D01*
X131891302Y-106861090D01*
X131891515Y-106861053D01*
X131950982Y-106850570D01*
X131958714Y-106823973D01*
X131972996Y-106767574D01*
X131985129Y-106705032D01*
X131994591Y-106639651D01*
X132000862Y-106574733D01*
X132002499Y-106546650D01*
X132003761Y-106520836D01*
X132005009Y-106503037D01*
X132006549Y-106491687D01*
X132008690Y-106485220D01*
X132011737Y-106482072D01*
X132015413Y-106480804D01*
X132023770Y-106479169D01*
X132040625Y-106476072D01*
X132065028Y-106471679D01*
X132096031Y-106466156D01*
X132132685Y-106459667D01*
X132174042Y-106452378D01*
X132219154Y-106444454D01*
X132267071Y-106436061D01*
X132316844Y-106427363D01*
X132367526Y-106418526D01*
X132418168Y-106409716D01*
X132467821Y-106401096D01*
X132515536Y-106392834D01*
X132560364Y-106385093D01*
X132601358Y-106378040D01*
X132637569Y-106371839D01*
X132668047Y-106366656D01*
X132691844Y-106362656D01*
X132708012Y-106360004D01*
X132714715Y-106358978D01*
X132765288Y-106354770D01*
X132810712Y-106356502D01*
X132850458Y-106363961D01*
X132883997Y-106376934D01*
X132910799Y-106395211D01*
X132930336Y-106418578D01*
X132942078Y-106446823D01*
X132942924Y-106450466D01*
X132944347Y-106461940D01*
X132945605Y-106481492D01*
X132946649Y-106507615D01*
X132947428Y-106538804D01*
X132947891Y-106573551D01*
X132948000Y-106600896D01*
X132948060Y-106634625D01*
X132948229Y-106664977D01*
X132948490Y-106690703D01*
X132948828Y-106710557D01*
X132949226Y-106723291D01*
X132949656Y-106727660D01*
X132959475Y-106726659D01*
X132975411Y-106723969D01*
X132995366Y-106720059D01*
X133017238Y-106715398D01*
X133038926Y-106710456D01*
X133058331Y-106705702D01*
X133073352Y-106701604D01*
X133081887Y-106698633D01*
X133083012Y-106697871D01*
X133087532Y-106687805D01*
X133093249Y-106670561D01*
X133099546Y-106648376D01*
X133105803Y-106623483D01*
X133111401Y-106598116D01*
X133113253Y-106588679D01*
X133122534Y-106530971D01*
X133129107Y-106471863D01*
X133132873Y-106413516D01*
X133133737Y-106358092D01*
X133131600Y-106307753D01*
X133127472Y-106271333D01*
X133115651Y-106216420D01*
X133098312Y-106169173D01*
X133075140Y-106129207D01*
X133045820Y-106096137D01*
X133010036Y-106069580D01*
X132967474Y-106049151D01*
X132937305Y-106039328D01*
X132913643Y-106034622D01*
X132883109Y-106031271D01*
X132848335Y-106029373D01*
X132811952Y-106029023D01*
X132776589Y-106030317D01*
X132751526Y-106032517D01*
X132740823Y-106034036D01*
X132721658Y-106037052D01*
X132694983Y-106041401D01*
X132661748Y-106046917D01*
X132622904Y-106053438D01*
X132579403Y-106060798D01*
X132532196Y-106068833D01*
X132482233Y-106077380D01*
X132430466Y-106086273D01*
X132377846Y-106095348D01*
X132325324Y-106104442D01*
X132273852Y-106113390D01*
X132224379Y-106122026D01*
X132177857Y-106130189D01*
X132135238Y-106137712D01*
X132097472Y-106144432D01*
X132065510Y-106150184D01*
X132040304Y-106154804D01*
X132022805Y-106158127D01*
X132014792Y-106159789D01*
X132010730Y-106160480D01*
X132007830Y-106159445D01*
X132005859Y-106155317D01*
X132004588Y-106146731D01*
X132003785Y-106132321D01*
X132003219Y-106110721D01*
X132002811Y-106088912D01*
X132001491Y-106015551D01*
X131903245Y-106032540D01*
X131805000Y-106049528D01*
X131803677Y-106122553D01*
X131803118Y-106150433D01*
X131802460Y-106170194D01*
X131801471Y-106183300D01*
X131799917Y-106191216D01*
X131797567Y-106195406D01*
X131794188Y-106197335D01*
X131791696Y-106197987D01*
X131784373Y-106199397D01*
X131768892Y-106202203D01*
X131746540Y-106206178D01*
X131718605Y-106211094D01*
X131686375Y-106216724D01*
X131651139Y-106222840D01*
X131642057Y-106224410D01*
X131606264Y-106230615D01*
X131573152Y-106236394D01*
X131544008Y-106241520D01*
X131520123Y-106245764D01*
X131502786Y-106248898D01*
X131493286Y-106250695D01*
X131492292Y-106250907D01*
X131481509Y-106253390D01*
X131481509Y-106411166D01*
X131481615Y-106449073D01*
X131481615Y-106449073D01*
G37*
X131481615Y-106449073D02*
X131481913Y-106483828D01*
X131482380Y-106514292D01*
X131482988Y-106539331D01*
X131483713Y-106557806D01*
X131484530Y-106568581D01*
X131485104Y-106570921D01*
X131490308Y-106570514D01*
X131503600Y-106568663D01*
X131523629Y-106565596D01*
X131549046Y-106561540D01*
X131578500Y-106556721D01*
X131610641Y-106551366D01*
X131644118Y-106545703D01*
X131677582Y-106539958D01*
X131709681Y-106534359D01*
X131739067Y-106529132D01*
X131764387Y-106524505D01*
X131784293Y-106520705D01*
X131787028Y-106520160D01*
X131802604Y-106517032D01*
X131802604Y-106877424D01*
X131817326Y-106874480D01*
X131827704Y-106872515D01*
X131845105Y-106869337D01*
X131867110Y-106865383D01*
X131891302Y-106861090D01*
X131891515Y-106861053D01*
X131950982Y-106850570D01*
X131958714Y-106823973D01*
X131972996Y-106767574D01*
X131985129Y-106705032D01*
X131994591Y-106639651D01*
X132000862Y-106574733D01*
X132002499Y-106546650D01*
X132003761Y-106520836D01*
X132005009Y-106503037D01*
X132006549Y-106491687D01*
X132008690Y-106485220D01*
X132011737Y-106482072D01*
X132015413Y-106480804D01*
X132023770Y-106479169D01*
X132040625Y-106476072D01*
X132065028Y-106471679D01*
X132096031Y-106466156D01*
X132132685Y-106459667D01*
X132174042Y-106452378D01*
X132219154Y-106444454D01*
X132267071Y-106436061D01*
X132316844Y-106427363D01*
X132367526Y-106418526D01*
X132418168Y-106409716D01*
X132467821Y-106401096D01*
X132515536Y-106392834D01*
X132560364Y-106385093D01*
X132601358Y-106378040D01*
X132637569Y-106371839D01*
X132668047Y-106366656D01*
X132691844Y-106362656D01*
X132708012Y-106360004D01*
X132714715Y-106358978D01*
X132765288Y-106354770D01*
X132810712Y-106356502D01*
X132850458Y-106363961D01*
X132883997Y-106376934D01*
X132910799Y-106395211D01*
X132930336Y-106418578D01*
X132942078Y-106446823D01*
X132942924Y-106450466D01*
X132944347Y-106461940D01*
X132945605Y-106481492D01*
X132946649Y-106507615D01*
X132947428Y-106538804D01*
X132947891Y-106573551D01*
X132948000Y-106600896D01*
X132948060Y-106634625D01*
X132948229Y-106664977D01*
X132948490Y-106690703D01*
X132948828Y-106710557D01*
X132949226Y-106723291D01*
X132949656Y-106727660D01*
X132959475Y-106726659D01*
X132975411Y-106723969D01*
X132995366Y-106720059D01*
X133017238Y-106715398D01*
X133038926Y-106710456D01*
X133058331Y-106705702D01*
X133073352Y-106701604D01*
X133081887Y-106698633D01*
X133083012Y-106697871D01*
X133087532Y-106687805D01*
X133093249Y-106670561D01*
X133099546Y-106648376D01*
X133105803Y-106623483D01*
X133111401Y-106598116D01*
X133113253Y-106588679D01*
X133122534Y-106530971D01*
X133129107Y-106471863D01*
X133132873Y-106413516D01*
X133133737Y-106358092D01*
X133131600Y-106307753D01*
X133127472Y-106271333D01*
X133115651Y-106216420D01*
X133098312Y-106169173D01*
X133075140Y-106129207D01*
X133045820Y-106096137D01*
X133010036Y-106069580D01*
X132967474Y-106049151D01*
X132937305Y-106039328D01*
X132913643Y-106034622D01*
X132883109Y-106031271D01*
X132848335Y-106029373D01*
X132811952Y-106029023D01*
X132776589Y-106030317D01*
X132751526Y-106032517D01*
X132740823Y-106034036D01*
X132721658Y-106037052D01*
X132694983Y-106041401D01*
X132661748Y-106046917D01*
X132622904Y-106053438D01*
X132579403Y-106060798D01*
X132532196Y-106068833D01*
X132482233Y-106077380D01*
X132430466Y-106086273D01*
X132377846Y-106095348D01*
X132325324Y-106104442D01*
X132273852Y-106113390D01*
X132224379Y-106122026D01*
X132177857Y-106130189D01*
X132135238Y-106137712D01*
X132097472Y-106144432D01*
X132065510Y-106150184D01*
X132040304Y-106154804D01*
X132022805Y-106158127D01*
X132014792Y-106159789D01*
X132010730Y-106160480D01*
X132007830Y-106159445D01*
X132005859Y-106155317D01*
X132004588Y-106146731D01*
X132003785Y-106132321D01*
X132003219Y-106110721D01*
X132002811Y-106088912D01*
X132001491Y-106015551D01*
X131903245Y-106032540D01*
X131805000Y-106049528D01*
X131803677Y-106122553D01*
X131803118Y-106150433D01*
X131802460Y-106170194D01*
X131801471Y-106183300D01*
X131799917Y-106191216D01*
X131797567Y-106195406D01*
X131794188Y-106197335D01*
X131791696Y-106197987D01*
X131784373Y-106199397D01*
X131768892Y-106202203D01*
X131746540Y-106206178D01*
X131718605Y-106211094D01*
X131686375Y-106216724D01*
X131651139Y-106222840D01*
X131642057Y-106224410D01*
X131606264Y-106230615D01*
X131573152Y-106236394D01*
X131544008Y-106241520D01*
X131520123Y-106245764D01*
X131502786Y-106248898D01*
X131493286Y-106250695D01*
X131492292Y-106250907D01*
X131481509Y-106253390D01*
X131481509Y-106411166D01*
X131481615Y-106449073D01*
G36*
X131752270Y-107695462D02*
X131753116Y-107734710D01*
X131754653Y-107769986D01*
X131756894Y-107799356D01*
X131758556Y-107813150D01*
X131763295Y-107841318D01*
X131769623Y-107872448D01*
X131777158Y-107905215D01*
X131785515Y-107938293D01*
X131794311Y-107970359D01*
X131803163Y-108000085D01*
X131811687Y-108026148D01*
X131819500Y-108047221D01*
X131826219Y-108061980D01*
X131831459Y-108069098D01*
X131832730Y-108069547D01*
X131838072Y-108068735D01*
X131852185Y-108066379D01*
X131874399Y-108062594D01*
X131904044Y-108057499D01*
X131940452Y-108051211D01*
X131982952Y-108043847D01*
X132030875Y-108035524D01*
X132083553Y-108026359D01*
X132140315Y-108016470D01*
X132200493Y-108005973D01*
X132263416Y-107994987D01*
X132328416Y-107983628D01*
X132394823Y-107972013D01*
X132461968Y-107960260D01*
X132529181Y-107948486D01*
X132595793Y-107936808D01*
X132661135Y-107925343D01*
X132724537Y-107914209D01*
X132785330Y-107903523D01*
X132842844Y-107893401D01*
X132896410Y-107883962D01*
X132945359Y-107875323D01*
X132989021Y-107867600D01*
X133026728Y-107860911D01*
X133057808Y-107855374D01*
X133081594Y-107851104D01*
X133097416Y-107848220D01*
X133104604Y-107846839D01*
X133104953Y-107846752D01*
X133106968Y-107843678D01*
X133108515Y-107835491D01*
X133109639Y-107821304D01*
X133110388Y-107800231D01*
X133110807Y-107771386D01*
X133110943Y-107733882D01*
X133110943Y-107619651D01*
X133070208Y-107606384D01*
X133051942Y-107599802D01*
X133037974Y-107593550D01*
X133030320Y-107588585D01*
X133029472Y-107587066D01*
X133031959Y-107580586D01*
X133038622Y-107568312D01*
X133048259Y-107552385D01*
X133053607Y-107544041D01*
X133079926Y-107501121D01*
X133099941Y-107461753D01*
X133114448Y-107423366D01*
X133124245Y-107383392D01*
X133130129Y-107339258D01*
X133132896Y-107288395D01*
X133132897Y-107288377D01*
X133133494Y-107256104D01*
X133133220Y-107230844D01*
X133131918Y-107210050D01*
X133129433Y-107191176D01*
X133125770Y-107172420D01*
X133110058Y-107119830D01*
X133087199Y-107073280D01*
X133057103Y-107032705D01*
X133019683Y-106998043D01*
X132974850Y-106969228D01*
X132922514Y-106946197D01*
X132862587Y-106928886D01*
X132794982Y-106917232D01*
X132767466Y-106914292D01*
X132709617Y-106911378D01*
X132679623Y-106911999D01*
X132679623Y-107234410D01*
X132739115Y-107236305D01*
X132790188Y-107242096D01*
X132833267Y-107251980D01*
X132868775Y-107266153D01*
X132897136Y-107284812D01*
X132918775Y-107308154D01*
X132934114Y-107336376D01*
X132940402Y-107355471D01*
X132946771Y-107393303D01*
X132945828Y-107432746D01*
X132941107Y-107461490D01*
X132934874Y-107484143D01*
X132926012Y-107507784D01*
X132915751Y-107529745D01*
X132905318Y-107547363D01*
X132897005Y-107557130D01*
X132891415Y-107559228D01*
X132878044Y-107562556D01*
X132856716Y-107567149D01*
X132827254Y-107573038D01*
X132789482Y-107580257D01*
X132743222Y-107588838D01*
X132688297Y-107598816D01*
X132624531Y-107610222D01*
X132551747Y-107623091D01*
X132469767Y-107637454D01*
X132425623Y-107645146D01*
X132360083Y-107656549D01*
X132297047Y-107667519D01*
X132237179Y-107677940D01*
X132181142Y-107687698D01*
X132129599Y-107696676D01*
X132083212Y-107704759D01*
X132042646Y-107711831D01*
X132008564Y-107717778D01*
X131981628Y-107722482D01*
X131962502Y-107725829D01*
X131951849Y-107727703D01*
X131949972Y-107728039D01*
X131936792Y-107730481D01*
X131936876Y-107659193D01*
X131938488Y-107606635D01*
X131943464Y-107561893D01*
X131952206Y-107523669D01*
X131965121Y-107490662D01*
X131982612Y-107461572D01*
X132005084Y-107435099D01*
X132007345Y-107432820D01*
X132041377Y-107402629D01*
X132080187Y-107375384D01*
X132124488Y-107350798D01*
X132174990Y-107328579D01*
X132232406Y-107308438D01*
X132297448Y-107290086D01*
X132370827Y-107273232D01*
X132425623Y-107262521D01*
X132487001Y-107251886D01*
X132541110Y-107243963D01*
X132589814Y-107238547D01*
X132634973Y-107235432D01*
X132678448Y-107234411D01*
X132679623Y-107234410D01*
X132679623Y-106911999D01*
X132646152Y-106912693D01*
X132576341Y-106918293D01*
X132499455Y-106928237D01*
X132420830Y-106941456D01*
X132341249Y-106957764D01*
X132269314Y-106976110D01*
X132203199Y-106997050D01*
X132141080Y-107021144D01*
X132100724Y-107039359D01*
X132031821Y-107076026D01*
X131971455Y-107116459D01*
X131919182Y-107161242D01*
X131874554Y-107210961D01*
X131837127Y-107266199D01*
X131806454Y-107327541D01*
X131782090Y-107395572D01*
X131763587Y-107470877D01*
X131760915Y-107484867D01*
X131757910Y-107507332D01*
X131755512Y-107537430D01*
X131753735Y-107573225D01*
X131752593Y-107612785D01*
X131752100Y-107654175D01*
X131752270Y-107695462D01*
X131752270Y-107695462D01*
G37*
X131752270Y-107695462D02*
X131753116Y-107734710D01*
X131754653Y-107769986D01*
X131756894Y-107799356D01*
X131758556Y-107813150D01*
X131763295Y-107841318D01*
X131769623Y-107872448D01*
X131777158Y-107905215D01*
X131785515Y-107938293D01*
X131794311Y-107970359D01*
X131803163Y-108000085D01*
X131811687Y-108026148D01*
X131819500Y-108047221D01*
X131826219Y-108061980D01*
X131831459Y-108069098D01*
X131832730Y-108069547D01*
X131838072Y-108068735D01*
X131852185Y-108066379D01*
X131874399Y-108062594D01*
X131904044Y-108057499D01*
X131940452Y-108051211D01*
X131982952Y-108043847D01*
X132030875Y-108035524D01*
X132083553Y-108026359D01*
X132140315Y-108016470D01*
X132200493Y-108005973D01*
X132263416Y-107994987D01*
X132328416Y-107983628D01*
X132394823Y-107972013D01*
X132461968Y-107960260D01*
X132529181Y-107948486D01*
X132595793Y-107936808D01*
X132661135Y-107925343D01*
X132724537Y-107914209D01*
X132785330Y-107903523D01*
X132842844Y-107893401D01*
X132896410Y-107883962D01*
X132945359Y-107875323D01*
X132989021Y-107867600D01*
X133026728Y-107860911D01*
X133057808Y-107855374D01*
X133081594Y-107851104D01*
X133097416Y-107848220D01*
X133104604Y-107846839D01*
X133104953Y-107846752D01*
X133106968Y-107843678D01*
X133108515Y-107835491D01*
X133109639Y-107821304D01*
X133110388Y-107800231D01*
X133110807Y-107771386D01*
X133110943Y-107733882D01*
X133110943Y-107619651D01*
X133070208Y-107606384D01*
X133051942Y-107599802D01*
X133037974Y-107593550D01*
X133030320Y-107588585D01*
X133029472Y-107587066D01*
X133031959Y-107580586D01*
X133038622Y-107568312D01*
X133048259Y-107552385D01*
X133053607Y-107544041D01*
X133079926Y-107501121D01*
X133099941Y-107461753D01*
X133114448Y-107423366D01*
X133124245Y-107383392D01*
X133130129Y-107339258D01*
X133132896Y-107288395D01*
X133132897Y-107288377D01*
X133133494Y-107256104D01*
X133133220Y-107230844D01*
X133131918Y-107210050D01*
X133129433Y-107191176D01*
X133125770Y-107172420D01*
X133110058Y-107119830D01*
X133087199Y-107073280D01*
X133057103Y-107032705D01*
X133019683Y-106998043D01*
X132974850Y-106969228D01*
X132922514Y-106946197D01*
X132862587Y-106928886D01*
X132794982Y-106917232D01*
X132767466Y-106914292D01*
X132709617Y-106911378D01*
X132679623Y-106911999D01*
X132679623Y-107234410D01*
X132739115Y-107236305D01*
X132790188Y-107242096D01*
X132833267Y-107251980D01*
X132868775Y-107266153D01*
X132897136Y-107284812D01*
X132918775Y-107308154D01*
X132934114Y-107336376D01*
X132940402Y-107355471D01*
X132946771Y-107393303D01*
X132945828Y-107432746D01*
X132941107Y-107461490D01*
X132934874Y-107484143D01*
X132926012Y-107507784D01*
X132915751Y-107529745D01*
X132905318Y-107547363D01*
X132897005Y-107557130D01*
X132891415Y-107559228D01*
X132878044Y-107562556D01*
X132856716Y-107567149D01*
X132827254Y-107573038D01*
X132789482Y-107580257D01*
X132743222Y-107588838D01*
X132688297Y-107598816D01*
X132624531Y-107610222D01*
X132551747Y-107623091D01*
X132469767Y-107637454D01*
X132425623Y-107645146D01*
X132360083Y-107656549D01*
X132297047Y-107667519D01*
X132237179Y-107677940D01*
X132181142Y-107687698D01*
X132129599Y-107696676D01*
X132083212Y-107704759D01*
X132042646Y-107711831D01*
X132008564Y-107717778D01*
X131981628Y-107722482D01*
X131962502Y-107725829D01*
X131951849Y-107727703D01*
X131949972Y-107728039D01*
X131936792Y-107730481D01*
X131936876Y-107659193D01*
X131938488Y-107606635D01*
X131943464Y-107561893D01*
X131952206Y-107523669D01*
X131965121Y-107490662D01*
X131982612Y-107461572D01*
X132005084Y-107435099D01*
X132007345Y-107432820D01*
X132041377Y-107402629D01*
X132080187Y-107375384D01*
X132124488Y-107350798D01*
X132174990Y-107328579D01*
X132232406Y-107308438D01*
X132297448Y-107290086D01*
X132370827Y-107273232D01*
X132425623Y-107262521D01*
X132487001Y-107251886D01*
X132541110Y-107243963D01*
X132589814Y-107238547D01*
X132634973Y-107235432D01*
X132678448Y-107234411D01*
X132679623Y-107234410D01*
X132679623Y-106911999D01*
X132646152Y-106912693D01*
X132576341Y-106918293D01*
X132499455Y-106928237D01*
X132420830Y-106941456D01*
X132341249Y-106957764D01*
X132269314Y-106976110D01*
X132203199Y-106997050D01*
X132141080Y-107021144D01*
X132100724Y-107039359D01*
X132031821Y-107076026D01*
X131971455Y-107116459D01*
X131919182Y-107161242D01*
X131874554Y-107210961D01*
X131837127Y-107266199D01*
X131806454Y-107327541D01*
X131782090Y-107395572D01*
X131763587Y-107470877D01*
X131760915Y-107484867D01*
X131757910Y-107507332D01*
X131755512Y-107537430D01*
X131753735Y-107573225D01*
X131752593Y-107612785D01*
X131752100Y-107654175D01*
X131752270Y-107695462D01*
G36*
X131757183Y-109026778D02*
X131770759Y-109113969D01*
X131776802Y-109142691D01*
X131782954Y-109168536D01*
X131789239Y-109192204D01*
X131795153Y-109212039D01*
X131800190Y-109226385D01*
X131803846Y-109233586D01*
X131804682Y-109234113D01*
X131809982Y-109233315D01*
X131822495Y-109231187D01*
X131840005Y-109228124D01*
X131860295Y-109224522D01*
X131881152Y-109220778D01*
X131900359Y-109217287D01*
X131915700Y-109214446D01*
X131924960Y-109212650D01*
X131926009Y-109212424D01*
X131936792Y-109209968D01*
X131936876Y-109050710D01*
X131937013Y-109000972D01*
X131937454Y-108959646D01*
X131938330Y-108925560D01*
X131939772Y-108897544D01*
X131941911Y-108874425D01*
X131944877Y-108855032D01*
X131948800Y-108838195D01*
X131953812Y-108822741D01*
X131960044Y-108807498D01*
X131965279Y-108796165D01*
X131985919Y-108762885D01*
X132015272Y-108730495D01*
X132052470Y-108699633D01*
X132096645Y-108670939D01*
X132146929Y-108645053D01*
X132199562Y-108623645D01*
X132246620Y-108608460D01*
X132300923Y-108593852D01*
X132360307Y-108580200D01*
X132422607Y-108567885D01*
X132485659Y-108557287D01*
X132547298Y-108548787D01*
X132605358Y-108542764D01*
X132657676Y-108539599D01*
X132680256Y-108539207D01*
X132734046Y-108541048D01*
X132779936Y-108546775D01*
X132818919Y-108556699D01*
X132851987Y-108571128D01*
X132880132Y-108590371D01*
X132897374Y-108606802D01*
X132909070Y-108620286D01*
X132918838Y-108633918D01*
X132926845Y-108648683D01*
X132933263Y-108665566D01*
X132938261Y-108685549D01*
X132942009Y-108709618D01*
X132944677Y-108738757D01*
X132946434Y-108773949D01*
X132947452Y-108816179D01*
X132947899Y-108866431D01*
X132947964Y-108899839D01*
X132948061Y-108945281D01*
X132948347Y-108981855D01*
X132948848Y-109010277D01*
X132949591Y-109031263D01*
X132950602Y-109045527D01*
X132951908Y-109053787D01*
X132953535Y-109056757D01*
X132953761Y-109056792D01*
X132964208Y-109055863D01*
X132980647Y-109053375D01*
X133000855Y-109049781D01*
X133022611Y-109045530D01*
X133043693Y-109041073D01*
X133061878Y-109036862D01*
X133074945Y-109033346D01*
X133080595Y-109031060D01*
X133084215Y-109023899D01*
X133089156Y-109009018D01*
X133095007Y-108988123D01*
X133101354Y-108962920D01*
X133107784Y-108935117D01*
X133113884Y-108906418D01*
X133119241Y-108878532D01*
X133123090Y-108855509D01*
X133126800Y-108824482D01*
X133129672Y-108787134D01*
X133131673Y-108745750D01*
X133132767Y-108702615D01*
X133132919Y-108660013D01*
X133132094Y-108620231D01*
X133130258Y-108585552D01*
X133127597Y-108559774D01*
X133119118Y-108514442D01*
X133107042Y-108469768D01*
X133092276Y-108428617D01*
X133075732Y-108393852D01*
X133073918Y-108390671D01*
X133062101Y-108373031D01*
X133045942Y-108352423D01*
X133028219Y-108332300D01*
X133020945Y-108324792D01*
X133001370Y-108306358D01*
X132983045Y-108291997D01*
X132962502Y-108279287D01*
X132937077Y-108266194D01*
X132904436Y-108251292D01*
X132874156Y-108239919D01*
X132843939Y-108231576D01*
X132811488Y-108225763D01*
X132774506Y-108221981D01*
X132730695Y-108219732D01*
X132721935Y-108219452D01*
X132677470Y-108218730D01*
X132635973Y-108219467D01*
X132595080Y-108221858D01*
X132552425Y-108226099D01*
X132505645Y-108232387D01*
X132452375Y-108240916D01*
X132442396Y-108242622D01*
X132347084Y-108261275D01*
X132260336Y-108283016D01*
X132181566Y-108308081D01*
X132110189Y-108336704D01*
X132045618Y-108369123D01*
X131987267Y-108405572D01*
X131934551Y-108446287D01*
X131933482Y-108447205D01*
X131893082Y-108486867D01*
X131855908Y-108532868D01*
X131823343Y-108583016D01*
X131796770Y-108635118D01*
X131777574Y-108686982D01*
X131774065Y-108699754D01*
X131759149Y-108775438D01*
X131751369Y-108856107D01*
X131750717Y-108940355D01*
X131757183Y-109026778D01*
X131757183Y-109026778D01*
G37*
X131757183Y-109026778D02*
X131770759Y-109113969D01*
X131776802Y-109142691D01*
X131782954Y-109168536D01*
X131789239Y-109192204D01*
X131795153Y-109212039D01*
X131800190Y-109226385D01*
X131803846Y-109233586D01*
X131804682Y-109234113D01*
X131809982Y-109233315D01*
X131822495Y-109231187D01*
X131840005Y-109228124D01*
X131860295Y-109224522D01*
X131881152Y-109220778D01*
X131900359Y-109217287D01*
X131915700Y-109214446D01*
X131924960Y-109212650D01*
X131926009Y-109212424D01*
X131936792Y-109209968D01*
X131936876Y-109050710D01*
X131937013Y-109000972D01*
X131937454Y-108959646D01*
X131938330Y-108925560D01*
X131939772Y-108897544D01*
X131941911Y-108874425D01*
X131944877Y-108855032D01*
X131948800Y-108838195D01*
X131953812Y-108822741D01*
X131960044Y-108807498D01*
X131965279Y-108796165D01*
X131985919Y-108762885D01*
X132015272Y-108730495D01*
X132052470Y-108699633D01*
X132096645Y-108670939D01*
X132146929Y-108645053D01*
X132199562Y-108623645D01*
X132246620Y-108608460D01*
X132300923Y-108593852D01*
X132360307Y-108580200D01*
X132422607Y-108567885D01*
X132485659Y-108557287D01*
X132547298Y-108548787D01*
X132605358Y-108542764D01*
X132657676Y-108539599D01*
X132680256Y-108539207D01*
X132734046Y-108541048D01*
X132779936Y-108546775D01*
X132818919Y-108556699D01*
X132851987Y-108571128D01*
X132880132Y-108590371D01*
X132897374Y-108606802D01*
X132909070Y-108620286D01*
X132918838Y-108633918D01*
X132926845Y-108648683D01*
X132933263Y-108665566D01*
X132938261Y-108685549D01*
X132942009Y-108709618D01*
X132944677Y-108738757D01*
X132946434Y-108773949D01*
X132947452Y-108816179D01*
X132947899Y-108866431D01*
X132947964Y-108899839D01*
X132948061Y-108945281D01*
X132948347Y-108981855D01*
X132948848Y-109010277D01*
X132949591Y-109031263D01*
X132950602Y-109045527D01*
X132951908Y-109053787D01*
X132953535Y-109056757D01*
X132953761Y-109056792D01*
X132964208Y-109055863D01*
X132980647Y-109053375D01*
X133000855Y-109049781D01*
X133022611Y-109045530D01*
X133043693Y-109041073D01*
X133061878Y-109036862D01*
X133074945Y-109033346D01*
X133080595Y-109031060D01*
X133084215Y-109023899D01*
X133089156Y-109009018D01*
X133095007Y-108988123D01*
X133101354Y-108962920D01*
X133107784Y-108935117D01*
X133113884Y-108906418D01*
X133119241Y-108878532D01*
X133123090Y-108855509D01*
X133126800Y-108824482D01*
X133129672Y-108787134D01*
X133131673Y-108745750D01*
X133132767Y-108702615D01*
X133132919Y-108660013D01*
X133132094Y-108620231D01*
X133130258Y-108585552D01*
X133127597Y-108559774D01*
X133119118Y-108514442D01*
X133107042Y-108469768D01*
X133092276Y-108428617D01*
X133075732Y-108393852D01*
X133073918Y-108390671D01*
X133062101Y-108373031D01*
X133045942Y-108352423D01*
X133028219Y-108332300D01*
X133020945Y-108324792D01*
X133001370Y-108306358D01*
X132983045Y-108291997D01*
X132962502Y-108279287D01*
X132937077Y-108266194D01*
X132904436Y-108251292D01*
X132874156Y-108239919D01*
X132843939Y-108231576D01*
X132811488Y-108225763D01*
X132774506Y-108221981D01*
X132730695Y-108219732D01*
X132721935Y-108219452D01*
X132677470Y-108218730D01*
X132635973Y-108219467D01*
X132595080Y-108221858D01*
X132552425Y-108226099D01*
X132505645Y-108232387D01*
X132452375Y-108240916D01*
X132442396Y-108242622D01*
X132347084Y-108261275D01*
X132260336Y-108283016D01*
X132181566Y-108308081D01*
X132110189Y-108336704D01*
X132045618Y-108369123D01*
X131987267Y-108405572D01*
X131934551Y-108446287D01*
X131933482Y-108447205D01*
X131893082Y-108486867D01*
X131855908Y-108532868D01*
X131823343Y-108583016D01*
X131796770Y-108635118D01*
X131777574Y-108686982D01*
X131774065Y-108699754D01*
X131759149Y-108775438D01*
X131751369Y-108856107D01*
X131750717Y-108940355D01*
X131757183Y-109026778D01*
G36*
X131241921Y-99369647D02*
X131242022Y-99434242D01*
X131242185Y-99495434D01*
X131242404Y-99552585D01*
X131242675Y-99605060D01*
X131242993Y-99652219D01*
X131243354Y-99693426D01*
X131243753Y-99728043D01*
X131244186Y-99755433D01*
X131244646Y-99774959D01*
X131245131Y-99785983D01*
X131245481Y-99788300D01*
X131251058Y-99787546D01*
X131264668Y-99785375D01*
X131284905Y-99782021D01*
X131310361Y-99777717D01*
X131339628Y-99772700D01*
X131353311Y-99770333D01*
X131457547Y-99752255D01*
X131457547Y-99099915D01*
X131760670Y-99046115D01*
X131813317Y-99036783D01*
X131863174Y-99027970D01*
X131909439Y-99019814D01*
X131951311Y-99012457D01*
X131987991Y-99006038D01*
X132018678Y-99000698D01*
X132042571Y-98996575D01*
X132058869Y-98993811D01*
X132066772Y-98992545D01*
X132067387Y-98992479D01*
X132068050Y-98997159D01*
X132068673Y-99010571D01*
X132069246Y-99031858D01*
X132069756Y-99060168D01*
X132070193Y-99094645D01*
X132070544Y-99134436D01*
X132070800Y-99178687D01*
X132070948Y-99226542D01*
X132070981Y-99263415D01*
X132071022Y-99323473D01*
X132071154Y-99374562D01*
X132071391Y-99417297D01*
X132071746Y-99452292D01*
X132072234Y-99480162D01*
X132072866Y-99501523D01*
X132073658Y-99516989D01*
X132074623Y-99527176D01*
X132075775Y-99532698D01*
X132076982Y-99534188D01*
X132083351Y-99533394D01*
X132097637Y-99531177D01*
X132118319Y-99527789D01*
X132143874Y-99523478D01*
X132172782Y-99518496D01*
X132178821Y-99517443D01*
X132208026Y-99512369D01*
X132234000Y-99507910D01*
X132255268Y-99504314D01*
X132270359Y-99501831D01*
X132277798Y-99500709D01*
X132278255Y-99500670D01*
X132278915Y-99496014D01*
X132279536Y-99482623D01*
X132280107Y-99461347D01*
X132280616Y-99433037D01*
X132281052Y-99398542D01*
X132281404Y-99358713D01*
X132281662Y-99314400D01*
X132281812Y-99266453D01*
X132281849Y-99227563D01*
X132281849Y-98954484D01*
X132292632Y-98952019D01*
X132298906Y-98950839D01*
X132313912Y-98948148D01*
X132336936Y-98944069D01*
X132367266Y-98938729D01*
X132404190Y-98932250D01*
X132446994Y-98924759D01*
X132494967Y-98916380D01*
X132547395Y-98907238D01*
X132603565Y-98897457D01*
X132662766Y-98887163D01*
X132702483Y-98880264D01*
X132763102Y-98869715D01*
X132821028Y-98859587D01*
X132875565Y-98850005D01*
X132926012Y-98841095D01*
X132971671Y-98832981D01*
X133011844Y-98825789D01*
X133045832Y-98819642D01*
X133072937Y-98814666D01*
X133092458Y-98810986D01*
X133103699Y-98808727D01*
X133106247Y-98808072D01*
X133107485Y-98802743D01*
X133108538Y-98789306D01*
X133109405Y-98769116D01*
X133110087Y-98743531D01*
X133110581Y-98713908D01*
X133110888Y-98681602D01*
X133111006Y-98647972D01*
X133110934Y-98614374D01*
X133110673Y-98582165D01*
X133110221Y-98552701D01*
X133109576Y-98527340D01*
X133108740Y-98507439D01*
X133107710Y-98494353D01*
X133106486Y-98489441D01*
X133106434Y-98489434D01*
X133101500Y-98490246D01*
X133087678Y-98492621D01*
X133065519Y-98496459D01*
X133035576Y-98501666D01*
X132998400Y-98508143D01*
X132954543Y-98515795D01*
X132904558Y-98524524D01*
X132848995Y-98534234D01*
X132788408Y-98544828D01*
X132723348Y-98556209D01*
X132654366Y-98568281D01*
X132582016Y-98580946D01*
X132506848Y-98594109D01*
X132429415Y-98607672D01*
X132350268Y-98621538D01*
X132269960Y-98635611D01*
X132189043Y-98649794D01*
X132108068Y-98663991D01*
X132027587Y-98678104D01*
X131948153Y-98692037D01*
X131870317Y-98705693D01*
X131794632Y-98718975D01*
X131721648Y-98731786D01*
X131651918Y-98744031D01*
X131585995Y-98755611D01*
X131524429Y-98766431D01*
X131467773Y-98776394D01*
X131416579Y-98785402D01*
X131371399Y-98793359D01*
X131332784Y-98800169D01*
X131301287Y-98805734D01*
X131277459Y-98809958D01*
X131261853Y-98812744D01*
X131257462Y-98813539D01*
X131241887Y-98816387D01*
X131241887Y-99302288D01*
X131241921Y-99369647D01*
X131241921Y-99369647D01*
G37*
X131241921Y-99369647D02*
X131242022Y-99434242D01*
X131242185Y-99495434D01*
X131242404Y-99552585D01*
X131242675Y-99605060D01*
X131242993Y-99652219D01*
X131243354Y-99693426D01*
X131243753Y-99728043D01*
X131244186Y-99755433D01*
X131244646Y-99774959D01*
X131245131Y-99785983D01*
X131245481Y-99788300D01*
X131251058Y-99787546D01*
X131264668Y-99785375D01*
X131284905Y-99782021D01*
X131310361Y-99777717D01*
X131339628Y-99772700D01*
X131353311Y-99770333D01*
X131457547Y-99752255D01*
X131457547Y-99099915D01*
X131760670Y-99046115D01*
X131813317Y-99036783D01*
X131863174Y-99027970D01*
X131909439Y-99019814D01*
X131951311Y-99012457D01*
X131987991Y-99006038D01*
X132018678Y-99000698D01*
X132042571Y-98996575D01*
X132058869Y-98993811D01*
X132066772Y-98992545D01*
X132067387Y-98992479D01*
X132068050Y-98997159D01*
X132068673Y-99010571D01*
X132069246Y-99031858D01*
X132069756Y-99060168D01*
X132070193Y-99094645D01*
X132070544Y-99134436D01*
X132070800Y-99178687D01*
X132070948Y-99226542D01*
X132070981Y-99263415D01*
X132071022Y-99323473D01*
X132071154Y-99374562D01*
X132071391Y-99417297D01*
X132071746Y-99452292D01*
X132072234Y-99480162D01*
X132072866Y-99501523D01*
X132073658Y-99516989D01*
X132074623Y-99527176D01*
X132075775Y-99532698D01*
X132076982Y-99534188D01*
X132083351Y-99533394D01*
X132097637Y-99531177D01*
X132118319Y-99527789D01*
X132143874Y-99523478D01*
X132172782Y-99518496D01*
X132178821Y-99517443D01*
X132208026Y-99512369D01*
X132234000Y-99507910D01*
X132255268Y-99504314D01*
X132270359Y-99501831D01*
X132277798Y-99500709D01*
X132278255Y-99500670D01*
X132278915Y-99496014D01*
X132279536Y-99482623D01*
X132280107Y-99461347D01*
X132280616Y-99433037D01*
X132281052Y-99398542D01*
X132281404Y-99358713D01*
X132281662Y-99314400D01*
X132281812Y-99266453D01*
X132281849Y-99227563D01*
X132281849Y-98954484D01*
X132292632Y-98952019D01*
X132298906Y-98950839D01*
X132313912Y-98948148D01*
X132336936Y-98944069D01*
X132367266Y-98938729D01*
X132404190Y-98932250D01*
X132446994Y-98924759D01*
X132494967Y-98916380D01*
X132547395Y-98907238D01*
X132603565Y-98897457D01*
X132662766Y-98887163D01*
X132702483Y-98880264D01*
X132763102Y-98869715D01*
X132821028Y-98859587D01*
X132875565Y-98850005D01*
X132926012Y-98841095D01*
X132971671Y-98832981D01*
X133011844Y-98825789D01*
X133045832Y-98819642D01*
X133072937Y-98814666D01*
X133092458Y-98810986D01*
X133103699Y-98808727D01*
X133106247Y-98808072D01*
X133107485Y-98802743D01*
X133108538Y-98789306D01*
X133109405Y-98769116D01*
X133110087Y-98743531D01*
X133110581Y-98713908D01*
X133110888Y-98681602D01*
X133111006Y-98647972D01*
X133110934Y-98614374D01*
X133110673Y-98582165D01*
X133110221Y-98552701D01*
X133109576Y-98527340D01*
X133108740Y-98507439D01*
X133107710Y-98494353D01*
X133106486Y-98489441D01*
X133106434Y-98489434D01*
X133101500Y-98490246D01*
X133087678Y-98492621D01*
X133065519Y-98496459D01*
X133035576Y-98501666D01*
X132998400Y-98508143D01*
X132954543Y-98515795D01*
X132904558Y-98524524D01*
X132848995Y-98534234D01*
X132788408Y-98544828D01*
X132723348Y-98556209D01*
X132654366Y-98568281D01*
X132582016Y-98580946D01*
X132506848Y-98594109D01*
X132429415Y-98607672D01*
X132350268Y-98621538D01*
X132269960Y-98635611D01*
X132189043Y-98649794D01*
X132108068Y-98663991D01*
X132027587Y-98678104D01*
X131948153Y-98692037D01*
X131870317Y-98705693D01*
X131794632Y-98718975D01*
X131721648Y-98731786D01*
X131651918Y-98744031D01*
X131585995Y-98755611D01*
X131524429Y-98766431D01*
X131467773Y-98776394D01*
X131416579Y-98785402D01*
X131371399Y-98793359D01*
X131332784Y-98800169D01*
X131301287Y-98805734D01*
X131277459Y-98809958D01*
X131261853Y-98812744D01*
X131257462Y-98813539D01*
X131241887Y-98816387D01*
X131241887Y-99302288D01*
X131241921Y-99369647D01*
G36*
X131255066Y-100346908D02*
X131261056Y-100345812D01*
X131276023Y-100343142D01*
X131299507Y-100338979D01*
X131331043Y-100333405D01*
X131370171Y-100326502D01*
X131416426Y-100318349D01*
X131469346Y-100309030D01*
X131528469Y-100298625D01*
X131593333Y-100287216D01*
X131663474Y-100274883D01*
X131738430Y-100261709D01*
X131817738Y-100247775D01*
X131900936Y-100233162D01*
X131987562Y-100217952D01*
X132077152Y-100202226D01*
X132169244Y-100186065D01*
X132183604Y-100183545D01*
X132275925Y-100167341D01*
X132365749Y-100151564D01*
X132452618Y-100136295D01*
X132536075Y-100121613D01*
X132615661Y-100107602D01*
X132690919Y-100094341D01*
X132761390Y-100081911D01*
X132826618Y-100070393D01*
X132886144Y-100059868D01*
X132939510Y-100050417D01*
X132986259Y-100042121D01*
X133025932Y-100035061D01*
X133058073Y-100029317D01*
X133082223Y-100024971D01*
X133097923Y-100022104D01*
X133104718Y-100020795D01*
X133104953Y-100020734D01*
X133106670Y-100017960D01*
X133108051Y-100010515D01*
X133109126Y-99997624D01*
X133109922Y-99978509D01*
X133110470Y-99952394D01*
X133110798Y-99918502D01*
X133110935Y-99876057D01*
X133110943Y-99860225D01*
X133110908Y-99816889D01*
X133110770Y-99782194D01*
X133110483Y-99755194D01*
X133110001Y-99734946D01*
X133109276Y-99720505D01*
X133108262Y-99710926D01*
X133106912Y-99705267D01*
X133105180Y-99702581D01*
X133103114Y-99701924D01*
X133097818Y-99702738D01*
X133083639Y-99705114D01*
X133061131Y-99708956D01*
X133030851Y-99714167D01*
X132993355Y-99720647D01*
X132949198Y-99728301D01*
X132898938Y-99737031D01*
X132843128Y-99746740D01*
X132782327Y-99757330D01*
X132717088Y-99768704D01*
X132647969Y-99780764D01*
X132575526Y-99793414D01*
X132500314Y-99806555D01*
X132422889Y-99820091D01*
X132343807Y-99833924D01*
X132263624Y-99847957D01*
X132182897Y-99862092D01*
X132102180Y-99876232D01*
X132022031Y-99890280D01*
X131943004Y-99904138D01*
X131865657Y-99917710D01*
X131790544Y-99930896D01*
X131718222Y-99943602D01*
X131649246Y-99955727D01*
X131584174Y-99967177D01*
X131523559Y-99977853D01*
X131467960Y-99987657D01*
X131417931Y-99996493D01*
X131374028Y-100004263D01*
X131336808Y-100010870D01*
X131306826Y-100016217D01*
X131284638Y-100020205D01*
X131270801Y-100022738D01*
X131267047Y-100023456D01*
X131241887Y-100028490D01*
X131241887Y-100349667D01*
X131255066Y-100346908D01*
X131255066Y-100346908D01*
G37*
X131255066Y-100346908D02*
X131261056Y-100345812D01*
X131276023Y-100343142D01*
X131299507Y-100338979D01*
X131331043Y-100333405D01*
X131370171Y-100326502D01*
X131416426Y-100318349D01*
X131469346Y-100309030D01*
X131528469Y-100298625D01*
X131593333Y-100287216D01*
X131663474Y-100274883D01*
X131738430Y-100261709D01*
X131817738Y-100247775D01*
X131900936Y-100233162D01*
X131987562Y-100217952D01*
X132077152Y-100202226D01*
X132169244Y-100186065D01*
X132183604Y-100183545D01*
X132275925Y-100167341D01*
X132365749Y-100151564D01*
X132452618Y-100136295D01*
X132536075Y-100121613D01*
X132615661Y-100107602D01*
X132690919Y-100094341D01*
X132761390Y-100081911D01*
X132826618Y-100070393D01*
X132886144Y-100059868D01*
X132939510Y-100050417D01*
X132986259Y-100042121D01*
X133025932Y-100035061D01*
X133058073Y-100029317D01*
X133082223Y-100024971D01*
X133097923Y-100022104D01*
X133104718Y-100020795D01*
X133104953Y-100020734D01*
X133106670Y-100017960D01*
X133108051Y-100010515D01*
X133109126Y-99997624D01*
X133109922Y-99978509D01*
X133110470Y-99952394D01*
X133110798Y-99918502D01*
X133110935Y-99876057D01*
X133110943Y-99860225D01*
X133110908Y-99816889D01*
X133110770Y-99782194D01*
X133110483Y-99755194D01*
X133110001Y-99734946D01*
X133109276Y-99720505D01*
X133108262Y-99710926D01*
X133106912Y-99705267D01*
X133105180Y-99702581D01*
X133103114Y-99701924D01*
X133097818Y-99702738D01*
X133083639Y-99705114D01*
X133061131Y-99708956D01*
X133030851Y-99714167D01*
X132993355Y-99720647D01*
X132949198Y-99728301D01*
X132898938Y-99737031D01*
X132843128Y-99746740D01*
X132782327Y-99757330D01*
X132717088Y-99768704D01*
X132647969Y-99780764D01*
X132575526Y-99793414D01*
X132500314Y-99806555D01*
X132422889Y-99820091D01*
X132343807Y-99833924D01*
X132263624Y-99847957D01*
X132182897Y-99862092D01*
X132102180Y-99876232D01*
X132022031Y-99890280D01*
X131943004Y-99904138D01*
X131865657Y-99917710D01*
X131790544Y-99930896D01*
X131718222Y-99943602D01*
X131649246Y-99955727D01*
X131584174Y-99967177D01*
X131523559Y-99977853D01*
X131467960Y-99987657D01*
X131417931Y-99996493D01*
X131374028Y-100004263D01*
X131336808Y-100010870D01*
X131306826Y-100016217D01*
X131284638Y-100020205D01*
X131270801Y-100022738D01*
X131267047Y-100023456D01*
X131241887Y-100028490D01*
X131241887Y-100349667D01*
X131255066Y-100346908D01*
G36*
X131773954Y-100822733D02*
X131774253Y-100857486D01*
X131774719Y-100887949D01*
X131775328Y-100912986D01*
X131776053Y-100931459D01*
X131776869Y-100942232D01*
X131777443Y-100944570D01*
X131782461Y-100943974D01*
X131796263Y-100941814D01*
X131818195Y-100938206D01*
X131847604Y-100933264D01*
X131883839Y-100927103D01*
X131926244Y-100919838D01*
X131974168Y-100911583D01*
X132026957Y-100902453D01*
X132083958Y-100892563D01*
X132144518Y-100882027D01*
X132207984Y-100870961D01*
X132273702Y-100859478D01*
X132341020Y-100847694D01*
X132409284Y-100835723D01*
X132477842Y-100823681D01*
X132546040Y-100811681D01*
X132613225Y-100799838D01*
X132678744Y-100788268D01*
X132741944Y-100777084D01*
X132802172Y-100766402D01*
X132858775Y-100756336D01*
X132911099Y-100747001D01*
X132958491Y-100738511D01*
X133000299Y-100730982D01*
X133035869Y-100724528D01*
X133064549Y-100719264D01*
X133085684Y-100715304D01*
X133098622Y-100712763D01*
X133102620Y-100711834D01*
X133104896Y-100710355D01*
X133106717Y-100707203D01*
X133108133Y-100701406D01*
X133109195Y-100691990D01*
X133109953Y-100677983D01*
X133110456Y-100658411D01*
X133110756Y-100632301D01*
X133110901Y-100598681D01*
X133110943Y-100556578D01*
X133110943Y-100550339D01*
X133110827Y-100512475D01*
X133110497Y-100477859D01*
X133109982Y-100447604D01*
X133109309Y-100422829D01*
X133108507Y-100404649D01*
X133107604Y-100394181D01*
X133106949Y-100392037D01*
X133101808Y-100392851D01*
X133087883Y-100395215D01*
X133065829Y-100399015D01*
X133036301Y-100404136D01*
X132999953Y-100410461D01*
X132957440Y-100417877D01*
X132909418Y-100426268D01*
X132856542Y-100435519D01*
X132799466Y-100445514D01*
X132738845Y-100456139D01*
X132675334Y-100467279D01*
X132609588Y-100478818D01*
X132542262Y-100490641D01*
X132474011Y-100502634D01*
X132405490Y-100514680D01*
X132337354Y-100526665D01*
X132270257Y-100538474D01*
X132204855Y-100549992D01*
X132141802Y-100561103D01*
X132081753Y-100571692D01*
X132025364Y-100581645D01*
X131973290Y-100590846D01*
X131926184Y-100599180D01*
X131884702Y-100606531D01*
X131849500Y-100612785D01*
X131821231Y-100617827D01*
X131800551Y-100621541D01*
X131788115Y-100623813D01*
X131784632Y-100624491D01*
X131773849Y-100627050D01*
X131773849Y-100784827D01*
X131773954Y-100822733D01*
X131773954Y-100822733D01*
G37*
X131773954Y-100822733D02*
X131774253Y-100857486D01*
X131774719Y-100887949D01*
X131775328Y-100912986D01*
X131776053Y-100931459D01*
X131776869Y-100942232D01*
X131777443Y-100944570D01*
X131782461Y-100943974D01*
X131796263Y-100941814D01*
X131818195Y-100938206D01*
X131847604Y-100933264D01*
X131883839Y-100927103D01*
X131926244Y-100919838D01*
X131974168Y-100911583D01*
X132026957Y-100902453D01*
X132083958Y-100892563D01*
X132144518Y-100882027D01*
X132207984Y-100870961D01*
X132273702Y-100859478D01*
X132341020Y-100847694D01*
X132409284Y-100835723D01*
X132477842Y-100823681D01*
X132546040Y-100811681D01*
X132613225Y-100799838D01*
X132678744Y-100788268D01*
X132741944Y-100777084D01*
X132802172Y-100766402D01*
X132858775Y-100756336D01*
X132911099Y-100747001D01*
X132958491Y-100738511D01*
X133000299Y-100730982D01*
X133035869Y-100724528D01*
X133064549Y-100719264D01*
X133085684Y-100715304D01*
X133098622Y-100712763D01*
X133102620Y-100711834D01*
X133104896Y-100710355D01*
X133106717Y-100707203D01*
X133108133Y-100701406D01*
X133109195Y-100691990D01*
X133109953Y-100677983D01*
X133110456Y-100658411D01*
X133110756Y-100632301D01*
X133110901Y-100598681D01*
X133110943Y-100556578D01*
X133110943Y-100550339D01*
X133110827Y-100512475D01*
X133110497Y-100477859D01*
X133109982Y-100447604D01*
X133109309Y-100422829D01*
X133108507Y-100404649D01*
X133107604Y-100394181D01*
X133106949Y-100392037D01*
X133101808Y-100392851D01*
X133087883Y-100395215D01*
X133065829Y-100399015D01*
X133036301Y-100404136D01*
X132999953Y-100410461D01*
X132957440Y-100417877D01*
X132909418Y-100426268D01*
X132856542Y-100435519D01*
X132799466Y-100445514D01*
X132738845Y-100456139D01*
X132675334Y-100467279D01*
X132609588Y-100478818D01*
X132542262Y-100490641D01*
X132474011Y-100502634D01*
X132405490Y-100514680D01*
X132337354Y-100526665D01*
X132270257Y-100538474D01*
X132204855Y-100549992D01*
X132141802Y-100561103D01*
X132081753Y-100571692D01*
X132025364Y-100581645D01*
X131973290Y-100590846D01*
X131926184Y-100599180D01*
X131884702Y-100606531D01*
X131849500Y-100612785D01*
X131821231Y-100617827D01*
X131800551Y-100621541D01*
X131788115Y-100623813D01*
X131784632Y-100624491D01*
X131773849Y-100627050D01*
X131773849Y-100784827D01*
X131773954Y-100822733D01*
G36*
X131241992Y-102912444D02*
X131242291Y-102947165D01*
X131242758Y-102977593D01*
X131243368Y-103002591D01*
X131244094Y-103021022D01*
X131244911Y-103031749D01*
X131245481Y-103034051D01*
X131250801Y-103033637D01*
X131264586Y-103031675D01*
X131285872Y-103028327D01*
X131313692Y-103023753D01*
X131347080Y-103018114D01*
X131385072Y-103011571D01*
X131426700Y-103004283D01*
X131459943Y-102998388D01*
X131507167Y-102989971D01*
X131554399Y-102981561D01*
X131600176Y-102973417D01*
X131643030Y-102965801D01*
X131681497Y-102958972D01*
X131714112Y-102953190D01*
X131739409Y-102948717D01*
X131747937Y-102947214D01*
X131825064Y-102933643D01*
X131801662Y-102979567D01*
X131788664Y-103007881D01*
X131776327Y-103039628D01*
X131766715Y-103069435D01*
X131765633Y-103073415D01*
X131761113Y-103091347D01*
X131757812Y-103107117D01*
X131755540Y-103122805D01*
X131754106Y-103140495D01*
X131753321Y-103162266D01*
X131752993Y-103190200D01*
X131752936Y-103212396D01*
X131753780Y-103262704D01*
X131756597Y-103305375D01*
X131761684Y-103342209D01*
X131769339Y-103375008D01*
X131779862Y-103405572D01*
X131788055Y-103424402D01*
X131811073Y-103462619D01*
X131841345Y-103495131D01*
X131878220Y-103521658D01*
X131921049Y-103541919D01*
X131969183Y-103555632D01*
X132021972Y-103562517D01*
X132078766Y-103562293D01*
X132102003Y-103560202D01*
X132111356Y-103558861D01*
X132129356Y-103556014D01*
X132155205Y-103551795D01*
X132188107Y-103546343D01*
X132227265Y-103539793D01*
X132271883Y-103532283D01*
X132321164Y-103523949D01*
X132374312Y-103514928D01*
X132430529Y-103505356D01*
X132489020Y-103495370D01*
X132548987Y-103485108D01*
X132609634Y-103474705D01*
X132670164Y-103464299D01*
X132729781Y-103454025D01*
X132787687Y-103444022D01*
X132843088Y-103434425D01*
X132895185Y-103425371D01*
X132943182Y-103416997D01*
X132986282Y-103409440D01*
X133023689Y-103402837D01*
X133054607Y-103397323D01*
X133078238Y-103393037D01*
X133093786Y-103390114D01*
X133097764Y-103389315D01*
X133110943Y-103386559D01*
X133110943Y-103229071D01*
X133110836Y-103191185D01*
X133110533Y-103156439D01*
X133110059Y-103125974D01*
X133109441Y-103100930D01*
X133108704Y-103082447D01*
X133107875Y-103071668D01*
X133107299Y-103069332D01*
X133102170Y-103069825D01*
X133088234Y-103071868D01*
X133066125Y-103075355D01*
X133036477Y-103080180D01*
X132999922Y-103086235D01*
X132957096Y-103093414D01*
X132908631Y-103101611D01*
X132855161Y-103110719D01*
X132797321Y-103120631D01*
X132735742Y-103131241D01*
X132671060Y-103142442D01*
X132624603Y-103150521D01*
X132538445Y-103165486D01*
X132461336Y-103178790D01*
X132392899Y-103190493D01*
X132332755Y-103200656D01*
X132280525Y-103209340D01*
X132235830Y-103216606D01*
X132198292Y-103222516D01*
X132167532Y-103227131D01*
X132143172Y-103230510D01*
X132124832Y-103232717D01*
X132112135Y-103233812D01*
X132107490Y-103233962D01*
X132066668Y-103230826D01*
X132031640Y-103221105D01*
X132000819Y-103204323D01*
X131995795Y-103200667D01*
X131972928Y-103177622D01*
X131955624Y-103148214D01*
X131944023Y-103113982D01*
X131938266Y-103076466D01*
X131938493Y-103037206D01*
X131944843Y-102997741D01*
X131957456Y-102959612D01*
X131971387Y-102932360D01*
X131987113Y-102906324D01*
X133108547Y-102708864D01*
X133109810Y-102549677D01*
X133110142Y-102506470D01*
X133110343Y-102471887D01*
X133110361Y-102444968D01*
X133110143Y-102424754D01*
X133109636Y-102410284D01*
X133108786Y-102400598D01*
X133107541Y-102394735D01*
X133105848Y-102391737D01*
X133103654Y-102390642D01*
X133101031Y-102390490D01*
X133095496Y-102391305D01*
X133081076Y-102393685D01*
X133058327Y-102397533D01*
X133027803Y-102402751D01*
X132990060Y-102409243D01*
X132945653Y-102416912D01*
X132895137Y-102425659D01*
X132839066Y-102435388D01*
X132777997Y-102446002D01*
X132712484Y-102457404D01*
X132643082Y-102469495D01*
X132570346Y-102482180D01*
X132494832Y-102495361D01*
X132417094Y-102508940D01*
X132337687Y-102522821D01*
X132257168Y-102536906D01*
X132176090Y-102551098D01*
X132095009Y-102565301D01*
X132014480Y-102579416D01*
X131935058Y-102593346D01*
X131857298Y-102606995D01*
X131781755Y-102620265D01*
X131708984Y-102633059D01*
X131639541Y-102645279D01*
X131573980Y-102656829D01*
X131512857Y-102667612D01*
X131456726Y-102677529D01*
X131406143Y-102686485D01*
X131361663Y-102694381D01*
X131323841Y-102701121D01*
X131293232Y-102706607D01*
X131270391Y-102710743D01*
X131255873Y-102713430D01*
X131250274Y-102714560D01*
X131247977Y-102715809D01*
X131246141Y-102718713D01*
X131244713Y-102724241D01*
X131243644Y-102733366D01*
X131242882Y-102747060D01*
X131242376Y-102766294D01*
X131242076Y-102792041D01*
X131241930Y-102825271D01*
X131241887Y-102866957D01*
X131241887Y-102874568D01*
X131241992Y-102912444D01*
X131241992Y-102912444D01*
G37*
X131241992Y-102912444D02*
X131242291Y-102947165D01*
X131242758Y-102977593D01*
X131243368Y-103002591D01*
X131244094Y-103021022D01*
X131244911Y-103031749D01*
X131245481Y-103034051D01*
X131250801Y-103033637D01*
X131264586Y-103031675D01*
X131285872Y-103028327D01*
X131313692Y-103023753D01*
X131347080Y-103018114D01*
X131385072Y-103011571D01*
X131426700Y-103004283D01*
X131459943Y-102998388D01*
X131507167Y-102989971D01*
X131554399Y-102981561D01*
X131600176Y-102973417D01*
X131643030Y-102965801D01*
X131681497Y-102958972D01*
X131714112Y-102953190D01*
X131739409Y-102948717D01*
X131747937Y-102947214D01*
X131825064Y-102933643D01*
X131801662Y-102979567D01*
X131788664Y-103007881D01*
X131776327Y-103039628D01*
X131766715Y-103069435D01*
X131765633Y-103073415D01*
X131761113Y-103091347D01*
X131757812Y-103107117D01*
X131755540Y-103122805D01*
X131754106Y-103140495D01*
X131753321Y-103162266D01*
X131752993Y-103190200D01*
X131752936Y-103212396D01*
X131753780Y-103262704D01*
X131756597Y-103305375D01*
X131761684Y-103342209D01*
X131769339Y-103375008D01*
X131779862Y-103405572D01*
X131788055Y-103424402D01*
X131811073Y-103462619D01*
X131841345Y-103495131D01*
X131878220Y-103521658D01*
X131921049Y-103541919D01*
X131969183Y-103555632D01*
X132021972Y-103562517D01*
X132078766Y-103562293D01*
X132102003Y-103560202D01*
X132111356Y-103558861D01*
X132129356Y-103556014D01*
X132155205Y-103551795D01*
X132188107Y-103546343D01*
X132227265Y-103539793D01*
X132271883Y-103532283D01*
X132321164Y-103523949D01*
X132374312Y-103514928D01*
X132430529Y-103505356D01*
X132489020Y-103495370D01*
X132548987Y-103485108D01*
X132609634Y-103474705D01*
X132670164Y-103464299D01*
X132729781Y-103454025D01*
X132787687Y-103444022D01*
X132843088Y-103434425D01*
X132895185Y-103425371D01*
X132943182Y-103416997D01*
X132986282Y-103409440D01*
X133023689Y-103402837D01*
X133054607Y-103397323D01*
X133078238Y-103393037D01*
X133093786Y-103390114D01*
X133097764Y-103389315D01*
X133110943Y-103386559D01*
X133110943Y-103229071D01*
X133110836Y-103191185D01*
X133110533Y-103156439D01*
X133110059Y-103125974D01*
X133109441Y-103100930D01*
X133108704Y-103082447D01*
X133107875Y-103071668D01*
X133107299Y-103069332D01*
X133102170Y-103069825D01*
X133088234Y-103071868D01*
X133066125Y-103075355D01*
X133036477Y-103080180D01*
X132999922Y-103086235D01*
X132957096Y-103093414D01*
X132908631Y-103101611D01*
X132855161Y-103110719D01*
X132797321Y-103120631D01*
X132735742Y-103131241D01*
X132671060Y-103142442D01*
X132624603Y-103150521D01*
X132538445Y-103165486D01*
X132461336Y-103178790D01*
X132392899Y-103190493D01*
X132332755Y-103200656D01*
X132280525Y-103209340D01*
X132235830Y-103216606D01*
X132198292Y-103222516D01*
X132167532Y-103227131D01*
X132143172Y-103230510D01*
X132124832Y-103232717D01*
X132112135Y-103233812D01*
X132107490Y-103233962D01*
X132066668Y-103230826D01*
X132031640Y-103221105D01*
X132000819Y-103204323D01*
X131995795Y-103200667D01*
X131972928Y-103177622D01*
X131955624Y-103148214D01*
X131944023Y-103113982D01*
X131938266Y-103076466D01*
X131938493Y-103037206D01*
X131944843Y-102997741D01*
X131957456Y-102959612D01*
X131971387Y-102932360D01*
X131987113Y-102906324D01*
X133108547Y-102708864D01*
X133109810Y-102549677D01*
X133110142Y-102506470D01*
X133110343Y-102471887D01*
X133110361Y-102444968D01*
X133110143Y-102424754D01*
X133109636Y-102410284D01*
X133108786Y-102400598D01*
X133107541Y-102394735D01*
X133105848Y-102391737D01*
X133103654Y-102390642D01*
X133101031Y-102390490D01*
X133095496Y-102391305D01*
X133081076Y-102393685D01*
X133058327Y-102397533D01*
X133027803Y-102402751D01*
X132990060Y-102409243D01*
X132945653Y-102416912D01*
X132895137Y-102425659D01*
X132839066Y-102435388D01*
X132777997Y-102446002D01*
X132712484Y-102457404D01*
X132643082Y-102469495D01*
X132570346Y-102482180D01*
X132494832Y-102495361D01*
X132417094Y-102508940D01*
X132337687Y-102522821D01*
X132257168Y-102536906D01*
X132176090Y-102551098D01*
X132095009Y-102565301D01*
X132014480Y-102579416D01*
X131935058Y-102593346D01*
X131857298Y-102606995D01*
X131781755Y-102620265D01*
X131708984Y-102633059D01*
X131639541Y-102645279D01*
X131573980Y-102656829D01*
X131512857Y-102667612D01*
X131456726Y-102677529D01*
X131406143Y-102686485D01*
X131361663Y-102694381D01*
X131323841Y-102701121D01*
X131293232Y-102706607D01*
X131270391Y-102710743D01*
X131255873Y-102713430D01*
X131250274Y-102714560D01*
X131247977Y-102715809D01*
X131246141Y-102718713D01*
X131244713Y-102724241D01*
X131243644Y-102733366D01*
X131242882Y-102747060D01*
X131242376Y-102766294D01*
X131242076Y-102792041D01*
X131241930Y-102825271D01*
X131241887Y-102866957D01*
X131241887Y-102874568D01*
X131241992Y-102912444D01*
G36*
X131241992Y-109779827D02*
X131242291Y-109814580D01*
X131242757Y-109845043D01*
X131243366Y-109870078D01*
X131244091Y-109888551D01*
X131244907Y-109899322D01*
X131245481Y-109901660D01*
X131250578Y-109901100D01*
X131264517Y-109898968D01*
X131286700Y-109895364D01*
X131316531Y-109890393D01*
X131353415Y-109884156D01*
X131396755Y-109876755D01*
X131445955Y-109868293D01*
X131500418Y-109858872D01*
X131559548Y-109848595D01*
X131622749Y-109837564D01*
X131689425Y-109825881D01*
X131758979Y-109813649D01*
X131788226Y-109808492D01*
X131858836Y-109796052D01*
X131926843Y-109784107D01*
X131991648Y-109772761D01*
X132052651Y-109762117D01*
X132109253Y-109752278D01*
X132160855Y-109743347D01*
X132206857Y-109735428D01*
X132246662Y-109728625D01*
X132279668Y-109723040D01*
X132305277Y-109718777D01*
X132322890Y-109715939D01*
X132331907Y-109714630D01*
X132332977Y-109714558D01*
X132330136Y-109717509D01*
X132320147Y-109725667D01*
X132303601Y-109738585D01*
X132281090Y-109755818D01*
X132253206Y-109776920D01*
X132220541Y-109801443D01*
X132183687Y-109828943D01*
X132143235Y-109858973D01*
X132099778Y-109891087D01*
X132057411Y-109922266D01*
X131776245Y-110128777D01*
X131774985Y-110298171D01*
X131774792Y-110337559D01*
X131774808Y-110373887D01*
X131775017Y-110406049D01*
X131775404Y-110432937D01*
X131775953Y-110453444D01*
X131776648Y-110466463D01*
X131777381Y-110470858D01*
X131781679Y-110468550D01*
X131793035Y-110460869D01*
X131810874Y-110448239D01*
X131834622Y-110431082D01*
X131863702Y-110409824D01*
X131897539Y-110384885D01*
X131935557Y-110356691D01*
X131977183Y-110325663D01*
X132021839Y-110292226D01*
X132068950Y-110256802D01*
X132091681Y-110239660D01*
X132402324Y-110005170D01*
X132753039Y-110136441D01*
X132808359Y-110157107D01*
X132861085Y-110176725D01*
X132910529Y-110195044D01*
X132956001Y-110211812D01*
X132996814Y-110226778D01*
X133032278Y-110239691D01*
X133061707Y-110250299D01*
X133084411Y-110258352D01*
X133099701Y-110263597D01*
X133106890Y-110265783D01*
X133107349Y-110265819D01*
X133108181Y-110260756D01*
X133108944Y-110247202D01*
X133109617Y-110226250D01*
X133110176Y-110198993D01*
X133110599Y-110166524D01*
X133110862Y-110129937D01*
X133110943Y-110093905D01*
X133110943Y-109923885D01*
X133090575Y-109915344D01*
X133082634Y-109912305D01*
X133066460Y-109906364D01*
X133042860Y-109897809D01*
X133012640Y-109886929D01*
X132976605Y-109874014D01*
X132935561Y-109859350D01*
X132890315Y-109843227D01*
X132841673Y-109825934D01*
X132790439Y-109807760D01*
X132766808Y-109799389D01*
X132715540Y-109781176D01*
X132667177Y-109763872D01*
X132622439Y-109747743D01*
X132582045Y-109733053D01*
X132546712Y-109720069D01*
X132517161Y-109709054D01*
X132494111Y-109700275D01*
X132478279Y-109693996D01*
X132470386Y-109690482D01*
X132469676Y-109689828D01*
X132475354Y-109688653D01*
X132489682Y-109685968D01*
X132511865Y-109681915D01*
X132541113Y-109676637D01*
X132576631Y-109670275D01*
X132617628Y-109662971D01*
X132663310Y-109654866D01*
X132712885Y-109646103D01*
X132765561Y-109636822D01*
X132792245Y-109632132D01*
X133108547Y-109576585D01*
X133109810Y-109417330D01*
X133110140Y-109374110D01*
X133110336Y-109339516D01*
X133110348Y-109312586D01*
X133110123Y-109292361D01*
X133109610Y-109277882D01*
X133108758Y-109268189D01*
X133107515Y-109262321D01*
X133105829Y-109259319D01*
X133103649Y-109258224D01*
X133101259Y-109258075D01*
X133095842Y-109258889D01*
X133081540Y-109261266D01*
X133058908Y-109265109D01*
X133028500Y-109270321D01*
X132990872Y-109276805D01*
X132946577Y-109284464D01*
X132896171Y-109293200D01*
X132840209Y-109302917D01*
X132779245Y-109313517D01*
X132713835Y-109324904D01*
X132644533Y-109336980D01*
X132571893Y-109349648D01*
X132496471Y-109362811D01*
X132418822Y-109376372D01*
X132339500Y-109390234D01*
X132259060Y-109404300D01*
X132178057Y-109418472D01*
X132097046Y-109432654D01*
X132016581Y-109446749D01*
X131937218Y-109460659D01*
X131859510Y-109474287D01*
X131784014Y-109487537D01*
X131711284Y-109500311D01*
X131641874Y-109512511D01*
X131576339Y-109524042D01*
X131515235Y-109534806D01*
X131459116Y-109544705D01*
X131408536Y-109553643D01*
X131364051Y-109561522D01*
X131326216Y-109568246D01*
X131295585Y-109573717D01*
X131272712Y-109577839D01*
X131258154Y-109580513D01*
X131252670Y-109581591D01*
X131241887Y-109584144D01*
X131241887Y-109741921D01*
X131241992Y-109779827D01*
X131241992Y-109779827D01*
G37*
X131241992Y-109779827D02*
X131242291Y-109814580D01*
X131242757Y-109845043D01*
X131243366Y-109870078D01*
X131244091Y-109888551D01*
X131244907Y-109899322D01*
X131245481Y-109901660D01*
X131250578Y-109901100D01*
X131264517Y-109898968D01*
X131286700Y-109895364D01*
X131316531Y-109890393D01*
X131353415Y-109884156D01*
X131396755Y-109876755D01*
X131445955Y-109868293D01*
X131500418Y-109858872D01*
X131559548Y-109848595D01*
X131622749Y-109837564D01*
X131689425Y-109825881D01*
X131758979Y-109813649D01*
X131788226Y-109808492D01*
X131858836Y-109796052D01*
X131926843Y-109784107D01*
X131991648Y-109772761D01*
X132052651Y-109762117D01*
X132109253Y-109752278D01*
X132160855Y-109743347D01*
X132206857Y-109735428D01*
X132246662Y-109728625D01*
X132279668Y-109723040D01*
X132305277Y-109718777D01*
X132322890Y-109715939D01*
X132331907Y-109714630D01*
X132332977Y-109714558D01*
X132330136Y-109717509D01*
X132320147Y-109725667D01*
X132303601Y-109738585D01*
X132281090Y-109755818D01*
X132253206Y-109776920D01*
X132220541Y-109801443D01*
X132183687Y-109828943D01*
X132143235Y-109858973D01*
X132099778Y-109891087D01*
X132057411Y-109922266D01*
X131776245Y-110128777D01*
X131774985Y-110298171D01*
X131774792Y-110337559D01*
X131774808Y-110373887D01*
X131775017Y-110406049D01*
X131775404Y-110432937D01*
X131775953Y-110453444D01*
X131776648Y-110466463D01*
X131777381Y-110470858D01*
X131781679Y-110468550D01*
X131793035Y-110460869D01*
X131810874Y-110448239D01*
X131834622Y-110431082D01*
X131863702Y-110409824D01*
X131897539Y-110384885D01*
X131935557Y-110356691D01*
X131977183Y-110325663D01*
X132021839Y-110292226D01*
X132068950Y-110256802D01*
X132091681Y-110239660D01*
X132402324Y-110005170D01*
X132753039Y-110136441D01*
X132808359Y-110157107D01*
X132861085Y-110176725D01*
X132910529Y-110195044D01*
X132956001Y-110211812D01*
X132996814Y-110226778D01*
X133032278Y-110239691D01*
X133061707Y-110250299D01*
X133084411Y-110258352D01*
X133099701Y-110263597D01*
X133106890Y-110265783D01*
X133107349Y-110265819D01*
X133108181Y-110260756D01*
X133108944Y-110247202D01*
X133109617Y-110226250D01*
X133110176Y-110198993D01*
X133110599Y-110166524D01*
X133110862Y-110129937D01*
X133110943Y-110093905D01*
X133110943Y-109923885D01*
X133090575Y-109915344D01*
X133082634Y-109912305D01*
X133066460Y-109906364D01*
X133042860Y-109897809D01*
X133012640Y-109886929D01*
X132976605Y-109874014D01*
X132935561Y-109859350D01*
X132890315Y-109843227D01*
X132841673Y-109825934D01*
X132790439Y-109807760D01*
X132766808Y-109799389D01*
X132715540Y-109781176D01*
X132667177Y-109763872D01*
X132622439Y-109747743D01*
X132582045Y-109733053D01*
X132546712Y-109720069D01*
X132517161Y-109709054D01*
X132494111Y-109700275D01*
X132478279Y-109693996D01*
X132470386Y-109690482D01*
X132469676Y-109689828D01*
X132475354Y-109688653D01*
X132489682Y-109685968D01*
X132511865Y-109681915D01*
X132541113Y-109676637D01*
X132576631Y-109670275D01*
X132617628Y-109662971D01*
X132663310Y-109654866D01*
X132712885Y-109646103D01*
X132765561Y-109636822D01*
X132792245Y-109632132D01*
X133108547Y-109576585D01*
X133109810Y-109417330D01*
X133110140Y-109374110D01*
X133110336Y-109339516D01*
X133110348Y-109312586D01*
X133110123Y-109292361D01*
X133109610Y-109277882D01*
X133108758Y-109268189D01*
X133107515Y-109262321D01*
X133105829Y-109259319D01*
X133103649Y-109258224D01*
X133101259Y-109258075D01*
X133095842Y-109258889D01*
X133081540Y-109261266D01*
X133058908Y-109265109D01*
X133028500Y-109270321D01*
X132990872Y-109276805D01*
X132946577Y-109284464D01*
X132896171Y-109293200D01*
X132840209Y-109302917D01*
X132779245Y-109313517D01*
X132713835Y-109324904D01*
X132644533Y-109336980D01*
X132571893Y-109349648D01*
X132496471Y-109362811D01*
X132418822Y-109376372D01*
X132339500Y-109390234D01*
X132259060Y-109404300D01*
X132178057Y-109418472D01*
X132097046Y-109432654D01*
X132016581Y-109446749D01*
X131937218Y-109460659D01*
X131859510Y-109474287D01*
X131784014Y-109487537D01*
X131711284Y-109500311D01*
X131641874Y-109512511D01*
X131576339Y-109524042D01*
X131515235Y-109534806D01*
X131459116Y-109544705D01*
X131408536Y-109553643D01*
X131364051Y-109561522D01*
X131326216Y-109568246D01*
X131295585Y-109573717D01*
X131272712Y-109577839D01*
X131258154Y-109580513D01*
X131252670Y-109581591D01*
X131241887Y-109584144D01*
X131241887Y-109741921D01*
X131241992Y-109779827D01*
G36*
X131294710Y-100904330D02*
X131295013Y-100939097D01*
X131295485Y-100969584D01*
X131296102Y-100994651D01*
X131296836Y-101013158D01*
X131297663Y-101023965D01*
X131298241Y-101026323D01*
X131303433Y-101025963D01*
X131316709Y-101024170D01*
X131336712Y-101021171D01*
X131362087Y-101017192D01*
X131391476Y-101012460D01*
X131423524Y-101007201D01*
X131456873Y-101001642D01*
X131490169Y-100996008D01*
X131522053Y-100990527D01*
X131551171Y-100985424D01*
X131576165Y-100980926D01*
X131595680Y-100977260D01*
X131608358Y-100974652D01*
X131609708Y-100974337D01*
X131620491Y-100971741D01*
X131620491Y-100813965D01*
X131620385Y-100776059D01*
X131620087Y-100741307D01*
X131619620Y-100710845D01*
X131619012Y-100685810D01*
X131618287Y-100667339D01*
X131617470Y-100656568D01*
X131616896Y-100654231D01*
X131611615Y-100654625D01*
X131598110Y-100656504D01*
X131577592Y-100659665D01*
X131551270Y-100663904D01*
X131520355Y-100669016D01*
X131486059Y-100674798D01*
X131449592Y-100681045D01*
X131412163Y-100687555D01*
X131374985Y-100694124D01*
X131339267Y-100700546D01*
X131310179Y-100705883D01*
X131294604Y-100708773D01*
X131294604Y-100866424D01*
X131294710Y-100904330D01*
X131294710Y-100904330D01*
G37*
X131294710Y-100904330D02*
X131295013Y-100939097D01*
X131295485Y-100969584D01*
X131296102Y-100994651D01*
X131296836Y-101013158D01*
X131297663Y-101023965D01*
X131298241Y-101026323D01*
X131303433Y-101025963D01*
X131316709Y-101024170D01*
X131336712Y-101021171D01*
X131362087Y-101017192D01*
X131391476Y-101012460D01*
X131423524Y-101007201D01*
X131456873Y-101001642D01*
X131490169Y-100996008D01*
X131522053Y-100990527D01*
X131551171Y-100985424D01*
X131576165Y-100980926D01*
X131595680Y-100977260D01*
X131608358Y-100974652D01*
X131609708Y-100974337D01*
X131620491Y-100971741D01*
X131620491Y-100813965D01*
X131620385Y-100776059D01*
X131620087Y-100741307D01*
X131619620Y-100710845D01*
X131619012Y-100685810D01*
X131618287Y-100667339D01*
X131617470Y-100656568D01*
X131616896Y-100654231D01*
X131611615Y-100654625D01*
X131598110Y-100656504D01*
X131577592Y-100659665D01*
X131551270Y-100663904D01*
X131520355Y-100669016D01*
X131486059Y-100674798D01*
X131449592Y-100681045D01*
X131412163Y-100687555D01*
X131374985Y-100694124D01*
X131339267Y-100700546D01*
X131310179Y-100705883D01*
X131294604Y-100708773D01*
X131294604Y-100866424D01*
X131294710Y-100904330D01*
M02*
