G04 #@! TF.FileFunction,Copper,L2,Bot,Signal*
%FSLAX46Y46*%
G04 Gerber Fmt 4.6, Leading zero omitted, Abs format (unit mm)*
G04 Created by KiCad (PCBNEW (2015-11-03 BZR 6296)-product) date Tuesday, November 10, 2015 'PMt' 11:19:58 PM*
%MOMM*%
G01*
G04 APERTURE LIST*
%ADD10C,0.100000*%
%ADD11C,0.010000*%
G04 APERTURE END LIST*
D10*
D11*
G36*
X131375069Y-112859423D02*
X131375572Y-112891094D01*
X131376621Y-112918725D01*
X131378340Y-112943824D01*
X131380851Y-112967893D01*
X131384276Y-112992439D01*
X131388740Y-113018967D01*
X131392815Y-113040931D01*
X131405578Y-113099786D01*
X131421645Y-113160883D01*
X131440182Y-113221336D01*
X131460354Y-113278260D01*
X131464777Y-113289639D01*
X131481970Y-113332817D01*
X131499108Y-113375192D01*
X131516370Y-113417150D01*
X131533937Y-113459080D01*
X131551989Y-113501369D01*
X131570707Y-113544404D01*
X131590271Y-113588573D01*
X131610862Y-113634265D01*
X131632659Y-113681866D01*
X131655844Y-113731764D01*
X131680597Y-113784347D01*
X131707099Y-113840003D01*
X131735528Y-113899118D01*
X131766067Y-113962082D01*
X131798896Y-114029280D01*
X131834194Y-114101102D01*
X131872143Y-114177935D01*
X131912923Y-114260166D01*
X131956714Y-114348183D01*
X131968037Y-114370903D01*
X132006981Y-114449183D01*
X132042880Y-114521702D01*
X132075961Y-114588949D01*
X132106448Y-114651415D01*
X132134567Y-114709589D01*
X132160545Y-114763962D01*
X132184606Y-114815024D01*
X132206978Y-114863265D01*
X132227885Y-114909175D01*
X132247553Y-114953244D01*
X132266208Y-114995962D01*
X132284076Y-115037819D01*
X132301382Y-115079306D01*
X132318353Y-115120912D01*
X132335213Y-115163128D01*
X132348281Y-115196403D01*
X132357518Y-115219926D01*
X132366037Y-115241319D01*
X132373473Y-115259688D01*
X132379460Y-115274143D01*
X132383635Y-115283791D01*
X132385624Y-115287732D01*
X132389719Y-115287199D01*
X132397737Y-115281987D01*
X132408968Y-115272739D01*
X132422704Y-115260100D01*
X132438236Y-115244712D01*
X132454855Y-115227219D01*
X132466657Y-115214178D01*
X132522758Y-115146199D01*
X132576253Y-115071764D01*
X132627086Y-114990994D01*
X132675200Y-114904011D01*
X132720538Y-114810938D01*
X132763043Y-114711897D01*
X132802658Y-114607009D01*
X132839327Y-114496398D01*
X132872992Y-114380185D01*
X132895296Y-114293292D01*
X132918538Y-114192697D01*
X132937867Y-114097709D01*
X132953303Y-114008081D01*
X132964868Y-113923561D01*
X132972580Y-113843901D01*
X132976462Y-113768851D01*
X132976535Y-113698163D01*
X132972818Y-113631587D01*
X132965332Y-113568874D01*
X132958660Y-113531082D01*
X132943748Y-113470450D01*
X132924367Y-113415094D01*
X132900590Y-113365086D01*
X132872491Y-113320499D01*
X132840142Y-113281404D01*
X132803617Y-113247873D01*
X132762988Y-113219979D01*
X132718329Y-113197795D01*
X132669713Y-113181392D01*
X132617214Y-113170842D01*
X132590940Y-113167903D01*
X132579833Y-113167085D01*
X132571698Y-113166149D01*
X132565994Y-113164111D01*
X132562178Y-113159991D01*
X132559710Y-113152806D01*
X132558046Y-113141575D01*
X132556646Y-113125315D01*
X132554967Y-113103045D01*
X132554937Y-113102667D01*
X132552710Y-113075115D01*
X132550816Y-113053944D01*
X132549166Y-113038491D01*
X132547673Y-113028094D01*
X132546249Y-113022090D01*
X132544807Y-113019817D01*
X132543974Y-113019918D01*
X132542665Y-113017973D01*
X132542440Y-113011139D01*
X132543114Y-113001468D01*
X132544497Y-112991010D01*
X132546403Y-112981817D01*
X132547859Y-112977431D01*
X132549376Y-112971923D01*
X132551836Y-112960616D01*
X132555008Y-112944669D01*
X132558665Y-112925241D01*
X132562578Y-112903489D01*
X132563529Y-112898056D01*
X132577036Y-112816570D01*
X132588409Y-112739154D01*
X132597987Y-112663266D01*
X132606109Y-112586367D01*
X132608294Y-112562917D01*
X132609888Y-112540487D01*
X132611121Y-112513281D01*
X132611993Y-112482652D01*
X132612504Y-112449951D01*
X132612652Y-112416529D01*
X132612438Y-112383738D01*
X132611861Y-112352930D01*
X132610920Y-112325455D01*
X132609615Y-112302666D01*
X132608402Y-112289514D01*
X132598747Y-112216686D01*
X132586860Y-112145829D01*
X132572349Y-112075068D01*
X132554822Y-112002527D01*
X132533890Y-111926331D01*
X132529368Y-111910857D01*
X132522575Y-111888243D01*
X132517222Y-111871577D01*
X132512959Y-111859982D01*
X132509438Y-111852578D01*
X132506309Y-111848490D01*
X132503968Y-111847057D01*
X132498855Y-111846091D01*
X132487561Y-111844509D01*
X132470925Y-111842410D01*
X132449783Y-111839895D01*
X132424975Y-111837063D01*
X132397338Y-111834013D01*
X132368392Y-111830918D01*
X132334399Y-111827321D01*
X132306757Y-111824435D01*
X132284791Y-111822312D01*
X132267830Y-111821001D01*
X132255198Y-111820553D01*
X132246223Y-111821018D01*
X132240230Y-111822447D01*
X132236547Y-111824890D01*
X132234499Y-111828397D01*
X132233413Y-111833018D01*
X132232615Y-111838805D01*
X132232283Y-111841091D01*
X132230254Y-111852337D01*
X132226797Y-111869389D01*
X132222151Y-111891193D01*
X132216555Y-111916700D01*
X132210249Y-111944858D01*
X132203471Y-111974615D01*
X132196461Y-112004921D01*
X132189457Y-112034725D01*
X132182700Y-112062975D01*
X132176427Y-112088620D01*
X132171593Y-112107833D01*
X132144234Y-112210462D01*
X132116397Y-112306453D01*
X132087945Y-112396213D01*
X132058742Y-112480153D01*
X132028650Y-112558680D01*
X131997534Y-112632203D01*
X131992213Y-112644056D01*
X131957760Y-112714730D01*
X131918022Y-112786700D01*
X131874092Y-112858246D01*
X131827066Y-112927648D01*
X131778037Y-112993190D01*
X131741786Y-113037403D01*
X131726423Y-113055065D01*
X131710012Y-113073398D01*
X131693244Y-113091684D01*
X131676810Y-113109206D01*
X131661401Y-113125249D01*
X131647709Y-113139095D01*
X131636424Y-113150027D01*
X131628238Y-113157329D01*
X131623841Y-113160283D01*
X131623368Y-113160219D01*
X131620119Y-113154114D01*
X131615797Y-113142137D01*
X131610663Y-113125347D01*
X131604980Y-113104801D01*
X131599011Y-113081556D01*
X131593019Y-113056670D01*
X131587265Y-113031199D01*
X131582013Y-113006201D01*
X131577526Y-112982732D01*
X131574065Y-112961852D01*
X131574021Y-112961556D01*
X131567477Y-112906513D01*
X131564423Y-112852179D01*
X131564893Y-112797039D01*
X131568923Y-112739581D01*
X131576548Y-112678289D01*
X131581261Y-112648461D01*
X131599850Y-112555204D01*
X131623707Y-112465771D01*
X131652725Y-112380377D01*
X131686797Y-112299234D01*
X131725818Y-112222557D01*
X131769681Y-112150558D01*
X131818280Y-112083451D01*
X131871509Y-112021449D01*
X131914915Y-111977949D01*
X131963556Y-111935574D01*
X132014333Y-111897536D01*
X132066230Y-111864493D01*
X132118230Y-111837105D01*
X132159355Y-111819656D01*
X132171769Y-111814680D01*
X132181937Y-111810056D01*
X132187652Y-111806789D01*
X132190958Y-111803532D01*
X132198670Y-111795631D01*
X132210334Y-111783561D01*
X132225496Y-111767793D01*
X132243704Y-111748801D01*
X132264504Y-111727057D01*
X132287442Y-111703034D01*
X132312065Y-111677205D01*
X132330309Y-111658042D01*
X132355737Y-111631341D01*
X132379712Y-111606208D01*
X132401794Y-111583104D01*
X132421540Y-111562486D01*
X132438513Y-111544813D01*
X132452270Y-111530545D01*
X132462371Y-111520139D01*
X132468376Y-111514055D01*
X132469922Y-111512607D01*
X132471699Y-111515572D01*
X132476052Y-111524384D01*
X132482701Y-111538436D01*
X132491368Y-111557123D01*
X132501773Y-111579836D01*
X132513637Y-111605972D01*
X132526683Y-111634923D01*
X132540630Y-111666083D01*
X132543923Y-111673468D01*
X132615942Y-111835126D01*
X132676214Y-111851981D01*
X132704199Y-111860094D01*
X132736534Y-111869941D01*
X132771347Y-111880916D01*
X132806762Y-111892411D01*
X132840907Y-111903817D01*
X132871907Y-111914527D01*
X132896757Y-111923511D01*
X132910443Y-111928959D01*
X132918917Y-111933479D01*
X132923733Y-111938136D01*
X132926392Y-111943830D01*
X132927558Y-111951132D01*
X132928496Y-111964453D01*
X132929209Y-111982760D01*
X132929697Y-112005020D01*
X132929965Y-112030201D01*
X132930013Y-112057269D01*
X132929845Y-112085192D01*
X132929461Y-112112937D01*
X132928866Y-112139472D01*
X132928060Y-112163763D01*
X132927046Y-112184777D01*
X132925841Y-112201319D01*
X132908212Y-112364261D01*
X132894838Y-112464139D01*
X132888400Y-112506859D01*
X132882100Y-112543678D01*
X132875624Y-112575734D01*
X132868661Y-112604167D01*
X132860899Y-112630116D01*
X132852025Y-112654721D01*
X132841727Y-112679122D01*
X132829694Y-112704457D01*
X132828147Y-112707556D01*
X132796813Y-112763115D01*
X132759211Y-112817664D01*
X132716128Y-112870233D01*
X132668353Y-112919852D01*
X132623042Y-112960314D01*
X132601319Y-112978347D01*
X132626569Y-112980748D01*
X132673991Y-112987775D01*
X132723168Y-112999681D01*
X132772224Y-113015802D01*
X132819282Y-113035477D01*
X132862463Y-113058042D01*
X132884289Y-113071719D01*
X132934006Y-113109340D01*
X132979003Y-113152141D01*
X133019251Y-113200037D01*
X133054723Y-113252937D01*
X133085389Y-113310757D01*
X133111223Y-113373406D01*
X133132197Y-113440799D01*
X133148282Y-113512848D01*
X133159451Y-113589465D01*
X133165676Y-113670562D01*
X133166929Y-113756053D01*
X133163182Y-113845848D01*
X133156139Y-113924639D01*
X133146822Y-113997782D01*
X133134509Y-114075875D01*
X133119481Y-114157621D01*
X133102024Y-114241724D01*
X133082418Y-114326887D01*
X133060949Y-114411813D01*
X133037899Y-114495205D01*
X133014745Y-114571986D01*
X132982112Y-114669460D01*
X132946670Y-114763786D01*
X132908629Y-114854613D01*
X132868203Y-114941592D01*
X132825600Y-115024372D01*
X132781034Y-115102604D01*
X132734714Y-115175937D01*
X132686853Y-115244021D01*
X132637661Y-115306506D01*
X132587350Y-115363041D01*
X132536131Y-115413278D01*
X132484215Y-115456865D01*
X132478103Y-115461516D01*
X132465676Y-115471132D01*
X132458104Y-115477892D01*
X132454422Y-115482929D01*
X132453664Y-115487377D01*
X132454079Y-115489726D01*
X132458388Y-115509163D01*
X132463070Y-115534240D01*
X132467922Y-115563568D01*
X132472737Y-115595757D01*
X132477313Y-115629415D01*
X132481443Y-115663152D01*
X132484923Y-115695578D01*
X132485932Y-115706167D01*
X132488462Y-115737905D01*
X132490184Y-115769888D01*
X132491067Y-115802791D01*
X132491080Y-115837290D01*
X132490194Y-115874060D01*
X132488377Y-115913775D01*
X132485599Y-115957113D01*
X132481829Y-116004746D01*
X132477037Y-116057352D01*
X132471192Y-116115605D01*
X132464600Y-116177125D01*
X132454237Y-116266165D01*
X132442018Y-116361639D01*
X132428007Y-116463193D01*
X132412269Y-116570469D01*
X132394868Y-116683115D01*
X132375867Y-116800774D01*
X132355332Y-116923091D01*
X132333326Y-117049712D01*
X132309914Y-117180280D01*
X132285160Y-117314441D01*
X132259128Y-117451840D01*
X132231882Y-117592121D01*
X132203486Y-117734930D01*
X132174006Y-117879911D01*
X132143505Y-118026709D01*
X132112046Y-118174969D01*
X132079696Y-118324335D01*
X132060408Y-118411972D01*
X132050554Y-118456466D01*
X132042267Y-118494684D01*
X132035680Y-118527258D01*
X132030928Y-118554823D01*
X132028146Y-118578011D01*
X132027468Y-118597455D01*
X132029028Y-118613788D01*
X132032962Y-118627642D01*
X132039404Y-118639652D01*
X132048488Y-118650449D01*
X132060348Y-118660667D01*
X132075120Y-118670938D01*
X132092938Y-118681896D01*
X132113936Y-118694174D01*
X132121295Y-118698453D01*
X132187072Y-118735722D01*
X132252322Y-118770654D01*
X132316214Y-118802855D01*
X132377915Y-118831929D01*
X132436594Y-118857481D01*
X132491419Y-118879117D01*
X132530859Y-118892982D01*
X132583272Y-118908442D01*
X132632184Y-118919158D01*
X132677367Y-118925158D01*
X132718594Y-118926469D01*
X132755635Y-118923119D01*
X132788262Y-118915134D01*
X132816247Y-118902543D01*
X132839362Y-118885372D01*
X132857378Y-118863649D01*
X132863395Y-118853124D01*
X132868154Y-118842991D01*
X132872524Y-118831941D01*
X132876533Y-118819615D01*
X132880209Y-118805657D01*
X132883581Y-118789709D01*
X132886677Y-118771413D01*
X132889524Y-118750414D01*
X132892152Y-118726352D01*
X132894587Y-118698872D01*
X132896859Y-118667615D01*
X132898995Y-118632225D01*
X132901023Y-118592343D01*
X132902973Y-118547613D01*
X132904871Y-118497677D01*
X132906746Y-118442178D01*
X132908626Y-118380759D01*
X132910540Y-118313062D01*
X132912515Y-118238731D01*
X132912869Y-118225000D01*
X132916207Y-118102923D01*
X132919786Y-117987344D01*
X132923639Y-117877707D01*
X132927794Y-117773456D01*
X132932284Y-117674037D01*
X132937138Y-117578895D01*
X132942388Y-117487474D01*
X132948064Y-117399219D01*
X132954196Y-117313574D01*
X132960816Y-117229985D01*
X132967954Y-117147897D01*
X132975640Y-117066754D01*
X132978345Y-117039667D01*
X132992177Y-116910967D01*
X133007273Y-116786502D01*
X133023805Y-116665523D01*
X133041941Y-116547281D01*
X133061851Y-116431028D01*
X133083705Y-116316016D01*
X133107671Y-116201496D01*
X133133920Y-116086721D01*
X133162620Y-115970941D01*
X133193942Y-115853408D01*
X133228054Y-115733373D01*
X133265127Y-115610090D01*
X133305329Y-115482808D01*
X133348830Y-115350780D01*
X133384551Y-115245792D01*
X133402059Y-115195932D01*
X133419485Y-115148400D01*
X133437150Y-115102527D01*
X133455374Y-115057643D01*
X133474476Y-115013080D01*
X133494779Y-114968167D01*
X133516601Y-114922235D01*
X133540263Y-114874615D01*
X133566085Y-114824637D01*
X133594388Y-114771633D01*
X133625492Y-114714932D01*
X133659717Y-114653865D01*
X133697384Y-114587763D01*
X133709493Y-114566694D01*
X133743223Y-114508073D01*
X133773651Y-114455102D01*
X133801025Y-114407334D01*
X133825591Y-114364321D01*
X133847596Y-114325616D01*
X133867287Y-114290771D01*
X133884910Y-114259338D01*
X133900714Y-114230870D01*
X133914944Y-114204919D01*
X133927848Y-114181037D01*
X133939672Y-114158777D01*
X133950664Y-114137692D01*
X133961070Y-114117332D01*
X133971138Y-114097252D01*
X133981113Y-114077003D01*
X133991244Y-114056138D01*
X133992128Y-114054306D01*
X134023565Y-113986867D01*
X134050819Y-113923250D01*
X134074282Y-113862082D01*
X134094345Y-113801992D01*
X134111402Y-113741609D01*
X134125844Y-113679560D01*
X134138064Y-113614474D01*
X134148454Y-113544978D01*
X134156279Y-113480139D01*
X134160039Y-113439152D01*
X134162999Y-113393206D01*
X134165105Y-113344358D01*
X134166301Y-113294663D01*
X134166532Y-113246179D01*
X134165744Y-113200962D01*
X134164508Y-113171458D01*
X134157865Y-113091912D01*
X134146743Y-113011456D01*
X134131443Y-112931278D01*
X134112263Y-112852567D01*
X134089501Y-112776511D01*
X134063456Y-112704298D01*
X134034427Y-112637116D01*
X134025625Y-112619008D01*
X133981372Y-112538028D01*
X133930408Y-112458806D01*
X133872893Y-112381482D01*
X133808983Y-112306195D01*
X133738836Y-112233086D01*
X133662610Y-112162295D01*
X133580463Y-112093960D01*
X133492552Y-112028223D01*
X133399036Y-111965222D01*
X133300070Y-111905097D01*
X133195814Y-111847989D01*
X133105201Y-111802897D01*
X133065287Y-111784559D01*
X133023922Y-111766937D01*
X132979814Y-111749526D01*
X132931672Y-111731819D01*
X132878204Y-111713310D01*
X132865250Y-111708965D01*
X132841804Y-111701296D01*
X132816214Y-111693193D01*
X132789673Y-111685008D01*
X132763373Y-111677093D01*
X132738508Y-111669801D01*
X132716269Y-111663485D01*
X132697848Y-111658496D01*
X132684440Y-111655187D01*
X132680558Y-111654378D01*
X132668996Y-111652209D01*
X132586428Y-111447595D01*
X132571883Y-111411615D01*
X132558085Y-111377607D01*
X132545266Y-111346132D01*
X132533654Y-111317748D01*
X132523480Y-111293014D01*
X132514974Y-111272490D01*
X132508367Y-111256734D01*
X132503889Y-111246307D01*
X132501769Y-111241768D01*
X132501656Y-111241619D01*
X132499006Y-111243960D01*
X132492050Y-111251162D01*
X132481163Y-111262812D01*
X132466724Y-111278495D01*
X132449108Y-111297797D01*
X132428694Y-111320304D01*
X132405859Y-111345601D01*
X132380979Y-111373274D01*
X132354432Y-111402909D01*
X132331769Y-111428286D01*
X132299640Y-111464302D01*
X132271846Y-111495416D01*
X132248033Y-111521998D01*
X132227848Y-111544415D01*
X132210935Y-111563038D01*
X132196942Y-111578235D01*
X132185513Y-111590376D01*
X132176294Y-111599830D01*
X132168931Y-111606965D01*
X132163071Y-111612152D01*
X132158358Y-111615759D01*
X132154439Y-111618156D01*
X132150959Y-111619712D01*
X132147565Y-111620795D01*
X132146897Y-111620979D01*
X132126348Y-111627388D01*
X132101398Y-111636490D01*
X132073816Y-111647560D01*
X132045375Y-111659874D01*
X132017843Y-111672705D01*
X132004554Y-111679300D01*
X131946345Y-111711749D01*
X131890220Y-111748977D01*
X131835249Y-111791666D01*
X131780502Y-111840499D01*
X131766849Y-111853642D01*
X131713310Y-111909151D01*
X131664827Y-111966431D01*
X131620531Y-112026685D01*
X131579557Y-112091117D01*
X131541037Y-112160931D01*
X131530420Y-112181917D01*
X131498548Y-112249971D01*
X131470713Y-112317985D01*
X131446541Y-112387187D01*
X131425659Y-112458807D01*
X131407692Y-112534072D01*
X131392268Y-112614212D01*
X131384752Y-112660680D01*
X131381832Y-112680516D01*
X131379566Y-112697844D01*
X131377870Y-112714061D01*
X131376659Y-112730562D01*
X131375848Y-112748742D01*
X131375355Y-112769998D01*
X131375094Y-112795724D01*
X131374991Y-112822208D01*
X131375069Y-112859423D01*
X131375069Y-112859423D01*
G37*
X131375069Y-112859423D02*
X131375572Y-112891094D01*
X131376621Y-112918725D01*
X131378340Y-112943824D01*
X131380851Y-112967893D01*
X131384276Y-112992439D01*
X131388740Y-113018967D01*
X131392815Y-113040931D01*
X131405578Y-113099786D01*
X131421645Y-113160883D01*
X131440182Y-113221336D01*
X131460354Y-113278260D01*
X131464777Y-113289639D01*
X131481970Y-113332817D01*
X131499108Y-113375192D01*
X131516370Y-113417150D01*
X131533937Y-113459080D01*
X131551989Y-113501369D01*
X131570707Y-113544404D01*
X131590271Y-113588573D01*
X131610862Y-113634265D01*
X131632659Y-113681866D01*
X131655844Y-113731764D01*
X131680597Y-113784347D01*
X131707099Y-113840003D01*
X131735528Y-113899118D01*
X131766067Y-113962082D01*
X131798896Y-114029280D01*
X131834194Y-114101102D01*
X131872143Y-114177935D01*
X131912923Y-114260166D01*
X131956714Y-114348183D01*
X131968037Y-114370903D01*
X132006981Y-114449183D01*
X132042880Y-114521702D01*
X132075961Y-114588949D01*
X132106448Y-114651415D01*
X132134567Y-114709589D01*
X132160545Y-114763962D01*
X132184606Y-114815024D01*
X132206978Y-114863265D01*
X132227885Y-114909175D01*
X132247553Y-114953244D01*
X132266208Y-114995962D01*
X132284076Y-115037819D01*
X132301382Y-115079306D01*
X132318353Y-115120912D01*
X132335213Y-115163128D01*
X132348281Y-115196403D01*
X132357518Y-115219926D01*
X132366037Y-115241319D01*
X132373473Y-115259688D01*
X132379460Y-115274143D01*
X132383635Y-115283791D01*
X132385624Y-115287732D01*
X132389719Y-115287199D01*
X132397737Y-115281987D01*
X132408968Y-115272739D01*
X132422704Y-115260100D01*
X132438236Y-115244712D01*
X132454855Y-115227219D01*
X132466657Y-115214178D01*
X132522758Y-115146199D01*
X132576253Y-115071764D01*
X132627086Y-114990994D01*
X132675200Y-114904011D01*
X132720538Y-114810938D01*
X132763043Y-114711897D01*
X132802658Y-114607009D01*
X132839327Y-114496398D01*
X132872992Y-114380185D01*
X132895296Y-114293292D01*
X132918538Y-114192697D01*
X132937867Y-114097709D01*
X132953303Y-114008081D01*
X132964868Y-113923561D01*
X132972580Y-113843901D01*
X132976462Y-113768851D01*
X132976535Y-113698163D01*
X132972818Y-113631587D01*
X132965332Y-113568874D01*
X132958660Y-113531082D01*
X132943748Y-113470450D01*
X132924367Y-113415094D01*
X132900590Y-113365086D01*
X132872491Y-113320499D01*
X132840142Y-113281404D01*
X132803617Y-113247873D01*
X132762988Y-113219979D01*
X132718329Y-113197795D01*
X132669713Y-113181392D01*
X132617214Y-113170842D01*
X132590940Y-113167903D01*
X132579833Y-113167085D01*
X132571698Y-113166149D01*
X132565994Y-113164111D01*
X132562178Y-113159991D01*
X132559710Y-113152806D01*
X132558046Y-113141575D01*
X132556646Y-113125315D01*
X132554967Y-113103045D01*
X132554937Y-113102667D01*
X132552710Y-113075115D01*
X132550816Y-113053944D01*
X132549166Y-113038491D01*
X132547673Y-113028094D01*
X132546249Y-113022090D01*
X132544807Y-113019817D01*
X132543974Y-113019918D01*
X132542665Y-113017973D01*
X132542440Y-113011139D01*
X132543114Y-113001468D01*
X132544497Y-112991010D01*
X132546403Y-112981817D01*
X132547859Y-112977431D01*
X132549376Y-112971923D01*
X132551836Y-112960616D01*
X132555008Y-112944669D01*
X132558665Y-112925241D01*
X132562578Y-112903489D01*
X132563529Y-112898056D01*
X132577036Y-112816570D01*
X132588409Y-112739154D01*
X132597987Y-112663266D01*
X132606109Y-112586367D01*
X132608294Y-112562917D01*
X132609888Y-112540487D01*
X132611121Y-112513281D01*
X132611993Y-112482652D01*
X132612504Y-112449951D01*
X132612652Y-112416529D01*
X132612438Y-112383738D01*
X132611861Y-112352930D01*
X132610920Y-112325455D01*
X132609615Y-112302666D01*
X132608402Y-112289514D01*
X132598747Y-112216686D01*
X132586860Y-112145829D01*
X132572349Y-112075068D01*
X132554822Y-112002527D01*
X132533890Y-111926331D01*
X132529368Y-111910857D01*
X132522575Y-111888243D01*
X132517222Y-111871577D01*
X132512959Y-111859982D01*
X132509438Y-111852578D01*
X132506309Y-111848490D01*
X132503968Y-111847057D01*
X132498855Y-111846091D01*
X132487561Y-111844509D01*
X132470925Y-111842410D01*
X132449783Y-111839895D01*
X132424975Y-111837063D01*
X132397338Y-111834013D01*
X132368392Y-111830918D01*
X132334399Y-111827321D01*
X132306757Y-111824435D01*
X132284791Y-111822312D01*
X132267830Y-111821001D01*
X132255198Y-111820553D01*
X132246223Y-111821018D01*
X132240230Y-111822447D01*
X132236547Y-111824890D01*
X132234499Y-111828397D01*
X132233413Y-111833018D01*
X132232615Y-111838805D01*
X132232283Y-111841091D01*
X132230254Y-111852337D01*
X132226797Y-111869389D01*
X132222151Y-111891193D01*
X132216555Y-111916700D01*
X132210249Y-111944858D01*
X132203471Y-111974615D01*
X132196461Y-112004921D01*
X132189457Y-112034725D01*
X132182700Y-112062975D01*
X132176427Y-112088620D01*
X132171593Y-112107833D01*
X132144234Y-112210462D01*
X132116397Y-112306453D01*
X132087945Y-112396213D01*
X132058742Y-112480153D01*
X132028650Y-112558680D01*
X131997534Y-112632203D01*
X131992213Y-112644056D01*
X131957760Y-112714730D01*
X131918022Y-112786700D01*
X131874092Y-112858246D01*
X131827066Y-112927648D01*
X131778037Y-112993190D01*
X131741786Y-113037403D01*
X131726423Y-113055065D01*
X131710012Y-113073398D01*
X131693244Y-113091684D01*
X131676810Y-113109206D01*
X131661401Y-113125249D01*
X131647709Y-113139095D01*
X131636424Y-113150027D01*
X131628238Y-113157329D01*
X131623841Y-113160283D01*
X131623368Y-113160219D01*
X131620119Y-113154114D01*
X131615797Y-113142137D01*
X131610663Y-113125347D01*
X131604980Y-113104801D01*
X131599011Y-113081556D01*
X131593019Y-113056670D01*
X131587265Y-113031199D01*
X131582013Y-113006201D01*
X131577526Y-112982732D01*
X131574065Y-112961852D01*
X131574021Y-112961556D01*
X131567477Y-112906513D01*
X131564423Y-112852179D01*
X131564893Y-112797039D01*
X131568923Y-112739581D01*
X131576548Y-112678289D01*
X131581261Y-112648461D01*
X131599850Y-112555204D01*
X131623707Y-112465771D01*
X131652725Y-112380377D01*
X131686797Y-112299234D01*
X131725818Y-112222557D01*
X131769681Y-112150558D01*
X131818280Y-112083451D01*
X131871509Y-112021449D01*
X131914915Y-111977949D01*
X131963556Y-111935574D01*
X132014333Y-111897536D01*
X132066230Y-111864493D01*
X132118230Y-111837105D01*
X132159355Y-111819656D01*
X132171769Y-111814680D01*
X132181937Y-111810056D01*
X132187652Y-111806789D01*
X132190958Y-111803532D01*
X132198670Y-111795631D01*
X132210334Y-111783561D01*
X132225496Y-111767793D01*
X132243704Y-111748801D01*
X132264504Y-111727057D01*
X132287442Y-111703034D01*
X132312065Y-111677205D01*
X132330309Y-111658042D01*
X132355737Y-111631341D01*
X132379712Y-111606208D01*
X132401794Y-111583104D01*
X132421540Y-111562486D01*
X132438513Y-111544813D01*
X132452270Y-111530545D01*
X132462371Y-111520139D01*
X132468376Y-111514055D01*
X132469922Y-111512607D01*
X132471699Y-111515572D01*
X132476052Y-111524384D01*
X132482701Y-111538436D01*
X132491368Y-111557123D01*
X132501773Y-111579836D01*
X132513637Y-111605972D01*
X132526683Y-111634923D01*
X132540630Y-111666083D01*
X132543923Y-111673468D01*
X132615942Y-111835126D01*
X132676214Y-111851981D01*
X132704199Y-111860094D01*
X132736534Y-111869941D01*
X132771347Y-111880916D01*
X132806762Y-111892411D01*
X132840907Y-111903817D01*
X132871907Y-111914527D01*
X132896757Y-111923511D01*
X132910443Y-111928959D01*
X132918917Y-111933479D01*
X132923733Y-111938136D01*
X132926392Y-111943830D01*
X132927558Y-111951132D01*
X132928496Y-111964453D01*
X132929209Y-111982760D01*
X132929697Y-112005020D01*
X132929965Y-112030201D01*
X132930013Y-112057269D01*
X132929845Y-112085192D01*
X132929461Y-112112937D01*
X132928866Y-112139472D01*
X132928060Y-112163763D01*
X132927046Y-112184777D01*
X132925841Y-112201319D01*
X132908212Y-112364261D01*
X132894838Y-112464139D01*
X132888400Y-112506859D01*
X132882100Y-112543678D01*
X132875624Y-112575734D01*
X132868661Y-112604167D01*
X132860899Y-112630116D01*
X132852025Y-112654721D01*
X132841727Y-112679122D01*
X132829694Y-112704457D01*
X132828147Y-112707556D01*
X132796813Y-112763115D01*
X132759211Y-112817664D01*
X132716128Y-112870233D01*
X132668353Y-112919852D01*
X132623042Y-112960314D01*
X132601319Y-112978347D01*
X132626569Y-112980748D01*
X132673991Y-112987775D01*
X132723168Y-112999681D01*
X132772224Y-113015802D01*
X132819282Y-113035477D01*
X132862463Y-113058042D01*
X132884289Y-113071719D01*
X132934006Y-113109340D01*
X132979003Y-113152141D01*
X133019251Y-113200037D01*
X133054723Y-113252937D01*
X133085389Y-113310757D01*
X133111223Y-113373406D01*
X133132197Y-113440799D01*
X133148282Y-113512848D01*
X133159451Y-113589465D01*
X133165676Y-113670562D01*
X133166929Y-113756053D01*
X133163182Y-113845848D01*
X133156139Y-113924639D01*
X133146822Y-113997782D01*
X133134509Y-114075875D01*
X133119481Y-114157621D01*
X133102024Y-114241724D01*
X133082418Y-114326887D01*
X133060949Y-114411813D01*
X133037899Y-114495205D01*
X133014745Y-114571986D01*
X132982112Y-114669460D01*
X132946670Y-114763786D01*
X132908629Y-114854613D01*
X132868203Y-114941592D01*
X132825600Y-115024372D01*
X132781034Y-115102604D01*
X132734714Y-115175937D01*
X132686853Y-115244021D01*
X132637661Y-115306506D01*
X132587350Y-115363041D01*
X132536131Y-115413278D01*
X132484215Y-115456865D01*
X132478103Y-115461516D01*
X132465676Y-115471132D01*
X132458104Y-115477892D01*
X132454422Y-115482929D01*
X132453664Y-115487377D01*
X132454079Y-115489726D01*
X132458388Y-115509163D01*
X132463070Y-115534240D01*
X132467922Y-115563568D01*
X132472737Y-115595757D01*
X132477313Y-115629415D01*
X132481443Y-115663152D01*
X132484923Y-115695578D01*
X132485932Y-115706167D01*
X132488462Y-115737905D01*
X132490184Y-115769888D01*
X132491067Y-115802791D01*
X132491080Y-115837290D01*
X132490194Y-115874060D01*
X132488377Y-115913775D01*
X132485599Y-115957113D01*
X132481829Y-116004746D01*
X132477037Y-116057352D01*
X132471192Y-116115605D01*
X132464600Y-116177125D01*
X132454237Y-116266165D01*
X132442018Y-116361639D01*
X132428007Y-116463193D01*
X132412269Y-116570469D01*
X132394868Y-116683115D01*
X132375867Y-116800774D01*
X132355332Y-116923091D01*
X132333326Y-117049712D01*
X132309914Y-117180280D01*
X132285160Y-117314441D01*
X132259128Y-117451840D01*
X132231882Y-117592121D01*
X132203486Y-117734930D01*
X132174006Y-117879911D01*
X132143505Y-118026709D01*
X132112046Y-118174969D01*
X132079696Y-118324335D01*
X132060408Y-118411972D01*
X132050554Y-118456466D01*
X132042267Y-118494684D01*
X132035680Y-118527258D01*
X132030928Y-118554823D01*
X132028146Y-118578011D01*
X132027468Y-118597455D01*
X132029028Y-118613788D01*
X132032962Y-118627642D01*
X132039404Y-118639652D01*
X132048488Y-118650449D01*
X132060348Y-118660667D01*
X132075120Y-118670938D01*
X132092938Y-118681896D01*
X132113936Y-118694174D01*
X132121295Y-118698453D01*
X132187072Y-118735722D01*
X132252322Y-118770654D01*
X132316214Y-118802855D01*
X132377915Y-118831929D01*
X132436594Y-118857481D01*
X132491419Y-118879117D01*
X132530859Y-118892982D01*
X132583272Y-118908442D01*
X132632184Y-118919158D01*
X132677367Y-118925158D01*
X132718594Y-118926469D01*
X132755635Y-118923119D01*
X132788262Y-118915134D01*
X132816247Y-118902543D01*
X132839362Y-118885372D01*
X132857378Y-118863649D01*
X132863395Y-118853124D01*
X132868154Y-118842991D01*
X132872524Y-118831941D01*
X132876533Y-118819615D01*
X132880209Y-118805657D01*
X132883581Y-118789709D01*
X132886677Y-118771413D01*
X132889524Y-118750414D01*
X132892152Y-118726352D01*
X132894587Y-118698872D01*
X132896859Y-118667615D01*
X132898995Y-118632225D01*
X132901023Y-118592343D01*
X132902973Y-118547613D01*
X132904871Y-118497677D01*
X132906746Y-118442178D01*
X132908626Y-118380759D01*
X132910540Y-118313062D01*
X132912515Y-118238731D01*
X132912869Y-118225000D01*
X132916207Y-118102923D01*
X132919786Y-117987344D01*
X132923639Y-117877707D01*
X132927794Y-117773456D01*
X132932284Y-117674037D01*
X132937138Y-117578895D01*
X132942388Y-117487474D01*
X132948064Y-117399219D01*
X132954196Y-117313574D01*
X132960816Y-117229985D01*
X132967954Y-117147897D01*
X132975640Y-117066754D01*
X132978345Y-117039667D01*
X132992177Y-116910967D01*
X133007273Y-116786502D01*
X133023805Y-116665523D01*
X133041941Y-116547281D01*
X133061851Y-116431028D01*
X133083705Y-116316016D01*
X133107671Y-116201496D01*
X133133920Y-116086721D01*
X133162620Y-115970941D01*
X133193942Y-115853408D01*
X133228054Y-115733373D01*
X133265127Y-115610090D01*
X133305329Y-115482808D01*
X133348830Y-115350780D01*
X133384551Y-115245792D01*
X133402059Y-115195932D01*
X133419485Y-115148400D01*
X133437150Y-115102527D01*
X133455374Y-115057643D01*
X133474476Y-115013080D01*
X133494779Y-114968167D01*
X133516601Y-114922235D01*
X133540263Y-114874615D01*
X133566085Y-114824637D01*
X133594388Y-114771633D01*
X133625492Y-114714932D01*
X133659717Y-114653865D01*
X133697384Y-114587763D01*
X133709493Y-114566694D01*
X133743223Y-114508073D01*
X133773651Y-114455102D01*
X133801025Y-114407334D01*
X133825591Y-114364321D01*
X133847596Y-114325616D01*
X133867287Y-114290771D01*
X133884910Y-114259338D01*
X133900714Y-114230870D01*
X133914944Y-114204919D01*
X133927848Y-114181037D01*
X133939672Y-114158777D01*
X133950664Y-114137692D01*
X133961070Y-114117332D01*
X133971138Y-114097252D01*
X133981113Y-114077003D01*
X133991244Y-114056138D01*
X133992128Y-114054306D01*
X134023565Y-113986867D01*
X134050819Y-113923250D01*
X134074282Y-113862082D01*
X134094345Y-113801992D01*
X134111402Y-113741609D01*
X134125844Y-113679560D01*
X134138064Y-113614474D01*
X134148454Y-113544978D01*
X134156279Y-113480139D01*
X134160039Y-113439152D01*
X134162999Y-113393206D01*
X134165105Y-113344358D01*
X134166301Y-113294663D01*
X134166532Y-113246179D01*
X134165744Y-113200962D01*
X134164508Y-113171458D01*
X134157865Y-113091912D01*
X134146743Y-113011456D01*
X134131443Y-112931278D01*
X134112263Y-112852567D01*
X134089501Y-112776511D01*
X134063456Y-112704298D01*
X134034427Y-112637116D01*
X134025625Y-112619008D01*
X133981372Y-112538028D01*
X133930408Y-112458806D01*
X133872893Y-112381482D01*
X133808983Y-112306195D01*
X133738836Y-112233086D01*
X133662610Y-112162295D01*
X133580463Y-112093960D01*
X133492552Y-112028223D01*
X133399036Y-111965222D01*
X133300070Y-111905097D01*
X133195814Y-111847989D01*
X133105201Y-111802897D01*
X133065287Y-111784559D01*
X133023922Y-111766937D01*
X132979814Y-111749526D01*
X132931672Y-111731819D01*
X132878204Y-111713310D01*
X132865250Y-111708965D01*
X132841804Y-111701296D01*
X132816214Y-111693193D01*
X132789673Y-111685008D01*
X132763373Y-111677093D01*
X132738508Y-111669801D01*
X132716269Y-111663485D01*
X132697848Y-111658496D01*
X132684440Y-111655187D01*
X132680558Y-111654378D01*
X132668996Y-111652209D01*
X132586428Y-111447595D01*
X132571883Y-111411615D01*
X132558085Y-111377607D01*
X132545266Y-111346132D01*
X132533654Y-111317748D01*
X132523480Y-111293014D01*
X132514974Y-111272490D01*
X132508367Y-111256734D01*
X132503889Y-111246307D01*
X132501769Y-111241768D01*
X132501656Y-111241619D01*
X132499006Y-111243960D01*
X132492050Y-111251162D01*
X132481163Y-111262812D01*
X132466724Y-111278495D01*
X132449108Y-111297797D01*
X132428694Y-111320304D01*
X132405859Y-111345601D01*
X132380979Y-111373274D01*
X132354432Y-111402909D01*
X132331769Y-111428286D01*
X132299640Y-111464302D01*
X132271846Y-111495416D01*
X132248033Y-111521998D01*
X132227848Y-111544415D01*
X132210935Y-111563038D01*
X132196942Y-111578235D01*
X132185513Y-111590376D01*
X132176294Y-111599830D01*
X132168931Y-111606965D01*
X132163071Y-111612152D01*
X132158358Y-111615759D01*
X132154439Y-111618156D01*
X132150959Y-111619712D01*
X132147565Y-111620795D01*
X132146897Y-111620979D01*
X132126348Y-111627388D01*
X132101398Y-111636490D01*
X132073816Y-111647560D01*
X132045375Y-111659874D01*
X132017843Y-111672705D01*
X132004554Y-111679300D01*
X131946345Y-111711749D01*
X131890220Y-111748977D01*
X131835249Y-111791666D01*
X131780502Y-111840499D01*
X131766849Y-111853642D01*
X131713310Y-111909151D01*
X131664827Y-111966431D01*
X131620531Y-112026685D01*
X131579557Y-112091117D01*
X131541037Y-112160931D01*
X131530420Y-112181917D01*
X131498548Y-112249971D01*
X131470713Y-112317985D01*
X131446541Y-112387187D01*
X131425659Y-112458807D01*
X131407692Y-112534072D01*
X131392268Y-112614212D01*
X131384752Y-112660680D01*
X131381832Y-112680516D01*
X131379566Y-112697844D01*
X131377870Y-112714061D01*
X131376659Y-112730562D01*
X131375848Y-112748742D01*
X131375355Y-112769998D01*
X131375094Y-112795724D01*
X131374991Y-112822208D01*
X131375069Y-112859423D01*
M02*
