G04 #@! TF.FileFunction,Legend,Top*
%FSLAX46Y46*%
G04 Gerber Fmt 4.6, Leading zero omitted, Abs format (unit mm)*
G04 Created by KiCad (PCBNEW (2015-11-03 BZR 6296)-product) date Tuesday, November 10, 2015 'PMt' 11:19:58 PM*
%MOMM*%
G01*
G04 APERTURE LIST*
%ADD10C,0.100000*%
%ADD11C,0.150000*%
G04 APERTURE END LIST*
D10*
D11*
X133174762Y-109892381D02*
X133222381Y-109987619D01*
X133222381Y-110178096D01*
X133174762Y-110273334D01*
X133127143Y-110320953D01*
X133031905Y-110368572D01*
X132746190Y-110368572D01*
X132650952Y-110320953D01*
X132603333Y-110273334D01*
X132555714Y-110178096D01*
X132555714Y-109987619D01*
X132603333Y-109892381D01*
X133222381Y-109463810D02*
X132222381Y-109463810D01*
X132841429Y-109368572D02*
X133222381Y-109082857D01*
X132555714Y-109082857D02*
X132936667Y-109463810D01*
X133222381Y-108225714D02*
X132222381Y-108225714D01*
X133174762Y-108225714D02*
X133222381Y-108320952D01*
X133222381Y-108511429D01*
X133174762Y-108606667D01*
X133127143Y-108654286D01*
X133031905Y-108701905D01*
X132746190Y-108701905D01*
X132650952Y-108654286D01*
X132603333Y-108606667D01*
X132555714Y-108511429D01*
X132555714Y-108320952D01*
X132603333Y-108225714D01*
X133127143Y-107749524D02*
X133174762Y-107701905D01*
X133222381Y-107749524D01*
X133174762Y-107797143D01*
X133127143Y-107749524D01*
X133222381Y-107749524D01*
X132555714Y-107416191D02*
X132555714Y-107035239D01*
X132222381Y-107273334D02*
X133079524Y-107273334D01*
X133174762Y-107225715D01*
X133222381Y-107130477D01*
X133222381Y-107035239D01*
X133174762Y-106320952D02*
X133222381Y-106416190D01*
X133222381Y-106606667D01*
X133174762Y-106701905D01*
X133079524Y-106749524D01*
X132698571Y-106749524D01*
X132603333Y-106701905D01*
X132555714Y-106606667D01*
X132555714Y-106416190D01*
X132603333Y-106320952D01*
X132698571Y-106273333D01*
X132793810Y-106273333D01*
X132889048Y-106749524D01*
X133174762Y-105416190D02*
X133222381Y-105511428D01*
X133222381Y-105701905D01*
X133174762Y-105797143D01*
X133127143Y-105844762D01*
X133031905Y-105892381D01*
X132746190Y-105892381D01*
X132650952Y-105844762D01*
X132603333Y-105797143D01*
X132555714Y-105701905D01*
X132555714Y-105511428D01*
X132603333Y-105416190D01*
X133222381Y-104987619D02*
X132222381Y-104987619D01*
X133222381Y-104559047D02*
X132698571Y-104559047D01*
X132603333Y-104606666D01*
X132555714Y-104701904D01*
X132555714Y-104844762D01*
X132603333Y-104940000D01*
X132650952Y-104987619D01*
X132174762Y-103368571D02*
X133460476Y-104225714D01*
X133174762Y-103082857D02*
X133222381Y-102987619D01*
X133222381Y-102797143D01*
X133174762Y-102701904D01*
X133079524Y-102654285D01*
X133031905Y-102654285D01*
X132936667Y-102701904D01*
X132889048Y-102797143D01*
X132889048Y-102940000D01*
X132841429Y-103035238D01*
X132746190Y-103082857D01*
X132698571Y-103082857D01*
X132603333Y-103035238D01*
X132555714Y-102940000D01*
X132555714Y-102797143D01*
X132603333Y-102701904D01*
X132555714Y-102225714D02*
X133555714Y-102225714D01*
X132603333Y-102225714D02*
X132555714Y-102130476D01*
X132555714Y-101939999D01*
X132603333Y-101844761D01*
X132650952Y-101797142D01*
X132746190Y-101749523D01*
X133031905Y-101749523D01*
X133127143Y-101797142D01*
X133174762Y-101844761D01*
X133222381Y-101939999D01*
X133222381Y-102130476D01*
X133174762Y-102225714D01*
X133174762Y-100892380D02*
X133222381Y-100987618D01*
X133222381Y-101178095D01*
X133174762Y-101273333D01*
X133127143Y-101320952D01*
X133031905Y-101368571D01*
X132746190Y-101368571D01*
X132650952Y-101320952D01*
X132603333Y-101273333D01*
X132555714Y-101178095D01*
X132555714Y-100987618D01*
X132603333Y-100892380D01*
X133222381Y-100463809D02*
X132555714Y-100463809D01*
X132746190Y-100463809D02*
X132650952Y-100416190D01*
X132603333Y-100368571D01*
X132555714Y-100273333D01*
X132555714Y-100178094D01*
X132174762Y-99130475D02*
X133460476Y-99987618D01*
X132555714Y-98892380D02*
X133222381Y-98654285D01*
X132555714Y-98416189D01*
X133222381Y-97511427D02*
X133222381Y-98082856D01*
X133222381Y-97797142D02*
X132222381Y-97797142D01*
X132365238Y-97892380D01*
X132460476Y-97987618D01*
X132508095Y-98082856D01*
M02*
