G04 #@! TF.FileFunction,Legend,Top*
%FSLAX46Y46*%
G04 Gerber Fmt 4.6, Leading zero omitted, Abs format (unit mm)*
G04 Created by KiCad (PCBNEW 4.0.1-stable) date Tuesday, May 31, 2016 'PMt' 09:20:10 PM*
%MOMM*%
G01*
G04 APERTURE LIST*
%ADD10C,0.100000*%
%ADD11C,0.150000*%
G04 APERTURE END LIST*
D10*
D11*
X135064762Y-112362381D02*
X135112381Y-112457619D01*
X135112381Y-112648096D01*
X135064762Y-112743334D01*
X135017143Y-112790953D01*
X134921905Y-112838572D01*
X134636190Y-112838572D01*
X134540952Y-112790953D01*
X134493333Y-112743334D01*
X134445714Y-112648096D01*
X134445714Y-112457619D01*
X134493333Y-112362381D01*
X135112381Y-111933810D02*
X134112381Y-111933810D01*
X134731429Y-111838572D02*
X135112381Y-111552857D01*
X134445714Y-111552857D02*
X134826667Y-111933810D01*
X135112381Y-110695714D02*
X134112381Y-110695714D01*
X135064762Y-110695714D02*
X135112381Y-110790952D01*
X135112381Y-110981429D01*
X135064762Y-111076667D01*
X135017143Y-111124286D01*
X134921905Y-111171905D01*
X134636190Y-111171905D01*
X134540952Y-111124286D01*
X134493333Y-111076667D01*
X134445714Y-110981429D01*
X134445714Y-110790952D01*
X134493333Y-110695714D01*
X135017143Y-110219524D02*
X135064762Y-110171905D01*
X135112381Y-110219524D01*
X135064762Y-110267143D01*
X135017143Y-110219524D01*
X135112381Y-110219524D01*
X134445714Y-109886191D02*
X134445714Y-109505239D01*
X134112381Y-109743334D02*
X134969524Y-109743334D01*
X135064762Y-109695715D01*
X135112381Y-109600477D01*
X135112381Y-109505239D01*
X135064762Y-108790952D02*
X135112381Y-108886190D01*
X135112381Y-109076667D01*
X135064762Y-109171905D01*
X134969524Y-109219524D01*
X134588571Y-109219524D01*
X134493333Y-109171905D01*
X134445714Y-109076667D01*
X134445714Y-108886190D01*
X134493333Y-108790952D01*
X134588571Y-108743333D01*
X134683810Y-108743333D01*
X134779048Y-109219524D01*
X135064762Y-107886190D02*
X135112381Y-107981428D01*
X135112381Y-108171905D01*
X135064762Y-108267143D01*
X135017143Y-108314762D01*
X134921905Y-108362381D01*
X134636190Y-108362381D01*
X134540952Y-108314762D01*
X134493333Y-108267143D01*
X134445714Y-108171905D01*
X134445714Y-107981428D01*
X134493333Y-107886190D01*
X135112381Y-107457619D02*
X134112381Y-107457619D01*
X135112381Y-107029047D02*
X134588571Y-107029047D01*
X134493333Y-107076666D01*
X134445714Y-107171904D01*
X134445714Y-107314762D01*
X134493333Y-107410000D01*
X134540952Y-107457619D01*
X134064762Y-105838571D02*
X135350476Y-106695714D01*
X135064762Y-105552857D02*
X135112381Y-105457619D01*
X135112381Y-105267143D01*
X135064762Y-105171904D01*
X134969524Y-105124285D01*
X134921905Y-105124285D01*
X134826667Y-105171904D01*
X134779048Y-105267143D01*
X134779048Y-105410000D01*
X134731429Y-105505238D01*
X134636190Y-105552857D01*
X134588571Y-105552857D01*
X134493333Y-105505238D01*
X134445714Y-105410000D01*
X134445714Y-105267143D01*
X134493333Y-105171904D01*
X134445714Y-104695714D02*
X135445714Y-104695714D01*
X134493333Y-104695714D02*
X134445714Y-104600476D01*
X134445714Y-104409999D01*
X134493333Y-104314761D01*
X134540952Y-104267142D01*
X134636190Y-104219523D01*
X134921905Y-104219523D01*
X135017143Y-104267142D01*
X135064762Y-104314761D01*
X135112381Y-104409999D01*
X135112381Y-104600476D01*
X135064762Y-104695714D01*
X135064762Y-103362380D02*
X135112381Y-103457618D01*
X135112381Y-103648095D01*
X135064762Y-103743333D01*
X135017143Y-103790952D01*
X134921905Y-103838571D01*
X134636190Y-103838571D01*
X134540952Y-103790952D01*
X134493333Y-103743333D01*
X134445714Y-103648095D01*
X134445714Y-103457618D01*
X134493333Y-103362380D01*
X135112381Y-102933809D02*
X134445714Y-102933809D01*
X134636190Y-102933809D02*
X134540952Y-102886190D01*
X134493333Y-102838571D01*
X134445714Y-102743333D01*
X134445714Y-102648094D01*
X134064762Y-101600475D02*
X135350476Y-102457618D01*
X134445714Y-101362380D02*
X135112381Y-101124285D01*
X134445714Y-100886189D01*
X134112381Y-100029046D02*
X134112381Y-100505237D01*
X134588571Y-100552856D01*
X134540952Y-100505237D01*
X134493333Y-100409999D01*
X134493333Y-100171903D01*
X134540952Y-100076665D01*
X134588571Y-100029046D01*
X134683810Y-99981427D01*
X134921905Y-99981427D01*
X135017143Y-100029046D01*
X135064762Y-100076665D01*
X135112381Y-100171903D01*
X135112381Y-100409999D01*
X135064762Y-100505237D01*
X135017143Y-100552856D01*
X135675000Y-117450000D02*
X135675000Y-118450000D01*
X134325000Y-118450000D02*
X134325000Y-117450000D01*
D10*
G36*
X133366801Y-111999289D02*
X132596439Y-111640952D01*
X132598854Y-111621975D01*
X132601038Y-111603362D01*
X132602993Y-111585112D01*
X132604717Y-111567227D01*
X132606212Y-111549704D01*
X132607477Y-111532546D01*
X132608512Y-111515751D01*
X132609317Y-111499320D01*
X132609892Y-111483252D01*
X132610236Y-111467548D01*
X132610351Y-111452208D01*
X132610022Y-111433187D01*
X132609035Y-111414710D01*
X132607390Y-111396777D01*
X132605087Y-111379387D01*
X132602126Y-111362540D01*
X132598506Y-111346238D01*
X132594229Y-111330478D01*
X132589293Y-111315263D01*
X132583700Y-111300591D01*
X132577448Y-111286462D01*
X132570539Y-111272877D01*
X132562971Y-111259836D01*
X132554745Y-111247338D01*
X132545861Y-111235384D01*
X132536319Y-111223974D01*
X132526119Y-111213107D01*
X132515261Y-111202783D01*
X132506190Y-111195070D01*
X132496515Y-111187716D01*
X132486237Y-111180720D01*
X132475355Y-111174084D01*
X132463870Y-111167806D01*
X132451781Y-111161886D01*
X132439088Y-111156326D01*
X132425792Y-111151124D01*
X132411893Y-111146281D01*
X132397390Y-111141797D01*
X132382283Y-111137671D01*
X132366573Y-111133904D01*
X132350259Y-111130496D01*
X132333342Y-111127447D01*
X132315821Y-111124756D01*
X132297696Y-111122424D01*
X132278968Y-111120451D01*
X132259637Y-111118837D01*
X132239702Y-111117581D01*
X132219163Y-111116684D01*
X132198021Y-111116146D01*
X132176275Y-111115967D01*
X132154009Y-111116101D01*
X132132313Y-111116502D01*
X132111186Y-111117171D01*
X132090629Y-111118108D01*
X132070642Y-111119312D01*
X132051223Y-111120784D01*
X132032375Y-111122524D01*
X132014096Y-111124531D01*
X131996386Y-111126806D01*
X131979246Y-111129349D01*
X131962675Y-111132159D01*
X131946674Y-111135237D01*
X131931242Y-111138582D01*
X131916380Y-111142195D01*
X131902087Y-111146076D01*
X131888364Y-111150224D01*
X131875210Y-111154640D01*
X131862626Y-111159324D01*
X131850611Y-111164275D01*
X131839166Y-111169494D01*
X131828291Y-111174981D01*
X131817984Y-111180735D01*
X131805395Y-111188688D01*
X131793568Y-111197309D01*
X131782504Y-111206598D01*
X131772204Y-111216554D01*
X131762666Y-111227178D01*
X131753892Y-111238469D01*
X131745880Y-111250428D01*
X131738631Y-111263055D01*
X131732146Y-111276349D01*
X131726423Y-111290310D01*
X131721464Y-111304939D01*
X131717267Y-111320236D01*
X131713834Y-111336200D01*
X131711163Y-111352832D01*
X131709256Y-111370131D01*
X131708111Y-111388098D01*
X131707730Y-111406733D01*
X131708016Y-111428302D01*
X131708876Y-111448913D01*
X131710309Y-111468565D01*
X131712315Y-111487258D01*
X131714894Y-111504993D01*
X131718046Y-111521769D01*
X131721771Y-111537587D01*
X131726069Y-111552445D01*
X131730941Y-111566346D01*
X131736386Y-111579287D01*
X131742403Y-111591270D01*
X131748994Y-111602295D01*
X131756158Y-111612360D01*
X131763896Y-111621467D01*
X131772206Y-111629616D01*
X131781089Y-111636805D01*
X131790546Y-111643037D01*
X131800575Y-111648309D01*
X131811178Y-111652623D01*
X131822354Y-111655978D01*
X131834103Y-111658375D01*
X131846425Y-111659813D01*
X131859321Y-111660292D01*
X132593813Y-111660292D01*
X132593794Y-111660292D01*
X132596439Y-111640952D01*
X133366801Y-111999289D01*
X131890929Y-111999289D01*
X131874138Y-111999016D01*
X131857555Y-111998195D01*
X131841180Y-111996828D01*
X131825013Y-111994913D01*
X131809055Y-111992451D01*
X131793305Y-111989443D01*
X131777764Y-111985887D01*
X131762431Y-111981784D01*
X131747306Y-111977134D01*
X131732390Y-111971937D01*
X131717682Y-111966193D01*
X131703182Y-111959902D01*
X131688891Y-111953064D01*
X131674808Y-111945679D01*
X131660933Y-111937747D01*
X131647267Y-111929267D01*
X131633809Y-111920241D01*
X131620559Y-111910668D01*
X131607518Y-111900547D01*
X131594685Y-111889880D01*
X131582061Y-111878665D01*
X131569645Y-111866904D01*
X131557437Y-111854595D01*
X131547910Y-111844336D01*
X131538717Y-111833707D01*
X131529859Y-111822707D01*
X131521334Y-111811337D01*
X131513144Y-111799597D01*
X131505289Y-111787486D01*
X131497768Y-111775005D01*
X131490580Y-111762154D01*
X131483728Y-111748932D01*
X131477209Y-111735340D01*
X131471025Y-111721378D01*
X131465175Y-111707045D01*
X131459659Y-111692342D01*
X131454478Y-111677269D01*
X131449631Y-111661826D01*
X131445118Y-111646012D01*
X131440940Y-111629828D01*
X131437095Y-111613273D01*
X131433585Y-111596348D01*
X131430410Y-111579053D01*
X131427568Y-111561388D01*
X131425061Y-111543352D01*
X131422888Y-111524946D01*
X131421050Y-111506170D01*
X131419546Y-111487023D01*
X131418376Y-111467506D01*
X131417540Y-111447619D01*
X131417038Y-111427361D01*
X131416871Y-111406733D01*
X131417045Y-111389184D01*
X131417565Y-111371679D01*
X131418432Y-111354217D01*
X131419647Y-111336797D01*
X131421208Y-111319421D01*
X131423116Y-111302088D01*
X131425370Y-111284798D01*
X131427972Y-111267551D01*
X131430549Y-111253261D01*
X131433839Y-111238502D01*
X131437843Y-111223275D01*
X131442560Y-111207579D01*
X131447991Y-111191414D01*
X131454135Y-111174782D01*
X131460993Y-111157680D01*
X131468564Y-111140110D01*
X131476848Y-111122072D01*
X131485846Y-111103565D01*
X131493849Y-111087908D01*
X131502234Y-111072635D01*
X131511002Y-111057745D01*
X131520152Y-111043237D01*
X131529685Y-111029112D01*
X131539600Y-111015370D01*
X131549898Y-111002011D01*
X131560579Y-110989034D01*
X131571642Y-110976440D01*
X131583088Y-110964230D01*
X131594916Y-110952401D01*
X131607127Y-110940956D01*
X131617361Y-110932032D01*
X131628219Y-110923268D01*
X131639703Y-110914663D01*
X131651811Y-110906217D01*
X131664543Y-110897931D01*
X131677901Y-110889803D01*
X131691882Y-110881835D01*
X131706489Y-110874026D01*
X131721720Y-110866377D01*
X131737576Y-110858886D01*
X131754057Y-110851555D01*
X131771162Y-110844383D01*
X131788892Y-110837370D01*
X131807246Y-110830517D01*
X131826225Y-110823823D01*
X131840670Y-110818986D01*
X131855343Y-110814397D01*
X131870243Y-110810056D01*
X131885370Y-110805963D01*
X131900725Y-110802119D01*
X131916307Y-110798522D01*
X131932117Y-110795173D01*
X131948154Y-110792073D01*
X131964419Y-110789220D01*
X131980911Y-110786616D01*
X131997631Y-110784259D01*
X132014578Y-110782151D01*
X132031753Y-110780291D01*
X132049155Y-110778678D01*
X132066784Y-110777314D01*
X132084641Y-110776198D01*
X132102726Y-110775330D01*
X132121038Y-110774710D01*
X132139577Y-110774337D01*
X132158344Y-110774213D01*
X132178471Y-110774360D01*
X132198321Y-110774800D01*
X132217894Y-110775533D01*
X132237191Y-110776559D01*
X132256211Y-110777879D01*
X132274955Y-110779492D01*
X132293422Y-110781398D01*
X132311613Y-110783597D01*
X132329527Y-110786090D01*
X132347165Y-110788876D01*
X132364526Y-110791955D01*
X132381610Y-110795327D01*
X132398419Y-110798993D01*
X132414950Y-110802952D01*
X132431205Y-110807204D01*
X132447184Y-110811749D01*
X132462886Y-110816588D01*
X132478311Y-110821720D01*
X132493460Y-110827145D01*
X132508332Y-110832863D01*
X132522928Y-110838875D01*
X132537248Y-110845180D01*
X132551291Y-110851778D01*
X132565057Y-110858670D01*
X132578547Y-110865854D01*
X132591760Y-110873332D01*
X132604697Y-110881103D01*
X132617357Y-110889168D01*
X132629741Y-110897525D01*
X132641848Y-110906176D01*
X132653678Y-110915120D01*
X132665232Y-110924358D01*
X132676510Y-110933888D01*
X132687511Y-110943712D01*
X132698532Y-110954119D01*
X132709214Y-110964794D01*
X132719557Y-110975737D01*
X132729561Y-110986949D01*
X132739226Y-110998429D01*
X132748552Y-111010177D01*
X132757538Y-111022193D01*
X132766186Y-111034478D01*
X132774494Y-111047031D01*
X132782463Y-111059852D01*
X132790094Y-111072941D01*
X132797385Y-111086299D01*
X132804336Y-111099925D01*
X132810949Y-111113819D01*
X132817223Y-111127982D01*
X132823157Y-111142413D01*
X132828753Y-111157112D01*
X132834009Y-111172079D01*
X132838926Y-111187315D01*
X132843504Y-111202819D01*
X132847743Y-111218591D01*
X132851643Y-111234631D01*
X132855204Y-111250940D01*
X132858425Y-111267517D01*
X132861308Y-111284362D01*
X132863851Y-111301476D01*
X132866056Y-111318857D01*
X132867921Y-111336507D01*
X132869447Y-111354426D01*
X132870634Y-111372612D01*
X132871481Y-111391067D01*
X132871990Y-111409790D01*
X132872160Y-111428782D01*
X132872033Y-111445684D01*
X132871654Y-111462529D01*
X132871021Y-111479319D01*
X132870135Y-111496052D01*
X132868997Y-111512729D01*
X132867605Y-111529350D01*
X132865960Y-111545915D01*
X132864062Y-111562423D01*
X132861911Y-111578875D01*
X132859508Y-111595271D01*
X132856851Y-111611611D01*
X132853941Y-111627894D01*
X132850778Y-111644121D01*
X132847362Y-111660292D01*
X133366876Y-111660292D01*
X133366876Y-111999289D01*
X133366801Y-111999289D01*
X133366801Y-111999289D01*
G37*
G36*
X132679157Y-110316705D02*
X131906816Y-110126182D01*
X131922623Y-110129981D01*
X131939136Y-110133448D01*
X131956356Y-110136586D01*
X131974281Y-110139393D01*
X131992913Y-110141870D01*
X132012250Y-110144017D01*
X132032294Y-110145834D01*
X132053044Y-110147320D01*
X132074500Y-110148476D01*
X132096662Y-110149302D01*
X132119530Y-110149797D01*
X132143104Y-110149962D01*
X132166557Y-110149797D01*
X132189308Y-110149302D01*
X132211360Y-110148476D01*
X132232711Y-110147320D01*
X132253361Y-110145834D01*
X132273311Y-110144017D01*
X132292561Y-110141870D01*
X132311110Y-110139393D01*
X132328959Y-110136586D01*
X132346108Y-110133448D01*
X132362556Y-110129981D01*
X132378303Y-110126182D01*
X132393350Y-110122054D01*
X132407697Y-110117595D01*
X132421343Y-110112806D01*
X132434289Y-110107687D01*
X132446535Y-110102238D01*
X132458080Y-110096458D01*
X132468924Y-110090348D01*
X132479069Y-110083907D01*
X132488512Y-110077137D01*
X132497256Y-110070036D01*
X132507641Y-110060175D01*
X132517397Y-110049723D01*
X132526524Y-110038680D01*
X132535021Y-110027045D01*
X132542888Y-110014819D01*
X132550127Y-110002002D01*
X132556736Y-109988593D01*
X132562715Y-109974594D01*
X132568065Y-109960003D01*
X132572786Y-109944820D01*
X132576877Y-109929047D01*
X132580339Y-109912682D01*
X132583171Y-109895726D01*
X132585374Y-109878179D01*
X132586948Y-109860040D01*
X132587892Y-109841310D01*
X132588206Y-109821989D01*
X132587892Y-109802673D01*
X132586948Y-109783957D01*
X132585374Y-109765842D01*
X132583171Y-109748328D01*
X132580339Y-109731415D01*
X132576877Y-109715103D01*
X132572786Y-109699391D01*
X132568065Y-109684281D01*
X132562715Y-109669771D01*
X132556736Y-109655861D01*
X132550127Y-109642553D01*
X132542888Y-109629846D01*
X132535021Y-109617739D01*
X132526524Y-109606233D01*
X132517397Y-109595328D01*
X132507641Y-109585024D01*
X132497256Y-109575320D01*
X132488512Y-109568219D01*
X132479069Y-109561449D01*
X132468924Y-109555008D01*
X132458080Y-109548898D01*
X132446535Y-109543119D01*
X132434289Y-109537669D01*
X132421343Y-109532550D01*
X132407697Y-109527761D01*
X132393350Y-109523302D01*
X132378303Y-109519174D01*
X132362556Y-109515376D01*
X132346108Y-109511908D01*
X132328959Y-109508770D01*
X132311110Y-109505963D01*
X132292561Y-109503486D01*
X132273311Y-109501339D01*
X132253361Y-109499522D01*
X132232711Y-109498036D01*
X132211360Y-109496880D01*
X132189308Y-109496054D01*
X132166557Y-109495559D01*
X132143104Y-109495394D01*
X132119530Y-109495559D01*
X132096662Y-109496054D01*
X132074500Y-109496880D01*
X132053044Y-109498036D01*
X132032294Y-109499522D01*
X132012250Y-109501339D01*
X131992913Y-109503486D01*
X131974281Y-109505963D01*
X131956356Y-109508770D01*
X131939136Y-109511908D01*
X131922623Y-109515376D01*
X131906816Y-109519174D01*
X131891715Y-109523302D01*
X131877320Y-109527761D01*
X131863631Y-109532550D01*
X131850648Y-109537669D01*
X131838371Y-109543119D01*
X131826801Y-109548898D01*
X131815936Y-109555008D01*
X131805778Y-109561449D01*
X131796326Y-109568219D01*
X131787580Y-109575320D01*
X131777035Y-109585024D01*
X131767130Y-109595328D01*
X131757864Y-109606233D01*
X131749236Y-109617739D01*
X131741248Y-109629846D01*
X131733899Y-109642553D01*
X131727189Y-109655861D01*
X131721118Y-109669771D01*
X131715686Y-109684281D01*
X131710893Y-109699391D01*
X131706739Y-109715103D01*
X131703225Y-109731415D01*
X131700349Y-109748328D01*
X131698112Y-109765842D01*
X131696515Y-109783957D01*
X131695556Y-109802673D01*
X131695237Y-109821989D01*
X131695556Y-109841310D01*
X131696515Y-109860040D01*
X131698112Y-109878179D01*
X131700349Y-109895726D01*
X131703225Y-109912682D01*
X131706739Y-109929047D01*
X131710893Y-109944820D01*
X131715686Y-109960003D01*
X131721118Y-109974594D01*
X131727189Y-109988593D01*
X131733899Y-110002002D01*
X131741248Y-110014819D01*
X131749236Y-110027045D01*
X131757864Y-110038680D01*
X131767130Y-110049723D01*
X131777035Y-110060175D01*
X131787580Y-110070036D01*
X131796326Y-110077137D01*
X131805778Y-110083907D01*
X131815936Y-110090348D01*
X131826801Y-110096458D01*
X131838371Y-110102238D01*
X131850648Y-110107687D01*
X131863631Y-110112806D01*
X131877320Y-110117595D01*
X131891715Y-110122054D01*
X131906816Y-110126182D01*
X132679157Y-110316705D01*
X132668315Y-110326407D01*
X132657208Y-110335828D01*
X132645834Y-110344969D01*
X132634196Y-110353827D01*
X132622292Y-110362405D01*
X132610123Y-110370701D01*
X132597688Y-110378716D01*
X132584987Y-110386450D01*
X132572021Y-110393903D01*
X132558790Y-110401074D01*
X132545293Y-110407965D01*
X132531531Y-110414574D01*
X132517503Y-110420901D01*
X132503210Y-110426948D01*
X132488651Y-110432713D01*
X132473827Y-110438197D01*
X132458738Y-110443400D01*
X132443383Y-110448321D01*
X132427762Y-110452962D01*
X132411876Y-110457321D01*
X132395725Y-110461399D01*
X132379308Y-110465195D01*
X132362626Y-110468711D01*
X132345678Y-110471945D01*
X132328464Y-110474898D01*
X132310986Y-110477570D01*
X132293241Y-110479960D01*
X132275232Y-110482069D01*
X132256957Y-110483897D01*
X132238416Y-110485444D01*
X132219610Y-110486710D01*
X132200538Y-110487694D01*
X132181201Y-110488397D01*
X132161599Y-110488819D01*
X132141731Y-110488960D01*
X132121862Y-110488819D01*
X132102258Y-110488397D01*
X132082920Y-110487694D01*
X132063848Y-110486710D01*
X132045041Y-110485444D01*
X132026499Y-110483897D01*
X132008223Y-110482069D01*
X131990213Y-110479960D01*
X131972468Y-110477570D01*
X131954988Y-110474898D01*
X131937774Y-110471945D01*
X131920825Y-110468711D01*
X131904142Y-110465195D01*
X131887725Y-110461399D01*
X131871573Y-110457321D01*
X131855686Y-110452962D01*
X131840065Y-110448321D01*
X131824710Y-110443400D01*
X131809620Y-110438197D01*
X131794795Y-110432713D01*
X131780236Y-110426948D01*
X131765942Y-110420901D01*
X131751914Y-110414574D01*
X131738152Y-110407965D01*
X131724654Y-110401074D01*
X131711423Y-110393903D01*
X131698457Y-110386450D01*
X131685756Y-110378716D01*
X131673321Y-110370701D01*
X131661151Y-110362405D01*
X131649247Y-110353827D01*
X131637609Y-110344969D01*
X131626235Y-110335828D01*
X131615128Y-110326407D01*
X131604286Y-110316705D01*
X131593099Y-110306128D01*
X131582257Y-110295279D01*
X131571759Y-110284156D01*
X131561605Y-110272759D01*
X131551796Y-110261090D01*
X131542331Y-110249147D01*
X131533209Y-110236930D01*
X131524432Y-110224441D01*
X131516000Y-110211678D01*
X131507911Y-110198641D01*
X131500167Y-110185332D01*
X131492766Y-110171749D01*
X131485710Y-110157892D01*
X131478999Y-110143763D01*
X131472631Y-110129360D01*
X131466608Y-110114684D01*
X131460928Y-110099734D01*
X131455593Y-110084511D01*
X131450602Y-110069015D01*
X131445956Y-110053245D01*
X131441653Y-110037202D01*
X131437695Y-110020886D01*
X131434081Y-110004296D01*
X131430811Y-109987433D01*
X131427886Y-109970297D01*
X131425304Y-109952887D01*
X131423067Y-109935205D01*
X131421174Y-109917248D01*
X131419625Y-109899019D01*
X131418420Y-109880516D01*
X131417560Y-109861740D01*
X131417043Y-109842690D01*
X131416871Y-109823367D01*
X131417043Y-109803962D01*
X131417560Y-109784833D01*
X131418420Y-109765979D01*
X131419625Y-109747402D01*
X131421174Y-109729100D01*
X131423067Y-109711074D01*
X131425304Y-109693324D01*
X131427886Y-109675850D01*
X131430811Y-109658652D01*
X131434081Y-109641729D01*
X131437695Y-109625083D01*
X131441653Y-109608712D01*
X131445956Y-109592617D01*
X131450602Y-109576798D01*
X131455593Y-109561255D01*
X131460928Y-109545988D01*
X131466608Y-109530996D01*
X131472631Y-109516281D01*
X131478999Y-109501841D01*
X131485710Y-109487677D01*
X131492766Y-109473789D01*
X131500167Y-109460177D01*
X131507911Y-109446841D01*
X131516000Y-109433781D01*
X131524432Y-109420996D01*
X131533209Y-109408488D01*
X131542331Y-109396255D01*
X131551796Y-109384298D01*
X131561605Y-109372617D01*
X131571759Y-109361212D01*
X131582257Y-109350082D01*
X131593099Y-109339229D01*
X131604286Y-109328651D01*
X131615128Y-109318949D01*
X131626235Y-109309527D01*
X131637609Y-109300387D01*
X131649247Y-109291529D01*
X131661151Y-109282951D01*
X131673321Y-109274655D01*
X131685756Y-109266640D01*
X131698457Y-109258906D01*
X131711423Y-109251453D01*
X131724654Y-109244282D01*
X131738152Y-109237391D01*
X131751914Y-109230782D01*
X131765942Y-109224455D01*
X131780236Y-109218408D01*
X131794795Y-109212643D01*
X131809620Y-109207159D01*
X131824710Y-109201956D01*
X131840065Y-109197035D01*
X131855686Y-109192394D01*
X131871573Y-109188035D01*
X131887725Y-109183957D01*
X131904142Y-109180161D01*
X131920825Y-109176645D01*
X131937774Y-109173411D01*
X131954988Y-109170458D01*
X131972468Y-109167786D01*
X131990213Y-109165396D01*
X132008223Y-109163287D01*
X132026499Y-109161459D01*
X132045041Y-109159912D01*
X132063848Y-109158646D01*
X132082920Y-109157662D01*
X132102258Y-109156959D01*
X132121862Y-109156537D01*
X132141731Y-109156397D01*
X132161599Y-109156537D01*
X132181201Y-109156959D01*
X132200538Y-109157662D01*
X132219610Y-109158646D01*
X132238416Y-109159912D01*
X132256957Y-109161459D01*
X132275232Y-109163287D01*
X132293241Y-109165396D01*
X132310986Y-109167786D01*
X132328464Y-109170458D01*
X132345678Y-109173411D01*
X132362626Y-109176645D01*
X132379308Y-109180161D01*
X132395725Y-109183957D01*
X132411876Y-109188035D01*
X132427762Y-109192394D01*
X132443383Y-109197035D01*
X132458738Y-109201956D01*
X132473827Y-109207159D01*
X132488651Y-109212643D01*
X132503210Y-109218408D01*
X132517503Y-109224455D01*
X132531531Y-109230782D01*
X132545293Y-109237391D01*
X132558790Y-109244282D01*
X132572021Y-109251453D01*
X132584987Y-109258906D01*
X132597688Y-109266640D01*
X132610123Y-109274655D01*
X132622292Y-109282951D01*
X132634196Y-109291529D01*
X132645834Y-109300387D01*
X132657208Y-109309527D01*
X132668315Y-109318949D01*
X132679157Y-109328651D01*
X132690344Y-109339229D01*
X132701186Y-109350082D01*
X132711684Y-109361212D01*
X132721837Y-109372617D01*
X132731647Y-109384298D01*
X132741112Y-109396255D01*
X132750234Y-109408488D01*
X132759011Y-109420996D01*
X132767443Y-109433781D01*
X132775532Y-109446841D01*
X132783276Y-109460177D01*
X132790677Y-109473789D01*
X132797733Y-109487677D01*
X132804444Y-109501841D01*
X132810812Y-109516281D01*
X132816835Y-109530996D01*
X132822515Y-109545988D01*
X132827850Y-109561255D01*
X132832840Y-109576798D01*
X132837487Y-109592617D01*
X132841790Y-109608712D01*
X132845748Y-109625083D01*
X132849362Y-109641729D01*
X132852632Y-109658652D01*
X132855557Y-109675850D01*
X132858139Y-109693324D01*
X132860376Y-109711074D01*
X132862269Y-109729100D01*
X132863818Y-109747402D01*
X132865023Y-109765979D01*
X132865883Y-109784833D01*
X132866400Y-109803962D01*
X132866572Y-109823367D01*
X132866400Y-109842690D01*
X132865883Y-109861740D01*
X132865023Y-109880516D01*
X132863818Y-109899019D01*
X132862269Y-109917248D01*
X132860376Y-109935205D01*
X132858139Y-109952887D01*
X132855557Y-109970297D01*
X132852632Y-109987433D01*
X132849362Y-110004296D01*
X132845748Y-110020886D01*
X132841790Y-110037202D01*
X132837487Y-110053245D01*
X132832840Y-110069015D01*
X132827850Y-110084511D01*
X132822515Y-110099734D01*
X132816835Y-110114684D01*
X132810812Y-110129360D01*
X132804444Y-110143763D01*
X132797733Y-110157892D01*
X132790677Y-110171749D01*
X132783276Y-110185332D01*
X132775532Y-110198641D01*
X132767443Y-110211678D01*
X132759011Y-110224441D01*
X132750234Y-110236930D01*
X132741112Y-110249147D01*
X132731647Y-110261090D01*
X132721837Y-110272759D01*
X132711684Y-110284156D01*
X132701186Y-110295279D01*
X132690344Y-110306128D01*
X132679157Y-110316705D01*
X132679157Y-110316705D01*
G37*
G36*
X132844521Y-108792594D02*
X130900122Y-108792594D01*
X130900122Y-108453597D01*
X132844521Y-108453597D01*
X132844521Y-108792594D01*
X132844521Y-108792594D01*
G37*
G36*
X131436175Y-108147673D02*
X131436175Y-107788005D01*
X132418704Y-107472434D01*
X131436175Y-107162375D01*
X131436175Y-106804085D01*
X132878971Y-107340142D01*
X132899925Y-107347958D01*
X132920400Y-107355820D01*
X132940397Y-107363728D01*
X132959916Y-107371681D01*
X132978956Y-107379681D01*
X132997518Y-107387726D01*
X133015601Y-107395818D01*
X133033206Y-107403955D01*
X133050333Y-107412138D01*
X133066981Y-107420367D01*
X133083150Y-107428641D01*
X133098842Y-107436962D01*
X133114054Y-107445329D01*
X133128789Y-107453741D01*
X133143044Y-107462199D01*
X133156822Y-107470704D01*
X133170121Y-107479254D01*
X133182941Y-107487850D01*
X133195283Y-107496491D01*
X133207147Y-107505179D01*
X133218532Y-107513913D01*
X133229438Y-107522692D01*
X133239867Y-107531517D01*
X133249816Y-107540389D01*
X133259288Y-107549306D01*
X133268281Y-107558269D01*
X133276795Y-107567278D01*
X133284831Y-107576332D01*
X133292388Y-107585433D01*
X133304000Y-107600162D01*
X133314948Y-107614950D01*
X133325232Y-107629798D01*
X133334853Y-107644706D01*
X133343811Y-107659673D01*
X133352105Y-107674699D01*
X133359735Y-107689785D01*
X133366702Y-107704931D01*
X133373005Y-107720136D01*
X133378645Y-107735401D01*
X133383621Y-107750725D01*
X133387934Y-107766109D01*
X133391584Y-107781552D01*
X133394569Y-107797055D01*
X133396892Y-107812618D01*
X133398551Y-107828240D01*
X133399546Y-107843921D01*
X133399878Y-107859663D01*
X133399649Y-107875799D01*
X133398964Y-107891985D01*
X133397822Y-107908220D01*
X133396224Y-107924504D01*
X133394169Y-107940836D01*
X133391657Y-107957218D01*
X133388689Y-107973648D01*
X133385264Y-107990128D01*
X133381382Y-108006656D01*
X133377044Y-108023233D01*
X133372249Y-108039859D01*
X133366997Y-108056534D01*
X133361288Y-108073258D01*
X133078784Y-108073258D01*
X133085329Y-108057025D01*
X133091186Y-108040847D01*
X133096353Y-108024724D01*
X133100832Y-108008656D01*
X133104621Y-107992643D01*
X133107722Y-107976686D01*
X133110133Y-107960783D01*
X133111856Y-107944936D01*
X133112889Y-107929143D01*
X133113234Y-107913406D01*
X133112827Y-107903357D01*
X133111608Y-107893357D01*
X133109577Y-107883406D01*
X133106732Y-107873504D01*
X133103075Y-107863651D01*
X133098605Y-107853847D01*
X133093322Y-107844093D01*
X133087227Y-107834388D01*
X133080318Y-107824732D01*
X133072597Y-107815125D01*
X133064064Y-107805567D01*
X133054717Y-107796058D01*
X133044558Y-107786599D01*
X133033586Y-107777188D01*
X133021802Y-107767827D01*
X133009205Y-107758515D01*
X132995795Y-107749252D01*
X132981572Y-107740039D01*
X132966536Y-107730874D01*
X132950688Y-107721759D01*
X132934027Y-107712693D01*
X132916554Y-107703676D01*
X132898267Y-107694708D01*
X132879168Y-107685789D01*
X132859256Y-107676919D01*
X132838532Y-107668099D01*
X132816994Y-107659328D01*
X132794644Y-107650606D01*
X132771482Y-107641933D01*
X131436175Y-108147673D01*
X131436175Y-108147673D01*
G37*
G36*
X131853714Y-106608404D02*
X131835448Y-106608123D01*
X131817557Y-106607279D01*
X131800042Y-106605872D01*
X131782901Y-106603903D01*
X131766136Y-106601370D01*
X131749746Y-106598276D01*
X131733731Y-106594618D01*
X131718091Y-106590398D01*
X131702826Y-106585615D01*
X131687936Y-106580270D01*
X131673421Y-106574362D01*
X131659281Y-106567891D01*
X131645516Y-106560858D01*
X131632127Y-106553262D01*
X131619112Y-106545103D01*
X131606473Y-106536381D01*
X131594209Y-106527097D01*
X131582319Y-106517250D01*
X131570805Y-106506841D01*
X131559666Y-106495868D01*
X131548902Y-106484334D01*
X131538513Y-106472236D01*
X131528500Y-106459576D01*
X131519167Y-106446932D01*
X131510231Y-106434034D01*
X131501693Y-106420883D01*
X131493552Y-106407478D01*
X131485807Y-106393820D01*
X131478460Y-106379908D01*
X131471511Y-106365742D01*
X131464958Y-106351323D01*
X131458802Y-106336650D01*
X131453044Y-106321724D01*
X131447682Y-106306544D01*
X131442718Y-106291111D01*
X131438151Y-106275423D01*
X131433981Y-106259483D01*
X131430208Y-106243288D01*
X131426833Y-106226840D01*
X131423854Y-106210139D01*
X131421273Y-106193184D01*
X131419089Y-106175975D01*
X131417301Y-106158513D01*
X131415911Y-106140797D01*
X131414919Y-106122827D01*
X131414323Y-106104604D01*
X131414124Y-106086127D01*
X131414299Y-106068732D01*
X131414823Y-106051456D01*
X131415696Y-106034300D01*
X131416919Y-106017264D01*
X131418491Y-106000347D01*
X131420412Y-105983550D01*
X131422683Y-105966872D01*
X131425302Y-105950314D01*
X131428272Y-105933876D01*
X131431590Y-105917557D01*
X131435258Y-105901358D01*
X131439275Y-105885278D01*
X131443642Y-105869318D01*
X131448357Y-105853478D01*
X131453422Y-105837758D01*
X131458837Y-105822156D01*
X131464600Y-105806675D01*
X131470713Y-105791313D01*
X131477176Y-105776071D01*
X131483987Y-105760949D01*
X131491148Y-105745946D01*
X131498659Y-105731062D01*
X131506518Y-105716299D01*
X131514727Y-105701655D01*
X131772415Y-105701655D01*
X131765831Y-105716083D01*
X131759585Y-105730704D01*
X131753676Y-105745518D01*
X131748105Y-105760525D01*
X131742872Y-105775724D01*
X131737976Y-105791117D01*
X131733418Y-105806703D01*
X131729198Y-105822481D01*
X131725315Y-105838453D01*
X131721770Y-105854617D01*
X131718563Y-105870974D01*
X131715693Y-105887524D01*
X131713161Y-105904268D01*
X131710966Y-105921204D01*
X131709109Y-105938333D01*
X131707590Y-105955655D01*
X131706408Y-105973170D01*
X131705564Y-105990877D01*
X131705057Y-106008778D01*
X131704889Y-106026872D01*
X131705157Y-106049420D01*
X131705963Y-106070869D01*
X131707307Y-106091218D01*
X131709188Y-106110466D01*
X131711607Y-106128615D01*
X131714563Y-106145664D01*
X131718057Y-106161613D01*
X131722088Y-106176462D01*
X131726657Y-106190211D01*
X131731763Y-106202861D01*
X131737406Y-106214410D01*
X131743587Y-106224859D01*
X131750306Y-106234209D01*
X131757562Y-106242458D01*
X131765355Y-106249608D01*
X131773686Y-106255657D01*
X131782555Y-106260607D01*
X131791960Y-106264457D01*
X131801904Y-106267207D01*
X131812385Y-106268857D01*
X131823403Y-106269406D01*
X131837828Y-106268330D01*
X131851477Y-106265100D01*
X131864352Y-106259717D01*
X131876451Y-106252181D01*
X131887776Y-106242492D01*
X131898326Y-106230649D01*
X131908101Y-106216653D01*
X131917101Y-106200505D01*
X131923058Y-106187726D01*
X131928901Y-106174447D01*
X131934630Y-106160667D01*
X131940246Y-106146385D01*
X131945748Y-106131603D01*
X131951135Y-106116319D01*
X131956409Y-106100534D01*
X131961570Y-106084248D01*
X131966616Y-106067461D01*
X131971549Y-106050173D01*
X131976367Y-106032384D01*
X131980635Y-106015857D01*
X131985170Y-105999349D01*
X131989973Y-105982861D01*
X131995044Y-105966391D01*
X132000384Y-105949941D01*
X132005991Y-105933510D01*
X132011867Y-105917098D01*
X132018011Y-105900705D01*
X132024423Y-105884331D01*
X132031103Y-105867976D01*
X132038051Y-105851641D01*
X132045267Y-105835324D01*
X132051678Y-105821305D01*
X132058708Y-105807595D01*
X132066356Y-105794194D01*
X132074623Y-105781103D01*
X132083509Y-105768321D01*
X132093014Y-105755848D01*
X132103137Y-105743685D01*
X132113879Y-105731831D01*
X132125240Y-105720286D01*
X132137220Y-105709051D01*
X132149818Y-105698125D01*
X132163036Y-105687509D01*
X132176872Y-105677202D01*
X132191327Y-105667204D01*
X132203683Y-105659179D01*
X132216431Y-105651640D01*
X132229569Y-105644588D01*
X132243098Y-105638022D01*
X132257018Y-105631942D01*
X132271329Y-105626349D01*
X132286030Y-105621242D01*
X132301123Y-105616622D01*
X132316606Y-105612488D01*
X132332481Y-105608840D01*
X132348746Y-105605678D01*
X132365402Y-105603003D01*
X132382449Y-105600815D01*
X132399887Y-105599112D01*
X132417716Y-105597897D01*
X132435935Y-105597167D01*
X132454546Y-105596924D01*
X132471338Y-105597252D01*
X132487856Y-105598236D01*
X132504098Y-105599877D01*
X132520066Y-105602173D01*
X132535758Y-105605126D01*
X132551176Y-105608736D01*
X132566319Y-105613001D01*
X132581186Y-105617922D01*
X132595779Y-105623500D01*
X132610097Y-105629734D01*
X132624140Y-105636624D01*
X132637908Y-105644171D01*
X132651401Y-105652373D01*
X132664620Y-105661232D01*
X132677563Y-105670747D01*
X132690231Y-105680919D01*
X132702625Y-105691746D01*
X132714743Y-105703230D01*
X132726587Y-105715369D01*
X132738156Y-105728166D01*
X132749449Y-105741618D01*
X132759006Y-105753723D01*
X132768156Y-105766155D01*
X132776900Y-105778911D01*
X132785237Y-105791993D01*
X132793167Y-105805400D01*
X132800690Y-105819132D01*
X132807807Y-105833190D01*
X132814517Y-105847574D01*
X132820821Y-105862282D01*
X132826718Y-105877316D01*
X132832208Y-105892676D01*
X132837291Y-105908360D01*
X132841968Y-105924371D01*
X132846238Y-105940706D01*
X132850101Y-105957367D01*
X132853558Y-105974353D01*
X132856608Y-105991665D01*
X132859251Y-106009302D01*
X132861488Y-106027264D01*
X132863318Y-106045552D01*
X132864742Y-106064165D01*
X132865758Y-106083103D01*
X132866368Y-106102367D01*
X132866572Y-106121956D01*
X132866424Y-106139231D01*
X132865981Y-106156407D01*
X132865243Y-106173485D01*
X132864209Y-106190464D01*
X132862881Y-106207345D01*
X132861257Y-106224128D01*
X132859337Y-106240812D01*
X132857123Y-106257398D01*
X132854613Y-106273885D01*
X132851808Y-106290274D01*
X132848707Y-106306564D01*
X132845312Y-106322756D01*
X132841621Y-106338850D01*
X132837634Y-106354845D01*
X132833353Y-106370741D01*
X132828776Y-106386540D01*
X132823904Y-106402239D01*
X132818737Y-106417841D01*
X132813274Y-106433344D01*
X132807516Y-106448748D01*
X132801463Y-106464054D01*
X132795114Y-106479262D01*
X132788471Y-106494371D01*
X132781532Y-106509382D01*
X132774297Y-106524294D01*
X132766768Y-106539108D01*
X132758943Y-106553824D01*
X132750823Y-106568441D01*
X132449033Y-106568441D01*
X132458757Y-106553516D01*
X132468084Y-106538508D01*
X132477014Y-106523415D01*
X132485547Y-106508239D01*
X132493683Y-106492979D01*
X132501422Y-106477636D01*
X132508765Y-106462208D01*
X132515710Y-106446697D01*
X132522259Y-106431102D01*
X132528411Y-106415423D01*
X132534166Y-106399661D01*
X132539524Y-106383814D01*
X132544485Y-106367884D01*
X132549049Y-106351870D01*
X132553216Y-106335773D01*
X132556987Y-106319591D01*
X132560360Y-106303326D01*
X132563337Y-106286977D01*
X132565917Y-106270544D01*
X132568099Y-106254028D01*
X132569885Y-106237427D01*
X132571275Y-106220743D01*
X132572267Y-106203975D01*
X132572862Y-106187123D01*
X132573061Y-106170188D01*
X132572831Y-106146551D01*
X132572142Y-106124330D01*
X132570993Y-106103525D01*
X132569385Y-106084137D01*
X132567318Y-106066165D01*
X132564791Y-106049609D01*
X132561805Y-106034470D01*
X132558360Y-106020747D01*
X132554455Y-106008440D01*
X132550091Y-105997550D01*
X132545267Y-105988076D01*
X132539984Y-105980018D01*
X132530855Y-105969683D01*
X132520692Y-105960726D01*
X132509495Y-105953147D01*
X132497265Y-105946946D01*
X132484001Y-105942122D01*
X132469704Y-105938677D01*
X132454373Y-105936610D01*
X132438008Y-105935921D01*
X132424533Y-105936789D01*
X132411671Y-105939392D01*
X132399421Y-105943730D01*
X132387783Y-105949804D01*
X132376757Y-105957613D01*
X132366344Y-105967157D01*
X132356543Y-105978436D01*
X132347355Y-105991451D01*
X132338778Y-106006201D01*
X132331857Y-106018979D01*
X132325117Y-106032259D01*
X132318559Y-106046039D01*
X132312183Y-106060320D01*
X132305989Y-106075103D01*
X132299976Y-106090387D01*
X132294146Y-106106172D01*
X132288498Y-106122457D01*
X132283031Y-106139245D01*
X132277747Y-106156533D01*
X132272644Y-106174322D01*
X132267754Y-106190638D01*
X132262731Y-106206974D01*
X132257573Y-106223328D01*
X132252280Y-106239702D01*
X132246854Y-106256095D01*
X132241294Y-106272507D01*
X132235600Y-106288938D01*
X132229772Y-106305389D01*
X132223809Y-106321858D01*
X132217713Y-106338347D01*
X132211483Y-106354854D01*
X132205118Y-106371381D01*
X132198888Y-106386271D01*
X132192071Y-106400834D01*
X132184666Y-106415071D01*
X132176675Y-106428982D01*
X132168097Y-106442566D01*
X132158932Y-106455825D01*
X132149181Y-106468757D01*
X132138842Y-106481363D01*
X132127916Y-106493644D01*
X132116403Y-106505597D01*
X132104304Y-106517225D01*
X132091617Y-106528527D01*
X132078344Y-106539502D01*
X132066198Y-106548383D01*
X132053648Y-106556651D01*
X132040694Y-106564307D01*
X132027335Y-106571350D01*
X132013573Y-106577781D01*
X131999406Y-106583599D01*
X131984835Y-106588805D01*
X131969859Y-106593399D01*
X131954480Y-106597380D01*
X131938696Y-106600748D01*
X131922508Y-106603504D01*
X131905916Y-106605648D01*
X131888919Y-106607179D01*
X131871519Y-106608098D01*
X131853714Y-106608404D01*
X131853714Y-106608404D01*
G37*
G36*
X131726939Y-105383328D02*
X131436175Y-105383328D01*
X131436175Y-105146305D01*
X131018618Y-105146305D01*
X131018618Y-104807308D01*
X131436175Y-104807308D01*
X131436175Y-104473823D01*
X131726939Y-104473823D01*
X131726939Y-104807308D01*
X132421470Y-104807308D01*
X132443281Y-104806727D01*
X132463241Y-104804983D01*
X132481348Y-104802076D01*
X132497604Y-104798006D01*
X132512007Y-104792774D01*
X132524558Y-104786379D01*
X132535257Y-104778821D01*
X132544105Y-104770101D01*
X132550758Y-104760812D01*
X132556629Y-104750094D01*
X132561717Y-104737947D01*
X132566023Y-104724370D01*
X132569545Y-104709365D01*
X132572285Y-104692931D01*
X132574242Y-104675067D01*
X132575416Y-104655775D01*
X132575807Y-104635053D01*
X132575504Y-104617070D01*
X132574595Y-104599500D01*
X132573080Y-104582343D01*
X132570958Y-104565600D01*
X132568230Y-104549270D01*
X132564896Y-104533354D01*
X132560955Y-104517851D01*
X132556409Y-104502761D01*
X132551256Y-104488085D01*
X132545497Y-104473823D01*
X132825235Y-104473823D01*
X132831350Y-104489193D01*
X132836976Y-104504776D01*
X132842112Y-104520570D01*
X132846760Y-104536576D01*
X132850918Y-104552795D01*
X132854587Y-104569225D01*
X132857766Y-104585868D01*
X132860457Y-104602722D01*
X132862658Y-104619789D01*
X132864370Y-104637067D01*
X132865593Y-104654558D01*
X132866327Y-104672260D01*
X132866572Y-104690175D01*
X132866572Y-104697065D01*
X132866315Y-104715922D01*
X132865547Y-104734408D01*
X132864265Y-104752525D01*
X132862472Y-104770271D01*
X132860165Y-104787648D01*
X132857346Y-104804654D01*
X132854015Y-104821290D01*
X132850171Y-104837556D01*
X132845815Y-104853452D01*
X132840946Y-104868978D01*
X132835565Y-104884133D01*
X132829671Y-104898919D01*
X132823265Y-104913334D01*
X132816346Y-104927379D01*
X132808914Y-104941054D01*
X132800970Y-104954359D01*
X132792514Y-104967294D01*
X132783545Y-104979859D01*
X132774064Y-104992053D01*
X132764070Y-105003877D01*
X132753563Y-105015332D01*
X132742544Y-105026416D01*
X132731584Y-105036614D01*
X132720269Y-105046360D01*
X132708600Y-105055652D01*
X132696576Y-105064490D01*
X132684198Y-105072876D01*
X132671465Y-105080808D01*
X132658378Y-105088287D01*
X132644937Y-105095313D01*
X132631142Y-105101885D01*
X132616992Y-105108004D01*
X132602487Y-105113670D01*
X132587628Y-105118882D01*
X132572415Y-105123642D01*
X132556848Y-105127948D01*
X132540926Y-105131801D01*
X132524649Y-105135200D01*
X132508019Y-105138146D01*
X132491033Y-105140639D01*
X132473694Y-105142679D01*
X132456000Y-105144265D01*
X132437952Y-105145399D01*
X132419549Y-105146079D01*
X132400792Y-105146305D01*
X131726939Y-105146305D01*
X131726939Y-105383328D01*
X131726939Y-105383328D01*
X131726939Y-105383328D01*
G37*
G36*
X132384254Y-104206483D02*
X132341544Y-103871621D01*
X132357399Y-103871282D01*
X132372677Y-103870264D01*
X132387379Y-103868568D01*
X132401504Y-103866193D01*
X132415053Y-103863140D01*
X132428025Y-103859408D01*
X132440421Y-103854998D01*
X132452240Y-103849910D01*
X132463482Y-103844143D01*
X132474148Y-103837697D01*
X132484238Y-103830573D01*
X132493751Y-103822771D01*
X132502687Y-103814290D01*
X132511047Y-103805131D01*
X132518830Y-103795293D01*
X132526037Y-103784776D01*
X132532667Y-103773582D01*
X132538721Y-103761708D01*
X132544198Y-103749157D01*
X132549098Y-103735926D01*
X132553423Y-103722018D01*
X132557170Y-103707430D01*
X132560341Y-103692165D01*
X132562935Y-103676221D01*
X132564953Y-103659598D01*
X132566395Y-103642297D01*
X132567259Y-103624318D01*
X132567548Y-103605660D01*
X132567548Y-103602903D01*
X132567255Y-103584469D01*
X132566376Y-103566730D01*
X132564911Y-103549687D01*
X132562860Y-103533340D01*
X132560223Y-103517688D01*
X132556999Y-103502732D01*
X132553190Y-103488471D01*
X132548795Y-103474906D01*
X132543814Y-103462037D01*
X132538247Y-103449863D01*
X132532094Y-103438385D01*
X132525354Y-103427603D01*
X132518029Y-103417516D01*
X132510118Y-103408125D01*
X132501620Y-103399430D01*
X132492537Y-103391430D01*
X132482868Y-103384126D01*
X132472612Y-103377517D01*
X132461771Y-103371604D01*
X132450344Y-103366387D01*
X132438330Y-103361865D01*
X132425731Y-103358039D01*
X132412545Y-103354909D01*
X132398774Y-103352474D01*
X132384416Y-103350735D01*
X132369473Y-103349692D01*
X132353943Y-103349344D01*
X132176181Y-103349344D01*
X132173527Y-103368857D01*
X132171085Y-103387891D01*
X132168855Y-103406446D01*
X132166836Y-103424524D01*
X132165029Y-103442122D01*
X132163434Y-103459243D01*
X132162050Y-103475884D01*
X132160878Y-103492047D01*
X132159918Y-103507732D01*
X132159169Y-103522939D01*
X132158632Y-103537666D01*
X132158307Y-103551916D01*
X132158525Y-103573492D01*
X132159178Y-103594315D01*
X132160268Y-103614384D01*
X132161794Y-103633700D01*
X132163755Y-103652262D01*
X132166152Y-103670070D01*
X132168985Y-103687124D01*
X132172254Y-103703424D01*
X132175959Y-103718971D01*
X132180099Y-103733764D01*
X132184676Y-103747803D01*
X132189688Y-103761089D01*
X132195136Y-103773621D01*
X132201020Y-103785399D01*
X132207340Y-103796423D01*
X132214096Y-103806694D01*
X132221287Y-103816211D01*
X132228915Y-103824974D01*
X132236978Y-103832983D01*
X132245477Y-103840239D01*
X132254412Y-103846740D01*
X132263783Y-103852489D01*
X132273589Y-103857483D01*
X132283832Y-103861724D01*
X132294510Y-103865210D01*
X132305624Y-103867944D01*
X132317174Y-103869923D01*
X132329160Y-103871149D01*
X132341582Y-103871620D01*
X132341544Y-103871621D01*
X132384254Y-104206483D01*
X132367114Y-104206152D01*
X132349863Y-104205160D01*
X132332501Y-104203507D01*
X132315027Y-104201192D01*
X132297442Y-104198216D01*
X132283999Y-104195319D01*
X132269656Y-104191354D01*
X132254413Y-104186319D01*
X132238270Y-104180217D01*
X132221227Y-104173045D01*
X132203284Y-104164805D01*
X132184441Y-104155497D01*
X132169639Y-104147229D01*
X132155246Y-104138348D01*
X132141261Y-104128855D01*
X132127684Y-104118749D01*
X132114516Y-104108031D01*
X132101756Y-104096701D01*
X132089404Y-104084758D01*
X132077461Y-104072202D01*
X132065926Y-104059034D01*
X132057533Y-104048527D01*
X132049351Y-104037215D01*
X132041380Y-104025100D01*
X132033619Y-104012181D01*
X132026069Y-103998458D01*
X132018729Y-103983931D01*
X132011600Y-103968600D01*
X132004682Y-103952466D01*
X131997974Y-103935527D01*
X131991477Y-103917785D01*
X131985190Y-103899239D01*
X131979114Y-103879889D01*
X131974867Y-103865799D01*
X131970877Y-103851413D01*
X131967145Y-103836731D01*
X131963669Y-103821754D01*
X131960452Y-103806481D01*
X131957491Y-103790913D01*
X131954788Y-103775049D01*
X131952343Y-103758889D01*
X131950155Y-103742433D01*
X131948224Y-103725682D01*
X131946551Y-103708636D01*
X131945135Y-103691293D01*
X131943977Y-103673655D01*
X131943076Y-103655722D01*
X131942432Y-103637493D01*
X131942046Y-103618968D01*
X131941918Y-103600147D01*
X131942003Y-103584640D01*
X131942260Y-103568985D01*
X131942689Y-103553184D01*
X131943289Y-103537235D01*
X131944060Y-103521140D01*
X131945003Y-103504897D01*
X131946117Y-103488508D01*
X131947403Y-103471971D01*
X131948860Y-103455288D01*
X131950489Y-103438458D01*
X131952289Y-103421480D01*
X131954260Y-103404356D01*
X131956403Y-103387084D01*
X131958717Y-103369666D01*
X131961203Y-103352101D01*
X131945328Y-103352375D01*
X131929941Y-103353199D01*
X131915043Y-103354572D01*
X131900634Y-103356494D01*
X131886713Y-103358965D01*
X131873280Y-103361986D01*
X131860336Y-103365556D01*
X131847880Y-103369675D01*
X131835913Y-103374343D01*
X131824434Y-103379560D01*
X131813444Y-103385327D01*
X131802942Y-103391642D01*
X131792928Y-103398507D01*
X131783403Y-103405921D01*
X131774367Y-103413884D01*
X131765819Y-103422397D01*
X131757759Y-103431459D01*
X131750188Y-103441069D01*
X131743106Y-103451229D01*
X131736511Y-103461939D01*
X131730406Y-103473197D01*
X131724788Y-103485005D01*
X131719660Y-103497361D01*
X131715019Y-103510267D01*
X131710867Y-103523723D01*
X131707204Y-103537727D01*
X131704029Y-103552280D01*
X131701342Y-103567383D01*
X131699144Y-103583035D01*
X131697435Y-103599236D01*
X131696213Y-103615987D01*
X131695481Y-103633286D01*
X131695237Y-103651135D01*
X131695351Y-103669997D01*
X131695695Y-103688661D01*
X131696269Y-103707127D01*
X131697071Y-103725394D01*
X131698103Y-103743463D01*
X131699364Y-103761334D01*
X131700855Y-103779006D01*
X131702575Y-103796479D01*
X131704524Y-103813754D01*
X131706703Y-103830831D01*
X131709111Y-103847709D01*
X131711748Y-103864389D01*
X131714615Y-103880870D01*
X131717711Y-103897153D01*
X131721036Y-103913238D01*
X131724591Y-103929124D01*
X131728375Y-103944811D01*
X131732388Y-103960300D01*
X131736631Y-103975591D01*
X131741103Y-103990683D01*
X131745804Y-104005577D01*
X131750734Y-104020273D01*
X131755894Y-104034770D01*
X131761284Y-104049068D01*
X131766902Y-104063168D01*
X131492676Y-104063168D01*
X131486750Y-104048159D01*
X131481056Y-104033023D01*
X131475595Y-104017760D01*
X131470366Y-104002372D01*
X131465369Y-103986856D01*
X131460605Y-103971215D01*
X131456073Y-103955447D01*
X131451773Y-103939553D01*
X131447706Y-103923532D01*
X131443872Y-103907385D01*
X131440270Y-103891111D01*
X131436900Y-103874711D01*
X131433762Y-103858185D01*
X131430857Y-103841532D01*
X131428185Y-103824753D01*
X131425744Y-103807848D01*
X131423537Y-103790816D01*
X131421561Y-103773658D01*
X131419818Y-103756373D01*
X131418308Y-103738962D01*
X131417029Y-103721425D01*
X131415984Y-103703761D01*
X131415170Y-103685971D01*
X131414589Y-103668054D01*
X131414241Y-103650012D01*
X131414124Y-103631842D01*
X131414296Y-103611881D01*
X131414810Y-103592234D01*
X131415668Y-103572904D01*
X131416868Y-103553888D01*
X131418412Y-103535188D01*
X131420298Y-103516804D01*
X131422527Y-103498734D01*
X131425100Y-103480981D01*
X131428015Y-103463542D01*
X131431273Y-103446420D01*
X131434874Y-103429612D01*
X131438818Y-103413120D01*
X131443106Y-103396943D01*
X131447736Y-103381082D01*
X131452709Y-103365536D01*
X131458025Y-103350306D01*
X131463684Y-103335391D01*
X131469686Y-103320791D01*
X131476031Y-103306507D01*
X131482719Y-103292539D01*
X131489750Y-103278885D01*
X131497124Y-103265547D01*
X131504841Y-103252525D01*
X131512901Y-103239818D01*
X131521303Y-103227426D01*
X131530049Y-103215350D01*
X131539138Y-103203589D01*
X131548570Y-103192144D01*
X131558345Y-103181014D01*
X131568462Y-103170199D01*
X131578813Y-103159720D01*
X131589470Y-103149596D01*
X131600433Y-103139827D01*
X131611703Y-103130414D01*
X131623278Y-103121356D01*
X131635160Y-103112653D01*
X131647348Y-103104305D01*
X131659842Y-103096312D01*
X131672643Y-103088675D01*
X131685750Y-103081392D01*
X131699163Y-103074466D01*
X131712882Y-103067894D01*
X131726907Y-103061677D01*
X131741239Y-103055816D01*
X131755877Y-103050310D01*
X131770821Y-103045159D01*
X131786071Y-103040364D01*
X131801628Y-103035923D01*
X131817490Y-103031838D01*
X131833659Y-103028108D01*
X131850134Y-103024734D01*
X131866916Y-103021714D01*
X131884003Y-103019050D01*
X131901397Y-103016741D01*
X131919097Y-103014787D01*
X131937104Y-103013189D01*
X131955416Y-103011945D01*
X131974035Y-103011057D01*
X131992960Y-103010525D01*
X132012191Y-103010347D01*
X132392532Y-103010347D01*
X132409326Y-103010623D01*
X132425917Y-103011451D01*
X132442305Y-103012832D01*
X132458490Y-103014765D01*
X132474471Y-103017250D01*
X132490250Y-103020288D01*
X132505825Y-103023877D01*
X132521197Y-103028019D01*
X132536366Y-103032713D01*
X132551332Y-103037960D01*
X132566094Y-103043759D01*
X132580653Y-103050109D01*
X132595010Y-103057013D01*
X132609163Y-103064468D01*
X132623113Y-103072476D01*
X132636859Y-103081036D01*
X132650403Y-103090148D01*
X132663744Y-103099813D01*
X132676881Y-103110029D01*
X132689815Y-103120798D01*
X132702546Y-103132120D01*
X132715074Y-103143993D01*
X132727398Y-103156419D01*
X132736831Y-103166585D01*
X132745933Y-103177124D01*
X132754704Y-103188037D01*
X132763143Y-103199323D01*
X132771252Y-103210984D01*
X132779030Y-103223017D01*
X132786477Y-103235424D01*
X132793593Y-103248205D01*
X132800377Y-103261360D01*
X132806831Y-103274888D01*
X132812954Y-103288789D01*
X132818746Y-103303065D01*
X132824207Y-103317714D01*
X132829337Y-103332736D01*
X132834136Y-103348132D01*
X132838605Y-103363902D01*
X132842742Y-103380045D01*
X132846548Y-103396562D01*
X132850023Y-103413452D01*
X132853167Y-103430716D01*
X132855981Y-103448353D01*
X132858463Y-103466365D01*
X132860614Y-103484749D01*
X132862434Y-103503508D01*
X132863924Y-103522640D01*
X132865082Y-103542145D01*
X132865910Y-103562024D01*
X132866406Y-103582277D01*
X132866572Y-103602904D01*
X132866415Y-103623393D01*
X132865947Y-103643522D01*
X132865166Y-103663289D01*
X132864073Y-103682695D01*
X132862667Y-103701739D01*
X132860949Y-103720423D01*
X132858919Y-103738744D01*
X132856576Y-103756705D01*
X132853921Y-103774304D01*
X132850953Y-103791542D01*
X132847673Y-103808418D01*
X132844081Y-103824933D01*
X132840177Y-103841087D01*
X132835960Y-103856879D01*
X132831430Y-103872310D01*
X132826589Y-103887380D01*
X132821434Y-103902088D01*
X132815968Y-103916435D01*
X132810189Y-103930420D01*
X132804098Y-103944044D01*
X132797695Y-103957307D01*
X132790979Y-103970209D01*
X132783950Y-103982749D01*
X132776610Y-103994928D01*
X132768957Y-104006745D01*
X132760991Y-104018201D01*
X132752714Y-104029296D01*
X132744123Y-104040029D01*
X132735221Y-104050401D01*
X132726006Y-104060412D01*
X132713670Y-104072838D01*
X132701105Y-104084711D01*
X132688310Y-104096033D01*
X132675286Y-104106802D01*
X132662032Y-104117018D01*
X132648549Y-104126683D01*
X132634837Y-104135795D01*
X132620896Y-104144355D01*
X132606725Y-104152363D01*
X132592325Y-104159818D01*
X132577695Y-104166722D01*
X132562837Y-104173073D01*
X132547749Y-104178871D01*
X132532431Y-104184118D01*
X132516884Y-104188812D01*
X132501108Y-104192954D01*
X132485103Y-104196543D01*
X132468868Y-104199581D01*
X132452404Y-104202066D01*
X132435710Y-104203999D01*
X132418787Y-104205380D01*
X132401635Y-104206208D01*
X132384254Y-104206484D01*
X132384254Y-104206483D01*
X132384254Y-104206483D01*
G37*
G36*
X132141731Y-102712690D02*
X132121707Y-102712549D01*
X132101953Y-102712127D01*
X132082470Y-102711424D01*
X132063256Y-102710440D01*
X132044312Y-102709174D01*
X132025638Y-102707628D01*
X132007234Y-102705800D01*
X131989100Y-102703690D01*
X131971237Y-102701300D01*
X131953643Y-102698628D01*
X131936319Y-102695675D01*
X131919265Y-102692441D01*
X131902481Y-102688926D01*
X131885967Y-102685129D01*
X131869723Y-102681051D01*
X131853749Y-102676692D01*
X131838045Y-102672052D01*
X131822611Y-102667130D01*
X131807447Y-102661927D01*
X131792553Y-102656443D01*
X131777928Y-102650678D01*
X131763574Y-102644632D01*
X131749490Y-102638304D01*
X131735676Y-102631695D01*
X131722132Y-102624805D01*
X131708858Y-102617633D01*
X131695853Y-102610181D01*
X131683119Y-102602447D01*
X131670655Y-102594432D01*
X131658460Y-102586135D01*
X131646536Y-102577558D01*
X131634882Y-102568699D01*
X131623497Y-102559559D01*
X131612383Y-102550138D01*
X131601539Y-102540435D01*
X131590352Y-102529859D01*
X131579510Y-102519009D01*
X131569012Y-102507886D01*
X131558859Y-102496490D01*
X131549049Y-102484820D01*
X131539584Y-102472877D01*
X131530462Y-102460661D01*
X131521685Y-102448171D01*
X131513253Y-102435408D01*
X131505164Y-102422372D01*
X131497420Y-102409062D01*
X131490019Y-102395479D01*
X131482963Y-102381623D01*
X131476252Y-102367493D01*
X131469884Y-102353090D01*
X131463861Y-102338414D01*
X131458181Y-102323464D01*
X131452846Y-102308241D01*
X131447856Y-102292745D01*
X131443209Y-102276975D01*
X131438906Y-102260933D01*
X131434948Y-102244616D01*
X131431334Y-102228027D01*
X131428064Y-102211164D01*
X131425139Y-102194027D01*
X131422557Y-102176618D01*
X131420320Y-102158935D01*
X131418427Y-102140979D01*
X131416878Y-102122749D01*
X131415673Y-102104246D01*
X131414813Y-102085470D01*
X131414296Y-102066420D01*
X131414124Y-102047097D01*
X131414261Y-102029884D01*
X131414670Y-102012694D01*
X131415352Y-101995529D01*
X131416306Y-101978387D01*
X131417534Y-101961269D01*
X131419034Y-101944175D01*
X131420807Y-101927105D01*
X131422852Y-101910059D01*
X131425171Y-101893037D01*
X131427762Y-101876039D01*
X131430626Y-101859065D01*
X131433762Y-101842114D01*
X131437172Y-101825188D01*
X131440854Y-101808285D01*
X131444809Y-101791407D01*
X131449036Y-101774552D01*
X131453537Y-101757721D01*
X131458310Y-101740914D01*
X131463356Y-101724132D01*
X131468674Y-101707373D01*
X131474266Y-101690638D01*
X131480130Y-101673927D01*
X131486267Y-101657239D01*
X131492676Y-101640576D01*
X131775162Y-101640576D01*
X131768884Y-101656494D01*
X131762912Y-101672487D01*
X131757247Y-101688554D01*
X131751887Y-101704697D01*
X131746834Y-101720915D01*
X131742088Y-101737207D01*
X131737647Y-101753575D01*
X131733513Y-101770018D01*
X131729685Y-101786536D01*
X131726163Y-101803128D01*
X131722948Y-101819796D01*
X131720038Y-101836539D01*
X131717435Y-101853356D01*
X131715138Y-101870249D01*
X131713148Y-101887217D01*
X131711464Y-101904259D01*
X131710085Y-101921377D01*
X131709014Y-101938570D01*
X131708248Y-101955838D01*
X131707789Y-101973180D01*
X131707635Y-101990598D01*
X131707884Y-102010776D01*
X131708628Y-102030404D01*
X131709869Y-102049483D01*
X131711606Y-102068012D01*
X131713839Y-102085992D01*
X131716568Y-102103421D01*
X131719794Y-102120301D01*
X131723516Y-102136632D01*
X131727735Y-102152412D01*
X131732449Y-102167643D01*
X131737660Y-102182325D01*
X131743367Y-102196456D01*
X131749571Y-102210038D01*
X131756270Y-102223070D01*
X131763466Y-102235553D01*
X131771158Y-102247486D01*
X131779347Y-102258869D01*
X131788032Y-102269702D01*
X131797213Y-102279986D01*
X131805579Y-102288311D01*
X131814639Y-102296249D01*
X131824394Y-102303800D01*
X131834844Y-102310963D01*
X131845989Y-102317740D01*
X131857828Y-102324129D01*
X131870362Y-102330130D01*
X131883591Y-102335745D01*
X131897514Y-102340973D01*
X131912132Y-102345813D01*
X131927444Y-102350266D01*
X131943452Y-102354331D01*
X131960153Y-102358010D01*
X131977550Y-102361301D01*
X131995641Y-102364206D01*
X132014427Y-102366722D01*
X132033908Y-102368852D01*
X132054083Y-102370595D01*
X132074953Y-102371950D01*
X132096518Y-102372918D01*
X132118777Y-102373499D01*
X132141731Y-102373692D01*
X132164445Y-102373499D01*
X132186487Y-102372918D01*
X132207857Y-102371950D01*
X132228555Y-102370595D01*
X132248582Y-102368852D01*
X132267936Y-102366722D01*
X132286619Y-102364206D01*
X132304629Y-102361301D01*
X132321968Y-102358010D01*
X132338635Y-102354331D01*
X132354630Y-102350266D01*
X132369953Y-102345813D01*
X132384604Y-102340973D01*
X132398584Y-102335745D01*
X132411891Y-102330130D01*
X132424527Y-102324129D01*
X132436490Y-102317740D01*
X132447782Y-102310963D01*
X132458402Y-102303800D01*
X132468350Y-102296249D01*
X132477626Y-102288311D01*
X132486230Y-102279986D01*
X132495411Y-102269702D01*
X132504096Y-102258869D01*
X132512284Y-102247486D01*
X132519977Y-102235553D01*
X132527173Y-102223070D01*
X132533872Y-102210038D01*
X132540076Y-102196456D01*
X132545783Y-102182325D01*
X132550994Y-102167643D01*
X132555708Y-102152412D01*
X132559927Y-102136632D01*
X132563649Y-102120301D01*
X132566875Y-102103421D01*
X132569604Y-102085992D01*
X132571837Y-102068012D01*
X132573574Y-102049483D01*
X132574815Y-102030404D01*
X132575559Y-102010776D01*
X132575807Y-101990598D01*
X132575648Y-101973930D01*
X132575170Y-101957262D01*
X132574373Y-101940595D01*
X132573258Y-101923927D01*
X132571824Y-101907259D01*
X132570071Y-101890592D01*
X132567999Y-101873924D01*
X132565609Y-101857256D01*
X132562900Y-101840589D01*
X132559872Y-101823921D01*
X132556526Y-101807253D01*
X132552861Y-101790585D01*
X132548877Y-101773918D01*
X132544575Y-101757250D01*
X132539954Y-101740582D01*
X132535014Y-101723915D01*
X132529755Y-101707247D01*
X132524178Y-101690579D01*
X132518282Y-101673911D01*
X132512067Y-101657244D01*
X132505534Y-101640576D01*
X132788020Y-101640576D01*
X132794429Y-101657239D01*
X132800566Y-101673927D01*
X132806430Y-101690638D01*
X132812022Y-101707373D01*
X132817340Y-101724132D01*
X132822386Y-101740914D01*
X132827159Y-101757721D01*
X132831660Y-101774552D01*
X132835887Y-101791407D01*
X132839842Y-101808285D01*
X132843524Y-101825188D01*
X132846934Y-101842114D01*
X132850070Y-101859065D01*
X132852934Y-101876039D01*
X132855525Y-101893037D01*
X132857844Y-101910059D01*
X132859889Y-101927105D01*
X132861662Y-101944175D01*
X132863162Y-101961269D01*
X132864390Y-101978387D01*
X132865344Y-101995529D01*
X132866026Y-102012694D01*
X132866435Y-102029884D01*
X132866572Y-102047097D01*
X132866400Y-102066420D01*
X132865883Y-102085470D01*
X132865023Y-102104246D01*
X132863818Y-102122749D01*
X132862269Y-102140979D01*
X132860376Y-102158935D01*
X132858139Y-102176618D01*
X132855557Y-102194027D01*
X132852632Y-102211164D01*
X132849362Y-102228027D01*
X132845748Y-102244616D01*
X132841790Y-102260933D01*
X132837487Y-102276975D01*
X132832840Y-102292745D01*
X132827850Y-102308241D01*
X132822515Y-102323464D01*
X132816835Y-102338414D01*
X132810812Y-102353090D01*
X132804444Y-102367493D01*
X132797733Y-102381623D01*
X132790677Y-102395479D01*
X132783276Y-102409062D01*
X132775532Y-102422372D01*
X132767443Y-102435408D01*
X132759011Y-102448171D01*
X132750234Y-102460661D01*
X132741112Y-102472877D01*
X132731647Y-102484820D01*
X132721837Y-102496490D01*
X132711684Y-102507886D01*
X132701186Y-102519009D01*
X132690344Y-102529859D01*
X132679157Y-102540435D01*
X132668315Y-102550138D01*
X132657208Y-102559559D01*
X132645834Y-102568699D01*
X132634196Y-102577558D01*
X132622292Y-102586135D01*
X132610123Y-102594432D01*
X132597688Y-102602447D01*
X132584987Y-102610181D01*
X132572021Y-102617633D01*
X132558790Y-102624805D01*
X132545293Y-102631695D01*
X132531531Y-102638304D01*
X132517503Y-102644632D01*
X132503210Y-102650678D01*
X132488651Y-102656443D01*
X132473827Y-102661927D01*
X132458738Y-102667130D01*
X132443383Y-102672052D01*
X132427762Y-102676692D01*
X132411876Y-102681051D01*
X132395725Y-102685129D01*
X132379308Y-102688926D01*
X132362626Y-102692441D01*
X132345678Y-102695675D01*
X132328464Y-102698628D01*
X132310986Y-102701300D01*
X132293241Y-102703690D01*
X132275232Y-102705800D01*
X132256957Y-102707628D01*
X132238416Y-102709174D01*
X132219610Y-102710440D01*
X132200538Y-102711424D01*
X132181201Y-102712127D01*
X132161599Y-102712549D01*
X132141731Y-102712690D01*
X132141731Y-102712690D01*
G37*
G36*
X132844521Y-101327761D02*
X130908382Y-101327761D01*
X130908382Y-100988764D01*
X131952943Y-100988764D01*
X131436175Y-100514719D01*
X131436175Y-100065478D01*
X132063179Y-100678705D01*
X132844521Y-100000711D01*
X132844521Y-100429281D01*
X132289183Y-100895057D01*
X132384254Y-100988764D01*
X132844521Y-100988764D01*
X132844521Y-101327761D01*
X132844521Y-101327761D01*
G37*
M02*
