G04 #@! TF.FileFunction,Soldermask,Top*
%FSLAX46Y46*%
G04 Gerber Fmt 4.6, Leading zero omitted, Abs format (unit mm)*
G04 Created by KiCad (PCBNEW 4.0.1-stable) date Thursday, April 14, 2016 'AMt' 11:24:42 AM*
%MOMM*%
G01*
G04 APERTURE LIST*
%ADD10C,0.100000*%
%ADD11C,0.010000*%
%ADD12R,1.052400X0.652400*%
G04 APERTURE END LIST*
D10*
D11*
G36*
X131193103Y-118408969D02*
X131194878Y-118371134D01*
X131197950Y-118335237D01*
X131202451Y-118299588D01*
X131208512Y-118262501D01*
X131213226Y-118237463D01*
X131220873Y-118200495D01*
X131229056Y-118165230D01*
X131238108Y-118130622D01*
X131248364Y-118095624D01*
X131260156Y-118059191D01*
X131273818Y-118020278D01*
X131289684Y-117977839D01*
X131308088Y-117930827D01*
X131322406Y-117895263D01*
X131341805Y-117848042D01*
X131361943Y-117800102D01*
X131383011Y-117751041D01*
X131405199Y-117700453D01*
X131428695Y-117647934D01*
X131453689Y-117593079D01*
X131480372Y-117535486D01*
X131508932Y-117474749D01*
X131539559Y-117410464D01*
X131572442Y-117342227D01*
X131607772Y-117269635D01*
X131645737Y-117192281D01*
X131686528Y-117109764D01*
X131730333Y-117021677D01*
X131759177Y-116963915D01*
X131799964Y-116882201D01*
X131837698Y-116806268D01*
X131872596Y-116735642D01*
X131904875Y-116669851D01*
X131934752Y-116608423D01*
X131962444Y-116550885D01*
X131988167Y-116496765D01*
X132012138Y-116445591D01*
X132034575Y-116396889D01*
X132055695Y-116350189D01*
X132075714Y-116305018D01*
X132094848Y-116260903D01*
X132113316Y-116217371D01*
X132131334Y-116173951D01*
X132149119Y-116130171D01*
X132166888Y-116085557D01*
X132184857Y-116039637D01*
X132191509Y-116022458D01*
X132200793Y-115998476D01*
X132209455Y-115976212D01*
X132217109Y-115956652D01*
X132223366Y-115940781D01*
X132227840Y-115929586D01*
X132230070Y-115924216D01*
X132234573Y-115914168D01*
X132253849Y-115929302D01*
X132267902Y-115941111D01*
X132285482Y-115957080D01*
X132305449Y-115976079D01*
X132326663Y-115996977D01*
X132347986Y-116018643D01*
X132368277Y-116039945D01*
X132386397Y-116059754D01*
X132393920Y-116068319D01*
X132455039Y-116143898D01*
X132513238Y-116225648D01*
X132568375Y-116313253D01*
X132620306Y-116406399D01*
X132668886Y-116504769D01*
X132713973Y-116608048D01*
X132755422Y-116715921D01*
X132793091Y-116828072D01*
X132826835Y-116944186D01*
X132856510Y-117063946D01*
X132865281Y-117103722D01*
X132877567Y-117162747D01*
X132888013Y-117216586D01*
X132896877Y-117266795D01*
X132904413Y-117314926D01*
X132910877Y-117362531D01*
X132916526Y-117411165D01*
X132917588Y-117421222D01*
X132919185Y-117441268D01*
X132920438Y-117466488D01*
X132921348Y-117495561D01*
X132921913Y-117527167D01*
X132922134Y-117559986D01*
X132922011Y-117592697D01*
X132921543Y-117623980D01*
X132920730Y-117652515D01*
X132919572Y-117676981D01*
X132918069Y-117696059D01*
X132917629Y-117699917D01*
X132906359Y-117770413D01*
X132890777Y-117835332D01*
X132870875Y-117894686D01*
X132846642Y-117948489D01*
X132818071Y-117996754D01*
X132785152Y-118039494D01*
X132747875Y-118076725D01*
X132706233Y-118108458D01*
X132660216Y-118134708D01*
X132613556Y-118154186D01*
X132585336Y-118163436D01*
X132559790Y-118170050D01*
X132534670Y-118174389D01*
X132507726Y-118176811D01*
X132476710Y-118177677D01*
X132466690Y-118177689D01*
X132409783Y-118177494D01*
X132407430Y-118200459D01*
X132405078Y-118223423D01*
X132439010Y-118273181D01*
X132488359Y-118272739D01*
X132546590Y-118268754D01*
X132603341Y-118257973D01*
X132658195Y-118240573D01*
X132710732Y-118216733D01*
X132760536Y-118186631D01*
X132807188Y-118150446D01*
X132834155Y-118125226D01*
X132871000Y-118084590D01*
X132903371Y-118040860D01*
X132931491Y-117993528D01*
X132955584Y-117942089D01*
X132975873Y-117886034D01*
X132992584Y-117824857D01*
X133005938Y-117758052D01*
X133011113Y-117724611D01*
X133013389Y-117703545D01*
X133015185Y-117676697D01*
X133016500Y-117645325D01*
X133017334Y-117610685D01*
X133017688Y-117574034D01*
X133017562Y-117536631D01*
X133016956Y-117499731D01*
X133015870Y-117464593D01*
X133014303Y-117432474D01*
X133012257Y-117404630D01*
X133011088Y-117393000D01*
X132995915Y-117278753D01*
X132976055Y-117163621D01*
X132951770Y-117048476D01*
X132923321Y-116934191D01*
X132890969Y-116821641D01*
X132854975Y-116711697D01*
X132815600Y-116605234D01*
X132773106Y-116503124D01*
X132727754Y-116406240D01*
X132699498Y-116351392D01*
X132652751Y-116268282D01*
X132603631Y-116189342D01*
X132552487Y-116115019D01*
X132499668Y-116045759D01*
X132445522Y-115982007D01*
X132390397Y-115924209D01*
X132334643Y-115872812D01*
X132308480Y-115851120D01*
X132290572Y-115836411D01*
X132278259Y-115825353D01*
X132271267Y-115817679D01*
X132269322Y-115813122D01*
X132269373Y-115812894D01*
X132273012Y-115798318D01*
X132277139Y-115777871D01*
X132281588Y-115752704D01*
X132286193Y-115723971D01*
X132290787Y-115692826D01*
X132295204Y-115660421D01*
X132299276Y-115627909D01*
X132302837Y-115596444D01*
X132305720Y-115567179D01*
X132306893Y-115553264D01*
X132308630Y-115523004D01*
X132309311Y-115489491D01*
X132308909Y-115452279D01*
X132307398Y-115410925D01*
X132304750Y-115364983D01*
X132300938Y-115314009D01*
X132295937Y-115257559D01*
X132289719Y-115195188D01*
X132282256Y-115126452D01*
X132279853Y-115105236D01*
X132268039Y-115007304D01*
X132254253Y-114902890D01*
X132238544Y-114792274D01*
X132220962Y-114675733D01*
X132201559Y-114553546D01*
X132180386Y-114425989D01*
X132157492Y-114293343D01*
X132132928Y-114155883D01*
X132106746Y-114013890D01*
X132078995Y-113867640D01*
X132049727Y-113717412D01*
X132018991Y-113563483D01*
X131986840Y-113406133D01*
X131953322Y-113245639D01*
X131918489Y-113082279D01*
X131882392Y-112916331D01*
X131876166Y-112888028D01*
X131869268Y-112856495D01*
X131862787Y-112826427D01*
X131856899Y-112798674D01*
X131851780Y-112774087D01*
X131847607Y-112753516D01*
X131844556Y-112737814D01*
X131842804Y-112727830D01*
X131842520Y-112725750D01*
X131842603Y-112698371D01*
X131848198Y-112669403D01*
X131858640Y-112640663D01*
X131873263Y-112613968D01*
X131891400Y-112591137D01*
X131892097Y-112590423D01*
X131904458Y-112579666D01*
X131922584Y-112566441D01*
X131945782Y-112551127D01*
X131973362Y-112534102D01*
X132004633Y-112515747D01*
X132038902Y-112496438D01*
X132075479Y-112476556D01*
X132113671Y-112456479D01*
X132152789Y-112436585D01*
X132192139Y-112417253D01*
X132231031Y-112398863D01*
X132268774Y-112381792D01*
X132288888Y-112373062D01*
X132357828Y-112345582D01*
X132422753Y-112323705D01*
X132483631Y-112307436D01*
X132540428Y-112296780D01*
X132593112Y-112291742D01*
X132641650Y-112292326D01*
X132686008Y-112298538D01*
X132724355Y-112309697D01*
X132744617Y-112319279D01*
X132766530Y-112332842D01*
X132787628Y-112348641D01*
X132805441Y-112364928D01*
X132810860Y-112370911D01*
X132822771Y-112386300D01*
X132833287Y-112402919D01*
X132842518Y-112421311D01*
X132850574Y-112442022D01*
X132857565Y-112465594D01*
X132863602Y-112492573D01*
X132868794Y-112523502D01*
X132873252Y-112558926D01*
X132877086Y-112599388D01*
X132880405Y-112645433D01*
X132883321Y-112697604D01*
X132885182Y-112738097D01*
X132885961Y-112757868D01*
X132886876Y-112783696D01*
X132887897Y-112814584D01*
X132888994Y-112849536D01*
X132890137Y-112887554D01*
X132891294Y-112927643D01*
X132892437Y-112968805D01*
X132893534Y-113010044D01*
X132894070Y-113030903D01*
X132896865Y-113136868D01*
X132899728Y-113236377D01*
X132902688Y-113330029D01*
X132905774Y-113418424D01*
X132909016Y-113502160D01*
X132912444Y-113581838D01*
X132916086Y-113658056D01*
X132919972Y-113731413D01*
X132924132Y-113802509D01*
X132928595Y-113871944D01*
X132933390Y-113940317D01*
X132938548Y-114008226D01*
X132944096Y-114076271D01*
X132947168Y-114112167D01*
X132961484Y-114264575D01*
X132977501Y-114411084D01*
X132995426Y-114552686D01*
X133015462Y-114690371D01*
X133037813Y-114825131D01*
X133062686Y-114957958D01*
X133090283Y-115089844D01*
X133120811Y-115221779D01*
X133154473Y-115354756D01*
X133191474Y-115489766D01*
X133232018Y-115627801D01*
X133276311Y-115769851D01*
X133311516Y-115877819D01*
X133330415Y-115934471D01*
X133348181Y-115986899D01*
X133365079Y-116035676D01*
X133381377Y-116081373D01*
X133397340Y-116124563D01*
X133413235Y-116165816D01*
X133429327Y-116205705D01*
X133445884Y-116244801D01*
X133463170Y-116283675D01*
X133481452Y-116322901D01*
X133500997Y-116363048D01*
X133522071Y-116404690D01*
X133544939Y-116448398D01*
X133569869Y-116494743D01*
X133597125Y-116544297D01*
X133626975Y-116597632D01*
X133659684Y-116655320D01*
X133695519Y-116717932D01*
X133732815Y-116782694D01*
X133761743Y-116832887D01*
X133787450Y-116877657D01*
X133810298Y-116917661D01*
X133830648Y-116953555D01*
X133848863Y-116985994D01*
X133865303Y-117015635D01*
X133880330Y-117043134D01*
X133894307Y-117069147D01*
X133907594Y-117094330D01*
X133920554Y-117119338D01*
X133933549Y-117144828D01*
X133944820Y-117167222D01*
X133976741Y-117232539D01*
X134004702Y-117293326D01*
X134029064Y-117350631D01*
X134050188Y-117405499D01*
X134068436Y-117458978D01*
X134084169Y-117512115D01*
X134097748Y-117565957D01*
X134109537Y-117621551D01*
X134118094Y-117669025D01*
X134127475Y-117728301D01*
X134134849Y-117782886D01*
X134140377Y-117834804D01*
X134144223Y-117886074D01*
X134146550Y-117938721D01*
X134147522Y-117994766D01*
X134147509Y-118033292D01*
X134147309Y-118059880D01*
X134147051Y-118084924D01*
X134146751Y-118107330D01*
X134146426Y-118126003D01*
X134146092Y-118139851D01*
X134145767Y-118147777D01*
X134145755Y-118147944D01*
X134136740Y-118238991D01*
X134123096Y-118328800D01*
X134105042Y-118416515D01*
X134082798Y-118501282D01*
X134056583Y-118582244D01*
X134026619Y-118658545D01*
X133999817Y-118716209D01*
X133952919Y-118802043D01*
X133899377Y-118885670D01*
X133839273Y-118967012D01*
X133772690Y-119045994D01*
X133699708Y-119122539D01*
X133620411Y-119196571D01*
X133534879Y-119268015D01*
X133443196Y-119336793D01*
X133345442Y-119402829D01*
X133241701Y-119466048D01*
X133132053Y-119526373D01*
X133123746Y-119530700D01*
X133048734Y-119567707D01*
X132970989Y-119602221D01*
X132889580Y-119634600D01*
X132803574Y-119665202D01*
X132712039Y-119694388D01*
X132655758Y-119710890D01*
X132629169Y-119718457D01*
X132530044Y-119964194D01*
X132514069Y-120003671D01*
X132498791Y-120041187D01*
X132484422Y-120076234D01*
X132471173Y-120108306D01*
X132459257Y-120136898D01*
X132448887Y-120161502D01*
X132440274Y-120181612D01*
X132433630Y-120196722D01*
X132429168Y-120206326D01*
X132427101Y-120209917D01*
X132427055Y-120209931D01*
X132424178Y-120207356D01*
X132416965Y-120199885D01*
X132405762Y-120187902D01*
X132390917Y-120171787D01*
X132372776Y-120151922D01*
X132351686Y-120128690D01*
X132327994Y-120102471D01*
X132302048Y-120073649D01*
X132274193Y-120042605D01*
X132244778Y-120009720D01*
X132221966Y-119984153D01*
X132020741Y-119758375D01*
X131981022Y-119743997D01*
X131910948Y-119715662D01*
X131844045Y-119682414D01*
X131779707Y-119643848D01*
X131717324Y-119599555D01*
X131656287Y-119549130D01*
X131595990Y-119492165D01*
X131579917Y-119475776D01*
X131519739Y-119408462D01*
X131464059Y-119335870D01*
X131413010Y-119258266D01*
X131366722Y-119175914D01*
X131325330Y-119089079D01*
X131288964Y-118998026D01*
X131257758Y-118903021D01*
X131231842Y-118804329D01*
X131221834Y-118758250D01*
X131213197Y-118713853D01*
X131206427Y-118674131D01*
X131201295Y-118637021D01*
X131197572Y-118600460D01*
X131195029Y-118562386D01*
X131193439Y-118520735D01*
X131192916Y-118497194D01*
X131192493Y-118450426D01*
X131193103Y-118408969D01*
X131193103Y-118408969D01*
G37*
X131193103Y-118408969D02*
X131194878Y-118371134D01*
X131197950Y-118335237D01*
X131202451Y-118299588D01*
X131208512Y-118262501D01*
X131213226Y-118237463D01*
X131220873Y-118200495D01*
X131229056Y-118165230D01*
X131238108Y-118130622D01*
X131248364Y-118095624D01*
X131260156Y-118059191D01*
X131273818Y-118020278D01*
X131289684Y-117977839D01*
X131308088Y-117930827D01*
X131322406Y-117895263D01*
X131341805Y-117848042D01*
X131361943Y-117800102D01*
X131383011Y-117751041D01*
X131405199Y-117700453D01*
X131428695Y-117647934D01*
X131453689Y-117593079D01*
X131480372Y-117535486D01*
X131508932Y-117474749D01*
X131539559Y-117410464D01*
X131572442Y-117342227D01*
X131607772Y-117269635D01*
X131645737Y-117192281D01*
X131686528Y-117109764D01*
X131730333Y-117021677D01*
X131759177Y-116963915D01*
X131799964Y-116882201D01*
X131837698Y-116806268D01*
X131872596Y-116735642D01*
X131904875Y-116669851D01*
X131934752Y-116608423D01*
X131962444Y-116550885D01*
X131988167Y-116496765D01*
X132012138Y-116445591D01*
X132034575Y-116396889D01*
X132055695Y-116350189D01*
X132075714Y-116305018D01*
X132094848Y-116260903D01*
X132113316Y-116217371D01*
X132131334Y-116173951D01*
X132149119Y-116130171D01*
X132166888Y-116085557D01*
X132184857Y-116039637D01*
X132191509Y-116022458D01*
X132200793Y-115998476D01*
X132209455Y-115976212D01*
X132217109Y-115956652D01*
X132223366Y-115940781D01*
X132227840Y-115929586D01*
X132230070Y-115924216D01*
X132234573Y-115914168D01*
X132253849Y-115929302D01*
X132267902Y-115941111D01*
X132285482Y-115957080D01*
X132305449Y-115976079D01*
X132326663Y-115996977D01*
X132347986Y-116018643D01*
X132368277Y-116039945D01*
X132386397Y-116059754D01*
X132393920Y-116068319D01*
X132455039Y-116143898D01*
X132513238Y-116225648D01*
X132568375Y-116313253D01*
X132620306Y-116406399D01*
X132668886Y-116504769D01*
X132713973Y-116608048D01*
X132755422Y-116715921D01*
X132793091Y-116828072D01*
X132826835Y-116944186D01*
X132856510Y-117063946D01*
X132865281Y-117103722D01*
X132877567Y-117162747D01*
X132888013Y-117216586D01*
X132896877Y-117266795D01*
X132904413Y-117314926D01*
X132910877Y-117362531D01*
X132916526Y-117411165D01*
X132917588Y-117421222D01*
X132919185Y-117441268D01*
X132920438Y-117466488D01*
X132921348Y-117495561D01*
X132921913Y-117527167D01*
X132922134Y-117559986D01*
X132922011Y-117592697D01*
X132921543Y-117623980D01*
X132920730Y-117652515D01*
X132919572Y-117676981D01*
X132918069Y-117696059D01*
X132917629Y-117699917D01*
X132906359Y-117770413D01*
X132890777Y-117835332D01*
X132870875Y-117894686D01*
X132846642Y-117948489D01*
X132818071Y-117996754D01*
X132785152Y-118039494D01*
X132747875Y-118076725D01*
X132706233Y-118108458D01*
X132660216Y-118134708D01*
X132613556Y-118154186D01*
X132585336Y-118163436D01*
X132559790Y-118170050D01*
X132534670Y-118174389D01*
X132507726Y-118176811D01*
X132476710Y-118177677D01*
X132466690Y-118177689D01*
X132409783Y-118177494D01*
X132407430Y-118200459D01*
X132405078Y-118223423D01*
X132439010Y-118273181D01*
X132488359Y-118272739D01*
X132546590Y-118268754D01*
X132603341Y-118257973D01*
X132658195Y-118240573D01*
X132710732Y-118216733D01*
X132760536Y-118186631D01*
X132807188Y-118150446D01*
X132834155Y-118125226D01*
X132871000Y-118084590D01*
X132903371Y-118040860D01*
X132931491Y-117993528D01*
X132955584Y-117942089D01*
X132975873Y-117886034D01*
X132992584Y-117824857D01*
X133005938Y-117758052D01*
X133011113Y-117724611D01*
X133013389Y-117703545D01*
X133015185Y-117676697D01*
X133016500Y-117645325D01*
X133017334Y-117610685D01*
X133017688Y-117574034D01*
X133017562Y-117536631D01*
X133016956Y-117499731D01*
X133015870Y-117464593D01*
X133014303Y-117432474D01*
X133012257Y-117404630D01*
X133011088Y-117393000D01*
X132995915Y-117278753D01*
X132976055Y-117163621D01*
X132951770Y-117048476D01*
X132923321Y-116934191D01*
X132890969Y-116821641D01*
X132854975Y-116711697D01*
X132815600Y-116605234D01*
X132773106Y-116503124D01*
X132727754Y-116406240D01*
X132699498Y-116351392D01*
X132652751Y-116268282D01*
X132603631Y-116189342D01*
X132552487Y-116115019D01*
X132499668Y-116045759D01*
X132445522Y-115982007D01*
X132390397Y-115924209D01*
X132334643Y-115872812D01*
X132308480Y-115851120D01*
X132290572Y-115836411D01*
X132278259Y-115825353D01*
X132271267Y-115817679D01*
X132269322Y-115813122D01*
X132269373Y-115812894D01*
X132273012Y-115798318D01*
X132277139Y-115777871D01*
X132281588Y-115752704D01*
X132286193Y-115723971D01*
X132290787Y-115692826D01*
X132295204Y-115660421D01*
X132299276Y-115627909D01*
X132302837Y-115596444D01*
X132305720Y-115567179D01*
X132306893Y-115553264D01*
X132308630Y-115523004D01*
X132309311Y-115489491D01*
X132308909Y-115452279D01*
X132307398Y-115410925D01*
X132304750Y-115364983D01*
X132300938Y-115314009D01*
X132295937Y-115257559D01*
X132289719Y-115195188D01*
X132282256Y-115126452D01*
X132279853Y-115105236D01*
X132268039Y-115007304D01*
X132254253Y-114902890D01*
X132238544Y-114792274D01*
X132220962Y-114675733D01*
X132201559Y-114553546D01*
X132180386Y-114425989D01*
X132157492Y-114293343D01*
X132132928Y-114155883D01*
X132106746Y-114013890D01*
X132078995Y-113867640D01*
X132049727Y-113717412D01*
X132018991Y-113563483D01*
X131986840Y-113406133D01*
X131953322Y-113245639D01*
X131918489Y-113082279D01*
X131882392Y-112916331D01*
X131876166Y-112888028D01*
X131869268Y-112856495D01*
X131862787Y-112826427D01*
X131856899Y-112798674D01*
X131851780Y-112774087D01*
X131847607Y-112753516D01*
X131844556Y-112737814D01*
X131842804Y-112727830D01*
X131842520Y-112725750D01*
X131842603Y-112698371D01*
X131848198Y-112669403D01*
X131858640Y-112640663D01*
X131873263Y-112613968D01*
X131891400Y-112591137D01*
X131892097Y-112590423D01*
X131904458Y-112579666D01*
X131922584Y-112566441D01*
X131945782Y-112551127D01*
X131973362Y-112534102D01*
X132004633Y-112515747D01*
X132038902Y-112496438D01*
X132075479Y-112476556D01*
X132113671Y-112456479D01*
X132152789Y-112436585D01*
X132192139Y-112417253D01*
X132231031Y-112398863D01*
X132268774Y-112381792D01*
X132288888Y-112373062D01*
X132357828Y-112345582D01*
X132422753Y-112323705D01*
X132483631Y-112307436D01*
X132540428Y-112296780D01*
X132593112Y-112291742D01*
X132641650Y-112292326D01*
X132686008Y-112298538D01*
X132724355Y-112309697D01*
X132744617Y-112319279D01*
X132766530Y-112332842D01*
X132787628Y-112348641D01*
X132805441Y-112364928D01*
X132810860Y-112370911D01*
X132822771Y-112386300D01*
X132833287Y-112402919D01*
X132842518Y-112421311D01*
X132850574Y-112442022D01*
X132857565Y-112465594D01*
X132863602Y-112492573D01*
X132868794Y-112523502D01*
X132873252Y-112558926D01*
X132877086Y-112599388D01*
X132880405Y-112645433D01*
X132883321Y-112697604D01*
X132885182Y-112738097D01*
X132885961Y-112757868D01*
X132886876Y-112783696D01*
X132887897Y-112814584D01*
X132888994Y-112849536D01*
X132890137Y-112887554D01*
X132891294Y-112927643D01*
X132892437Y-112968805D01*
X132893534Y-113010044D01*
X132894070Y-113030903D01*
X132896865Y-113136868D01*
X132899728Y-113236377D01*
X132902688Y-113330029D01*
X132905774Y-113418424D01*
X132909016Y-113502160D01*
X132912444Y-113581838D01*
X132916086Y-113658056D01*
X132919972Y-113731413D01*
X132924132Y-113802509D01*
X132928595Y-113871944D01*
X132933390Y-113940317D01*
X132938548Y-114008226D01*
X132944096Y-114076271D01*
X132947168Y-114112167D01*
X132961484Y-114264575D01*
X132977501Y-114411084D01*
X132995426Y-114552686D01*
X133015462Y-114690371D01*
X133037813Y-114825131D01*
X133062686Y-114957958D01*
X133090283Y-115089844D01*
X133120811Y-115221779D01*
X133154473Y-115354756D01*
X133191474Y-115489766D01*
X133232018Y-115627801D01*
X133276311Y-115769851D01*
X133311516Y-115877819D01*
X133330415Y-115934471D01*
X133348181Y-115986899D01*
X133365079Y-116035676D01*
X133381377Y-116081373D01*
X133397340Y-116124563D01*
X133413235Y-116165816D01*
X133429327Y-116205705D01*
X133445884Y-116244801D01*
X133463170Y-116283675D01*
X133481452Y-116322901D01*
X133500997Y-116363048D01*
X133522071Y-116404690D01*
X133544939Y-116448398D01*
X133569869Y-116494743D01*
X133597125Y-116544297D01*
X133626975Y-116597632D01*
X133659684Y-116655320D01*
X133695519Y-116717932D01*
X133732815Y-116782694D01*
X133761743Y-116832887D01*
X133787450Y-116877657D01*
X133810298Y-116917661D01*
X133830648Y-116953555D01*
X133848863Y-116985994D01*
X133865303Y-117015635D01*
X133880330Y-117043134D01*
X133894307Y-117069147D01*
X133907594Y-117094330D01*
X133920554Y-117119338D01*
X133933549Y-117144828D01*
X133944820Y-117167222D01*
X133976741Y-117232539D01*
X134004702Y-117293326D01*
X134029064Y-117350631D01*
X134050188Y-117405499D01*
X134068436Y-117458978D01*
X134084169Y-117512115D01*
X134097748Y-117565957D01*
X134109537Y-117621551D01*
X134118094Y-117669025D01*
X134127475Y-117728301D01*
X134134849Y-117782886D01*
X134140377Y-117834804D01*
X134144223Y-117886074D01*
X134146550Y-117938721D01*
X134147522Y-117994766D01*
X134147509Y-118033292D01*
X134147309Y-118059880D01*
X134147051Y-118084924D01*
X134146751Y-118107330D01*
X134146426Y-118126003D01*
X134146092Y-118139851D01*
X134145767Y-118147777D01*
X134145755Y-118147944D01*
X134136740Y-118238991D01*
X134123096Y-118328800D01*
X134105042Y-118416515D01*
X134082798Y-118501282D01*
X134056583Y-118582244D01*
X134026619Y-118658545D01*
X133999817Y-118716209D01*
X133952919Y-118802043D01*
X133899377Y-118885670D01*
X133839273Y-118967012D01*
X133772690Y-119045994D01*
X133699708Y-119122539D01*
X133620411Y-119196571D01*
X133534879Y-119268015D01*
X133443196Y-119336793D01*
X133345442Y-119402829D01*
X133241701Y-119466048D01*
X133132053Y-119526373D01*
X133123746Y-119530700D01*
X133048734Y-119567707D01*
X132970989Y-119602221D01*
X132889580Y-119634600D01*
X132803574Y-119665202D01*
X132712039Y-119694388D01*
X132655758Y-119710890D01*
X132629169Y-119718457D01*
X132530044Y-119964194D01*
X132514069Y-120003671D01*
X132498791Y-120041187D01*
X132484422Y-120076234D01*
X132471173Y-120108306D01*
X132459257Y-120136898D01*
X132448887Y-120161502D01*
X132440274Y-120181612D01*
X132433630Y-120196722D01*
X132429168Y-120206326D01*
X132427101Y-120209917D01*
X132427055Y-120209931D01*
X132424178Y-120207356D01*
X132416965Y-120199885D01*
X132405762Y-120187902D01*
X132390917Y-120171787D01*
X132372776Y-120151922D01*
X132351686Y-120128690D01*
X132327994Y-120102471D01*
X132302048Y-120073649D01*
X132274193Y-120042605D01*
X132244778Y-120009720D01*
X132221966Y-119984153D01*
X132020741Y-119758375D01*
X131981022Y-119743997D01*
X131910948Y-119715662D01*
X131844045Y-119682414D01*
X131779707Y-119643848D01*
X131717324Y-119599555D01*
X131656287Y-119549130D01*
X131595990Y-119492165D01*
X131579917Y-119475776D01*
X131519739Y-119408462D01*
X131464059Y-119335870D01*
X131413010Y-119258266D01*
X131366722Y-119175914D01*
X131325330Y-119089079D01*
X131288964Y-118998026D01*
X131257758Y-118903021D01*
X131231842Y-118804329D01*
X131221834Y-118758250D01*
X131213197Y-118713853D01*
X131206427Y-118674131D01*
X131201295Y-118637021D01*
X131197572Y-118600460D01*
X131195029Y-118562386D01*
X131193439Y-118520735D01*
X131192916Y-118497194D01*
X131192493Y-118450426D01*
X131193103Y-118408969D01*
D12*
X135000000Y-118700000D03*
X135000000Y-117200000D03*
M02*
