G04 #@! TF.FileFunction,Legend,Bot*
%FSLAX46Y46*%
G04 Gerber Fmt 4.6, Leading zero omitted, Abs format (unit mm)*
G04 Created by KiCad (PCBNEW 4.0.1-stable) date Thursday, April 14, 2016 'AMt' 11:24:42 AM*
%MOMM*%
G01*
G04 APERTURE LIST*
%ADD10C,0.100000*%
%ADD11C,0.150000*%
G04 APERTURE END LIST*
D10*
D11*
X135064762Y-100367619D02*
X135112381Y-100272381D01*
X135112381Y-100081904D01*
X135064762Y-99986666D01*
X135017143Y-99939047D01*
X134921905Y-99891428D01*
X134636190Y-99891428D01*
X134540952Y-99939047D01*
X134493333Y-99986666D01*
X134445714Y-100081904D01*
X134445714Y-100272381D01*
X134493333Y-100367619D01*
X135112381Y-100796190D02*
X134112381Y-100796190D01*
X134731429Y-100891428D02*
X135112381Y-101177143D01*
X134445714Y-101177143D02*
X134826667Y-100796190D01*
X135112381Y-102034286D02*
X134112381Y-102034286D01*
X135064762Y-102034286D02*
X135112381Y-101939048D01*
X135112381Y-101748571D01*
X135064762Y-101653333D01*
X135017143Y-101605714D01*
X134921905Y-101558095D01*
X134636190Y-101558095D01*
X134540952Y-101605714D01*
X134493333Y-101653333D01*
X134445714Y-101748571D01*
X134445714Y-101939048D01*
X134493333Y-102034286D01*
X135017143Y-102510476D02*
X135064762Y-102558095D01*
X135112381Y-102510476D01*
X135064762Y-102462857D01*
X135017143Y-102510476D01*
X135112381Y-102510476D01*
X134445714Y-102843809D02*
X134445714Y-103224761D01*
X134112381Y-102986666D02*
X134969524Y-102986666D01*
X135064762Y-103034285D01*
X135112381Y-103129523D01*
X135112381Y-103224761D01*
X135064762Y-103939048D02*
X135112381Y-103843810D01*
X135112381Y-103653333D01*
X135064762Y-103558095D01*
X134969524Y-103510476D01*
X134588571Y-103510476D01*
X134493333Y-103558095D01*
X134445714Y-103653333D01*
X134445714Y-103843810D01*
X134493333Y-103939048D01*
X134588571Y-103986667D01*
X134683810Y-103986667D01*
X134779048Y-103510476D01*
X135064762Y-104843810D02*
X135112381Y-104748572D01*
X135112381Y-104558095D01*
X135064762Y-104462857D01*
X135017143Y-104415238D01*
X134921905Y-104367619D01*
X134636190Y-104367619D01*
X134540952Y-104415238D01*
X134493333Y-104462857D01*
X134445714Y-104558095D01*
X134445714Y-104748572D01*
X134493333Y-104843810D01*
X135112381Y-105272381D02*
X134112381Y-105272381D01*
X135112381Y-105700953D02*
X134588571Y-105700953D01*
X134493333Y-105653334D01*
X134445714Y-105558096D01*
X134445714Y-105415238D01*
X134493333Y-105320000D01*
X134540952Y-105272381D01*
X134064762Y-106891429D02*
X135350476Y-106034286D01*
X135064762Y-107177143D02*
X135112381Y-107272381D01*
X135112381Y-107462857D01*
X135064762Y-107558096D01*
X134969524Y-107605715D01*
X134921905Y-107605715D01*
X134826667Y-107558096D01*
X134779048Y-107462857D01*
X134779048Y-107320000D01*
X134731429Y-107224762D01*
X134636190Y-107177143D01*
X134588571Y-107177143D01*
X134493333Y-107224762D01*
X134445714Y-107320000D01*
X134445714Y-107462857D01*
X134493333Y-107558096D01*
X134445714Y-108034286D02*
X135445714Y-108034286D01*
X134493333Y-108034286D02*
X134445714Y-108129524D01*
X134445714Y-108320001D01*
X134493333Y-108415239D01*
X134540952Y-108462858D01*
X134636190Y-108510477D01*
X134921905Y-108510477D01*
X135017143Y-108462858D01*
X135064762Y-108415239D01*
X135112381Y-108320001D01*
X135112381Y-108129524D01*
X135064762Y-108034286D01*
X135064762Y-109367620D02*
X135112381Y-109272382D01*
X135112381Y-109081905D01*
X135064762Y-108986667D01*
X135017143Y-108939048D01*
X134921905Y-108891429D01*
X134636190Y-108891429D01*
X134540952Y-108939048D01*
X134493333Y-108986667D01*
X134445714Y-109081905D01*
X134445714Y-109272382D01*
X134493333Y-109367620D01*
X135112381Y-109796191D02*
X134445714Y-109796191D01*
X134636190Y-109796191D02*
X134540952Y-109843810D01*
X134493333Y-109891429D01*
X134445714Y-109986667D01*
X134445714Y-110081906D01*
X134064762Y-111129525D02*
X135350476Y-110272382D01*
X134445714Y-111367620D02*
X135112381Y-111605715D01*
X134445714Y-111843811D01*
X134445714Y-112653335D02*
X135112381Y-112653335D01*
X134064762Y-112415239D02*
X134779048Y-112177144D01*
X134779048Y-112796192D01*
D10*
G36*
X133380592Y-100133691D02*
X131867505Y-100133691D01*
X131683111Y-100490564D01*
X131689473Y-100479397D01*
X131696274Y-100468906D01*
X131703514Y-100459092D01*
X131711193Y-100449955D01*
X131719311Y-100441494D01*
X131727867Y-100433711D01*
X131736862Y-100426604D01*
X131746296Y-100420174D01*
X131756169Y-100414421D01*
X131766481Y-100409345D01*
X131777231Y-100404945D01*
X131788420Y-100401223D01*
X131800048Y-100398177D01*
X131812115Y-100395808D01*
X131824621Y-100394116D01*
X131837565Y-100393101D01*
X131850948Y-100392762D01*
X132578554Y-100392762D01*
X132578536Y-100392762D01*
X132584639Y-100409014D01*
X132590394Y-100425308D01*
X132595800Y-100441645D01*
X132600857Y-100458024D01*
X132605565Y-100474445D01*
X132609925Y-100490909D01*
X132613936Y-100507416D01*
X132617598Y-100523965D01*
X132620911Y-100540557D01*
X132623876Y-100557191D01*
X132626492Y-100573868D01*
X132628759Y-100590588D01*
X132630677Y-100607349D01*
X132632246Y-100624154D01*
X132633467Y-100641001D01*
X132634339Y-100657890D01*
X132634862Y-100674822D01*
X132635037Y-100691797D01*
X132634832Y-100710766D01*
X132634219Y-100729089D01*
X132633197Y-100746765D01*
X132631766Y-100763795D01*
X132629926Y-100780178D01*
X132627678Y-100795915D01*
X132625021Y-100811006D01*
X132621954Y-100825449D01*
X132618479Y-100839247D01*
X132613867Y-100854707D01*
X132608309Y-100870080D01*
X132601805Y-100885368D01*
X132594354Y-100900570D01*
X132585958Y-100915685D01*
X132576615Y-100930714D01*
X132566327Y-100945657D01*
X132555092Y-100960514D01*
X132546138Y-100971049D01*
X132536319Y-100981105D01*
X132525635Y-100990683D01*
X132514085Y-100999783D01*
X132501671Y-101008404D01*
X132488391Y-101016547D01*
X132474246Y-101024211D01*
X132459236Y-101031398D01*
X132443360Y-101038106D01*
X132426620Y-101044335D01*
X132409014Y-101050087D01*
X132395368Y-101054172D01*
X132381256Y-101057975D01*
X132366679Y-101061497D01*
X132351636Y-101064737D01*
X132336128Y-101067695D01*
X132320154Y-101070371D01*
X132303715Y-101072766D01*
X132286811Y-101074879D01*
X132269441Y-101076710D01*
X132251605Y-101078260D01*
X132233304Y-101079528D01*
X132214538Y-101080514D01*
X132195307Y-101081218D01*
X132175609Y-101081641D01*
X132155447Y-101081782D01*
X132135171Y-101081658D01*
X132115337Y-101081286D01*
X132095943Y-101080667D01*
X132076991Y-101079801D01*
X132058481Y-101078686D01*
X132040411Y-101077324D01*
X132022783Y-101075715D01*
X132005596Y-101073858D01*
X131988851Y-101071753D01*
X131972546Y-101069401D01*
X131956683Y-101066801D01*
X131941261Y-101063953D01*
X131926281Y-101060858D01*
X131911742Y-101057515D01*
X131897644Y-101053925D01*
X131883987Y-101050087D01*
X131864680Y-101044347D01*
X131846353Y-101038151D01*
X131829007Y-101031500D01*
X131812640Y-101024394D01*
X131797253Y-101016832D01*
X131782846Y-101008814D01*
X131769419Y-101000341D01*
X131756972Y-100991412D01*
X131745504Y-100982028D01*
X131735017Y-100972188D01*
X131725510Y-100961892D01*
X131713601Y-100947444D01*
X131702684Y-100933040D01*
X131692757Y-100918678D01*
X131683821Y-100904359D01*
X131675875Y-100890084D01*
X131668920Y-100875851D01*
X131662956Y-100861661D01*
X131657983Y-100847515D01*
X131653794Y-100833132D01*
X131650163Y-100818232D01*
X131647091Y-100802815D01*
X131644578Y-100786881D01*
X131642623Y-100770431D01*
X131641226Y-100753464D01*
X131640388Y-100735980D01*
X131640109Y-100717979D01*
X131640329Y-100697336D01*
X131640987Y-100677370D01*
X131642084Y-100658080D01*
X131643619Y-100639467D01*
X131645594Y-100621531D01*
X131648007Y-100604272D01*
X131650859Y-100587690D01*
X131654150Y-100571784D01*
X131657880Y-100556555D01*
X131662049Y-100542004D01*
X131666656Y-100528129D01*
X131671702Y-100514930D01*
X131677187Y-100502409D01*
X131683111Y-100490564D01*
X131867505Y-100133691D01*
X131852385Y-100133921D01*
X131837341Y-100134610D01*
X131822373Y-100135758D01*
X131807482Y-100137366D01*
X131792666Y-100139433D01*
X131777928Y-100141960D01*
X131764457Y-100144828D01*
X131750029Y-100148709D01*
X131734646Y-100153602D01*
X131718307Y-100159508D01*
X131701012Y-100166427D01*
X131682760Y-100174357D01*
X131663552Y-100183301D01*
X131648445Y-100191246D01*
X131633747Y-100199769D01*
X131619457Y-100208871D01*
X131605575Y-100218551D01*
X131592101Y-100228810D01*
X131579036Y-100239647D01*
X131566379Y-100251063D01*
X131554131Y-100263057D01*
X131542291Y-100275629D01*
X131533666Y-100285677D01*
X131525253Y-100296529D01*
X131517050Y-100308185D01*
X131509058Y-100320645D01*
X131501277Y-100333909D01*
X131493706Y-100347976D01*
X131486347Y-100362848D01*
X131479199Y-100378523D01*
X131472261Y-100395002D01*
X131465534Y-100412285D01*
X131459018Y-100430371D01*
X131452714Y-100449262D01*
X131448041Y-100463877D01*
X131443669Y-100478782D01*
X131439599Y-100493978D01*
X131435831Y-100509465D01*
X131432364Y-100525243D01*
X131429198Y-100541311D01*
X131426334Y-100557669D01*
X131423772Y-100574319D01*
X131421511Y-100591259D01*
X131419551Y-100608490D01*
X131417893Y-100626012D01*
X131416536Y-100643824D01*
X131415481Y-100661927D01*
X131414727Y-100680320D01*
X131414275Y-100699005D01*
X131414124Y-100717979D01*
X131414294Y-100735384D01*
X131414803Y-100752686D01*
X131415650Y-100769886D01*
X131416837Y-100786983D01*
X131418364Y-100803979D01*
X131420229Y-100820873D01*
X131422433Y-100837665D01*
X131424977Y-100854354D01*
X131427859Y-100870942D01*
X131430642Y-100884825D01*
X131433996Y-100898912D01*
X131437920Y-100913205D01*
X131442416Y-100927703D01*
X131447483Y-100942406D01*
X131453120Y-100957314D01*
X131459329Y-100972427D01*
X131466108Y-100987745D01*
X131473459Y-101003268D01*
X131481380Y-101018995D01*
X131489873Y-101034928D01*
X131498114Y-101049685D01*
X131506757Y-101064097D01*
X131515801Y-101078164D01*
X131525247Y-101091887D01*
X131535094Y-101105266D01*
X131545344Y-101118300D01*
X131555994Y-101130989D01*
X131567047Y-101143334D01*
X131578501Y-101155334D01*
X131590357Y-101166990D01*
X131602614Y-101178302D01*
X131615274Y-101189269D01*
X131625846Y-101197806D01*
X131636981Y-101206148D01*
X131648680Y-101214294D01*
X131660943Y-101222243D01*
X131673769Y-101229997D01*
X131687158Y-101237555D01*
X131701111Y-101244917D01*
X131715627Y-101252083D01*
X131730707Y-101259052D01*
X131746350Y-101265826D01*
X131762557Y-101272404D01*
X131779327Y-101278786D01*
X131796660Y-101284972D01*
X131814557Y-101290962D01*
X131833017Y-101296755D01*
X131847789Y-101301275D01*
X131862806Y-101305550D01*
X131878066Y-101309582D01*
X131893571Y-101313368D01*
X131909321Y-101316911D01*
X131925314Y-101320209D01*
X131941552Y-101323263D01*
X131958035Y-101326072D01*
X131974761Y-101328637D01*
X131991732Y-101330958D01*
X132008947Y-101333035D01*
X132026407Y-101334867D01*
X132044111Y-101336455D01*
X132062059Y-101337799D01*
X132080252Y-101338898D01*
X132098689Y-101339753D01*
X132117370Y-101340364D01*
X132136296Y-101340731D01*
X132155466Y-101340853D01*
X132175277Y-101340721D01*
X132194814Y-101340328D01*
X132214075Y-101339672D01*
X132233062Y-101338753D01*
X132251773Y-101337572D01*
X132270210Y-101336128D01*
X132288371Y-101334422D01*
X132306258Y-101332453D01*
X132323869Y-101330222D01*
X132341206Y-101327729D01*
X132358267Y-101324972D01*
X132375054Y-101321954D01*
X132391565Y-101318673D01*
X132407802Y-101315129D01*
X132423763Y-101311323D01*
X132439449Y-101307255D01*
X132454861Y-101302924D01*
X132469997Y-101298330D01*
X132484859Y-101293474D01*
X132499445Y-101288356D01*
X132513756Y-101282975D01*
X132531892Y-101275740D01*
X132549435Y-101268161D01*
X132566386Y-101260237D01*
X132582745Y-101251969D01*
X132598513Y-101243357D01*
X132613688Y-101234399D01*
X132628271Y-101225098D01*
X132642261Y-101215451D01*
X132655660Y-101205460D01*
X132668467Y-101195125D01*
X132680682Y-101184445D01*
X132692304Y-101173421D01*
X132703335Y-101162052D01*
X132713773Y-101150339D01*
X132723619Y-101138281D01*
X132732874Y-101125879D01*
X132742905Y-101111487D01*
X132752529Y-101097052D01*
X132761745Y-101082576D01*
X132770554Y-101068057D01*
X132778955Y-101053497D01*
X132786948Y-101038894D01*
X132794534Y-101024248D01*
X132801713Y-101009561D01*
X132808483Y-100994832D01*
X132814847Y-100980060D01*
X132820802Y-100965246D01*
X132826350Y-100950390D01*
X132831491Y-100935492D01*
X132836223Y-100920551D01*
X132840399Y-100905674D01*
X132844265Y-100890572D01*
X132847822Y-100875245D01*
X132851069Y-100859692D01*
X132854008Y-100843915D01*
X132856637Y-100827913D01*
X132858956Y-100811686D01*
X132860967Y-100795234D01*
X132862668Y-100778557D01*
X132864060Y-100761655D01*
X132865142Y-100744528D01*
X132865915Y-100727176D01*
X132866379Y-100709599D01*
X132866534Y-100691797D01*
X132866406Y-100674533D01*
X132866024Y-100657346D01*
X132865386Y-100640235D01*
X132864493Y-100623201D01*
X132863344Y-100606244D01*
X132861941Y-100589363D01*
X132860283Y-100572558D01*
X132858369Y-100555830D01*
X132856200Y-100539179D01*
X132853776Y-100522604D01*
X132851097Y-100506106D01*
X132848162Y-100489684D01*
X132844973Y-100473339D01*
X132841528Y-100457071D01*
X132837828Y-100440879D01*
X132833873Y-100424764D01*
X132829663Y-100408725D01*
X132825198Y-100392762D01*
X133380555Y-100392762D01*
X133380555Y-100133691D01*
X133380592Y-100133691D01*
X133380592Y-100133691D01*
G37*
G36*
X132506908Y-101692253D02*
X131881277Y-101923763D01*
X131894245Y-101920092D01*
X131907654Y-101916657D01*
X131921505Y-101913460D01*
X131935797Y-101910499D01*
X131950530Y-101907776D01*
X131965705Y-101905289D01*
X131981321Y-101903039D01*
X131997379Y-101901025D01*
X132013878Y-101899249D01*
X132030818Y-101897709D01*
X132048200Y-101896407D01*
X132066024Y-101895341D01*
X132084288Y-101894512D01*
X132102994Y-101893920D01*
X132122142Y-101893565D01*
X132141731Y-101893446D01*
X132161325Y-101893565D01*
X132180489Y-101893920D01*
X132199222Y-101894512D01*
X132217524Y-101895341D01*
X132235396Y-101896407D01*
X132252836Y-101897709D01*
X132269847Y-101899249D01*
X132286426Y-101901025D01*
X132302575Y-101903039D01*
X132318293Y-101905289D01*
X132333581Y-101907776D01*
X132348437Y-101910499D01*
X132362864Y-101913460D01*
X132376859Y-101916657D01*
X132390424Y-101920092D01*
X132403558Y-101923763D01*
X132421666Y-101929776D01*
X132438909Y-101936291D01*
X132455287Y-101943306D01*
X132470799Y-101950823D01*
X132485445Y-101958840D01*
X132499226Y-101967359D01*
X132512142Y-101976379D01*
X132524192Y-101985900D01*
X132535376Y-101995922D01*
X132545695Y-102006445D01*
X132555149Y-102017470D01*
X132565762Y-102031267D01*
X132575559Y-102045098D01*
X132584540Y-102058964D01*
X132592704Y-102072863D01*
X132600052Y-102086797D01*
X132606584Y-102100764D01*
X132612300Y-102114766D01*
X132617200Y-102128802D01*
X132621283Y-102142871D01*
X132624758Y-102157281D01*
X132627824Y-102172337D01*
X132630481Y-102188040D01*
X132632730Y-102204389D01*
X132634569Y-102221385D01*
X132636000Y-102239028D01*
X132637022Y-102257316D01*
X132637636Y-102276252D01*
X132637840Y-102295833D01*
X132637636Y-102315704D01*
X132637022Y-102334895D01*
X132636000Y-102353405D01*
X132634569Y-102371234D01*
X132632730Y-102388383D01*
X132630481Y-102404851D01*
X132627824Y-102420639D01*
X132624758Y-102435747D01*
X132621283Y-102450174D01*
X132617196Y-102464243D01*
X132612294Y-102478279D01*
X132606576Y-102492280D01*
X132600043Y-102506248D01*
X132592695Y-102520181D01*
X132584531Y-102534081D01*
X132575552Y-102547946D01*
X132565758Y-102561778D01*
X132555149Y-102575575D01*
X132545695Y-102586588D01*
X132535376Y-102597077D01*
X132524192Y-102607042D01*
X132512142Y-102616483D01*
X132499226Y-102625401D01*
X132485445Y-102633794D01*
X132470799Y-102641664D01*
X132455287Y-102649010D01*
X132438909Y-102655832D01*
X132421666Y-102662130D01*
X132403558Y-102667904D01*
X132390424Y-102671742D01*
X132376859Y-102675332D01*
X132362864Y-102678675D01*
X132348437Y-102681770D01*
X132333581Y-102684618D01*
X132318293Y-102687218D01*
X132302575Y-102689570D01*
X132286426Y-102691675D01*
X132269847Y-102693532D01*
X132252836Y-102695141D01*
X132235396Y-102696503D01*
X132217524Y-102697618D01*
X132199222Y-102698484D01*
X132180489Y-102699103D01*
X132161325Y-102699475D01*
X132141731Y-102699598D01*
X132122142Y-102699475D01*
X132102994Y-102699103D01*
X132084288Y-102698484D01*
X132066024Y-102697618D01*
X132048200Y-102696503D01*
X132030818Y-102695141D01*
X132013878Y-102693532D01*
X131997379Y-102691675D01*
X131981321Y-102689570D01*
X131965705Y-102687218D01*
X131950530Y-102684618D01*
X131935797Y-102681770D01*
X131921505Y-102678675D01*
X131907654Y-102675332D01*
X131894245Y-102671742D01*
X131881277Y-102667904D01*
X131862931Y-102662130D01*
X131845472Y-102655832D01*
X131828902Y-102649010D01*
X131813219Y-102641664D01*
X131798425Y-102633794D01*
X131784520Y-102625401D01*
X131771502Y-102616483D01*
X131759372Y-102607042D01*
X131748131Y-102597077D01*
X131737778Y-102586588D01*
X131728313Y-102575575D01*
X131717700Y-102561778D01*
X131707903Y-102547946D01*
X131698922Y-102534081D01*
X131690758Y-102520181D01*
X131683409Y-102506248D01*
X131676877Y-102492280D01*
X131671162Y-102478279D01*
X131666262Y-102464243D01*
X131662179Y-102450174D01*
X131658704Y-102435747D01*
X131655638Y-102420639D01*
X131652981Y-102404851D01*
X131650732Y-102388383D01*
X131648892Y-102371234D01*
X131647462Y-102353405D01*
X131646439Y-102334895D01*
X131645826Y-102315704D01*
X131645622Y-102295833D01*
X131645826Y-102276252D01*
X131646439Y-102257316D01*
X131647462Y-102239028D01*
X131648892Y-102221385D01*
X131650732Y-102204389D01*
X131652981Y-102188040D01*
X131655638Y-102172337D01*
X131658704Y-102157281D01*
X131662179Y-102142871D01*
X131666266Y-102128802D01*
X131671168Y-102114766D01*
X131676886Y-102100764D01*
X131683419Y-102086797D01*
X131690767Y-102072863D01*
X131698931Y-102058964D01*
X131707909Y-102045098D01*
X131717704Y-102031267D01*
X131728313Y-102017470D01*
X131737778Y-102006445D01*
X131748131Y-101995922D01*
X131759372Y-101985900D01*
X131771502Y-101976379D01*
X131784520Y-101967359D01*
X131798425Y-101958840D01*
X131813219Y-101950823D01*
X131828902Y-101943306D01*
X131845472Y-101936291D01*
X131862931Y-101929776D01*
X131881277Y-101923763D01*
X132506908Y-101692253D01*
X132493119Y-101686988D01*
X132479063Y-101681969D01*
X132464740Y-101677194D01*
X132450148Y-101672664D01*
X132435289Y-101668379D01*
X132420163Y-101664339D01*
X132404768Y-101660543D01*
X132389106Y-101656993D01*
X132373177Y-101653687D01*
X132356979Y-101650627D01*
X132340514Y-101647811D01*
X132323781Y-101645240D01*
X132306781Y-101642914D01*
X132289513Y-101640832D01*
X132271977Y-101638996D01*
X132254173Y-101637404D01*
X132236102Y-101636058D01*
X132217763Y-101634956D01*
X132199157Y-101634099D01*
X132180282Y-101633487D01*
X132161141Y-101633119D01*
X132141731Y-101632997D01*
X132122324Y-101633119D01*
X132103191Y-101633487D01*
X132084331Y-101634099D01*
X132065744Y-101634956D01*
X132047431Y-101636058D01*
X132029391Y-101637404D01*
X132011624Y-101638996D01*
X131994131Y-101640832D01*
X131976911Y-101642914D01*
X131959964Y-101645240D01*
X131943291Y-101647811D01*
X131926891Y-101650627D01*
X131910765Y-101653687D01*
X131894912Y-101656993D01*
X131879332Y-101660543D01*
X131864025Y-101664339D01*
X131848992Y-101668379D01*
X131834233Y-101672664D01*
X131819746Y-101677194D01*
X131805533Y-101681969D01*
X131791594Y-101686988D01*
X131777928Y-101692253D01*
X131760519Y-101699372D01*
X131743635Y-101706786D01*
X131727276Y-101714497D01*
X131711441Y-101722503D01*
X131696130Y-101730804D01*
X131681343Y-101739401D01*
X131667081Y-101748294D01*
X131653343Y-101757483D01*
X131640130Y-101766967D01*
X131627440Y-101776747D01*
X131615276Y-101786822D01*
X131603635Y-101797193D01*
X131592519Y-101807860D01*
X131581927Y-101818822D01*
X131571860Y-101830080D01*
X131562316Y-101841634D01*
X131553298Y-101853483D01*
X131542892Y-101868072D01*
X131532937Y-101882703D01*
X131523432Y-101897376D01*
X131514376Y-101912092D01*
X131505771Y-101926850D01*
X131497616Y-101941649D01*
X131489910Y-101956491D01*
X131482655Y-101971376D01*
X131475850Y-101986302D01*
X131469495Y-102001271D01*
X131463590Y-102016281D01*
X131458135Y-102031334D01*
X131453129Y-102046430D01*
X131448574Y-102061567D01*
X131444210Y-102077021D01*
X131440168Y-102092671D01*
X131436450Y-102108519D01*
X131433056Y-102124563D01*
X131429984Y-102140804D01*
X131427236Y-102157242D01*
X131424811Y-102173877D01*
X131422710Y-102190709D01*
X131420932Y-102207737D01*
X131419477Y-102224963D01*
X131418345Y-102242385D01*
X131417537Y-102260004D01*
X131417052Y-102277820D01*
X131416890Y-102295833D01*
X131417052Y-102314029D01*
X131417537Y-102332000D01*
X131418345Y-102349746D01*
X131419477Y-102367266D01*
X131420932Y-102384562D01*
X131422710Y-102401633D01*
X131424811Y-102418479D01*
X131427236Y-102435100D01*
X131429984Y-102451495D01*
X131433056Y-102467666D01*
X131436450Y-102483612D01*
X131440168Y-102499333D01*
X131444210Y-102514829D01*
X131448574Y-102530100D01*
X131453129Y-102545427D01*
X131458135Y-102560698D01*
X131463590Y-102575913D01*
X131469495Y-102591071D01*
X131475850Y-102606173D01*
X131482655Y-102621219D01*
X131489910Y-102636209D01*
X131497616Y-102651142D01*
X131505771Y-102666019D01*
X131514376Y-102680840D01*
X131523432Y-102695605D01*
X131532937Y-102710313D01*
X131542892Y-102724966D01*
X131553298Y-102739562D01*
X131562316Y-102751411D01*
X131571860Y-102762964D01*
X131581927Y-102774222D01*
X131592519Y-102785185D01*
X131603635Y-102795851D01*
X131615276Y-102806222D01*
X131627440Y-102816298D01*
X131640130Y-102826078D01*
X131653343Y-102835562D01*
X131667081Y-102844750D01*
X131681343Y-102853643D01*
X131696130Y-102862240D01*
X131711441Y-102870542D01*
X131727276Y-102878548D01*
X131743635Y-102886258D01*
X131760519Y-102893673D01*
X131777928Y-102900792D01*
X131791594Y-102906057D01*
X131805533Y-102911076D01*
X131819746Y-102915851D01*
X131834233Y-102920381D01*
X131848992Y-102924666D01*
X131864025Y-102928706D01*
X131879332Y-102932501D01*
X131894912Y-102936052D01*
X131910765Y-102939357D01*
X131926891Y-102942418D01*
X131943291Y-102945234D01*
X131959964Y-102947805D01*
X131976911Y-102950131D01*
X131994131Y-102952212D01*
X132011624Y-102954049D01*
X132029391Y-102955640D01*
X132047431Y-102956987D01*
X132065744Y-102958089D01*
X132084331Y-102958946D01*
X132103191Y-102959558D01*
X132122324Y-102959925D01*
X132141731Y-102960048D01*
X132161141Y-102959925D01*
X132180282Y-102959558D01*
X132199157Y-102958946D01*
X132217763Y-102958089D01*
X132236102Y-102956987D01*
X132254173Y-102955640D01*
X132271977Y-102954049D01*
X132289513Y-102952212D01*
X132306781Y-102950131D01*
X132323781Y-102947805D01*
X132340514Y-102945234D01*
X132356979Y-102942418D01*
X132373177Y-102939357D01*
X132389106Y-102936052D01*
X132404768Y-102932501D01*
X132420163Y-102928706D01*
X132435289Y-102924666D01*
X132450148Y-102920381D01*
X132464740Y-102915851D01*
X132479063Y-102911076D01*
X132493119Y-102906057D01*
X132506908Y-102900792D01*
X132524159Y-102893673D01*
X132540895Y-102886258D01*
X132557117Y-102878548D01*
X132572823Y-102870542D01*
X132588015Y-102862240D01*
X132602691Y-102853643D01*
X132616853Y-102844750D01*
X132630499Y-102835562D01*
X132643631Y-102826078D01*
X132656248Y-102816298D01*
X132668349Y-102806222D01*
X132679936Y-102795851D01*
X132691008Y-102785185D01*
X132701565Y-102774222D01*
X132711607Y-102762964D01*
X132721133Y-102751411D01*
X132730145Y-102739562D01*
X132740558Y-102724966D01*
X132750535Y-102710313D01*
X132760075Y-102695605D01*
X132769180Y-102680840D01*
X132777850Y-102666019D01*
X132786083Y-102651142D01*
X132793881Y-102636209D01*
X132801242Y-102621219D01*
X132808168Y-102606173D01*
X132814658Y-102591071D01*
X132820713Y-102575913D01*
X132826331Y-102560698D01*
X132831514Y-102545427D01*
X132836261Y-102530100D01*
X132840436Y-102514829D01*
X132844303Y-102499333D01*
X132847859Y-102483612D01*
X132851107Y-102467666D01*
X132854045Y-102451495D01*
X132856674Y-102435100D01*
X132858994Y-102418479D01*
X132861004Y-102401633D01*
X132862705Y-102384562D01*
X132864097Y-102367266D01*
X132865180Y-102349746D01*
X132865953Y-102332000D01*
X132866417Y-102314029D01*
X132866572Y-102295833D01*
X132866417Y-102277820D01*
X132865953Y-102260004D01*
X132865180Y-102242385D01*
X132864097Y-102224963D01*
X132862705Y-102207737D01*
X132861004Y-102190709D01*
X132858994Y-102173877D01*
X132856674Y-102157242D01*
X132854045Y-102140804D01*
X132851107Y-102124563D01*
X132847859Y-102108519D01*
X132844303Y-102092671D01*
X132840436Y-102077021D01*
X132836261Y-102061567D01*
X132831514Y-102046430D01*
X132826331Y-102031334D01*
X132820713Y-102016281D01*
X132814658Y-102001271D01*
X132808168Y-101986302D01*
X132801242Y-101971376D01*
X132793881Y-101956491D01*
X132786083Y-101941649D01*
X132777850Y-101926850D01*
X132769180Y-101912092D01*
X132760075Y-101897376D01*
X132750535Y-101882703D01*
X132740558Y-101868072D01*
X132730145Y-101853483D01*
X132721133Y-101841634D01*
X132711607Y-101830080D01*
X132701565Y-101818822D01*
X132691008Y-101807860D01*
X132679936Y-101797193D01*
X132668349Y-101786822D01*
X132656248Y-101776747D01*
X132643631Y-101766967D01*
X132630499Y-101757483D01*
X132616853Y-101748294D01*
X132602691Y-101739401D01*
X132588015Y-101730804D01*
X132572823Y-101722503D01*
X132557117Y-101714497D01*
X132540895Y-101706786D01*
X132524159Y-101699372D01*
X132506908Y-101692253D01*
X132506908Y-101692253D01*
G37*
G36*
X132844521Y-103334874D02*
X130900122Y-103334874D01*
X130900122Y-103593945D01*
X132844521Y-103593945D01*
X132844521Y-103334874D01*
X132844521Y-103334874D01*
G37*
G36*
X131436175Y-103902626D02*
X131436175Y-104179612D01*
X132491743Y-104558572D01*
X131436175Y-104930642D01*
X131436175Y-105207628D01*
X132994738Y-104628852D01*
X133014260Y-104621444D01*
X133033300Y-104613873D01*
X133051858Y-104606140D01*
X133069934Y-104598245D01*
X133087527Y-104590187D01*
X133104639Y-104581968D01*
X133121269Y-104573585D01*
X133137417Y-104565041D01*
X133153082Y-104556334D01*
X133168266Y-104547465D01*
X133182968Y-104538433D01*
X133197187Y-104529240D01*
X133210925Y-104519884D01*
X133224181Y-104510365D01*
X133236954Y-104500685D01*
X133249246Y-104490842D01*
X133261055Y-104480836D01*
X133272383Y-104470669D01*
X133283228Y-104460339D01*
X133293592Y-104449846D01*
X133303473Y-104439192D01*
X133312873Y-104428375D01*
X133321790Y-104417396D01*
X133330225Y-104406254D01*
X133338179Y-104394950D01*
X133345650Y-104383484D01*
X133352639Y-104371856D01*
X133359147Y-104360065D01*
X133365172Y-104348112D01*
X133370715Y-104335996D01*
X133375776Y-104323719D01*
X133380356Y-104311279D01*
X133384453Y-104298676D01*
X133388068Y-104285911D01*
X133391201Y-104272984D01*
X133393852Y-104259895D01*
X133396021Y-104246644D01*
X133397708Y-104233230D01*
X133398913Y-104219653D01*
X133399637Y-104205915D01*
X133399878Y-104192014D01*
X133399878Y-104190640D01*
X133399724Y-104174956D01*
X133399265Y-104159137D01*
X133398499Y-104143184D01*
X133397427Y-104127098D01*
X133396049Y-104110877D01*
X133394365Y-104094522D01*
X133392374Y-104078034D01*
X133390077Y-104061411D01*
X133387474Y-104044654D01*
X133384564Y-104027764D01*
X133381349Y-104010739D01*
X133377827Y-103993581D01*
X133146310Y-103993581D01*
X133150514Y-104010296D01*
X133154304Y-104026819D01*
X133157682Y-104043149D01*
X133160646Y-104059286D01*
X133163197Y-104075230D01*
X133165334Y-104090981D01*
X133167059Y-104106539D01*
X133168370Y-104121904D01*
X133169268Y-104137076D01*
X133169754Y-104152055D01*
X133169392Y-104163648D01*
X133168308Y-104175090D01*
X133166501Y-104186382D01*
X133163972Y-104197524D01*
X133160719Y-104208517D01*
X133156744Y-104219359D01*
X133152046Y-104230051D01*
X133146626Y-104240593D01*
X133140483Y-104250985D01*
X133133617Y-104261227D01*
X133126028Y-104271318D01*
X133117716Y-104281260D01*
X133108682Y-104291052D01*
X133098925Y-104300694D01*
X133088445Y-104310185D01*
X133077243Y-104319527D01*
X133065318Y-104328718D01*
X133052670Y-104337760D01*
X133039299Y-104346651D01*
X133025206Y-104355392D01*
X133010389Y-104363984D01*
X132994851Y-104372425D01*
X132978589Y-104380716D01*
X132961604Y-104388857D01*
X132943897Y-104396848D01*
X132925468Y-104404689D01*
X132906315Y-104412380D01*
X132886440Y-104419921D01*
X132865841Y-104427312D01*
X132844521Y-104434553D01*
X131436175Y-103902630D01*
X131436175Y-103902626D01*
X131436175Y-103902626D01*
G37*
G36*
X131834429Y-105395041D02*
X131817058Y-105395351D01*
X131799949Y-105396282D01*
X131783102Y-105397832D01*
X131766518Y-105400002D01*
X131750195Y-105402793D01*
X131734134Y-105406203D01*
X131718334Y-105410234D01*
X131702797Y-105414885D01*
X131687522Y-105420156D01*
X131672508Y-105426047D01*
X131657757Y-105432558D01*
X131643267Y-105439690D01*
X131629039Y-105447441D01*
X131615073Y-105455813D01*
X131601369Y-105464805D01*
X131587927Y-105474416D01*
X131574747Y-105484648D01*
X131561829Y-105495500D01*
X131549173Y-105506972D01*
X131536778Y-105519065D01*
X131527162Y-105529306D01*
X131517939Y-105539967D01*
X131509107Y-105551046D01*
X131500669Y-105562545D01*
X131492623Y-105574462D01*
X131484969Y-105586798D01*
X131477708Y-105599553D01*
X131470839Y-105612727D01*
X131464363Y-105626320D01*
X131458280Y-105640332D01*
X131452589Y-105654763D01*
X131447290Y-105669613D01*
X131442384Y-105684881D01*
X131437870Y-105700569D01*
X131433749Y-105716675D01*
X131430020Y-105733201D01*
X131426684Y-105750145D01*
X131423740Y-105767508D01*
X131421189Y-105785291D01*
X131419031Y-105803492D01*
X131417264Y-105822112D01*
X131415891Y-105841151D01*
X131414909Y-105860609D01*
X131414321Y-105880486D01*
X131414124Y-105900781D01*
X131414299Y-105917427D01*
X131414822Y-105934052D01*
X131415695Y-105950656D01*
X131416917Y-105967240D01*
X131418488Y-105983802D01*
X131420407Y-106000344D01*
X131422676Y-106016865D01*
X131425294Y-106033365D01*
X131428261Y-106049844D01*
X131431577Y-106066302D01*
X131435242Y-106082740D01*
X131439256Y-106099156D01*
X131443619Y-106115552D01*
X131448331Y-106131927D01*
X131453393Y-106148281D01*
X131458803Y-106164614D01*
X131464562Y-106180927D01*
X131470671Y-106197218D01*
X131477128Y-106213489D01*
X131483935Y-106229739D01*
X131491090Y-106245968D01*
X131498595Y-106262176D01*
X131506449Y-106278364D01*
X131729686Y-106278364D01*
X131721873Y-106260955D01*
X131714440Y-106243641D01*
X131707389Y-106226420D01*
X131700718Y-106209293D01*
X131694429Y-106192260D01*
X131688521Y-106175320D01*
X131682994Y-106158474D01*
X131677849Y-106141722D01*
X131673084Y-106125064D01*
X131668701Y-106108499D01*
X131664699Y-106092029D01*
X131661078Y-106075652D01*
X131657838Y-106059368D01*
X131654979Y-106043179D01*
X131652502Y-106027083D01*
X131650405Y-106011081D01*
X131648690Y-105995172D01*
X131647356Y-105979358D01*
X131646403Y-105963637D01*
X131645831Y-105948010D01*
X131645641Y-105932476D01*
X131645888Y-105912138D01*
X131646631Y-105892568D01*
X131647869Y-105873765D01*
X131649602Y-105855729D01*
X131651831Y-105838461D01*
X131654555Y-105821961D01*
X131657774Y-105806228D01*
X131661488Y-105791262D01*
X131665697Y-105777064D01*
X131670402Y-105763633D01*
X131675602Y-105750970D01*
X131681297Y-105739074D01*
X131687487Y-105727946D01*
X131694173Y-105717585D01*
X131701353Y-105707992D01*
X131709029Y-105699166D01*
X131717201Y-105691108D01*
X131725867Y-105683817D01*
X131735029Y-105677293D01*
X131744686Y-105671537D01*
X131754838Y-105666549D01*
X131765485Y-105662328D01*
X131776628Y-105658874D01*
X131788265Y-105656188D01*
X131800398Y-105654269D01*
X131813027Y-105653118D01*
X131826150Y-105652734D01*
X131839082Y-105653653D01*
X131851537Y-105656409D01*
X131863516Y-105661003D01*
X131875018Y-105667434D01*
X131886044Y-105675702D01*
X131896593Y-105685807D01*
X131906665Y-105697750D01*
X131916260Y-105711531D01*
X131925379Y-105727149D01*
X131932327Y-105740929D01*
X131939138Y-105755210D01*
X131945812Y-105769993D01*
X131952350Y-105785277D01*
X131958750Y-105801061D01*
X131965014Y-105817347D01*
X131971140Y-105834134D01*
X131977130Y-105851422D01*
X131982983Y-105869212D01*
X131988700Y-105887502D01*
X131994279Y-105906293D01*
X131998813Y-105922406D01*
X132003509Y-105938518D01*
X132008369Y-105954631D01*
X132013392Y-105970743D01*
X132018579Y-105986856D01*
X132023928Y-106002968D01*
X132029441Y-106019081D01*
X132035117Y-106035193D01*
X132040956Y-106051305D01*
X132046958Y-106067418D01*
X132053124Y-106083530D01*
X132059453Y-106099643D01*
X132065945Y-106115755D01*
X132072145Y-106130752D01*
X132078936Y-106145425D01*
X132086318Y-106159775D01*
X132094290Y-106173802D01*
X132102853Y-106187505D01*
X132112006Y-106200884D01*
X132121750Y-106213940D01*
X132132084Y-106226673D01*
X132143009Y-106239083D01*
X132154524Y-106251169D01*
X132166630Y-106262931D01*
X132179327Y-106274370D01*
X132192614Y-106285486D01*
X132206491Y-106296278D01*
X132219078Y-106305456D01*
X132232031Y-106314042D01*
X132245349Y-106322036D01*
X132259033Y-106329437D01*
X132273083Y-106336247D01*
X132287499Y-106342464D01*
X132302281Y-106348089D01*
X132317428Y-106353122D01*
X132332942Y-106357563D01*
X132348821Y-106361412D01*
X132365066Y-106364669D01*
X132381677Y-106367333D01*
X132398654Y-106369406D01*
X132415997Y-106370886D01*
X132433706Y-106371774D01*
X132451780Y-106372070D01*
X132468613Y-106371750D01*
X132485212Y-106370789D01*
X132501577Y-106369187D01*
X132517707Y-106366944D01*
X132533603Y-106364061D01*
X132549265Y-106360536D01*
X132564693Y-106356371D01*
X132579887Y-106351565D01*
X132594846Y-106346118D01*
X132609571Y-106340031D01*
X132624061Y-106333303D01*
X132638318Y-106325934D01*
X132652340Y-106317924D01*
X132666128Y-106309273D01*
X132679682Y-106299982D01*
X132693001Y-106290050D01*
X132706086Y-106279477D01*
X132718937Y-106268263D01*
X132731554Y-106256408D01*
X132743937Y-106243913D01*
X132753189Y-106233847D01*
X132762078Y-106223365D01*
X132770604Y-106212467D01*
X132778768Y-106201153D01*
X132786569Y-106189423D01*
X132794007Y-106177278D01*
X132801082Y-106164716D01*
X132807794Y-106151739D01*
X132814143Y-106138346D01*
X132820130Y-106124537D01*
X132825754Y-106110312D01*
X132831015Y-106095672D01*
X132835913Y-106080615D01*
X132840448Y-106065143D01*
X132844621Y-106049255D01*
X132848430Y-106032951D01*
X132851877Y-106016231D01*
X132854961Y-105999095D01*
X132857682Y-105981543D01*
X132860041Y-105963576D01*
X132862036Y-105945192D01*
X132863669Y-105926393D01*
X132864939Y-105907178D01*
X132865846Y-105887547D01*
X132866390Y-105867501D01*
X132866572Y-105847038D01*
X132866415Y-105829031D01*
X132865945Y-105811169D01*
X132865163Y-105793453D01*
X132864067Y-105775883D01*
X132862658Y-105758458D01*
X132860936Y-105741178D01*
X132858901Y-105724044D01*
X132856553Y-105707056D01*
X132853892Y-105690213D01*
X132850918Y-105673515D01*
X132847630Y-105656963D01*
X132844030Y-105640557D01*
X132840116Y-105624296D01*
X132835890Y-105608181D01*
X132831350Y-105592211D01*
X132826498Y-105576387D01*
X132821332Y-105560708D01*
X132815853Y-105545175D01*
X132810061Y-105529787D01*
X132803956Y-105514545D01*
X132797538Y-105499448D01*
X132790807Y-105484497D01*
X132783762Y-105469691D01*
X132776405Y-105455031D01*
X132768735Y-105440517D01*
X132534471Y-105440517D01*
X132542904Y-105455830D01*
X132550979Y-105471226D01*
X132558694Y-105486702D01*
X132566050Y-105502260D01*
X132573048Y-105517900D01*
X132579687Y-105533620D01*
X132585967Y-105549422D01*
X132591888Y-105565306D01*
X132597450Y-105581270D01*
X132602653Y-105597316D01*
X132607498Y-105613444D01*
X132611984Y-105629652D01*
X132616110Y-105645942D01*
X132619878Y-105662314D01*
X132623288Y-105678766D01*
X132626338Y-105695300D01*
X132629029Y-105711916D01*
X132631362Y-105728613D01*
X132633335Y-105745391D01*
X132634950Y-105762250D01*
X132636206Y-105779191D01*
X132637103Y-105796213D01*
X132637642Y-105813317D01*
X132637821Y-105830501D01*
X132637821Y-105836014D01*
X132637536Y-105856407D01*
X132636680Y-105876034D01*
X132635253Y-105894895D01*
X132633256Y-105912988D01*
X132630688Y-105930316D01*
X132627549Y-105946877D01*
X132623839Y-105962671D01*
X132619559Y-105977699D01*
X132614709Y-105991961D01*
X132609287Y-106005456D01*
X132603295Y-106018184D01*
X132596732Y-106030146D01*
X132589599Y-106041342D01*
X132579414Y-106054957D01*
X132568706Y-106067139D01*
X132557475Y-106077887D01*
X132545720Y-106087203D01*
X132533441Y-106095085D01*
X132520639Y-106101534D01*
X132507314Y-106106551D01*
X132493466Y-106110133D01*
X132479093Y-106112283D01*
X132464198Y-106113000D01*
X132448696Y-106112385D01*
X132433763Y-106110540D01*
X132419400Y-106107465D01*
X132405606Y-106103160D01*
X132392383Y-106097625D01*
X132379729Y-106090860D01*
X132367645Y-106082865D01*
X132356131Y-106073640D01*
X132345186Y-106063185D01*
X132334811Y-106051501D01*
X132325006Y-106038586D01*
X132316222Y-106026183D01*
X132307783Y-106013322D01*
X132299688Y-106000001D01*
X132291938Y-105986220D01*
X132284532Y-105971980D01*
X132277470Y-105957281D01*
X132270753Y-105942123D01*
X132264380Y-105926505D01*
X132258352Y-105910428D01*
X132252668Y-105893892D01*
X132247329Y-105876896D01*
X132242334Y-105859441D01*
X132237635Y-105843116D01*
X132232872Y-105826792D01*
X132228043Y-105810467D01*
X132223149Y-105794143D01*
X132218191Y-105777818D01*
X132213167Y-105761494D01*
X132208078Y-105745170D01*
X132202925Y-105728845D01*
X132197706Y-105712521D01*
X132192422Y-105696196D01*
X132187073Y-105679872D01*
X132181660Y-105663547D01*
X132176181Y-105647223D01*
X132170178Y-105631290D01*
X132163621Y-105615715D01*
X132156510Y-105600500D01*
X132148845Y-105585643D01*
X132140626Y-105571145D01*
X132131852Y-105557006D01*
X132122524Y-105543226D01*
X132112642Y-105529804D01*
X132102206Y-105516741D01*
X132091216Y-105504037D01*
X132079671Y-105491692D01*
X132067572Y-105479705D01*
X132054919Y-105468078D01*
X132043307Y-105458664D01*
X132031254Y-105449900D01*
X132018760Y-105441785D01*
X132005824Y-105434319D01*
X131992448Y-105427502D01*
X131978631Y-105421335D01*
X131964372Y-105415817D01*
X131949673Y-105410947D01*
X131934532Y-105406728D01*
X131918951Y-105403157D01*
X131902928Y-105400236D01*
X131886465Y-105397963D01*
X131869561Y-105396340D01*
X131852215Y-105395366D01*
X131834429Y-105395042D01*
X131834429Y-105395041D01*
X131834429Y-105395041D01*
G37*
G36*
X131653900Y-106573264D02*
X131436175Y-106573264D01*
X131436175Y-106818555D01*
X131015871Y-106818555D01*
X131015871Y-107076248D01*
X131436175Y-107076248D01*
X131436175Y-107451074D01*
X131653900Y-107451074D01*
X131653900Y-107076248D01*
X132472458Y-107076248D01*
X132487149Y-107076678D01*
X132501157Y-107077968D01*
X132514482Y-107080117D01*
X132527123Y-107083127D01*
X132539081Y-107086996D01*
X132550356Y-107091725D01*
X132560948Y-107097314D01*
X132570856Y-107103763D01*
X132580081Y-107111072D01*
X132588622Y-107119240D01*
X132596480Y-107128269D01*
X132603655Y-107138157D01*
X132610147Y-107148905D01*
X132615955Y-107160513D01*
X132621080Y-107172981D01*
X132625521Y-107186309D01*
X132629280Y-107200496D01*
X132632355Y-107215544D01*
X132634746Y-107231451D01*
X132636454Y-107248218D01*
X132637479Y-107265845D01*
X132637821Y-107284332D01*
X132637821Y-107287088D01*
X132637408Y-107306091D01*
X132636168Y-107324516D01*
X132634101Y-107342361D01*
X132631207Y-107359628D01*
X132627487Y-107376316D01*
X132622940Y-107392425D01*
X132617566Y-107407956D01*
X132611366Y-107422908D01*
X132604339Y-107437280D01*
X132596485Y-107451075D01*
X132828001Y-107451075D01*
X132834162Y-107434998D01*
X132839787Y-107418920D01*
X132844876Y-107402843D01*
X132849429Y-107386766D01*
X132853447Y-107370689D01*
X132856929Y-107354612D01*
X132859875Y-107338535D01*
X132862286Y-107322458D01*
X132864161Y-107306381D01*
X132865500Y-107290304D01*
X132866304Y-107274226D01*
X132866572Y-107258149D01*
X132866572Y-107251259D01*
X132866318Y-107236551D01*
X132865558Y-107221561D01*
X132864291Y-107206290D01*
X132862517Y-107190738D01*
X132860236Y-107174905D01*
X132857448Y-107158790D01*
X132854154Y-107142394D01*
X132851106Y-107129243D01*
X132847480Y-107115514D01*
X132843277Y-107101206D01*
X132838496Y-107086320D01*
X132833138Y-107070855D01*
X132827203Y-107054812D01*
X132820690Y-107038191D01*
X132813599Y-107020991D01*
X132805931Y-107003212D01*
X132798732Y-106988908D01*
X132790668Y-106975059D01*
X132781737Y-106961666D01*
X132771942Y-106948729D01*
X132761280Y-106936247D01*
X132749754Y-106924220D01*
X132737362Y-106912649D01*
X132724104Y-106901534D01*
X132709981Y-106890874D01*
X132694992Y-106880669D01*
X132679138Y-106870921D01*
X132665928Y-106863707D01*
X132652281Y-106857028D01*
X132638198Y-106850883D01*
X132623680Y-106845272D01*
X132608726Y-106840196D01*
X132593336Y-106835654D01*
X132577510Y-106831647D01*
X132561249Y-106828173D01*
X132544551Y-106825235D01*
X132527418Y-106822830D01*
X132509849Y-106820960D01*
X132491844Y-106819624D01*
X132473404Y-106818823D01*
X132454527Y-106818555D01*
X131653882Y-106818555D01*
X131653882Y-106573265D01*
X131653900Y-106573264D01*
X131653900Y-106573264D01*
G37*
G36*
X132400792Y-107711524D02*
X132397989Y-107967838D01*
X132412300Y-107968149D01*
X132426172Y-107969083D01*
X132439603Y-107970639D01*
X132452593Y-107972818D01*
X132465144Y-107975620D01*
X132477253Y-107979044D01*
X132488923Y-107983091D01*
X132500152Y-107987760D01*
X132510941Y-107993052D01*
X132521289Y-107998967D01*
X132531198Y-108005504D01*
X132540665Y-108012664D01*
X132549693Y-108020446D01*
X132558280Y-108028851D01*
X132566426Y-108037878D01*
X132574133Y-108047528D01*
X132581399Y-108057801D01*
X132588224Y-108068696D01*
X132594609Y-108080214D01*
X132600554Y-108092355D01*
X132606059Y-108105118D01*
X132611123Y-108118503D01*
X132615747Y-108132511D01*
X132619930Y-108147142D01*
X132623673Y-108162395D01*
X132626976Y-108178271D01*
X132629838Y-108194770D01*
X132632260Y-108211891D01*
X132634242Y-108229635D01*
X132635783Y-108248001D01*
X132636884Y-108266990D01*
X132637544Y-108286601D01*
X132637765Y-108306835D01*
X132637765Y-108310969D01*
X132637540Y-108330638D01*
X132636866Y-108349683D01*
X132635742Y-108368103D01*
X132634169Y-108385899D01*
X132632146Y-108403071D01*
X132629674Y-108419618D01*
X132626753Y-108435541D01*
X132623382Y-108450839D01*
X132619561Y-108465513D01*
X132615292Y-108479563D01*
X132610572Y-108492988D01*
X132605403Y-108505789D01*
X132599785Y-108517965D01*
X132593717Y-108529517D01*
X132587200Y-108540444D01*
X132580234Y-108550747D01*
X132572818Y-108560426D01*
X132564952Y-108569480D01*
X132556637Y-108577910D01*
X132547872Y-108585715D01*
X132538659Y-108592896D01*
X132528995Y-108599452D01*
X132518882Y-108605384D01*
X132508320Y-108610692D01*
X132497308Y-108615375D01*
X132485847Y-108619434D01*
X132473936Y-108622868D01*
X132461576Y-108625678D01*
X132448766Y-108627863D01*
X132435507Y-108629425D01*
X132421799Y-108630361D01*
X132407641Y-108630673D01*
X132178871Y-108630673D01*
X132176584Y-108615895D01*
X132174452Y-108600694D01*
X132172475Y-108585072D01*
X132170654Y-108569027D01*
X132168989Y-108552561D01*
X132167479Y-108535673D01*
X132166124Y-108518363D01*
X132164925Y-108500632D01*
X132163882Y-108482478D01*
X132162994Y-108463903D01*
X132162261Y-108444906D01*
X132161685Y-108425486D01*
X132161263Y-108405646D01*
X132160997Y-108385383D01*
X132161224Y-108369128D01*
X132161903Y-108352647D01*
X132163036Y-108335942D01*
X132164622Y-108319012D01*
X132166661Y-108301857D01*
X132169153Y-108284477D01*
X132172098Y-108266871D01*
X132174692Y-108251218D01*
X132177678Y-108235263D01*
X132181054Y-108219006D01*
X132184822Y-108202448D01*
X132188980Y-108185589D01*
X132193529Y-108168428D01*
X132198470Y-108150966D01*
X132203801Y-108133202D01*
X132209058Y-108117584D01*
X132215030Y-108102579D01*
X132221717Y-108088186D01*
X132229118Y-108074405D01*
X132237233Y-108061238D01*
X132246063Y-108048682D01*
X132255608Y-108036739D01*
X132265867Y-108025409D01*
X132276840Y-108014690D01*
X132289888Y-108003709D01*
X132303539Y-107994192D01*
X132317793Y-107986139D01*
X132332650Y-107979550D01*
X132348109Y-107974426D01*
X132364170Y-107970765D01*
X132380835Y-107968569D01*
X132398102Y-107967837D01*
X132397989Y-107967838D01*
X132400792Y-107711524D01*
X132383498Y-107711830D01*
X132366525Y-107712749D01*
X132349873Y-107714280D01*
X132333541Y-107716423D01*
X132317529Y-107719179D01*
X132301838Y-107722548D01*
X132286467Y-107726529D01*
X132271417Y-107731122D01*
X132256688Y-107736328D01*
X132242279Y-107742147D01*
X132228190Y-107748578D01*
X132214422Y-107755621D01*
X132200974Y-107763277D01*
X132187847Y-107771545D01*
X132175041Y-107780425D01*
X132162555Y-107789919D01*
X132150389Y-107800024D01*
X132138544Y-107810742D01*
X132127020Y-107822073D01*
X132115816Y-107834016D01*
X132104932Y-107846571D01*
X132094369Y-107859739D01*
X132084127Y-107873520D01*
X132074205Y-107887912D01*
X132066435Y-107899820D01*
X132058929Y-107912025D01*
X132051687Y-107924527D01*
X132044708Y-107937326D01*
X132037992Y-107950422D01*
X132031539Y-107963815D01*
X132025350Y-107977505D01*
X132019424Y-107991492D01*
X132013762Y-108005776D01*
X132008363Y-108020357D01*
X132003227Y-108035235D01*
X131998355Y-108050411D01*
X131993746Y-108065883D01*
X131989401Y-108081652D01*
X131985319Y-108097719D01*
X131981500Y-108114082D01*
X131977944Y-108130743D01*
X131974652Y-108147700D01*
X131971624Y-108164955D01*
X131968858Y-108182506D01*
X131966356Y-108200355D01*
X131964118Y-108218501D01*
X131962142Y-108236944D01*
X131960431Y-108255683D01*
X131958982Y-108274720D01*
X131957797Y-108294054D01*
X131956875Y-108313685D01*
X131956217Y-108333613D01*
X131955822Y-108353838D01*
X131955690Y-108374360D01*
X131955764Y-108391962D01*
X131955984Y-108409491D01*
X131956352Y-108426946D01*
X131956867Y-108444328D01*
X131957530Y-108461636D01*
X131958339Y-108478870D01*
X131959296Y-108496031D01*
X131960400Y-108513119D01*
X131961651Y-108530133D01*
X131963049Y-108547074D01*
X131964594Y-108563941D01*
X131966287Y-108580735D01*
X131968126Y-108597455D01*
X131970113Y-108614102D01*
X131972247Y-108630675D01*
X131951682Y-108629421D01*
X131931813Y-108627604D01*
X131912640Y-108625224D01*
X131894163Y-108622282D01*
X131876382Y-108618778D01*
X131859297Y-108614710D01*
X131842909Y-108610080D01*
X131827216Y-108604888D01*
X131812219Y-108599132D01*
X131797919Y-108592814D01*
X131784315Y-108585934D01*
X131771406Y-108578490D01*
X131759194Y-108570484D01*
X131747678Y-108561916D01*
X131736858Y-108552785D01*
X131726734Y-108543091D01*
X131717306Y-108532834D01*
X131709398Y-108523234D01*
X131701917Y-108513000D01*
X131694864Y-108502132D01*
X131688238Y-108490630D01*
X131682039Y-108478495D01*
X131676269Y-108465727D01*
X131670925Y-108452324D01*
X131666009Y-108438288D01*
X131661521Y-108423618D01*
X131657460Y-108408315D01*
X131653826Y-108392377D01*
X131650620Y-108375807D01*
X131647841Y-108358602D01*
X131645490Y-108340764D01*
X131643567Y-108322292D01*
X131642070Y-108303187D01*
X131641002Y-108283448D01*
X131640360Y-108263075D01*
X131640147Y-108242068D01*
X131640280Y-108226087D01*
X131640678Y-108210016D01*
X131641342Y-108193858D01*
X131642272Y-108177610D01*
X131643468Y-108161275D01*
X131644929Y-108144850D01*
X131646656Y-108128337D01*
X131648649Y-108111736D01*
X131650907Y-108095045D01*
X131653431Y-108078267D01*
X131656221Y-108061399D01*
X131659276Y-108044444D01*
X131662597Y-108027399D01*
X131666184Y-108010266D01*
X131670036Y-107993045D01*
X131674154Y-107975734D01*
X131678538Y-107958336D01*
X131683188Y-107940848D01*
X131688103Y-107923273D01*
X131693283Y-107905608D01*
X131698730Y-107887855D01*
X131704442Y-107870014D01*
X131710420Y-107852083D01*
X131489929Y-107852083D01*
X131483988Y-107868111D01*
X131478289Y-107884221D01*
X131472832Y-107900416D01*
X131467618Y-107916695D01*
X131462646Y-107933057D01*
X131457917Y-107949503D01*
X131453431Y-107966033D01*
X131449187Y-107982646D01*
X131445185Y-107999344D01*
X131441426Y-108016125D01*
X131437910Y-108032990D01*
X131434636Y-108049939D01*
X131431604Y-108066971D01*
X131428815Y-108084088D01*
X131426269Y-108101288D01*
X131423965Y-108118572D01*
X131421904Y-108135939D01*
X131420085Y-108153391D01*
X131418508Y-108170926D01*
X131417175Y-108188545D01*
X131416083Y-108206248D01*
X131415235Y-108224035D01*
X131414628Y-108241905D01*
X131414264Y-108259859D01*
X131414143Y-108277897D01*
X131414313Y-108297317D01*
X131414823Y-108316439D01*
X131415673Y-108335265D01*
X131416863Y-108353793D01*
X131418392Y-108372025D01*
X131420262Y-108389959D01*
X131422471Y-108407597D01*
X131425021Y-108424937D01*
X131427910Y-108441980D01*
X131431139Y-108458726D01*
X131434708Y-108475176D01*
X131438618Y-108491328D01*
X131442867Y-108507183D01*
X131447455Y-108522741D01*
X131452384Y-108538002D01*
X131457653Y-108552966D01*
X131463262Y-108567633D01*
X131469210Y-108582003D01*
X131475499Y-108596075D01*
X131482127Y-108609851D01*
X131489096Y-108623330D01*
X131496404Y-108636512D01*
X131504052Y-108649396D01*
X131512040Y-108661984D01*
X131520369Y-108674275D01*
X131529036Y-108686268D01*
X131538044Y-108697965D01*
X131547392Y-108709364D01*
X131557080Y-108720466D01*
X131567108Y-108731272D01*
X131577721Y-108742106D01*
X131588652Y-108752560D01*
X131599902Y-108762634D01*
X131611469Y-108772328D01*
X131623354Y-108781641D01*
X131635556Y-108790575D01*
X131648077Y-108799128D01*
X131660916Y-108807301D01*
X131674072Y-108815095D01*
X131687546Y-108822507D01*
X131701338Y-108829540D01*
X131715448Y-108836193D01*
X131729876Y-108842465D01*
X131744622Y-108848358D01*
X131759685Y-108853870D01*
X131775067Y-108859002D01*
X131790766Y-108863754D01*
X131806783Y-108868125D01*
X131823118Y-108872117D01*
X131839771Y-108875728D01*
X131856741Y-108878959D01*
X131874030Y-108881811D01*
X131891636Y-108884282D01*
X131909561Y-108886372D01*
X131927803Y-108888083D01*
X131946363Y-108889414D01*
X131965241Y-108890364D01*
X131984436Y-108890934D01*
X132003950Y-108891124D01*
X132410463Y-108891124D01*
X132425621Y-108890856D01*
X132440780Y-108890052D01*
X132455938Y-108888713D01*
X132471097Y-108886837D01*
X132486255Y-108884425D01*
X132501414Y-108881478D01*
X132514548Y-108878581D01*
X132528751Y-108874615D01*
X132544022Y-108869581D01*
X132560362Y-108863479D01*
X132577769Y-108856307D01*
X132596245Y-108848067D01*
X132615789Y-108838759D01*
X132631188Y-108831103D01*
X132646144Y-108822835D01*
X132660658Y-108813954D01*
X132674729Y-108804461D01*
X132688357Y-108794355D01*
X132701543Y-108783637D01*
X132714285Y-108772307D01*
X132726585Y-108760364D01*
X132738443Y-108747808D01*
X132747074Y-108737760D01*
X132755514Y-108726908D01*
X132763763Y-108715252D01*
X132771820Y-108702792D01*
X132779686Y-108689529D01*
X132787361Y-108675461D01*
X132794845Y-108660590D01*
X132802137Y-108644915D01*
X132809238Y-108628436D01*
X132816148Y-108611153D01*
X132822866Y-108593066D01*
X132829394Y-108574176D01*
X132833898Y-108559566D01*
X132838112Y-108544677D01*
X132842035Y-108529508D01*
X132845667Y-108514059D01*
X132849009Y-108498330D01*
X132852060Y-108482321D01*
X132854821Y-108466032D01*
X132857291Y-108449463D01*
X132859471Y-108432614D01*
X132861360Y-108415486D01*
X132862958Y-108398077D01*
X132864266Y-108380389D01*
X132865283Y-108362420D01*
X132866009Y-108344172D01*
X132866445Y-108325644D01*
X132866590Y-108306836D01*
X132866440Y-108287522D01*
X132865988Y-108268509D01*
X132865234Y-108249798D01*
X132864180Y-108231388D01*
X132862824Y-108213280D01*
X132861166Y-108195473D01*
X132859208Y-108177968D01*
X132856948Y-108160764D01*
X132854387Y-108143861D01*
X132851524Y-108127260D01*
X132848360Y-108110961D01*
X132844895Y-108094963D01*
X132841128Y-108079266D01*
X132837060Y-108063871D01*
X132832691Y-108048777D01*
X132828020Y-108033984D01*
X132821271Y-108014864D01*
X132814349Y-107996548D01*
X132807256Y-107979035D01*
X132799990Y-107962326D01*
X132792553Y-107946422D01*
X132784944Y-107931321D01*
X132777162Y-107917023D01*
X132769209Y-107903530D01*
X132761084Y-107890841D01*
X132752787Y-107878955D01*
X132744318Y-107867873D01*
X132735677Y-107857596D01*
X132725012Y-107845979D01*
X132713960Y-107834830D01*
X132702523Y-107824151D01*
X132690699Y-107813939D01*
X132678489Y-107804197D01*
X132665894Y-107794922D01*
X132652912Y-107786117D01*
X132639544Y-107777780D01*
X132625790Y-107769911D01*
X132611650Y-107762511D01*
X132594125Y-107754307D01*
X132577376Y-107746922D01*
X132561402Y-107740355D01*
X132546202Y-107734606D01*
X132531778Y-107729675D01*
X132518128Y-107725562D01*
X132505254Y-107722268D01*
X132493154Y-107719792D01*
X132477570Y-107717265D01*
X132462064Y-107715198D01*
X132446634Y-107713590D01*
X132431283Y-107712441D01*
X132416008Y-107711752D01*
X132400811Y-107711523D01*
X132400792Y-107711524D01*
X132400792Y-107711524D01*
G37*
G36*
X132679157Y-109354145D02*
X132668313Y-109344520D01*
X132657199Y-109335174D01*
X132645814Y-109326107D01*
X132634160Y-109317319D01*
X132622236Y-109308810D01*
X132610041Y-109300580D01*
X132597577Y-109292629D01*
X132584843Y-109284957D01*
X132571838Y-109277564D01*
X132558564Y-109270450D01*
X132545020Y-109263615D01*
X132531206Y-109257059D01*
X132517122Y-109250782D01*
X132502768Y-109244784D01*
X132488143Y-109239065D01*
X132473249Y-109233625D01*
X132458085Y-109228463D01*
X132442651Y-109223581D01*
X132426947Y-109218978D01*
X132410973Y-109214654D01*
X132394729Y-109210609D01*
X132378215Y-109206842D01*
X132361431Y-109203355D01*
X132344377Y-109200147D01*
X132327053Y-109197217D01*
X132309459Y-109194567D01*
X132291596Y-109192196D01*
X132273462Y-109190103D01*
X132255058Y-109188290D01*
X132236384Y-109186756D01*
X132217440Y-109185500D01*
X132198226Y-109184524D01*
X132178743Y-109183826D01*
X132158989Y-109183408D01*
X132138965Y-109183268D01*
X132118943Y-109183408D01*
X132099192Y-109183826D01*
X132079714Y-109184524D01*
X132060508Y-109185500D01*
X132041575Y-109186756D01*
X132022913Y-109188290D01*
X132004524Y-109190103D01*
X131986407Y-109192196D01*
X131968563Y-109194567D01*
X131950991Y-109197217D01*
X131933690Y-109200147D01*
X131916663Y-109203355D01*
X131899907Y-109206842D01*
X131883424Y-109210609D01*
X131867213Y-109214654D01*
X131851274Y-109218978D01*
X131835607Y-109223581D01*
X131820213Y-109228463D01*
X131805091Y-109233625D01*
X131790241Y-109239065D01*
X131775664Y-109244784D01*
X131761359Y-109250782D01*
X131747326Y-109257059D01*
X131733565Y-109263615D01*
X131720076Y-109270450D01*
X131706860Y-109277564D01*
X131693916Y-109284957D01*
X131681244Y-109292629D01*
X131668845Y-109300580D01*
X131656718Y-109308810D01*
X131644863Y-109317319D01*
X131633280Y-109326107D01*
X131621969Y-109335174D01*
X131610931Y-109344520D01*
X131600165Y-109354145D01*
X131589061Y-109364639D01*
X131578298Y-109375409D01*
X131567877Y-109386455D01*
X131557798Y-109397777D01*
X131548060Y-109409374D01*
X131538664Y-109421247D01*
X131529610Y-109433397D01*
X131520897Y-109445822D01*
X131512526Y-109458523D01*
X131504497Y-109471500D01*
X131496809Y-109484752D01*
X131489463Y-109498281D01*
X131482459Y-109512085D01*
X131475796Y-109526166D01*
X131469475Y-109540522D01*
X131463496Y-109555154D01*
X131457859Y-109570062D01*
X131452563Y-109585245D01*
X131447608Y-109600705D01*
X131442996Y-109616440D01*
X131438725Y-109632452D01*
X131434796Y-109648739D01*
X131431208Y-109665302D01*
X131427962Y-109682141D01*
X131425058Y-109699256D01*
X131422495Y-109716646D01*
X131420274Y-109734313D01*
X131418395Y-109752255D01*
X131416858Y-109770473D01*
X131415662Y-109788967D01*
X131414808Y-109807737D01*
X131414295Y-109826783D01*
X131414124Y-109846105D01*
X131414250Y-109863278D01*
X131414627Y-109880403D01*
X131415256Y-109897480D01*
X131416135Y-109914508D01*
X131417266Y-109931488D01*
X131418649Y-109948419D01*
X131420283Y-109965302D01*
X131422168Y-109982136D01*
X131424305Y-109998921D01*
X131426693Y-110015659D01*
X131429332Y-110032347D01*
X131432223Y-110048987D01*
X131435365Y-110065579D01*
X131438758Y-110082122D01*
X131442403Y-110098616D01*
X131446299Y-110115063D01*
X131450447Y-110131460D01*
X131454846Y-110147809D01*
X131459496Y-110164110D01*
X131464398Y-110180362D01*
X131469551Y-110196565D01*
X131474955Y-110212720D01*
X131480611Y-110228827D01*
X131486518Y-110244885D01*
X131492676Y-110260894D01*
X131737965Y-110260894D01*
X131730432Y-110244925D01*
X131723219Y-110228941D01*
X131716326Y-110212943D01*
X131709755Y-110196930D01*
X131703504Y-110180903D01*
X131697573Y-110164862D01*
X131691963Y-110148807D01*
X131686674Y-110132737D01*
X131681705Y-110116652D01*
X131677057Y-110100554D01*
X131672729Y-110084441D01*
X131668722Y-110068313D01*
X131665035Y-110052172D01*
X131661669Y-110036016D01*
X131658624Y-110019845D01*
X131655899Y-110003660D01*
X131653495Y-109987461D01*
X131651411Y-109971248D01*
X131649648Y-109955020D01*
X131648205Y-109938778D01*
X131647083Y-109922521D01*
X131646282Y-109906250D01*
X131645801Y-109889965D01*
X131645641Y-109873666D01*
X131645641Y-109868153D01*
X131645892Y-109848933D01*
X131646647Y-109830133D01*
X131647904Y-109811753D01*
X131649664Y-109793794D01*
X131651927Y-109776255D01*
X131654693Y-109759136D01*
X131657962Y-109742438D01*
X131661734Y-109726160D01*
X131666009Y-109710302D01*
X131670787Y-109694864D01*
X131676067Y-109679847D01*
X131681851Y-109665250D01*
X131688137Y-109651074D01*
X131694927Y-109637318D01*
X131702219Y-109623982D01*
X131710014Y-109611066D01*
X131718313Y-109598571D01*
X131727114Y-109586496D01*
X131736418Y-109574841D01*
X131746225Y-109563606D01*
X131754145Y-109555289D01*
X131762640Y-109547298D01*
X131771710Y-109539633D01*
X131781355Y-109532295D01*
X131791575Y-109525282D01*
X131802369Y-109518596D01*
X131813738Y-109512236D01*
X131825682Y-109506202D01*
X131838201Y-109500494D01*
X131851295Y-109495112D01*
X131864963Y-109490057D01*
X131879206Y-109485327D01*
X131894024Y-109480924D01*
X131909417Y-109476847D01*
X131925385Y-109473096D01*
X131941927Y-109469671D01*
X131959044Y-109466573D01*
X131976736Y-109463800D01*
X131995003Y-109461354D01*
X132013845Y-109459234D01*
X132033261Y-109457440D01*
X132053252Y-109455973D01*
X132073818Y-109454831D01*
X132094959Y-109454016D01*
X132116675Y-109453526D01*
X132138965Y-109453363D01*
X132159496Y-109453504D01*
X132179562Y-109453927D01*
X132199162Y-109454631D01*
X132218296Y-109455617D01*
X132236965Y-109456885D01*
X132255168Y-109458434D01*
X132272906Y-109460266D01*
X132290178Y-109462379D01*
X132306984Y-109464773D01*
X132323325Y-109467450D01*
X132339200Y-109470408D01*
X132354610Y-109473648D01*
X132369554Y-109477170D01*
X132384032Y-109480973D01*
X132398045Y-109485058D01*
X132416154Y-109491322D01*
X132433396Y-109498087D01*
X132449774Y-109505353D01*
X132465286Y-109513120D01*
X132479932Y-109521388D01*
X132493713Y-109530158D01*
X132506629Y-109539428D01*
X132518679Y-109549199D01*
X132529863Y-109559472D01*
X132540182Y-109570246D01*
X132549636Y-109581521D01*
X132560249Y-109595914D01*
X132570046Y-109610306D01*
X132579027Y-109624699D01*
X132587191Y-109639092D01*
X132594540Y-109653485D01*
X132601072Y-109667878D01*
X132606787Y-109682271D01*
X132611687Y-109696664D01*
X132615770Y-109711056D01*
X132618916Y-109724534D01*
X132621731Y-109738507D01*
X132624214Y-109752976D01*
X132626367Y-109767942D01*
X132628188Y-109783403D01*
X132629678Y-109799361D01*
X132630837Y-109815815D01*
X132631665Y-109832765D01*
X132632162Y-109850211D01*
X132632327Y-109868153D01*
X132632172Y-109885012D01*
X132631705Y-109901829D01*
X132630928Y-109918602D01*
X132629839Y-109935332D01*
X132628439Y-109952019D01*
X132626729Y-109968663D01*
X132624707Y-109985264D01*
X132622374Y-110001822D01*
X132619730Y-110018337D01*
X132616776Y-110034809D01*
X132613510Y-110051238D01*
X132609933Y-110067624D01*
X132606045Y-110083966D01*
X132601846Y-110100266D01*
X132597336Y-110116523D01*
X132592515Y-110132736D01*
X132587383Y-110148906D01*
X132581940Y-110165034D01*
X132576186Y-110181118D01*
X132570121Y-110197159D01*
X132563745Y-110213158D01*
X132557057Y-110229113D01*
X132550059Y-110245025D01*
X132542750Y-110260894D01*
X132788039Y-110260894D01*
X132794197Y-110244884D01*
X132800104Y-110228826D01*
X132805760Y-110212720D01*
X132811164Y-110196565D01*
X132816317Y-110180361D01*
X132821219Y-110164109D01*
X132825869Y-110147809D01*
X132830268Y-110131459D01*
X132834416Y-110115062D01*
X132838312Y-110098616D01*
X132841957Y-110082121D01*
X132845350Y-110065578D01*
X132848492Y-110048987D01*
X132851383Y-110032347D01*
X132854022Y-110015658D01*
X132856410Y-109998921D01*
X132858547Y-109982135D01*
X132860432Y-109965301D01*
X132862066Y-109948419D01*
X132863448Y-109931487D01*
X132864580Y-109914508D01*
X132865459Y-109897480D01*
X132866088Y-109880403D01*
X132866465Y-109863278D01*
X132866590Y-109846104D01*
X132866418Y-109826782D01*
X132865902Y-109807737D01*
X132865042Y-109788967D01*
X132863837Y-109770473D01*
X132862288Y-109752254D01*
X132860395Y-109734312D01*
X132858158Y-109716646D01*
X132855576Y-109699255D01*
X132852651Y-109682140D01*
X132849381Y-109665301D01*
X132845767Y-109648738D01*
X132841808Y-109632451D01*
X132837506Y-109616440D01*
X132832859Y-109600704D01*
X132827868Y-109585245D01*
X132822533Y-109570061D01*
X132816854Y-109555153D01*
X132810831Y-109540521D01*
X132804463Y-109526165D01*
X132797751Y-109512085D01*
X132790695Y-109498280D01*
X132783295Y-109484752D01*
X132775551Y-109471499D01*
X132767462Y-109458522D01*
X132759029Y-109445821D01*
X132750252Y-109433396D01*
X132741131Y-109421247D01*
X132731666Y-109409374D01*
X132721856Y-109397776D01*
X132711703Y-109386454D01*
X132701205Y-109375408D01*
X132690362Y-109364639D01*
X132679176Y-109354144D01*
X132679157Y-109354145D01*
X132679157Y-109354145D01*
G37*
G36*
X132844521Y-110568197D02*
X130900122Y-110568197D01*
X130900122Y-110825890D01*
X132025982Y-110825890D01*
X131436175Y-111434983D01*
X131436175Y-111785004D01*
X132023216Y-111173156D01*
X132844521Y-111866309D01*
X132844521Y-111523177D01*
X132189953Y-111000901D01*
X132359456Y-110825890D01*
X132844521Y-110825890D01*
X132844521Y-110568197D01*
X132844521Y-110568197D01*
G37*
M02*
