G04 #@! TF.FileFunction,Copper,L2,Bot,Signal*
%FSLAX46Y46*%
G04 Gerber Fmt 4.6, Leading zero omitted, Abs format (unit mm)*
G04 Created by KiCad (PCBNEW 4.0.1-stable) date Thursday, April 14, 2016 'AMt' 11:24:42 AM*
%MOMM*%
G01*
G04 APERTURE LIST*
%ADD10C,0.100000*%
%ADD11C,0.010000*%
G04 APERTURE END LIST*
D10*
D11*
G36*
X131189328Y-97241912D02*
X131189340Y-97279087D01*
X131189366Y-97311821D01*
X131189411Y-97340406D01*
X131189481Y-97365137D01*
X131189581Y-97386306D01*
X131189715Y-97404208D01*
X131189889Y-97419136D01*
X131190109Y-97431384D01*
X131190379Y-97441247D01*
X131190705Y-97449017D01*
X131191092Y-97454988D01*
X131191544Y-97459454D01*
X131192067Y-97462709D01*
X131192667Y-97465046D01*
X131193349Y-97466760D01*
X131194048Y-97468032D01*
X131199369Y-97474217D01*
X131205738Y-97478517D01*
X131205984Y-97478618D01*
X131209432Y-97479468D01*
X131217481Y-97481162D01*
X131229785Y-97483633D01*
X131245999Y-97486816D01*
X131265777Y-97490644D01*
X131288772Y-97495052D01*
X131314640Y-97499972D01*
X131343034Y-97505339D01*
X131373609Y-97511087D01*
X131406019Y-97517150D01*
X131439918Y-97523461D01*
X131458396Y-97526888D01*
X131493102Y-97533321D01*
X131526614Y-97539535D01*
X131558574Y-97545466D01*
X131588625Y-97551046D01*
X131616411Y-97556209D01*
X131641572Y-97560889D01*
X131663753Y-97565018D01*
X131682596Y-97568531D01*
X131697743Y-97571362D01*
X131708837Y-97573443D01*
X131715522Y-97574708D01*
X131717096Y-97575013D01*
X131721591Y-97575885D01*
X131725572Y-97576785D01*
X131729199Y-97578016D01*
X131732631Y-97579879D01*
X131736027Y-97582678D01*
X131739546Y-97586715D01*
X131743349Y-97592292D01*
X131747593Y-97599712D01*
X131752440Y-97609277D01*
X131758046Y-97621290D01*
X131764573Y-97636054D01*
X131772180Y-97653871D01*
X131781025Y-97675043D01*
X131791268Y-97699873D01*
X131803068Y-97728663D01*
X131816586Y-97761716D01*
X131820639Y-97771628D01*
X131834740Y-97806076D01*
X131847060Y-97836188D01*
X131857692Y-97862294D01*
X131866727Y-97884727D01*
X131874258Y-97903816D01*
X131880378Y-97919894D01*
X131885177Y-97933292D01*
X131888748Y-97944341D01*
X131891184Y-97953372D01*
X131892576Y-97960717D01*
X131893017Y-97966707D01*
X131892599Y-97971673D01*
X131891413Y-97975947D01*
X131889553Y-97979860D01*
X131887110Y-97983743D01*
X131884176Y-97987927D01*
X131881759Y-97991390D01*
X131878675Y-97995895D01*
X131872960Y-98004234D01*
X131864828Y-98016094D01*
X131854496Y-98031161D01*
X131842176Y-98049123D01*
X131828085Y-98069666D01*
X131812437Y-98092477D01*
X131795447Y-98117244D01*
X131777329Y-98143652D01*
X131758299Y-98171388D01*
X131738571Y-98200140D01*
X131730867Y-98211367D01*
X131707819Y-98244967D01*
X131687457Y-98274678D01*
X131669616Y-98300756D01*
X131654130Y-98323454D01*
X131640833Y-98343028D01*
X131629561Y-98359732D01*
X131620146Y-98373819D01*
X131612424Y-98385546D01*
X131606229Y-98395166D01*
X131601394Y-98402934D01*
X131597754Y-98409104D01*
X131595144Y-98413931D01*
X131593398Y-98417669D01*
X131592350Y-98420573D01*
X131591833Y-98422897D01*
X131591684Y-98424895D01*
X131591683Y-98425110D01*
X131591683Y-98436011D01*
X131778429Y-98622758D01*
X131808256Y-98652582D01*
X131834738Y-98679048D01*
X131858086Y-98702358D01*
X131878513Y-98722712D01*
X131896229Y-98740310D01*
X131911445Y-98755352D01*
X131924372Y-98768040D01*
X131935223Y-98778573D01*
X131944207Y-98787152D01*
X131951537Y-98793977D01*
X131957423Y-98799249D01*
X131962076Y-98803168D01*
X131965708Y-98805935D01*
X131968530Y-98807749D01*
X131970754Y-98808812D01*
X131972589Y-98809323D01*
X131974249Y-98809484D01*
X131975217Y-98809495D01*
X131984021Y-98808249D01*
X131992217Y-98805215D01*
X131992985Y-98804773D01*
X131996153Y-98802686D01*
X132003162Y-98797958D01*
X132013709Y-98790798D01*
X132027491Y-98781414D01*
X132044203Y-98770012D01*
X132063542Y-98756801D01*
X132085204Y-98741987D01*
X132108884Y-98725780D01*
X132134279Y-98708385D01*
X132161086Y-98690012D01*
X132188999Y-98670866D01*
X132192916Y-98668179D01*
X132221219Y-98648759D01*
X132248639Y-98629948D01*
X132274850Y-98611966D01*
X132299529Y-98595037D01*
X132322353Y-98579383D01*
X132342997Y-98565226D01*
X132361137Y-98552787D01*
X132376450Y-98542289D01*
X132388611Y-98533954D01*
X132397297Y-98528005D01*
X132402184Y-98524663D01*
X132402386Y-98524525D01*
X132407029Y-98521271D01*
X132411113Y-98518436D01*
X132414966Y-98516117D01*
X132418916Y-98514410D01*
X132423290Y-98513412D01*
X132428418Y-98513218D01*
X132434628Y-98513927D01*
X132442247Y-98515635D01*
X132451604Y-98518437D01*
X132463027Y-98522431D01*
X132476845Y-98527713D01*
X132493385Y-98534381D01*
X132512975Y-98542529D01*
X132535945Y-98552256D01*
X132562621Y-98563657D01*
X132593333Y-98576830D01*
X132622256Y-98589234D01*
X132650761Y-98601459D01*
X132678056Y-98613181D01*
X132703768Y-98624240D01*
X132727524Y-98634475D01*
X132748952Y-98643723D01*
X132767678Y-98651825D01*
X132783330Y-98658620D01*
X132795536Y-98663945D01*
X132803921Y-98667640D01*
X132808114Y-98669544D01*
X132808370Y-98669671D01*
X132815307Y-98674634D01*
X132821298Y-98681041D01*
X132821329Y-98681084D01*
X132822180Y-98682257D01*
X132822962Y-98683418D01*
X132823728Y-98684835D01*
X132824531Y-98686774D01*
X132825425Y-98689505D01*
X132826463Y-98693294D01*
X132827699Y-98698410D01*
X132829185Y-98705119D01*
X132830974Y-98713691D01*
X132833121Y-98724392D01*
X132835678Y-98737490D01*
X132838699Y-98753253D01*
X132842236Y-98771948D01*
X132846344Y-98793845D01*
X132851075Y-98819209D01*
X132856483Y-98848308D01*
X132862621Y-98881412D01*
X132869543Y-98918786D01*
X132877300Y-98960700D01*
X132881666Y-98984287D01*
X132887339Y-99014902D01*
X132892800Y-99044300D01*
X132897972Y-99072076D01*
X132902779Y-99097820D01*
X132907143Y-99121124D01*
X132910989Y-99141580D01*
X132914240Y-99158782D01*
X132916819Y-99172319D01*
X132918650Y-99181786D01*
X132919656Y-99186773D01*
X132919729Y-99187099D01*
X132922846Y-99195862D01*
X132927326Y-99203200D01*
X132928716Y-99204703D01*
X132935018Y-99210623D01*
X133198246Y-99211262D01*
X133240381Y-99211362D01*
X133277778Y-99211443D01*
X133310730Y-99211500D01*
X133339530Y-99211528D01*
X133364469Y-99211523D01*
X133385841Y-99211481D01*
X133403938Y-99211396D01*
X133419052Y-99211265D01*
X133431475Y-99211083D01*
X133441500Y-99210845D01*
X133449419Y-99210546D01*
X133455525Y-99210183D01*
X133460110Y-99209751D01*
X133463466Y-99209245D01*
X133465886Y-99208660D01*
X133467663Y-99207993D01*
X133469088Y-99207238D01*
X133469389Y-99207056D01*
X133476182Y-99200775D01*
X133480019Y-99193843D01*
X133480937Y-99189972D01*
X133482681Y-99181590D01*
X133485167Y-99169132D01*
X133488312Y-99153035D01*
X133492032Y-99133733D01*
X133496243Y-99111662D01*
X133500861Y-99087258D01*
X133505803Y-99060957D01*
X133510984Y-99033193D01*
X133513062Y-99022010D01*
X133521585Y-98976078D01*
X133529241Y-98934833D01*
X133536081Y-98898017D01*
X133542152Y-98865370D01*
X133547503Y-98836635D01*
X133552184Y-98811553D01*
X133556244Y-98789865D01*
X133559731Y-98771313D01*
X133562695Y-98755637D01*
X133565184Y-98742580D01*
X133567248Y-98731883D01*
X133568935Y-98723287D01*
X133570294Y-98716533D01*
X133571375Y-98711364D01*
X133572226Y-98707520D01*
X133572896Y-98704743D01*
X133573435Y-98702774D01*
X133573649Y-98702077D01*
X133577446Y-98694794D01*
X133583110Y-98688208D01*
X133583437Y-98687927D01*
X133586873Y-98686055D01*
X133594645Y-98682476D01*
X133606416Y-98677329D01*
X133621844Y-98670757D01*
X133640589Y-98662901D01*
X133662313Y-98653901D01*
X133686674Y-98643899D01*
X133713333Y-98633037D01*
X133741951Y-98621454D01*
X133772186Y-98609294D01*
X133787423Y-98603193D01*
X133822282Y-98589259D01*
X133852781Y-98577081D01*
X133879233Y-98566543D01*
X133901948Y-98557533D01*
X133921239Y-98549936D01*
X133937415Y-98543639D01*
X133950787Y-98538527D01*
X133961668Y-98534487D01*
X133970367Y-98531406D01*
X133977196Y-98529168D01*
X133982467Y-98527661D01*
X133986489Y-98526770D01*
X133989575Y-98526381D01*
X133992035Y-98526382D01*
X133994180Y-98526657D01*
X133995703Y-98526961D01*
X133998459Y-98527914D01*
X134002672Y-98529976D01*
X134008563Y-98533294D01*
X134016354Y-98538016D01*
X134026268Y-98544288D01*
X134038525Y-98552257D01*
X134053349Y-98562070D01*
X134070961Y-98573875D01*
X134091583Y-98587818D01*
X134115436Y-98604045D01*
X134142743Y-98622705D01*
X134173726Y-98643943D01*
X134208606Y-98667907D01*
X134209643Y-98668620D01*
X134238371Y-98688339D01*
X134266022Y-98707248D01*
X134292303Y-98725151D01*
X134316922Y-98741851D01*
X134339585Y-98757151D01*
X134360000Y-98770857D01*
X134377874Y-98782771D01*
X134392914Y-98792698D01*
X134404828Y-98800441D01*
X134413324Y-98805804D01*
X134418107Y-98808590D01*
X134418972Y-98808951D01*
X134426912Y-98809189D01*
X134432804Y-98808379D01*
X134435722Y-98806445D01*
X134441774Y-98801277D01*
X134451002Y-98792837D01*
X134463444Y-98781086D01*
X134479142Y-98765985D01*
X134498136Y-98747494D01*
X134520466Y-98725575D01*
X134546172Y-98700189D01*
X134575294Y-98671296D01*
X134607873Y-98638858D01*
X134621619Y-98625143D01*
X134646847Y-98599929D01*
X134671107Y-98575621D01*
X134694157Y-98552468D01*
X134715753Y-98530714D01*
X134735654Y-98510608D01*
X134753615Y-98492395D01*
X134769396Y-98476321D01*
X134782752Y-98462634D01*
X134793442Y-98451579D01*
X134801223Y-98443404D01*
X134805851Y-98438354D01*
X134807089Y-98436803D01*
X134810352Y-98426833D01*
X134809312Y-98416612D01*
X134803848Y-98405289D01*
X134802346Y-98403010D01*
X134799695Y-98399136D01*
X134794419Y-98391436D01*
X134786737Y-98380229D01*
X134776870Y-98365836D01*
X134765037Y-98348578D01*
X134751458Y-98328776D01*
X134736352Y-98306749D01*
X134719940Y-98282818D01*
X134702442Y-98257305D01*
X134684077Y-98230529D01*
X134667211Y-98205940D01*
X134648348Y-98178417D01*
X134630232Y-98151938D01*
X134613074Y-98126816D01*
X134597087Y-98103363D01*
X134582482Y-98081892D01*
X134569473Y-98062716D01*
X134558271Y-98046147D01*
X134549088Y-98032498D01*
X134542136Y-98022082D01*
X134537629Y-98015212D01*
X134535825Y-98012297D01*
X134532294Y-98000483D01*
X134532398Y-97994107D01*
X134533917Y-97989402D01*
X134537726Y-97980635D01*
X134543662Y-97968135D01*
X134551562Y-97952231D01*
X134561264Y-97933253D01*
X134572606Y-97911529D01*
X134581596Y-97894559D01*
X134594199Y-97870834D01*
X134604565Y-97851102D01*
X134612860Y-97834942D01*
X134619252Y-97821927D01*
X134623908Y-97811636D01*
X134626995Y-97803644D01*
X134628680Y-97797526D01*
X134629131Y-97792861D01*
X134628513Y-97789223D01*
X134626994Y-97786189D01*
X134625222Y-97783889D01*
X134622374Y-97782309D01*
X134615011Y-97778885D01*
X134603274Y-97773675D01*
X134587305Y-97766737D01*
X134567245Y-97758133D01*
X134543234Y-97747920D01*
X134515413Y-97736159D01*
X134483924Y-97722908D01*
X134448906Y-97708227D01*
X134410501Y-97692175D01*
X134368850Y-97674812D01*
X134324094Y-97656196D01*
X134276374Y-97636388D01*
X134225830Y-97615446D01*
X134185080Y-97598588D01*
X134132154Y-97576707D01*
X134083674Y-97556672D01*
X134039444Y-97538403D01*
X133999263Y-97521821D01*
X133962932Y-97506845D01*
X133930253Y-97493396D01*
X133901026Y-97481395D01*
X133875052Y-97470763D01*
X133852131Y-97461419D01*
X133832066Y-97453285D01*
X133814657Y-97446280D01*
X133799704Y-97440325D01*
X133787009Y-97435342D01*
X133776373Y-97431249D01*
X133767595Y-97427968D01*
X133760478Y-97425419D01*
X133754823Y-97423522D01*
X133750429Y-97422199D01*
X133747099Y-97421369D01*
X133744632Y-97420953D01*
X133742830Y-97420871D01*
X133741494Y-97421045D01*
X133740950Y-97421199D01*
X133735298Y-97423599D01*
X133730243Y-97427242D01*
X133725085Y-97432912D01*
X133719125Y-97441395D01*
X133711663Y-97453475D01*
X133710602Y-97455257D01*
X133703219Y-97467135D01*
X133694680Y-97480052D01*
X133686656Y-97491491D01*
X133685558Y-97492980D01*
X133678368Y-97502649D01*
X133669506Y-97514572D01*
X133660299Y-97526963D01*
X133654719Y-97534475D01*
X133620988Y-97575725D01*
X133583697Y-97613516D01*
X133543121Y-97647598D01*
X133499533Y-97677724D01*
X133490024Y-97683524D01*
X133447314Y-97706301D01*
X133401638Y-97725628D01*
X133353973Y-97741173D01*
X133305300Y-97752607D01*
X133269155Y-97758232D01*
X133250627Y-97759830D01*
X133228600Y-97760694D01*
X133204549Y-97760850D01*
X133179948Y-97760321D01*
X133156271Y-97759129D01*
X133134991Y-97757300D01*
X133124045Y-97755914D01*
X133071737Y-97745747D01*
X133021214Y-97730996D01*
X132972723Y-97711839D01*
X132926508Y-97688456D01*
X132882817Y-97661024D01*
X132841897Y-97629724D01*
X132803992Y-97594732D01*
X132769350Y-97556229D01*
X132738217Y-97514393D01*
X132710840Y-97469403D01*
X132699712Y-97447977D01*
X132678956Y-97400646D01*
X132662984Y-97352462D01*
X132651707Y-97303044D01*
X132645039Y-97252010D01*
X132642891Y-97200000D01*
X132644365Y-97154843D01*
X132648928Y-97112475D01*
X132656788Y-97071562D01*
X132668152Y-97030769D01*
X132670378Y-97023960D01*
X132689370Y-96974705D01*
X132712596Y-96927852D01*
X132739815Y-96883643D01*
X132770788Y-96842319D01*
X132805275Y-96804122D01*
X132843036Y-96769295D01*
X132883832Y-96738078D01*
X132927422Y-96710714D01*
X132973567Y-96687445D01*
X133022026Y-96668512D01*
X133023329Y-96668074D01*
X133060050Y-96656907D01*
X133095126Y-96648666D01*
X133130130Y-96643102D01*
X133166637Y-96639965D01*
X133206084Y-96639004D01*
X133243824Y-96639990D01*
X133278572Y-96643057D01*
X133312030Y-96648476D01*
X133345900Y-96656521D01*
X133379742Y-96666756D01*
X133429412Y-96685700D01*
X133476635Y-96708995D01*
X133521205Y-96736490D01*
X133562917Y-96768038D01*
X133601564Y-96803490D01*
X133636943Y-96842697D01*
X133654723Y-96865524D01*
X133662991Y-96876681D01*
X133671394Y-96887963D01*
X133678788Y-96897838D01*
X133682869Y-96903247D01*
X133688763Y-96911470D01*
X133696081Y-96922332D01*
X133703693Y-96934134D01*
X133707937Y-96940970D01*
X133716145Y-96954169D01*
X133722542Y-96963686D01*
X133727755Y-96970241D01*
X133732410Y-96974550D01*
X133737134Y-96977333D01*
X133740963Y-96978805D01*
X133742144Y-96979075D01*
X133743689Y-96979131D01*
X133745799Y-96978892D01*
X133748672Y-96978280D01*
X133752506Y-96977214D01*
X133757503Y-96975615D01*
X133763860Y-96973404D01*
X133771776Y-96970501D01*
X133781451Y-96966826D01*
X133793084Y-96962300D01*
X133806874Y-96956844D01*
X133823020Y-96950377D01*
X133841722Y-96942821D01*
X133863177Y-96934096D01*
X133887586Y-96924121D01*
X133915148Y-96912819D01*
X133946061Y-96900108D01*
X133980526Y-96885911D01*
X134018740Y-96870146D01*
X134060903Y-96852735D01*
X134107214Y-96833598D01*
X134157873Y-96812655D01*
X134185093Y-96801400D01*
X134237188Y-96779840D01*
X134286673Y-96759326D01*
X134333400Y-96739918D01*
X134377222Y-96721680D01*
X134417990Y-96704674D01*
X134455558Y-96688960D01*
X134489776Y-96674603D01*
X134520499Y-96661664D01*
X134547577Y-96650205D01*
X134570864Y-96640288D01*
X134590211Y-96631976D01*
X134605471Y-96625331D01*
X134616495Y-96620415D01*
X134623138Y-96617290D01*
X134625222Y-96616094D01*
X134628499Y-96609755D01*
X134629623Y-96603425D01*
X134628370Y-96598868D01*
X134624631Y-96590014D01*
X134618434Y-96576924D01*
X134609809Y-96559655D01*
X134598785Y-96538269D01*
X134585390Y-96512823D01*
X134581898Y-96506253D01*
X134571410Y-96486434D01*
X134561640Y-96467737D01*
X134552852Y-96450684D01*
X134545310Y-96435798D01*
X134539279Y-96423603D01*
X134535022Y-96414622D01*
X134532804Y-96409377D01*
X134532569Y-96408575D01*
X134532265Y-96400146D01*
X134533666Y-96392779D01*
X134535468Y-96389584D01*
X134539915Y-96382560D01*
X134546797Y-96372019D01*
X134555905Y-96358271D01*
X134567028Y-96341630D01*
X134579958Y-96322407D01*
X134594484Y-96300914D01*
X134610396Y-96277463D01*
X134627486Y-96252365D01*
X134645542Y-96225933D01*
X134661834Y-96202155D01*
X134680782Y-96174535D01*
X134699127Y-96147794D01*
X134716639Y-96122265D01*
X134733089Y-96098281D01*
X134748249Y-96076177D01*
X134761890Y-96056285D01*
X134773784Y-96038940D01*
X134783700Y-96024475D01*
X134791411Y-96013223D01*
X134796688Y-96005520D01*
X134798997Y-96002143D01*
X134806348Y-95990080D01*
X134810042Y-95980284D01*
X134810249Y-95971756D01*
X134807140Y-95963499D01*
X134805912Y-95961435D01*
X134803496Y-95958636D01*
X134797759Y-95952539D01*
X134788946Y-95943394D01*
X134777303Y-95931448D01*
X134763076Y-95916951D01*
X134746510Y-95900151D01*
X134727851Y-95881297D01*
X134707345Y-95860638D01*
X134685237Y-95838423D01*
X134661772Y-95814900D01*
X134637196Y-95790318D01*
X134620451Y-95773599D01*
X134586593Y-95739864D01*
X134556208Y-95709690D01*
X134529257Y-95683039D01*
X134505702Y-95659874D01*
X134485503Y-95640155D01*
X134468619Y-95623845D01*
X134455013Y-95610905D01*
X134444645Y-95601297D01*
X134437474Y-95594984D01*
X134433463Y-95591926D01*
X134432804Y-95591620D01*
X134424838Y-95590720D01*
X134418972Y-95591035D01*
X134415961Y-95592592D01*
X134409106Y-95596814D01*
X134398700Y-95603504D01*
X134385035Y-95612468D01*
X134368405Y-95623508D01*
X134349102Y-95636428D01*
X134327418Y-95651032D01*
X134303647Y-95667124D01*
X134278081Y-95684507D01*
X134251013Y-95702986D01*
X134222735Y-95722364D01*
X134209643Y-95731360D01*
X134174639Y-95755411D01*
X134143539Y-95776733D01*
X134116121Y-95795470D01*
X134092165Y-95811771D01*
X134071447Y-95825781D01*
X134053747Y-95837648D01*
X134038844Y-95847518D01*
X134026515Y-95855539D01*
X134016539Y-95861856D01*
X134008694Y-95866616D01*
X134002759Y-95869967D01*
X133998513Y-95872054D01*
X133995733Y-95873025D01*
X133995703Y-95873032D01*
X133993591Y-95873436D01*
X133991390Y-95873648D01*
X133988789Y-95873553D01*
X133985475Y-95873037D01*
X133981139Y-95871987D01*
X133975468Y-95870289D01*
X133968151Y-95867829D01*
X133958877Y-95864492D01*
X133947335Y-95860166D01*
X133933213Y-95854736D01*
X133916201Y-95848087D01*
X133895986Y-95840107D01*
X133872258Y-95830682D01*
X133844705Y-95819696D01*
X133813017Y-95807038D01*
X133787669Y-95796905D01*
X133757618Y-95784860D01*
X133728812Y-95773256D01*
X133701606Y-95762239D01*
X133676358Y-95751957D01*
X133653425Y-95742556D01*
X133633164Y-95734185D01*
X133615931Y-95726989D01*
X133602083Y-95721117D01*
X133591977Y-95716716D01*
X133585970Y-95713932D01*
X133584467Y-95713088D01*
X133578611Y-95706838D01*
X133574588Y-95700097D01*
X133573678Y-95696559D01*
X133571925Y-95688425D01*
X133569397Y-95676048D01*
X133566162Y-95659779D01*
X133562289Y-95639970D01*
X133557844Y-95616973D01*
X133552896Y-95591139D01*
X133547512Y-95562820D01*
X133541761Y-95532367D01*
X133535710Y-95500133D01*
X133529427Y-95466468D01*
X133527004Y-95453435D01*
X133520655Y-95419307D01*
X133514523Y-95386465D01*
X133508675Y-95355261D01*
X133503179Y-95326049D01*
X133498101Y-95299181D01*
X133493509Y-95275011D01*
X133489469Y-95253890D01*
X133486049Y-95236171D01*
X133483316Y-95222208D01*
X133481337Y-95212352D01*
X133480179Y-95206958D01*
X133479970Y-95206157D01*
X133475394Y-95198245D01*
X133469389Y-95192943D01*
X133468002Y-95192168D01*
X133466330Y-95191481D01*
X133464080Y-95190879D01*
X133460959Y-95190355D01*
X133456675Y-95189907D01*
X133450936Y-95189529D01*
X133443449Y-95189216D01*
X133433921Y-95188965D01*
X133422061Y-95188771D01*
X133407577Y-95188628D01*
X133390175Y-95188534D01*
X133369563Y-95188482D01*
X133345449Y-95188470D01*
X133317540Y-95188491D01*
X133285545Y-95188541D01*
X133249170Y-95188617D01*
X133208123Y-95188713D01*
X133198246Y-95188737D01*
X132935018Y-95189376D01*
X132928637Y-95195371D01*
X132927558Y-95196249D01*
X132926630Y-95196863D01*
X132925794Y-95197492D01*
X132924993Y-95198412D01*
X132924170Y-95199901D01*
X132923267Y-95202235D01*
X132922228Y-95205692D01*
X132920993Y-95210550D01*
X132919507Y-95217085D01*
X132917712Y-95225575D01*
X132915550Y-95236297D01*
X132912964Y-95249528D01*
X132909897Y-95265546D01*
X132906290Y-95284627D01*
X132902087Y-95307049D01*
X132897231Y-95333089D01*
X132891663Y-95363025D01*
X132885327Y-95397133D01*
X132878165Y-95435691D01*
X132871969Y-95469033D01*
X132864373Y-95509894D01*
X132857633Y-95546104D01*
X132851678Y-95577952D01*
X132846438Y-95605730D01*
X132841841Y-95629729D01*
X132837816Y-95650240D01*
X132834294Y-95667555D01*
X132831202Y-95681964D01*
X132828470Y-95693759D01*
X132826027Y-95703232D01*
X132823802Y-95710672D01*
X132821724Y-95716372D01*
X132819723Y-95720622D01*
X132817728Y-95723714D01*
X132815667Y-95725938D01*
X132813470Y-95727587D01*
X132811066Y-95728951D01*
X132808384Y-95730321D01*
X132808370Y-95730328D01*
X132804878Y-95731932D01*
X132797134Y-95735354D01*
X132785510Y-95740431D01*
X132770381Y-95747002D01*
X132752119Y-95754907D01*
X132731096Y-95763985D01*
X132707685Y-95774073D01*
X132682259Y-95785012D01*
X132655190Y-95796640D01*
X132626853Y-95808795D01*
X132622256Y-95810765D01*
X132587931Y-95825488D01*
X132557914Y-95838358D01*
X132531878Y-95849474D01*
X132509494Y-95858931D01*
X132490435Y-95866826D01*
X132474371Y-95873256D01*
X132460975Y-95878317D01*
X132449918Y-95882107D01*
X132440873Y-95884721D01*
X132433511Y-95886256D01*
X132427503Y-95886809D01*
X132422522Y-95886477D01*
X132418240Y-95885356D01*
X132414328Y-95883543D01*
X132410457Y-95881134D01*
X132406301Y-95878226D01*
X132402386Y-95875494D01*
X132397811Y-95872369D01*
X132389410Y-95866618D01*
X132377505Y-95858463D01*
X132362415Y-95848122D01*
X132344463Y-95835816D01*
X132323969Y-95821766D01*
X132301255Y-95806191D01*
X132276642Y-95789312D01*
X132250451Y-95771348D01*
X132223003Y-95752521D01*
X132194620Y-95733050D01*
X132190217Y-95730030D01*
X132162039Y-95710707D01*
X132134966Y-95692160D01*
X132109298Y-95674592D01*
X132085329Y-95658206D01*
X132063359Y-95643202D01*
X132043683Y-95629785D01*
X132026599Y-95618157D01*
X132012404Y-95608520D01*
X132001394Y-95601077D01*
X131993867Y-95596030D01*
X131990120Y-95593582D01*
X131989823Y-95593407D01*
X131983596Y-95591443D01*
X131975669Y-95590507D01*
X131974753Y-95590495D01*
X131973141Y-95590576D01*
X131971404Y-95590955D01*
X131969332Y-95591831D01*
X131966714Y-95593405D01*
X131963339Y-95595877D01*
X131958996Y-95599448D01*
X131953476Y-95604318D01*
X131946567Y-95610686D01*
X131938059Y-95618754D01*
X131927740Y-95628723D01*
X131915402Y-95640791D01*
X131900832Y-95655160D01*
X131883820Y-95672031D01*
X131864155Y-95691602D01*
X131841628Y-95714076D01*
X131816027Y-95739652D01*
X131787141Y-95768530D01*
X131778429Y-95777241D01*
X131591683Y-95963988D01*
X131591683Y-95974972D01*
X131591594Y-95976369D01*
X131591417Y-95977491D01*
X131591286Y-95978543D01*
X131591335Y-95979727D01*
X131591700Y-95981247D01*
X131592514Y-95983305D01*
X131593912Y-95986105D01*
X131596028Y-95989851D01*
X131598997Y-95994744D01*
X131602953Y-96000989D01*
X131608030Y-96008789D01*
X131614364Y-96018346D01*
X131622087Y-96029864D01*
X131631336Y-96043546D01*
X131642243Y-96059595D01*
X131654944Y-96078215D01*
X131669574Y-96099608D01*
X131686265Y-96123978D01*
X131705153Y-96151528D01*
X131726373Y-96182460D01*
X131750058Y-96216979D01*
X131776344Y-96255287D01*
X131798809Y-96288033D01*
X131817530Y-96315331D01*
X131833605Y-96338804D01*
X131847235Y-96358772D01*
X131858622Y-96375556D01*
X131867967Y-96389475D01*
X131875472Y-96400851D01*
X131881339Y-96410003D01*
X131885769Y-96417253D01*
X131888963Y-96422919D01*
X131891124Y-96427323D01*
X131892454Y-96430786D01*
X131893152Y-96433627D01*
X131893422Y-96436166D01*
X131893465Y-96438451D01*
X131893229Y-96441406D01*
X131892441Y-96445398D01*
X131890979Y-96450742D01*
X131888723Y-96457755D01*
X131885553Y-96466754D01*
X131881347Y-96478054D01*
X131875985Y-96491972D01*
X131869345Y-96508824D01*
X131861308Y-96528927D01*
X131851752Y-96552596D01*
X131840556Y-96580148D01*
X131827600Y-96611900D01*
X131821777Y-96626141D01*
X131810172Y-96654446D01*
X131799031Y-96681495D01*
X131788511Y-96706912D01*
X131778772Y-96730319D01*
X131769970Y-96751341D01*
X131762266Y-96769601D01*
X131755816Y-96784722D01*
X131750779Y-96796327D01*
X131747313Y-96804041D01*
X131745577Y-96807486D01*
X131745547Y-96807527D01*
X131743863Y-96809785D01*
X131742155Y-96811830D01*
X131740136Y-96813729D01*
X131737517Y-96815547D01*
X131734014Y-96817351D01*
X131729338Y-96819207D01*
X131723203Y-96821181D01*
X131715322Y-96823339D01*
X131705407Y-96825747D01*
X131693173Y-96828471D01*
X131678331Y-96831577D01*
X131660596Y-96835131D01*
X131639680Y-96839200D01*
X131615296Y-96843849D01*
X131587158Y-96849144D01*
X131554977Y-96855152D01*
X131518468Y-96861939D01*
X131477344Y-96869570D01*
X131470869Y-96870771D01*
X131435447Y-96877357D01*
X131401329Y-96883728D01*
X131368850Y-96889819D01*
X131338348Y-96895567D01*
X131310159Y-96900907D01*
X131284620Y-96905774D01*
X131262068Y-96910105D01*
X131242838Y-96913834D01*
X131227269Y-96916898D01*
X131215695Y-96919233D01*
X131208455Y-96920773D01*
X131205984Y-96921400D01*
X131199638Y-96925549D01*
X131194214Y-96931701D01*
X131194048Y-96931968D01*
X131193288Y-96933368D01*
X131192614Y-96935123D01*
X131192020Y-96937526D01*
X131191503Y-96940872D01*
X131191056Y-96945454D01*
X131190675Y-96951565D01*
X131190354Y-96959501D01*
X131190089Y-96969553D01*
X131189873Y-96982017D01*
X131189702Y-96997185D01*
X131189571Y-97015351D01*
X131189474Y-97036810D01*
X131189406Y-97061855D01*
X131189363Y-97090779D01*
X131189338Y-97123876D01*
X131189328Y-97161441D01*
X131189325Y-97200000D01*
X131189328Y-97241912D01*
X131189328Y-97241912D01*
G37*
X131189328Y-97241912D02*
X131189340Y-97279087D01*
X131189366Y-97311821D01*
X131189411Y-97340406D01*
X131189481Y-97365137D01*
X131189581Y-97386306D01*
X131189715Y-97404208D01*
X131189889Y-97419136D01*
X131190109Y-97431384D01*
X131190379Y-97441247D01*
X131190705Y-97449017D01*
X131191092Y-97454988D01*
X131191544Y-97459454D01*
X131192067Y-97462709D01*
X131192667Y-97465046D01*
X131193349Y-97466760D01*
X131194048Y-97468032D01*
X131199369Y-97474217D01*
X131205738Y-97478517D01*
X131205984Y-97478618D01*
X131209432Y-97479468D01*
X131217481Y-97481162D01*
X131229785Y-97483633D01*
X131245999Y-97486816D01*
X131265777Y-97490644D01*
X131288772Y-97495052D01*
X131314640Y-97499972D01*
X131343034Y-97505339D01*
X131373609Y-97511087D01*
X131406019Y-97517150D01*
X131439918Y-97523461D01*
X131458396Y-97526888D01*
X131493102Y-97533321D01*
X131526614Y-97539535D01*
X131558574Y-97545466D01*
X131588625Y-97551046D01*
X131616411Y-97556209D01*
X131641572Y-97560889D01*
X131663753Y-97565018D01*
X131682596Y-97568531D01*
X131697743Y-97571362D01*
X131708837Y-97573443D01*
X131715522Y-97574708D01*
X131717096Y-97575013D01*
X131721591Y-97575885D01*
X131725572Y-97576785D01*
X131729199Y-97578016D01*
X131732631Y-97579879D01*
X131736027Y-97582678D01*
X131739546Y-97586715D01*
X131743349Y-97592292D01*
X131747593Y-97599712D01*
X131752440Y-97609277D01*
X131758046Y-97621290D01*
X131764573Y-97636054D01*
X131772180Y-97653871D01*
X131781025Y-97675043D01*
X131791268Y-97699873D01*
X131803068Y-97728663D01*
X131816586Y-97761716D01*
X131820639Y-97771628D01*
X131834740Y-97806076D01*
X131847060Y-97836188D01*
X131857692Y-97862294D01*
X131866727Y-97884727D01*
X131874258Y-97903816D01*
X131880378Y-97919894D01*
X131885177Y-97933292D01*
X131888748Y-97944341D01*
X131891184Y-97953372D01*
X131892576Y-97960717D01*
X131893017Y-97966707D01*
X131892599Y-97971673D01*
X131891413Y-97975947D01*
X131889553Y-97979860D01*
X131887110Y-97983743D01*
X131884176Y-97987927D01*
X131881759Y-97991390D01*
X131878675Y-97995895D01*
X131872960Y-98004234D01*
X131864828Y-98016094D01*
X131854496Y-98031161D01*
X131842176Y-98049123D01*
X131828085Y-98069666D01*
X131812437Y-98092477D01*
X131795447Y-98117244D01*
X131777329Y-98143652D01*
X131758299Y-98171388D01*
X131738571Y-98200140D01*
X131730867Y-98211367D01*
X131707819Y-98244967D01*
X131687457Y-98274678D01*
X131669616Y-98300756D01*
X131654130Y-98323454D01*
X131640833Y-98343028D01*
X131629561Y-98359732D01*
X131620146Y-98373819D01*
X131612424Y-98385546D01*
X131606229Y-98395166D01*
X131601394Y-98402934D01*
X131597754Y-98409104D01*
X131595144Y-98413931D01*
X131593398Y-98417669D01*
X131592350Y-98420573D01*
X131591833Y-98422897D01*
X131591684Y-98424895D01*
X131591683Y-98425110D01*
X131591683Y-98436011D01*
X131778429Y-98622758D01*
X131808256Y-98652582D01*
X131834738Y-98679048D01*
X131858086Y-98702358D01*
X131878513Y-98722712D01*
X131896229Y-98740310D01*
X131911445Y-98755352D01*
X131924372Y-98768040D01*
X131935223Y-98778573D01*
X131944207Y-98787152D01*
X131951537Y-98793977D01*
X131957423Y-98799249D01*
X131962076Y-98803168D01*
X131965708Y-98805935D01*
X131968530Y-98807749D01*
X131970754Y-98808812D01*
X131972589Y-98809323D01*
X131974249Y-98809484D01*
X131975217Y-98809495D01*
X131984021Y-98808249D01*
X131992217Y-98805215D01*
X131992985Y-98804773D01*
X131996153Y-98802686D01*
X132003162Y-98797958D01*
X132013709Y-98790798D01*
X132027491Y-98781414D01*
X132044203Y-98770012D01*
X132063542Y-98756801D01*
X132085204Y-98741987D01*
X132108884Y-98725780D01*
X132134279Y-98708385D01*
X132161086Y-98690012D01*
X132188999Y-98670866D01*
X132192916Y-98668179D01*
X132221219Y-98648759D01*
X132248639Y-98629948D01*
X132274850Y-98611966D01*
X132299529Y-98595037D01*
X132322353Y-98579383D01*
X132342997Y-98565226D01*
X132361137Y-98552787D01*
X132376450Y-98542289D01*
X132388611Y-98533954D01*
X132397297Y-98528005D01*
X132402184Y-98524663D01*
X132402386Y-98524525D01*
X132407029Y-98521271D01*
X132411113Y-98518436D01*
X132414966Y-98516117D01*
X132418916Y-98514410D01*
X132423290Y-98513412D01*
X132428418Y-98513218D01*
X132434628Y-98513927D01*
X132442247Y-98515635D01*
X132451604Y-98518437D01*
X132463027Y-98522431D01*
X132476845Y-98527713D01*
X132493385Y-98534381D01*
X132512975Y-98542529D01*
X132535945Y-98552256D01*
X132562621Y-98563657D01*
X132593333Y-98576830D01*
X132622256Y-98589234D01*
X132650761Y-98601459D01*
X132678056Y-98613181D01*
X132703768Y-98624240D01*
X132727524Y-98634475D01*
X132748952Y-98643723D01*
X132767678Y-98651825D01*
X132783330Y-98658620D01*
X132795536Y-98663945D01*
X132803921Y-98667640D01*
X132808114Y-98669544D01*
X132808370Y-98669671D01*
X132815307Y-98674634D01*
X132821298Y-98681041D01*
X132821329Y-98681084D01*
X132822180Y-98682257D01*
X132822962Y-98683418D01*
X132823728Y-98684835D01*
X132824531Y-98686774D01*
X132825425Y-98689505D01*
X132826463Y-98693294D01*
X132827699Y-98698410D01*
X132829185Y-98705119D01*
X132830974Y-98713691D01*
X132833121Y-98724392D01*
X132835678Y-98737490D01*
X132838699Y-98753253D01*
X132842236Y-98771948D01*
X132846344Y-98793845D01*
X132851075Y-98819209D01*
X132856483Y-98848308D01*
X132862621Y-98881412D01*
X132869543Y-98918786D01*
X132877300Y-98960700D01*
X132881666Y-98984287D01*
X132887339Y-99014902D01*
X132892800Y-99044300D01*
X132897972Y-99072076D01*
X132902779Y-99097820D01*
X132907143Y-99121124D01*
X132910989Y-99141580D01*
X132914240Y-99158782D01*
X132916819Y-99172319D01*
X132918650Y-99181786D01*
X132919656Y-99186773D01*
X132919729Y-99187099D01*
X132922846Y-99195862D01*
X132927326Y-99203200D01*
X132928716Y-99204703D01*
X132935018Y-99210623D01*
X133198246Y-99211262D01*
X133240381Y-99211362D01*
X133277778Y-99211443D01*
X133310730Y-99211500D01*
X133339530Y-99211528D01*
X133364469Y-99211523D01*
X133385841Y-99211481D01*
X133403938Y-99211396D01*
X133419052Y-99211265D01*
X133431475Y-99211083D01*
X133441500Y-99210845D01*
X133449419Y-99210546D01*
X133455525Y-99210183D01*
X133460110Y-99209751D01*
X133463466Y-99209245D01*
X133465886Y-99208660D01*
X133467663Y-99207993D01*
X133469088Y-99207238D01*
X133469389Y-99207056D01*
X133476182Y-99200775D01*
X133480019Y-99193843D01*
X133480937Y-99189972D01*
X133482681Y-99181590D01*
X133485167Y-99169132D01*
X133488312Y-99153035D01*
X133492032Y-99133733D01*
X133496243Y-99111662D01*
X133500861Y-99087258D01*
X133505803Y-99060957D01*
X133510984Y-99033193D01*
X133513062Y-99022010D01*
X133521585Y-98976078D01*
X133529241Y-98934833D01*
X133536081Y-98898017D01*
X133542152Y-98865370D01*
X133547503Y-98836635D01*
X133552184Y-98811553D01*
X133556244Y-98789865D01*
X133559731Y-98771313D01*
X133562695Y-98755637D01*
X133565184Y-98742580D01*
X133567248Y-98731883D01*
X133568935Y-98723287D01*
X133570294Y-98716533D01*
X133571375Y-98711364D01*
X133572226Y-98707520D01*
X133572896Y-98704743D01*
X133573435Y-98702774D01*
X133573649Y-98702077D01*
X133577446Y-98694794D01*
X133583110Y-98688208D01*
X133583437Y-98687927D01*
X133586873Y-98686055D01*
X133594645Y-98682476D01*
X133606416Y-98677329D01*
X133621844Y-98670757D01*
X133640589Y-98662901D01*
X133662313Y-98653901D01*
X133686674Y-98643899D01*
X133713333Y-98633037D01*
X133741951Y-98621454D01*
X133772186Y-98609294D01*
X133787423Y-98603193D01*
X133822282Y-98589259D01*
X133852781Y-98577081D01*
X133879233Y-98566543D01*
X133901948Y-98557533D01*
X133921239Y-98549936D01*
X133937415Y-98543639D01*
X133950787Y-98538527D01*
X133961668Y-98534487D01*
X133970367Y-98531406D01*
X133977196Y-98529168D01*
X133982467Y-98527661D01*
X133986489Y-98526770D01*
X133989575Y-98526381D01*
X133992035Y-98526382D01*
X133994180Y-98526657D01*
X133995703Y-98526961D01*
X133998459Y-98527914D01*
X134002672Y-98529976D01*
X134008563Y-98533294D01*
X134016354Y-98538016D01*
X134026268Y-98544288D01*
X134038525Y-98552257D01*
X134053349Y-98562070D01*
X134070961Y-98573875D01*
X134091583Y-98587818D01*
X134115436Y-98604045D01*
X134142743Y-98622705D01*
X134173726Y-98643943D01*
X134208606Y-98667907D01*
X134209643Y-98668620D01*
X134238371Y-98688339D01*
X134266022Y-98707248D01*
X134292303Y-98725151D01*
X134316922Y-98741851D01*
X134339585Y-98757151D01*
X134360000Y-98770857D01*
X134377874Y-98782771D01*
X134392914Y-98792698D01*
X134404828Y-98800441D01*
X134413324Y-98805804D01*
X134418107Y-98808590D01*
X134418972Y-98808951D01*
X134426912Y-98809189D01*
X134432804Y-98808379D01*
X134435722Y-98806445D01*
X134441774Y-98801277D01*
X134451002Y-98792837D01*
X134463444Y-98781086D01*
X134479142Y-98765985D01*
X134498136Y-98747494D01*
X134520466Y-98725575D01*
X134546172Y-98700189D01*
X134575294Y-98671296D01*
X134607873Y-98638858D01*
X134621619Y-98625143D01*
X134646847Y-98599929D01*
X134671107Y-98575621D01*
X134694157Y-98552468D01*
X134715753Y-98530714D01*
X134735654Y-98510608D01*
X134753615Y-98492395D01*
X134769396Y-98476321D01*
X134782752Y-98462634D01*
X134793442Y-98451579D01*
X134801223Y-98443404D01*
X134805851Y-98438354D01*
X134807089Y-98436803D01*
X134810352Y-98426833D01*
X134809312Y-98416612D01*
X134803848Y-98405289D01*
X134802346Y-98403010D01*
X134799695Y-98399136D01*
X134794419Y-98391436D01*
X134786737Y-98380229D01*
X134776870Y-98365836D01*
X134765037Y-98348578D01*
X134751458Y-98328776D01*
X134736352Y-98306749D01*
X134719940Y-98282818D01*
X134702442Y-98257305D01*
X134684077Y-98230529D01*
X134667211Y-98205940D01*
X134648348Y-98178417D01*
X134630232Y-98151938D01*
X134613074Y-98126816D01*
X134597087Y-98103363D01*
X134582482Y-98081892D01*
X134569473Y-98062716D01*
X134558271Y-98046147D01*
X134549088Y-98032498D01*
X134542136Y-98022082D01*
X134537629Y-98015212D01*
X134535825Y-98012297D01*
X134532294Y-98000483D01*
X134532398Y-97994107D01*
X134533917Y-97989402D01*
X134537726Y-97980635D01*
X134543662Y-97968135D01*
X134551562Y-97952231D01*
X134561264Y-97933253D01*
X134572606Y-97911529D01*
X134581596Y-97894559D01*
X134594199Y-97870834D01*
X134604565Y-97851102D01*
X134612860Y-97834942D01*
X134619252Y-97821927D01*
X134623908Y-97811636D01*
X134626995Y-97803644D01*
X134628680Y-97797526D01*
X134629131Y-97792861D01*
X134628513Y-97789223D01*
X134626994Y-97786189D01*
X134625222Y-97783889D01*
X134622374Y-97782309D01*
X134615011Y-97778885D01*
X134603274Y-97773675D01*
X134587305Y-97766737D01*
X134567245Y-97758133D01*
X134543234Y-97747920D01*
X134515413Y-97736159D01*
X134483924Y-97722908D01*
X134448906Y-97708227D01*
X134410501Y-97692175D01*
X134368850Y-97674812D01*
X134324094Y-97656196D01*
X134276374Y-97636388D01*
X134225830Y-97615446D01*
X134185080Y-97598588D01*
X134132154Y-97576707D01*
X134083674Y-97556672D01*
X134039444Y-97538403D01*
X133999263Y-97521821D01*
X133962932Y-97506845D01*
X133930253Y-97493396D01*
X133901026Y-97481395D01*
X133875052Y-97470763D01*
X133852131Y-97461419D01*
X133832066Y-97453285D01*
X133814657Y-97446280D01*
X133799704Y-97440325D01*
X133787009Y-97435342D01*
X133776373Y-97431249D01*
X133767595Y-97427968D01*
X133760478Y-97425419D01*
X133754823Y-97423522D01*
X133750429Y-97422199D01*
X133747099Y-97421369D01*
X133744632Y-97420953D01*
X133742830Y-97420871D01*
X133741494Y-97421045D01*
X133740950Y-97421199D01*
X133735298Y-97423599D01*
X133730243Y-97427242D01*
X133725085Y-97432912D01*
X133719125Y-97441395D01*
X133711663Y-97453475D01*
X133710602Y-97455257D01*
X133703219Y-97467135D01*
X133694680Y-97480052D01*
X133686656Y-97491491D01*
X133685558Y-97492980D01*
X133678368Y-97502649D01*
X133669506Y-97514572D01*
X133660299Y-97526963D01*
X133654719Y-97534475D01*
X133620988Y-97575725D01*
X133583697Y-97613516D01*
X133543121Y-97647598D01*
X133499533Y-97677724D01*
X133490024Y-97683524D01*
X133447314Y-97706301D01*
X133401638Y-97725628D01*
X133353973Y-97741173D01*
X133305300Y-97752607D01*
X133269155Y-97758232D01*
X133250627Y-97759830D01*
X133228600Y-97760694D01*
X133204549Y-97760850D01*
X133179948Y-97760321D01*
X133156271Y-97759129D01*
X133134991Y-97757300D01*
X133124045Y-97755914D01*
X133071737Y-97745747D01*
X133021214Y-97730996D01*
X132972723Y-97711839D01*
X132926508Y-97688456D01*
X132882817Y-97661024D01*
X132841897Y-97629724D01*
X132803992Y-97594732D01*
X132769350Y-97556229D01*
X132738217Y-97514393D01*
X132710840Y-97469403D01*
X132699712Y-97447977D01*
X132678956Y-97400646D01*
X132662984Y-97352462D01*
X132651707Y-97303044D01*
X132645039Y-97252010D01*
X132642891Y-97200000D01*
X132644365Y-97154843D01*
X132648928Y-97112475D01*
X132656788Y-97071562D01*
X132668152Y-97030769D01*
X132670378Y-97023960D01*
X132689370Y-96974705D01*
X132712596Y-96927852D01*
X132739815Y-96883643D01*
X132770788Y-96842319D01*
X132805275Y-96804122D01*
X132843036Y-96769295D01*
X132883832Y-96738078D01*
X132927422Y-96710714D01*
X132973567Y-96687445D01*
X133022026Y-96668512D01*
X133023329Y-96668074D01*
X133060050Y-96656907D01*
X133095126Y-96648666D01*
X133130130Y-96643102D01*
X133166637Y-96639965D01*
X133206084Y-96639004D01*
X133243824Y-96639990D01*
X133278572Y-96643057D01*
X133312030Y-96648476D01*
X133345900Y-96656521D01*
X133379742Y-96666756D01*
X133429412Y-96685700D01*
X133476635Y-96708995D01*
X133521205Y-96736490D01*
X133562917Y-96768038D01*
X133601564Y-96803490D01*
X133636943Y-96842697D01*
X133654723Y-96865524D01*
X133662991Y-96876681D01*
X133671394Y-96887963D01*
X133678788Y-96897838D01*
X133682869Y-96903247D01*
X133688763Y-96911470D01*
X133696081Y-96922332D01*
X133703693Y-96934134D01*
X133707937Y-96940970D01*
X133716145Y-96954169D01*
X133722542Y-96963686D01*
X133727755Y-96970241D01*
X133732410Y-96974550D01*
X133737134Y-96977333D01*
X133740963Y-96978805D01*
X133742144Y-96979075D01*
X133743689Y-96979131D01*
X133745799Y-96978892D01*
X133748672Y-96978280D01*
X133752506Y-96977214D01*
X133757503Y-96975615D01*
X133763860Y-96973404D01*
X133771776Y-96970501D01*
X133781451Y-96966826D01*
X133793084Y-96962300D01*
X133806874Y-96956844D01*
X133823020Y-96950377D01*
X133841722Y-96942821D01*
X133863177Y-96934096D01*
X133887586Y-96924121D01*
X133915148Y-96912819D01*
X133946061Y-96900108D01*
X133980526Y-96885911D01*
X134018740Y-96870146D01*
X134060903Y-96852735D01*
X134107214Y-96833598D01*
X134157873Y-96812655D01*
X134185093Y-96801400D01*
X134237188Y-96779840D01*
X134286673Y-96759326D01*
X134333400Y-96739918D01*
X134377222Y-96721680D01*
X134417990Y-96704674D01*
X134455558Y-96688960D01*
X134489776Y-96674603D01*
X134520499Y-96661664D01*
X134547577Y-96650205D01*
X134570864Y-96640288D01*
X134590211Y-96631976D01*
X134605471Y-96625331D01*
X134616495Y-96620415D01*
X134623138Y-96617290D01*
X134625222Y-96616094D01*
X134628499Y-96609755D01*
X134629623Y-96603425D01*
X134628370Y-96598868D01*
X134624631Y-96590014D01*
X134618434Y-96576924D01*
X134609809Y-96559655D01*
X134598785Y-96538269D01*
X134585390Y-96512823D01*
X134581898Y-96506253D01*
X134571410Y-96486434D01*
X134561640Y-96467737D01*
X134552852Y-96450684D01*
X134545310Y-96435798D01*
X134539279Y-96423603D01*
X134535022Y-96414622D01*
X134532804Y-96409377D01*
X134532569Y-96408575D01*
X134532265Y-96400146D01*
X134533666Y-96392779D01*
X134535468Y-96389584D01*
X134539915Y-96382560D01*
X134546797Y-96372019D01*
X134555905Y-96358271D01*
X134567028Y-96341630D01*
X134579958Y-96322407D01*
X134594484Y-96300914D01*
X134610396Y-96277463D01*
X134627486Y-96252365D01*
X134645542Y-96225933D01*
X134661834Y-96202155D01*
X134680782Y-96174535D01*
X134699127Y-96147794D01*
X134716639Y-96122265D01*
X134733089Y-96098281D01*
X134748249Y-96076177D01*
X134761890Y-96056285D01*
X134773784Y-96038940D01*
X134783700Y-96024475D01*
X134791411Y-96013223D01*
X134796688Y-96005520D01*
X134798997Y-96002143D01*
X134806348Y-95990080D01*
X134810042Y-95980284D01*
X134810249Y-95971756D01*
X134807140Y-95963499D01*
X134805912Y-95961435D01*
X134803496Y-95958636D01*
X134797759Y-95952539D01*
X134788946Y-95943394D01*
X134777303Y-95931448D01*
X134763076Y-95916951D01*
X134746510Y-95900151D01*
X134727851Y-95881297D01*
X134707345Y-95860638D01*
X134685237Y-95838423D01*
X134661772Y-95814900D01*
X134637196Y-95790318D01*
X134620451Y-95773599D01*
X134586593Y-95739864D01*
X134556208Y-95709690D01*
X134529257Y-95683039D01*
X134505702Y-95659874D01*
X134485503Y-95640155D01*
X134468619Y-95623845D01*
X134455013Y-95610905D01*
X134444645Y-95601297D01*
X134437474Y-95594984D01*
X134433463Y-95591926D01*
X134432804Y-95591620D01*
X134424838Y-95590720D01*
X134418972Y-95591035D01*
X134415961Y-95592592D01*
X134409106Y-95596814D01*
X134398700Y-95603504D01*
X134385035Y-95612468D01*
X134368405Y-95623508D01*
X134349102Y-95636428D01*
X134327418Y-95651032D01*
X134303647Y-95667124D01*
X134278081Y-95684507D01*
X134251013Y-95702986D01*
X134222735Y-95722364D01*
X134209643Y-95731360D01*
X134174639Y-95755411D01*
X134143539Y-95776733D01*
X134116121Y-95795470D01*
X134092165Y-95811771D01*
X134071447Y-95825781D01*
X134053747Y-95837648D01*
X134038844Y-95847518D01*
X134026515Y-95855539D01*
X134016539Y-95861856D01*
X134008694Y-95866616D01*
X134002759Y-95869967D01*
X133998513Y-95872054D01*
X133995733Y-95873025D01*
X133995703Y-95873032D01*
X133993591Y-95873436D01*
X133991390Y-95873648D01*
X133988789Y-95873553D01*
X133985475Y-95873037D01*
X133981139Y-95871987D01*
X133975468Y-95870289D01*
X133968151Y-95867829D01*
X133958877Y-95864492D01*
X133947335Y-95860166D01*
X133933213Y-95854736D01*
X133916201Y-95848087D01*
X133895986Y-95840107D01*
X133872258Y-95830682D01*
X133844705Y-95819696D01*
X133813017Y-95807038D01*
X133787669Y-95796905D01*
X133757618Y-95784860D01*
X133728812Y-95773256D01*
X133701606Y-95762239D01*
X133676358Y-95751957D01*
X133653425Y-95742556D01*
X133633164Y-95734185D01*
X133615931Y-95726989D01*
X133602083Y-95721117D01*
X133591977Y-95716716D01*
X133585970Y-95713932D01*
X133584467Y-95713088D01*
X133578611Y-95706838D01*
X133574588Y-95700097D01*
X133573678Y-95696559D01*
X133571925Y-95688425D01*
X133569397Y-95676048D01*
X133566162Y-95659779D01*
X133562289Y-95639970D01*
X133557844Y-95616973D01*
X133552896Y-95591139D01*
X133547512Y-95562820D01*
X133541761Y-95532367D01*
X133535710Y-95500133D01*
X133529427Y-95466468D01*
X133527004Y-95453435D01*
X133520655Y-95419307D01*
X133514523Y-95386465D01*
X133508675Y-95355261D01*
X133503179Y-95326049D01*
X133498101Y-95299181D01*
X133493509Y-95275011D01*
X133489469Y-95253890D01*
X133486049Y-95236171D01*
X133483316Y-95222208D01*
X133481337Y-95212352D01*
X133480179Y-95206958D01*
X133479970Y-95206157D01*
X133475394Y-95198245D01*
X133469389Y-95192943D01*
X133468002Y-95192168D01*
X133466330Y-95191481D01*
X133464080Y-95190879D01*
X133460959Y-95190355D01*
X133456675Y-95189907D01*
X133450936Y-95189529D01*
X133443449Y-95189216D01*
X133433921Y-95188965D01*
X133422061Y-95188771D01*
X133407577Y-95188628D01*
X133390175Y-95188534D01*
X133369563Y-95188482D01*
X133345449Y-95188470D01*
X133317540Y-95188491D01*
X133285545Y-95188541D01*
X133249170Y-95188617D01*
X133208123Y-95188713D01*
X133198246Y-95188737D01*
X132935018Y-95189376D01*
X132928637Y-95195371D01*
X132927558Y-95196249D01*
X132926630Y-95196863D01*
X132925794Y-95197492D01*
X132924993Y-95198412D01*
X132924170Y-95199901D01*
X132923267Y-95202235D01*
X132922228Y-95205692D01*
X132920993Y-95210550D01*
X132919507Y-95217085D01*
X132917712Y-95225575D01*
X132915550Y-95236297D01*
X132912964Y-95249528D01*
X132909897Y-95265546D01*
X132906290Y-95284627D01*
X132902087Y-95307049D01*
X132897231Y-95333089D01*
X132891663Y-95363025D01*
X132885327Y-95397133D01*
X132878165Y-95435691D01*
X132871969Y-95469033D01*
X132864373Y-95509894D01*
X132857633Y-95546104D01*
X132851678Y-95577952D01*
X132846438Y-95605730D01*
X132841841Y-95629729D01*
X132837816Y-95650240D01*
X132834294Y-95667555D01*
X132831202Y-95681964D01*
X132828470Y-95693759D01*
X132826027Y-95703232D01*
X132823802Y-95710672D01*
X132821724Y-95716372D01*
X132819723Y-95720622D01*
X132817728Y-95723714D01*
X132815667Y-95725938D01*
X132813470Y-95727587D01*
X132811066Y-95728951D01*
X132808384Y-95730321D01*
X132808370Y-95730328D01*
X132804878Y-95731932D01*
X132797134Y-95735354D01*
X132785510Y-95740431D01*
X132770381Y-95747002D01*
X132752119Y-95754907D01*
X132731096Y-95763985D01*
X132707685Y-95774073D01*
X132682259Y-95785012D01*
X132655190Y-95796640D01*
X132626853Y-95808795D01*
X132622256Y-95810765D01*
X132587931Y-95825488D01*
X132557914Y-95838358D01*
X132531878Y-95849474D01*
X132509494Y-95858931D01*
X132490435Y-95866826D01*
X132474371Y-95873256D01*
X132460975Y-95878317D01*
X132449918Y-95882107D01*
X132440873Y-95884721D01*
X132433511Y-95886256D01*
X132427503Y-95886809D01*
X132422522Y-95886477D01*
X132418240Y-95885356D01*
X132414328Y-95883543D01*
X132410457Y-95881134D01*
X132406301Y-95878226D01*
X132402386Y-95875494D01*
X132397811Y-95872369D01*
X132389410Y-95866618D01*
X132377505Y-95858463D01*
X132362415Y-95848122D01*
X132344463Y-95835816D01*
X132323969Y-95821766D01*
X132301255Y-95806191D01*
X132276642Y-95789312D01*
X132250451Y-95771348D01*
X132223003Y-95752521D01*
X132194620Y-95733050D01*
X132190217Y-95730030D01*
X132162039Y-95710707D01*
X132134966Y-95692160D01*
X132109298Y-95674592D01*
X132085329Y-95658206D01*
X132063359Y-95643202D01*
X132043683Y-95629785D01*
X132026599Y-95618157D01*
X132012404Y-95608520D01*
X132001394Y-95601077D01*
X131993867Y-95596030D01*
X131990120Y-95593582D01*
X131989823Y-95593407D01*
X131983596Y-95591443D01*
X131975669Y-95590507D01*
X131974753Y-95590495D01*
X131973141Y-95590576D01*
X131971404Y-95590955D01*
X131969332Y-95591831D01*
X131966714Y-95593405D01*
X131963339Y-95595877D01*
X131958996Y-95599448D01*
X131953476Y-95604318D01*
X131946567Y-95610686D01*
X131938059Y-95618754D01*
X131927740Y-95628723D01*
X131915402Y-95640791D01*
X131900832Y-95655160D01*
X131883820Y-95672031D01*
X131864155Y-95691602D01*
X131841628Y-95714076D01*
X131816027Y-95739652D01*
X131787141Y-95768530D01*
X131778429Y-95777241D01*
X131591683Y-95963988D01*
X131591683Y-95974972D01*
X131591594Y-95976369D01*
X131591417Y-95977491D01*
X131591286Y-95978543D01*
X131591335Y-95979727D01*
X131591700Y-95981247D01*
X131592514Y-95983305D01*
X131593912Y-95986105D01*
X131596028Y-95989851D01*
X131598997Y-95994744D01*
X131602953Y-96000989D01*
X131608030Y-96008789D01*
X131614364Y-96018346D01*
X131622087Y-96029864D01*
X131631336Y-96043546D01*
X131642243Y-96059595D01*
X131654944Y-96078215D01*
X131669574Y-96099608D01*
X131686265Y-96123978D01*
X131705153Y-96151528D01*
X131726373Y-96182460D01*
X131750058Y-96216979D01*
X131776344Y-96255287D01*
X131798809Y-96288033D01*
X131817530Y-96315331D01*
X131833605Y-96338804D01*
X131847235Y-96358772D01*
X131858622Y-96375556D01*
X131867967Y-96389475D01*
X131875472Y-96400851D01*
X131881339Y-96410003D01*
X131885769Y-96417253D01*
X131888963Y-96422919D01*
X131891124Y-96427323D01*
X131892454Y-96430786D01*
X131893152Y-96433627D01*
X131893422Y-96436166D01*
X131893465Y-96438451D01*
X131893229Y-96441406D01*
X131892441Y-96445398D01*
X131890979Y-96450742D01*
X131888723Y-96457755D01*
X131885553Y-96466754D01*
X131881347Y-96478054D01*
X131875985Y-96491972D01*
X131869345Y-96508824D01*
X131861308Y-96528927D01*
X131851752Y-96552596D01*
X131840556Y-96580148D01*
X131827600Y-96611900D01*
X131821777Y-96626141D01*
X131810172Y-96654446D01*
X131799031Y-96681495D01*
X131788511Y-96706912D01*
X131778772Y-96730319D01*
X131769970Y-96751341D01*
X131762266Y-96769601D01*
X131755816Y-96784722D01*
X131750779Y-96796327D01*
X131747313Y-96804041D01*
X131745577Y-96807486D01*
X131745547Y-96807527D01*
X131743863Y-96809785D01*
X131742155Y-96811830D01*
X131740136Y-96813729D01*
X131737517Y-96815547D01*
X131734014Y-96817351D01*
X131729338Y-96819207D01*
X131723203Y-96821181D01*
X131715322Y-96823339D01*
X131705407Y-96825747D01*
X131693173Y-96828471D01*
X131678331Y-96831577D01*
X131660596Y-96835131D01*
X131639680Y-96839200D01*
X131615296Y-96843849D01*
X131587158Y-96849144D01*
X131554977Y-96855152D01*
X131518468Y-96861939D01*
X131477344Y-96869570D01*
X131470869Y-96870771D01*
X131435447Y-96877357D01*
X131401329Y-96883728D01*
X131368850Y-96889819D01*
X131338348Y-96895567D01*
X131310159Y-96900907D01*
X131284620Y-96905774D01*
X131262068Y-96910105D01*
X131242838Y-96913834D01*
X131227269Y-96916898D01*
X131215695Y-96919233D01*
X131208455Y-96920773D01*
X131205984Y-96921400D01*
X131199638Y-96925549D01*
X131194214Y-96931701D01*
X131194048Y-96931968D01*
X131193288Y-96933368D01*
X131192614Y-96935123D01*
X131192020Y-96937526D01*
X131191503Y-96940872D01*
X131191056Y-96945454D01*
X131190675Y-96951565D01*
X131190354Y-96959501D01*
X131190089Y-96969553D01*
X131189873Y-96982017D01*
X131189702Y-96997185D01*
X131189571Y-97015351D01*
X131189474Y-97036810D01*
X131189406Y-97061855D01*
X131189363Y-97090779D01*
X131189338Y-97123876D01*
X131189328Y-97161441D01*
X131189325Y-97200000D01*
X131189328Y-97241912D01*
G36*
X131275069Y-114059423D02*
X131275572Y-114091094D01*
X131276621Y-114118725D01*
X131278340Y-114143824D01*
X131280851Y-114167893D01*
X131284276Y-114192439D01*
X131288740Y-114218967D01*
X131292815Y-114240931D01*
X131305578Y-114299786D01*
X131321645Y-114360883D01*
X131340182Y-114421336D01*
X131360354Y-114478260D01*
X131364777Y-114489639D01*
X131381970Y-114532817D01*
X131399108Y-114575192D01*
X131416370Y-114617150D01*
X131433937Y-114659080D01*
X131451989Y-114701369D01*
X131470707Y-114744404D01*
X131490271Y-114788573D01*
X131510862Y-114834265D01*
X131532659Y-114881866D01*
X131555844Y-114931764D01*
X131580597Y-114984347D01*
X131607099Y-115040003D01*
X131635528Y-115099118D01*
X131666067Y-115162082D01*
X131698896Y-115229280D01*
X131734194Y-115301102D01*
X131772143Y-115377935D01*
X131812923Y-115460166D01*
X131856714Y-115548183D01*
X131868037Y-115570903D01*
X131906981Y-115649183D01*
X131942880Y-115721702D01*
X131975961Y-115788949D01*
X132006448Y-115851415D01*
X132034567Y-115909589D01*
X132060545Y-115963962D01*
X132084606Y-116015024D01*
X132106978Y-116063265D01*
X132127885Y-116109175D01*
X132147553Y-116153244D01*
X132166208Y-116195962D01*
X132184076Y-116237819D01*
X132201382Y-116279306D01*
X132218353Y-116320912D01*
X132235213Y-116363128D01*
X132248281Y-116396403D01*
X132257518Y-116419926D01*
X132266037Y-116441319D01*
X132273473Y-116459688D01*
X132279460Y-116474143D01*
X132283635Y-116483791D01*
X132285624Y-116487732D01*
X132289719Y-116487199D01*
X132297737Y-116481987D01*
X132308968Y-116472739D01*
X132322704Y-116460100D01*
X132338236Y-116444712D01*
X132354855Y-116427219D01*
X132366657Y-116414178D01*
X132422758Y-116346199D01*
X132476253Y-116271764D01*
X132527086Y-116190994D01*
X132575200Y-116104011D01*
X132620538Y-116010938D01*
X132663043Y-115911897D01*
X132702658Y-115807009D01*
X132739327Y-115696398D01*
X132772992Y-115580185D01*
X132795296Y-115493292D01*
X132818538Y-115392697D01*
X132837867Y-115297709D01*
X132853303Y-115208081D01*
X132864868Y-115123561D01*
X132872580Y-115043901D01*
X132876462Y-114968851D01*
X132876535Y-114898163D01*
X132872818Y-114831587D01*
X132865332Y-114768874D01*
X132858660Y-114731082D01*
X132843748Y-114670450D01*
X132824367Y-114615094D01*
X132800590Y-114565086D01*
X132772491Y-114520499D01*
X132740142Y-114481404D01*
X132703617Y-114447873D01*
X132662988Y-114419979D01*
X132618329Y-114397795D01*
X132569713Y-114381392D01*
X132517214Y-114370842D01*
X132490940Y-114367903D01*
X132479833Y-114367085D01*
X132471698Y-114366149D01*
X132465994Y-114364111D01*
X132462178Y-114359991D01*
X132459710Y-114352806D01*
X132458046Y-114341575D01*
X132456646Y-114325315D01*
X132454967Y-114303045D01*
X132454937Y-114302667D01*
X132452710Y-114275115D01*
X132450816Y-114253944D01*
X132449166Y-114238491D01*
X132447673Y-114228094D01*
X132446249Y-114222090D01*
X132444807Y-114219817D01*
X132443974Y-114219918D01*
X132442665Y-114217973D01*
X132442440Y-114211139D01*
X132443114Y-114201468D01*
X132444497Y-114191010D01*
X132446403Y-114181817D01*
X132447859Y-114177431D01*
X132449376Y-114171923D01*
X132451836Y-114160616D01*
X132455008Y-114144669D01*
X132458665Y-114125241D01*
X132462578Y-114103489D01*
X132463529Y-114098056D01*
X132477036Y-114016570D01*
X132488409Y-113939154D01*
X132497987Y-113863266D01*
X132506109Y-113786367D01*
X132508294Y-113762917D01*
X132509888Y-113740487D01*
X132511121Y-113713281D01*
X132511993Y-113682652D01*
X132512504Y-113649951D01*
X132512652Y-113616529D01*
X132512438Y-113583738D01*
X132511861Y-113552930D01*
X132510920Y-113525455D01*
X132509615Y-113502666D01*
X132508402Y-113489514D01*
X132498747Y-113416686D01*
X132486860Y-113345829D01*
X132472349Y-113275068D01*
X132454822Y-113202527D01*
X132433890Y-113126331D01*
X132429368Y-113110857D01*
X132422575Y-113088243D01*
X132417222Y-113071577D01*
X132412959Y-113059982D01*
X132409438Y-113052578D01*
X132406309Y-113048490D01*
X132403968Y-113047057D01*
X132398855Y-113046091D01*
X132387561Y-113044509D01*
X132370925Y-113042410D01*
X132349783Y-113039895D01*
X132324975Y-113037063D01*
X132297338Y-113034013D01*
X132268392Y-113030918D01*
X132234399Y-113027321D01*
X132206757Y-113024435D01*
X132184791Y-113022312D01*
X132167830Y-113021001D01*
X132155198Y-113020553D01*
X132146223Y-113021018D01*
X132140230Y-113022447D01*
X132136547Y-113024890D01*
X132134499Y-113028397D01*
X132133413Y-113033018D01*
X132132615Y-113038805D01*
X132132283Y-113041091D01*
X132130254Y-113052337D01*
X132126797Y-113069389D01*
X132122151Y-113091193D01*
X132116555Y-113116700D01*
X132110249Y-113144858D01*
X132103471Y-113174615D01*
X132096461Y-113204921D01*
X132089457Y-113234725D01*
X132082700Y-113262975D01*
X132076427Y-113288620D01*
X132071593Y-113307833D01*
X132044234Y-113410462D01*
X132016397Y-113506453D01*
X131987945Y-113596213D01*
X131958742Y-113680153D01*
X131928650Y-113758680D01*
X131897534Y-113832203D01*
X131892213Y-113844056D01*
X131857760Y-113914730D01*
X131818022Y-113986700D01*
X131774092Y-114058246D01*
X131727066Y-114127648D01*
X131678037Y-114193190D01*
X131641786Y-114237403D01*
X131626423Y-114255065D01*
X131610012Y-114273398D01*
X131593244Y-114291684D01*
X131576810Y-114309206D01*
X131561401Y-114325249D01*
X131547709Y-114339095D01*
X131536424Y-114350027D01*
X131528238Y-114357329D01*
X131523841Y-114360283D01*
X131523368Y-114360219D01*
X131520119Y-114354114D01*
X131515797Y-114342137D01*
X131510663Y-114325347D01*
X131504980Y-114304801D01*
X131499011Y-114281556D01*
X131493019Y-114256670D01*
X131487265Y-114231199D01*
X131482013Y-114206201D01*
X131477526Y-114182732D01*
X131474065Y-114161852D01*
X131474021Y-114161556D01*
X131467477Y-114106513D01*
X131464423Y-114052179D01*
X131464893Y-113997039D01*
X131468923Y-113939581D01*
X131476548Y-113878289D01*
X131481261Y-113848461D01*
X131499850Y-113755204D01*
X131523707Y-113665771D01*
X131552725Y-113580377D01*
X131586797Y-113499234D01*
X131625818Y-113422557D01*
X131669681Y-113350558D01*
X131718280Y-113283451D01*
X131771509Y-113221449D01*
X131814915Y-113177949D01*
X131863556Y-113135574D01*
X131914333Y-113097536D01*
X131966230Y-113064493D01*
X132018230Y-113037105D01*
X132059355Y-113019656D01*
X132071769Y-113014680D01*
X132081937Y-113010056D01*
X132087652Y-113006789D01*
X132090958Y-113003532D01*
X132098670Y-112995631D01*
X132110334Y-112983561D01*
X132125496Y-112967793D01*
X132143704Y-112948801D01*
X132164504Y-112927057D01*
X132187442Y-112903034D01*
X132212065Y-112877205D01*
X132230309Y-112858042D01*
X132255737Y-112831341D01*
X132279712Y-112806208D01*
X132301794Y-112783104D01*
X132321540Y-112762486D01*
X132338513Y-112744813D01*
X132352270Y-112730545D01*
X132362371Y-112720139D01*
X132368376Y-112714055D01*
X132369922Y-112712607D01*
X132371699Y-112715572D01*
X132376052Y-112724384D01*
X132382701Y-112738436D01*
X132391368Y-112757123D01*
X132401773Y-112779836D01*
X132413637Y-112805972D01*
X132426683Y-112834923D01*
X132440630Y-112866083D01*
X132443923Y-112873468D01*
X132515942Y-113035126D01*
X132576214Y-113051981D01*
X132604199Y-113060094D01*
X132636534Y-113069941D01*
X132671347Y-113080916D01*
X132706762Y-113092411D01*
X132740907Y-113103817D01*
X132771907Y-113114527D01*
X132796757Y-113123511D01*
X132810443Y-113128959D01*
X132818917Y-113133479D01*
X132823733Y-113138136D01*
X132826392Y-113143830D01*
X132827558Y-113151132D01*
X132828496Y-113164453D01*
X132829209Y-113182760D01*
X132829697Y-113205020D01*
X132829965Y-113230201D01*
X132830013Y-113257269D01*
X132829845Y-113285192D01*
X132829461Y-113312937D01*
X132828866Y-113339472D01*
X132828060Y-113363763D01*
X132827046Y-113384777D01*
X132825841Y-113401319D01*
X132808212Y-113564261D01*
X132794838Y-113664139D01*
X132788400Y-113706859D01*
X132782100Y-113743678D01*
X132775624Y-113775734D01*
X132768661Y-113804167D01*
X132760899Y-113830116D01*
X132752025Y-113854721D01*
X132741727Y-113879122D01*
X132729694Y-113904457D01*
X132728147Y-113907556D01*
X132696813Y-113963115D01*
X132659211Y-114017664D01*
X132616128Y-114070233D01*
X132568353Y-114119852D01*
X132523042Y-114160314D01*
X132501319Y-114178347D01*
X132526569Y-114180748D01*
X132573991Y-114187775D01*
X132623168Y-114199681D01*
X132672224Y-114215802D01*
X132719282Y-114235477D01*
X132762463Y-114258042D01*
X132784289Y-114271719D01*
X132834006Y-114309340D01*
X132879003Y-114352141D01*
X132919251Y-114400037D01*
X132954723Y-114452937D01*
X132985389Y-114510757D01*
X133011223Y-114573406D01*
X133032197Y-114640799D01*
X133048282Y-114712848D01*
X133059451Y-114789465D01*
X133065676Y-114870562D01*
X133066929Y-114956053D01*
X133063182Y-115045848D01*
X133056139Y-115124639D01*
X133046822Y-115197782D01*
X133034509Y-115275875D01*
X133019481Y-115357621D01*
X133002024Y-115441724D01*
X132982418Y-115526887D01*
X132960949Y-115611813D01*
X132937899Y-115695205D01*
X132914745Y-115771986D01*
X132882112Y-115869460D01*
X132846670Y-115963786D01*
X132808629Y-116054613D01*
X132768203Y-116141592D01*
X132725600Y-116224372D01*
X132681034Y-116302604D01*
X132634714Y-116375937D01*
X132586853Y-116444021D01*
X132537661Y-116506506D01*
X132487350Y-116563041D01*
X132436131Y-116613278D01*
X132384215Y-116656865D01*
X132378103Y-116661516D01*
X132365676Y-116671132D01*
X132358104Y-116677892D01*
X132354422Y-116682929D01*
X132353664Y-116687377D01*
X132354079Y-116689726D01*
X132358388Y-116709163D01*
X132363070Y-116734240D01*
X132367922Y-116763568D01*
X132372737Y-116795757D01*
X132377313Y-116829415D01*
X132381443Y-116863152D01*
X132384923Y-116895578D01*
X132385932Y-116906167D01*
X132388462Y-116937905D01*
X132390184Y-116969888D01*
X132391067Y-117002791D01*
X132391080Y-117037290D01*
X132390194Y-117074060D01*
X132388377Y-117113775D01*
X132385599Y-117157113D01*
X132381829Y-117204746D01*
X132377037Y-117257352D01*
X132371192Y-117315605D01*
X132364600Y-117377125D01*
X132354237Y-117466165D01*
X132342018Y-117561639D01*
X132328007Y-117663193D01*
X132312269Y-117770469D01*
X132294868Y-117883115D01*
X132275867Y-118000774D01*
X132255332Y-118123091D01*
X132233326Y-118249712D01*
X132209914Y-118380280D01*
X132185160Y-118514441D01*
X132159128Y-118651840D01*
X132131882Y-118792121D01*
X132103486Y-118934930D01*
X132074006Y-119079911D01*
X132043505Y-119226709D01*
X132012046Y-119374969D01*
X131979696Y-119524335D01*
X131960408Y-119611972D01*
X131950554Y-119656466D01*
X131942267Y-119694684D01*
X131935680Y-119727258D01*
X131930928Y-119754823D01*
X131928146Y-119778011D01*
X131927468Y-119797455D01*
X131929028Y-119813788D01*
X131932962Y-119827642D01*
X131939404Y-119839652D01*
X131948488Y-119850449D01*
X131960348Y-119860667D01*
X131975120Y-119870938D01*
X131992938Y-119881896D01*
X132013936Y-119894174D01*
X132021295Y-119898453D01*
X132087072Y-119935722D01*
X132152322Y-119970654D01*
X132216214Y-120002855D01*
X132277915Y-120031929D01*
X132336594Y-120057481D01*
X132391419Y-120079117D01*
X132430859Y-120092982D01*
X132483272Y-120108442D01*
X132532184Y-120119158D01*
X132577367Y-120125158D01*
X132618594Y-120126469D01*
X132655635Y-120123119D01*
X132688262Y-120115134D01*
X132716247Y-120102543D01*
X132739362Y-120085372D01*
X132757378Y-120063649D01*
X132763395Y-120053124D01*
X132768154Y-120042991D01*
X132772524Y-120031941D01*
X132776533Y-120019615D01*
X132780209Y-120005657D01*
X132783581Y-119989709D01*
X132786677Y-119971413D01*
X132789524Y-119950414D01*
X132792152Y-119926352D01*
X132794587Y-119898872D01*
X132796859Y-119867615D01*
X132798995Y-119832225D01*
X132801023Y-119792343D01*
X132802973Y-119747613D01*
X132804871Y-119697677D01*
X132806746Y-119642178D01*
X132808626Y-119580759D01*
X132810540Y-119513062D01*
X132812515Y-119438731D01*
X132812869Y-119425000D01*
X132816207Y-119302923D01*
X132819786Y-119187344D01*
X132823639Y-119077707D01*
X132827794Y-118973456D01*
X132832284Y-118874037D01*
X132837138Y-118778895D01*
X132842388Y-118687474D01*
X132848064Y-118599219D01*
X132854196Y-118513574D01*
X132860816Y-118429985D01*
X132867954Y-118347897D01*
X132875640Y-118266754D01*
X132878345Y-118239667D01*
X132892177Y-118110967D01*
X132907273Y-117986502D01*
X132923805Y-117865523D01*
X132941941Y-117747281D01*
X132961851Y-117631028D01*
X132983705Y-117516016D01*
X133007671Y-117401496D01*
X133033920Y-117286721D01*
X133062620Y-117170941D01*
X133093942Y-117053408D01*
X133128054Y-116933373D01*
X133165127Y-116810090D01*
X133205329Y-116682808D01*
X133248830Y-116550780D01*
X133284551Y-116445792D01*
X133302059Y-116395932D01*
X133319485Y-116348400D01*
X133337150Y-116302527D01*
X133355374Y-116257643D01*
X133374476Y-116213080D01*
X133394779Y-116168167D01*
X133416601Y-116122235D01*
X133440263Y-116074615D01*
X133466085Y-116024637D01*
X133494388Y-115971633D01*
X133525492Y-115914932D01*
X133559717Y-115853865D01*
X133597384Y-115787763D01*
X133609493Y-115766694D01*
X133643223Y-115708073D01*
X133673651Y-115655102D01*
X133701025Y-115607334D01*
X133725591Y-115564321D01*
X133747596Y-115525616D01*
X133767287Y-115490771D01*
X133784910Y-115459338D01*
X133800714Y-115430870D01*
X133814944Y-115404919D01*
X133827848Y-115381037D01*
X133839672Y-115358777D01*
X133850664Y-115337692D01*
X133861070Y-115317332D01*
X133871138Y-115297252D01*
X133881113Y-115277003D01*
X133891244Y-115256138D01*
X133892128Y-115254306D01*
X133923565Y-115186867D01*
X133950819Y-115123250D01*
X133974282Y-115062082D01*
X133994345Y-115001992D01*
X134011402Y-114941609D01*
X134025844Y-114879560D01*
X134038064Y-114814474D01*
X134048454Y-114744978D01*
X134056279Y-114680139D01*
X134060039Y-114639152D01*
X134062999Y-114593206D01*
X134065105Y-114544358D01*
X134066301Y-114494663D01*
X134066532Y-114446179D01*
X134065744Y-114400962D01*
X134064508Y-114371458D01*
X134057865Y-114291912D01*
X134046743Y-114211456D01*
X134031443Y-114131278D01*
X134012263Y-114052567D01*
X133989501Y-113976511D01*
X133963456Y-113904298D01*
X133934427Y-113837116D01*
X133925625Y-113819008D01*
X133881372Y-113738028D01*
X133830408Y-113658806D01*
X133772893Y-113581482D01*
X133708983Y-113506195D01*
X133638836Y-113433086D01*
X133562610Y-113362295D01*
X133480463Y-113293960D01*
X133392552Y-113228223D01*
X133299036Y-113165222D01*
X133200070Y-113105097D01*
X133095814Y-113047989D01*
X133005201Y-113002897D01*
X132965287Y-112984559D01*
X132923922Y-112966937D01*
X132879814Y-112949526D01*
X132831672Y-112931819D01*
X132778204Y-112913310D01*
X132765250Y-112908965D01*
X132741804Y-112901296D01*
X132716214Y-112893193D01*
X132689673Y-112885008D01*
X132663373Y-112877093D01*
X132638508Y-112869801D01*
X132616269Y-112863485D01*
X132597848Y-112858496D01*
X132584440Y-112855187D01*
X132580558Y-112854378D01*
X132568996Y-112852209D01*
X132486428Y-112647595D01*
X132471883Y-112611615D01*
X132458085Y-112577607D01*
X132445266Y-112546132D01*
X132433654Y-112517748D01*
X132423480Y-112493014D01*
X132414974Y-112472490D01*
X132408367Y-112456734D01*
X132403889Y-112446307D01*
X132401769Y-112441768D01*
X132401656Y-112441619D01*
X132399006Y-112443960D01*
X132392050Y-112451162D01*
X132381163Y-112462812D01*
X132366724Y-112478495D01*
X132349108Y-112497797D01*
X132328694Y-112520304D01*
X132305859Y-112545601D01*
X132280979Y-112573274D01*
X132254432Y-112602909D01*
X132231769Y-112628286D01*
X132199640Y-112664302D01*
X132171846Y-112695416D01*
X132148033Y-112721998D01*
X132127848Y-112744415D01*
X132110935Y-112763038D01*
X132096942Y-112778235D01*
X132085513Y-112790376D01*
X132076294Y-112799830D01*
X132068931Y-112806965D01*
X132063071Y-112812152D01*
X132058358Y-112815759D01*
X132054439Y-112818156D01*
X132050959Y-112819712D01*
X132047565Y-112820795D01*
X132046897Y-112820979D01*
X132026348Y-112827388D01*
X132001398Y-112836490D01*
X131973816Y-112847560D01*
X131945375Y-112859874D01*
X131917843Y-112872705D01*
X131904554Y-112879300D01*
X131846345Y-112911749D01*
X131790220Y-112948977D01*
X131735249Y-112991666D01*
X131680502Y-113040499D01*
X131666849Y-113053642D01*
X131613310Y-113109151D01*
X131564827Y-113166431D01*
X131520531Y-113226685D01*
X131479557Y-113291117D01*
X131441037Y-113360931D01*
X131430420Y-113381917D01*
X131398548Y-113449971D01*
X131370713Y-113517985D01*
X131346541Y-113587187D01*
X131325659Y-113658807D01*
X131307692Y-113734072D01*
X131292268Y-113814212D01*
X131284752Y-113860680D01*
X131281832Y-113880516D01*
X131279566Y-113897844D01*
X131277870Y-113914061D01*
X131276659Y-113930562D01*
X131275848Y-113948742D01*
X131275355Y-113969998D01*
X131275094Y-113995724D01*
X131274991Y-114022208D01*
X131275069Y-114059423D01*
X131275069Y-114059423D01*
G37*
X131275069Y-114059423D02*
X131275572Y-114091094D01*
X131276621Y-114118725D01*
X131278340Y-114143824D01*
X131280851Y-114167893D01*
X131284276Y-114192439D01*
X131288740Y-114218967D01*
X131292815Y-114240931D01*
X131305578Y-114299786D01*
X131321645Y-114360883D01*
X131340182Y-114421336D01*
X131360354Y-114478260D01*
X131364777Y-114489639D01*
X131381970Y-114532817D01*
X131399108Y-114575192D01*
X131416370Y-114617150D01*
X131433937Y-114659080D01*
X131451989Y-114701369D01*
X131470707Y-114744404D01*
X131490271Y-114788573D01*
X131510862Y-114834265D01*
X131532659Y-114881866D01*
X131555844Y-114931764D01*
X131580597Y-114984347D01*
X131607099Y-115040003D01*
X131635528Y-115099118D01*
X131666067Y-115162082D01*
X131698896Y-115229280D01*
X131734194Y-115301102D01*
X131772143Y-115377935D01*
X131812923Y-115460166D01*
X131856714Y-115548183D01*
X131868037Y-115570903D01*
X131906981Y-115649183D01*
X131942880Y-115721702D01*
X131975961Y-115788949D01*
X132006448Y-115851415D01*
X132034567Y-115909589D01*
X132060545Y-115963962D01*
X132084606Y-116015024D01*
X132106978Y-116063265D01*
X132127885Y-116109175D01*
X132147553Y-116153244D01*
X132166208Y-116195962D01*
X132184076Y-116237819D01*
X132201382Y-116279306D01*
X132218353Y-116320912D01*
X132235213Y-116363128D01*
X132248281Y-116396403D01*
X132257518Y-116419926D01*
X132266037Y-116441319D01*
X132273473Y-116459688D01*
X132279460Y-116474143D01*
X132283635Y-116483791D01*
X132285624Y-116487732D01*
X132289719Y-116487199D01*
X132297737Y-116481987D01*
X132308968Y-116472739D01*
X132322704Y-116460100D01*
X132338236Y-116444712D01*
X132354855Y-116427219D01*
X132366657Y-116414178D01*
X132422758Y-116346199D01*
X132476253Y-116271764D01*
X132527086Y-116190994D01*
X132575200Y-116104011D01*
X132620538Y-116010938D01*
X132663043Y-115911897D01*
X132702658Y-115807009D01*
X132739327Y-115696398D01*
X132772992Y-115580185D01*
X132795296Y-115493292D01*
X132818538Y-115392697D01*
X132837867Y-115297709D01*
X132853303Y-115208081D01*
X132864868Y-115123561D01*
X132872580Y-115043901D01*
X132876462Y-114968851D01*
X132876535Y-114898163D01*
X132872818Y-114831587D01*
X132865332Y-114768874D01*
X132858660Y-114731082D01*
X132843748Y-114670450D01*
X132824367Y-114615094D01*
X132800590Y-114565086D01*
X132772491Y-114520499D01*
X132740142Y-114481404D01*
X132703617Y-114447873D01*
X132662988Y-114419979D01*
X132618329Y-114397795D01*
X132569713Y-114381392D01*
X132517214Y-114370842D01*
X132490940Y-114367903D01*
X132479833Y-114367085D01*
X132471698Y-114366149D01*
X132465994Y-114364111D01*
X132462178Y-114359991D01*
X132459710Y-114352806D01*
X132458046Y-114341575D01*
X132456646Y-114325315D01*
X132454967Y-114303045D01*
X132454937Y-114302667D01*
X132452710Y-114275115D01*
X132450816Y-114253944D01*
X132449166Y-114238491D01*
X132447673Y-114228094D01*
X132446249Y-114222090D01*
X132444807Y-114219817D01*
X132443974Y-114219918D01*
X132442665Y-114217973D01*
X132442440Y-114211139D01*
X132443114Y-114201468D01*
X132444497Y-114191010D01*
X132446403Y-114181817D01*
X132447859Y-114177431D01*
X132449376Y-114171923D01*
X132451836Y-114160616D01*
X132455008Y-114144669D01*
X132458665Y-114125241D01*
X132462578Y-114103489D01*
X132463529Y-114098056D01*
X132477036Y-114016570D01*
X132488409Y-113939154D01*
X132497987Y-113863266D01*
X132506109Y-113786367D01*
X132508294Y-113762917D01*
X132509888Y-113740487D01*
X132511121Y-113713281D01*
X132511993Y-113682652D01*
X132512504Y-113649951D01*
X132512652Y-113616529D01*
X132512438Y-113583738D01*
X132511861Y-113552930D01*
X132510920Y-113525455D01*
X132509615Y-113502666D01*
X132508402Y-113489514D01*
X132498747Y-113416686D01*
X132486860Y-113345829D01*
X132472349Y-113275068D01*
X132454822Y-113202527D01*
X132433890Y-113126331D01*
X132429368Y-113110857D01*
X132422575Y-113088243D01*
X132417222Y-113071577D01*
X132412959Y-113059982D01*
X132409438Y-113052578D01*
X132406309Y-113048490D01*
X132403968Y-113047057D01*
X132398855Y-113046091D01*
X132387561Y-113044509D01*
X132370925Y-113042410D01*
X132349783Y-113039895D01*
X132324975Y-113037063D01*
X132297338Y-113034013D01*
X132268392Y-113030918D01*
X132234399Y-113027321D01*
X132206757Y-113024435D01*
X132184791Y-113022312D01*
X132167830Y-113021001D01*
X132155198Y-113020553D01*
X132146223Y-113021018D01*
X132140230Y-113022447D01*
X132136547Y-113024890D01*
X132134499Y-113028397D01*
X132133413Y-113033018D01*
X132132615Y-113038805D01*
X132132283Y-113041091D01*
X132130254Y-113052337D01*
X132126797Y-113069389D01*
X132122151Y-113091193D01*
X132116555Y-113116700D01*
X132110249Y-113144858D01*
X132103471Y-113174615D01*
X132096461Y-113204921D01*
X132089457Y-113234725D01*
X132082700Y-113262975D01*
X132076427Y-113288620D01*
X132071593Y-113307833D01*
X132044234Y-113410462D01*
X132016397Y-113506453D01*
X131987945Y-113596213D01*
X131958742Y-113680153D01*
X131928650Y-113758680D01*
X131897534Y-113832203D01*
X131892213Y-113844056D01*
X131857760Y-113914730D01*
X131818022Y-113986700D01*
X131774092Y-114058246D01*
X131727066Y-114127648D01*
X131678037Y-114193190D01*
X131641786Y-114237403D01*
X131626423Y-114255065D01*
X131610012Y-114273398D01*
X131593244Y-114291684D01*
X131576810Y-114309206D01*
X131561401Y-114325249D01*
X131547709Y-114339095D01*
X131536424Y-114350027D01*
X131528238Y-114357329D01*
X131523841Y-114360283D01*
X131523368Y-114360219D01*
X131520119Y-114354114D01*
X131515797Y-114342137D01*
X131510663Y-114325347D01*
X131504980Y-114304801D01*
X131499011Y-114281556D01*
X131493019Y-114256670D01*
X131487265Y-114231199D01*
X131482013Y-114206201D01*
X131477526Y-114182732D01*
X131474065Y-114161852D01*
X131474021Y-114161556D01*
X131467477Y-114106513D01*
X131464423Y-114052179D01*
X131464893Y-113997039D01*
X131468923Y-113939581D01*
X131476548Y-113878289D01*
X131481261Y-113848461D01*
X131499850Y-113755204D01*
X131523707Y-113665771D01*
X131552725Y-113580377D01*
X131586797Y-113499234D01*
X131625818Y-113422557D01*
X131669681Y-113350558D01*
X131718280Y-113283451D01*
X131771509Y-113221449D01*
X131814915Y-113177949D01*
X131863556Y-113135574D01*
X131914333Y-113097536D01*
X131966230Y-113064493D01*
X132018230Y-113037105D01*
X132059355Y-113019656D01*
X132071769Y-113014680D01*
X132081937Y-113010056D01*
X132087652Y-113006789D01*
X132090958Y-113003532D01*
X132098670Y-112995631D01*
X132110334Y-112983561D01*
X132125496Y-112967793D01*
X132143704Y-112948801D01*
X132164504Y-112927057D01*
X132187442Y-112903034D01*
X132212065Y-112877205D01*
X132230309Y-112858042D01*
X132255737Y-112831341D01*
X132279712Y-112806208D01*
X132301794Y-112783104D01*
X132321540Y-112762486D01*
X132338513Y-112744813D01*
X132352270Y-112730545D01*
X132362371Y-112720139D01*
X132368376Y-112714055D01*
X132369922Y-112712607D01*
X132371699Y-112715572D01*
X132376052Y-112724384D01*
X132382701Y-112738436D01*
X132391368Y-112757123D01*
X132401773Y-112779836D01*
X132413637Y-112805972D01*
X132426683Y-112834923D01*
X132440630Y-112866083D01*
X132443923Y-112873468D01*
X132515942Y-113035126D01*
X132576214Y-113051981D01*
X132604199Y-113060094D01*
X132636534Y-113069941D01*
X132671347Y-113080916D01*
X132706762Y-113092411D01*
X132740907Y-113103817D01*
X132771907Y-113114527D01*
X132796757Y-113123511D01*
X132810443Y-113128959D01*
X132818917Y-113133479D01*
X132823733Y-113138136D01*
X132826392Y-113143830D01*
X132827558Y-113151132D01*
X132828496Y-113164453D01*
X132829209Y-113182760D01*
X132829697Y-113205020D01*
X132829965Y-113230201D01*
X132830013Y-113257269D01*
X132829845Y-113285192D01*
X132829461Y-113312937D01*
X132828866Y-113339472D01*
X132828060Y-113363763D01*
X132827046Y-113384777D01*
X132825841Y-113401319D01*
X132808212Y-113564261D01*
X132794838Y-113664139D01*
X132788400Y-113706859D01*
X132782100Y-113743678D01*
X132775624Y-113775734D01*
X132768661Y-113804167D01*
X132760899Y-113830116D01*
X132752025Y-113854721D01*
X132741727Y-113879122D01*
X132729694Y-113904457D01*
X132728147Y-113907556D01*
X132696813Y-113963115D01*
X132659211Y-114017664D01*
X132616128Y-114070233D01*
X132568353Y-114119852D01*
X132523042Y-114160314D01*
X132501319Y-114178347D01*
X132526569Y-114180748D01*
X132573991Y-114187775D01*
X132623168Y-114199681D01*
X132672224Y-114215802D01*
X132719282Y-114235477D01*
X132762463Y-114258042D01*
X132784289Y-114271719D01*
X132834006Y-114309340D01*
X132879003Y-114352141D01*
X132919251Y-114400037D01*
X132954723Y-114452937D01*
X132985389Y-114510757D01*
X133011223Y-114573406D01*
X133032197Y-114640799D01*
X133048282Y-114712848D01*
X133059451Y-114789465D01*
X133065676Y-114870562D01*
X133066929Y-114956053D01*
X133063182Y-115045848D01*
X133056139Y-115124639D01*
X133046822Y-115197782D01*
X133034509Y-115275875D01*
X133019481Y-115357621D01*
X133002024Y-115441724D01*
X132982418Y-115526887D01*
X132960949Y-115611813D01*
X132937899Y-115695205D01*
X132914745Y-115771986D01*
X132882112Y-115869460D01*
X132846670Y-115963786D01*
X132808629Y-116054613D01*
X132768203Y-116141592D01*
X132725600Y-116224372D01*
X132681034Y-116302604D01*
X132634714Y-116375937D01*
X132586853Y-116444021D01*
X132537661Y-116506506D01*
X132487350Y-116563041D01*
X132436131Y-116613278D01*
X132384215Y-116656865D01*
X132378103Y-116661516D01*
X132365676Y-116671132D01*
X132358104Y-116677892D01*
X132354422Y-116682929D01*
X132353664Y-116687377D01*
X132354079Y-116689726D01*
X132358388Y-116709163D01*
X132363070Y-116734240D01*
X132367922Y-116763568D01*
X132372737Y-116795757D01*
X132377313Y-116829415D01*
X132381443Y-116863152D01*
X132384923Y-116895578D01*
X132385932Y-116906167D01*
X132388462Y-116937905D01*
X132390184Y-116969888D01*
X132391067Y-117002791D01*
X132391080Y-117037290D01*
X132390194Y-117074060D01*
X132388377Y-117113775D01*
X132385599Y-117157113D01*
X132381829Y-117204746D01*
X132377037Y-117257352D01*
X132371192Y-117315605D01*
X132364600Y-117377125D01*
X132354237Y-117466165D01*
X132342018Y-117561639D01*
X132328007Y-117663193D01*
X132312269Y-117770469D01*
X132294868Y-117883115D01*
X132275867Y-118000774D01*
X132255332Y-118123091D01*
X132233326Y-118249712D01*
X132209914Y-118380280D01*
X132185160Y-118514441D01*
X132159128Y-118651840D01*
X132131882Y-118792121D01*
X132103486Y-118934930D01*
X132074006Y-119079911D01*
X132043505Y-119226709D01*
X132012046Y-119374969D01*
X131979696Y-119524335D01*
X131960408Y-119611972D01*
X131950554Y-119656466D01*
X131942267Y-119694684D01*
X131935680Y-119727258D01*
X131930928Y-119754823D01*
X131928146Y-119778011D01*
X131927468Y-119797455D01*
X131929028Y-119813788D01*
X131932962Y-119827642D01*
X131939404Y-119839652D01*
X131948488Y-119850449D01*
X131960348Y-119860667D01*
X131975120Y-119870938D01*
X131992938Y-119881896D01*
X132013936Y-119894174D01*
X132021295Y-119898453D01*
X132087072Y-119935722D01*
X132152322Y-119970654D01*
X132216214Y-120002855D01*
X132277915Y-120031929D01*
X132336594Y-120057481D01*
X132391419Y-120079117D01*
X132430859Y-120092982D01*
X132483272Y-120108442D01*
X132532184Y-120119158D01*
X132577367Y-120125158D01*
X132618594Y-120126469D01*
X132655635Y-120123119D01*
X132688262Y-120115134D01*
X132716247Y-120102543D01*
X132739362Y-120085372D01*
X132757378Y-120063649D01*
X132763395Y-120053124D01*
X132768154Y-120042991D01*
X132772524Y-120031941D01*
X132776533Y-120019615D01*
X132780209Y-120005657D01*
X132783581Y-119989709D01*
X132786677Y-119971413D01*
X132789524Y-119950414D01*
X132792152Y-119926352D01*
X132794587Y-119898872D01*
X132796859Y-119867615D01*
X132798995Y-119832225D01*
X132801023Y-119792343D01*
X132802973Y-119747613D01*
X132804871Y-119697677D01*
X132806746Y-119642178D01*
X132808626Y-119580759D01*
X132810540Y-119513062D01*
X132812515Y-119438731D01*
X132812869Y-119425000D01*
X132816207Y-119302923D01*
X132819786Y-119187344D01*
X132823639Y-119077707D01*
X132827794Y-118973456D01*
X132832284Y-118874037D01*
X132837138Y-118778895D01*
X132842388Y-118687474D01*
X132848064Y-118599219D01*
X132854196Y-118513574D01*
X132860816Y-118429985D01*
X132867954Y-118347897D01*
X132875640Y-118266754D01*
X132878345Y-118239667D01*
X132892177Y-118110967D01*
X132907273Y-117986502D01*
X132923805Y-117865523D01*
X132941941Y-117747281D01*
X132961851Y-117631028D01*
X132983705Y-117516016D01*
X133007671Y-117401496D01*
X133033920Y-117286721D01*
X133062620Y-117170941D01*
X133093942Y-117053408D01*
X133128054Y-116933373D01*
X133165127Y-116810090D01*
X133205329Y-116682808D01*
X133248830Y-116550780D01*
X133284551Y-116445792D01*
X133302059Y-116395932D01*
X133319485Y-116348400D01*
X133337150Y-116302527D01*
X133355374Y-116257643D01*
X133374476Y-116213080D01*
X133394779Y-116168167D01*
X133416601Y-116122235D01*
X133440263Y-116074615D01*
X133466085Y-116024637D01*
X133494388Y-115971633D01*
X133525492Y-115914932D01*
X133559717Y-115853865D01*
X133597384Y-115787763D01*
X133609493Y-115766694D01*
X133643223Y-115708073D01*
X133673651Y-115655102D01*
X133701025Y-115607334D01*
X133725591Y-115564321D01*
X133747596Y-115525616D01*
X133767287Y-115490771D01*
X133784910Y-115459338D01*
X133800714Y-115430870D01*
X133814944Y-115404919D01*
X133827848Y-115381037D01*
X133839672Y-115358777D01*
X133850664Y-115337692D01*
X133861070Y-115317332D01*
X133871138Y-115297252D01*
X133881113Y-115277003D01*
X133891244Y-115256138D01*
X133892128Y-115254306D01*
X133923565Y-115186867D01*
X133950819Y-115123250D01*
X133974282Y-115062082D01*
X133994345Y-115001992D01*
X134011402Y-114941609D01*
X134025844Y-114879560D01*
X134038064Y-114814474D01*
X134048454Y-114744978D01*
X134056279Y-114680139D01*
X134060039Y-114639152D01*
X134062999Y-114593206D01*
X134065105Y-114544358D01*
X134066301Y-114494663D01*
X134066532Y-114446179D01*
X134065744Y-114400962D01*
X134064508Y-114371458D01*
X134057865Y-114291912D01*
X134046743Y-114211456D01*
X134031443Y-114131278D01*
X134012263Y-114052567D01*
X133989501Y-113976511D01*
X133963456Y-113904298D01*
X133934427Y-113837116D01*
X133925625Y-113819008D01*
X133881372Y-113738028D01*
X133830408Y-113658806D01*
X133772893Y-113581482D01*
X133708983Y-113506195D01*
X133638836Y-113433086D01*
X133562610Y-113362295D01*
X133480463Y-113293960D01*
X133392552Y-113228223D01*
X133299036Y-113165222D01*
X133200070Y-113105097D01*
X133095814Y-113047989D01*
X133005201Y-113002897D01*
X132965287Y-112984559D01*
X132923922Y-112966937D01*
X132879814Y-112949526D01*
X132831672Y-112931819D01*
X132778204Y-112913310D01*
X132765250Y-112908965D01*
X132741804Y-112901296D01*
X132716214Y-112893193D01*
X132689673Y-112885008D01*
X132663373Y-112877093D01*
X132638508Y-112869801D01*
X132616269Y-112863485D01*
X132597848Y-112858496D01*
X132584440Y-112855187D01*
X132580558Y-112854378D01*
X132568996Y-112852209D01*
X132486428Y-112647595D01*
X132471883Y-112611615D01*
X132458085Y-112577607D01*
X132445266Y-112546132D01*
X132433654Y-112517748D01*
X132423480Y-112493014D01*
X132414974Y-112472490D01*
X132408367Y-112456734D01*
X132403889Y-112446307D01*
X132401769Y-112441768D01*
X132401656Y-112441619D01*
X132399006Y-112443960D01*
X132392050Y-112451162D01*
X132381163Y-112462812D01*
X132366724Y-112478495D01*
X132349108Y-112497797D01*
X132328694Y-112520304D01*
X132305859Y-112545601D01*
X132280979Y-112573274D01*
X132254432Y-112602909D01*
X132231769Y-112628286D01*
X132199640Y-112664302D01*
X132171846Y-112695416D01*
X132148033Y-112721998D01*
X132127848Y-112744415D01*
X132110935Y-112763038D01*
X132096942Y-112778235D01*
X132085513Y-112790376D01*
X132076294Y-112799830D01*
X132068931Y-112806965D01*
X132063071Y-112812152D01*
X132058358Y-112815759D01*
X132054439Y-112818156D01*
X132050959Y-112819712D01*
X132047565Y-112820795D01*
X132046897Y-112820979D01*
X132026348Y-112827388D01*
X132001398Y-112836490D01*
X131973816Y-112847560D01*
X131945375Y-112859874D01*
X131917843Y-112872705D01*
X131904554Y-112879300D01*
X131846345Y-112911749D01*
X131790220Y-112948977D01*
X131735249Y-112991666D01*
X131680502Y-113040499D01*
X131666849Y-113053642D01*
X131613310Y-113109151D01*
X131564827Y-113166431D01*
X131520531Y-113226685D01*
X131479557Y-113291117D01*
X131441037Y-113360931D01*
X131430420Y-113381917D01*
X131398548Y-113449971D01*
X131370713Y-113517985D01*
X131346541Y-113587187D01*
X131325659Y-113658807D01*
X131307692Y-113734072D01*
X131292268Y-113814212D01*
X131284752Y-113860680D01*
X131281832Y-113880516D01*
X131279566Y-113897844D01*
X131277870Y-113914061D01*
X131276659Y-113930562D01*
X131275848Y-113948742D01*
X131275355Y-113969998D01*
X131275094Y-113995724D01*
X131274991Y-114022208D01*
X131275069Y-114059423D01*
M02*
