G04 #@! TF.FileFunction,Legend,Top*
%FSLAX46Y46*%
G04 Gerber Fmt 4.6, Leading zero omitted, Abs format (unit mm)*
G04 Created by KiCad (PCBNEW 4.0.1-stable) date Thursday, April 14, 2016 'AMt' 11:24:42 AM*
%MOMM*%
G01*
G04 APERTURE LIST*
%ADD10C,0.100000*%
%ADD11C,0.150000*%
G04 APERTURE END LIST*
D10*
D11*
X135064762Y-112362381D02*
X135112381Y-112457619D01*
X135112381Y-112648096D01*
X135064762Y-112743334D01*
X135017143Y-112790953D01*
X134921905Y-112838572D01*
X134636190Y-112838572D01*
X134540952Y-112790953D01*
X134493333Y-112743334D01*
X134445714Y-112648096D01*
X134445714Y-112457619D01*
X134493333Y-112362381D01*
X135112381Y-111933810D02*
X134112381Y-111933810D01*
X134731429Y-111838572D02*
X135112381Y-111552857D01*
X134445714Y-111552857D02*
X134826667Y-111933810D01*
X135112381Y-110695714D02*
X134112381Y-110695714D01*
X135064762Y-110695714D02*
X135112381Y-110790952D01*
X135112381Y-110981429D01*
X135064762Y-111076667D01*
X135017143Y-111124286D01*
X134921905Y-111171905D01*
X134636190Y-111171905D01*
X134540952Y-111124286D01*
X134493333Y-111076667D01*
X134445714Y-110981429D01*
X134445714Y-110790952D01*
X134493333Y-110695714D01*
X135017143Y-110219524D02*
X135064762Y-110171905D01*
X135112381Y-110219524D01*
X135064762Y-110267143D01*
X135017143Y-110219524D01*
X135112381Y-110219524D01*
X134445714Y-109886191D02*
X134445714Y-109505239D01*
X134112381Y-109743334D02*
X134969524Y-109743334D01*
X135064762Y-109695715D01*
X135112381Y-109600477D01*
X135112381Y-109505239D01*
X135064762Y-108790952D02*
X135112381Y-108886190D01*
X135112381Y-109076667D01*
X135064762Y-109171905D01*
X134969524Y-109219524D01*
X134588571Y-109219524D01*
X134493333Y-109171905D01*
X134445714Y-109076667D01*
X134445714Y-108886190D01*
X134493333Y-108790952D01*
X134588571Y-108743333D01*
X134683810Y-108743333D01*
X134779048Y-109219524D01*
X135064762Y-107886190D02*
X135112381Y-107981428D01*
X135112381Y-108171905D01*
X135064762Y-108267143D01*
X135017143Y-108314762D01*
X134921905Y-108362381D01*
X134636190Y-108362381D01*
X134540952Y-108314762D01*
X134493333Y-108267143D01*
X134445714Y-108171905D01*
X134445714Y-107981428D01*
X134493333Y-107886190D01*
X135112381Y-107457619D02*
X134112381Y-107457619D01*
X135112381Y-107029047D02*
X134588571Y-107029047D01*
X134493333Y-107076666D01*
X134445714Y-107171904D01*
X134445714Y-107314762D01*
X134493333Y-107410000D01*
X134540952Y-107457619D01*
X134064762Y-105838571D02*
X135350476Y-106695714D01*
X135064762Y-105552857D02*
X135112381Y-105457619D01*
X135112381Y-105267143D01*
X135064762Y-105171904D01*
X134969524Y-105124285D01*
X134921905Y-105124285D01*
X134826667Y-105171904D01*
X134779048Y-105267143D01*
X134779048Y-105410000D01*
X134731429Y-105505238D01*
X134636190Y-105552857D01*
X134588571Y-105552857D01*
X134493333Y-105505238D01*
X134445714Y-105410000D01*
X134445714Y-105267143D01*
X134493333Y-105171904D01*
X134445714Y-104695714D02*
X135445714Y-104695714D01*
X134493333Y-104695714D02*
X134445714Y-104600476D01*
X134445714Y-104409999D01*
X134493333Y-104314761D01*
X134540952Y-104267142D01*
X134636190Y-104219523D01*
X134921905Y-104219523D01*
X135017143Y-104267142D01*
X135064762Y-104314761D01*
X135112381Y-104409999D01*
X135112381Y-104600476D01*
X135064762Y-104695714D01*
X135064762Y-103362380D02*
X135112381Y-103457618D01*
X135112381Y-103648095D01*
X135064762Y-103743333D01*
X135017143Y-103790952D01*
X134921905Y-103838571D01*
X134636190Y-103838571D01*
X134540952Y-103790952D01*
X134493333Y-103743333D01*
X134445714Y-103648095D01*
X134445714Y-103457618D01*
X134493333Y-103362380D01*
X135112381Y-102933809D02*
X134445714Y-102933809D01*
X134636190Y-102933809D02*
X134540952Y-102886190D01*
X134493333Y-102838571D01*
X134445714Y-102743333D01*
X134445714Y-102648094D01*
X134064762Y-101600475D02*
X135350476Y-102457618D01*
X134445714Y-101362380D02*
X135112381Y-101124285D01*
X134445714Y-100886189D01*
X134445714Y-100076665D02*
X135112381Y-100076665D01*
X134064762Y-100314761D02*
X134779048Y-100552856D01*
X134779048Y-99933808D01*
D10*
G36*
X133380592Y-111866309D02*
X131867505Y-111866309D01*
X131683111Y-111509436D01*
X131689473Y-111520603D01*
X131696274Y-111531094D01*
X131703514Y-111540908D01*
X131711193Y-111550045D01*
X131719311Y-111558506D01*
X131727867Y-111566289D01*
X131736862Y-111573396D01*
X131746296Y-111579826D01*
X131756169Y-111585579D01*
X131766481Y-111590655D01*
X131777231Y-111595055D01*
X131788420Y-111598777D01*
X131800048Y-111601823D01*
X131812115Y-111604192D01*
X131824621Y-111605884D01*
X131837565Y-111606899D01*
X131850948Y-111607238D01*
X132578554Y-111607238D01*
X132578536Y-111607238D01*
X132584639Y-111590986D01*
X132590394Y-111574692D01*
X132595800Y-111558355D01*
X132600857Y-111541976D01*
X132605565Y-111525555D01*
X132609925Y-111509091D01*
X132613936Y-111492584D01*
X132617598Y-111476035D01*
X132620911Y-111459443D01*
X132623876Y-111442809D01*
X132626492Y-111426132D01*
X132628759Y-111409412D01*
X132630677Y-111392651D01*
X132632246Y-111375846D01*
X132633467Y-111358999D01*
X132634339Y-111342110D01*
X132634862Y-111325178D01*
X132635037Y-111308203D01*
X132634832Y-111289234D01*
X132634219Y-111270911D01*
X132633197Y-111253235D01*
X132631766Y-111236205D01*
X132629926Y-111219822D01*
X132627678Y-111204085D01*
X132625021Y-111188994D01*
X132621954Y-111174551D01*
X132618479Y-111160753D01*
X132613867Y-111145293D01*
X132608309Y-111129920D01*
X132601805Y-111114632D01*
X132594354Y-111099430D01*
X132585958Y-111084315D01*
X132576615Y-111069286D01*
X132566327Y-111054343D01*
X132555092Y-111039486D01*
X132546138Y-111028951D01*
X132536319Y-111018895D01*
X132525635Y-111009317D01*
X132514085Y-111000217D01*
X132501671Y-110991596D01*
X132488391Y-110983453D01*
X132474246Y-110975789D01*
X132459236Y-110968602D01*
X132443360Y-110961894D01*
X132426620Y-110955665D01*
X132409014Y-110949913D01*
X132395368Y-110945828D01*
X132381256Y-110942025D01*
X132366679Y-110938503D01*
X132351636Y-110935263D01*
X132336128Y-110932305D01*
X132320154Y-110929629D01*
X132303715Y-110927234D01*
X132286811Y-110925121D01*
X132269441Y-110923290D01*
X132251605Y-110921740D01*
X132233304Y-110920472D01*
X132214538Y-110919486D01*
X132195307Y-110918782D01*
X132175609Y-110918359D01*
X132155447Y-110918218D01*
X132135171Y-110918342D01*
X132115337Y-110918714D01*
X132095943Y-110919333D01*
X132076991Y-110920199D01*
X132058481Y-110921314D01*
X132040411Y-110922676D01*
X132022783Y-110924285D01*
X132005596Y-110926142D01*
X131988851Y-110928247D01*
X131972546Y-110930599D01*
X131956683Y-110933199D01*
X131941261Y-110936047D01*
X131926281Y-110939142D01*
X131911742Y-110942485D01*
X131897644Y-110946075D01*
X131883987Y-110949913D01*
X131864680Y-110955653D01*
X131846353Y-110961849D01*
X131829007Y-110968500D01*
X131812640Y-110975606D01*
X131797253Y-110983168D01*
X131782846Y-110991186D01*
X131769419Y-110999659D01*
X131756972Y-111008588D01*
X131745504Y-111017972D01*
X131735017Y-111027812D01*
X131725510Y-111038108D01*
X131713601Y-111052556D01*
X131702684Y-111066960D01*
X131692757Y-111081322D01*
X131683821Y-111095641D01*
X131675875Y-111109916D01*
X131668920Y-111124149D01*
X131662956Y-111138339D01*
X131657983Y-111152485D01*
X131653794Y-111166868D01*
X131650163Y-111181768D01*
X131647091Y-111197185D01*
X131644578Y-111213119D01*
X131642623Y-111229569D01*
X131641226Y-111246536D01*
X131640388Y-111264020D01*
X131640109Y-111282021D01*
X131640329Y-111302664D01*
X131640987Y-111322630D01*
X131642084Y-111341920D01*
X131643619Y-111360533D01*
X131645594Y-111378469D01*
X131648007Y-111395728D01*
X131650859Y-111412310D01*
X131654150Y-111428216D01*
X131657880Y-111443445D01*
X131662049Y-111457996D01*
X131666656Y-111471871D01*
X131671702Y-111485070D01*
X131677187Y-111497591D01*
X131683111Y-111509436D01*
X131867505Y-111866309D01*
X131852385Y-111866079D01*
X131837341Y-111865390D01*
X131822373Y-111864242D01*
X131807482Y-111862634D01*
X131792666Y-111860567D01*
X131777928Y-111858040D01*
X131764457Y-111855172D01*
X131750029Y-111851291D01*
X131734646Y-111846398D01*
X131718307Y-111840492D01*
X131701012Y-111833573D01*
X131682760Y-111825643D01*
X131663552Y-111816699D01*
X131648445Y-111808754D01*
X131633747Y-111800231D01*
X131619457Y-111791129D01*
X131605575Y-111781449D01*
X131592101Y-111771190D01*
X131579036Y-111760353D01*
X131566379Y-111748937D01*
X131554131Y-111736943D01*
X131542291Y-111724371D01*
X131533666Y-111714323D01*
X131525253Y-111703471D01*
X131517050Y-111691815D01*
X131509058Y-111679355D01*
X131501277Y-111666091D01*
X131493706Y-111652024D01*
X131486347Y-111637152D01*
X131479199Y-111621477D01*
X131472261Y-111604998D01*
X131465534Y-111587715D01*
X131459018Y-111569629D01*
X131452714Y-111550738D01*
X131448041Y-111536123D01*
X131443669Y-111521218D01*
X131439599Y-111506022D01*
X131435831Y-111490535D01*
X131432364Y-111474757D01*
X131429198Y-111458689D01*
X131426334Y-111442331D01*
X131423772Y-111425681D01*
X131421511Y-111408741D01*
X131419551Y-111391510D01*
X131417893Y-111373988D01*
X131416536Y-111356176D01*
X131415481Y-111338073D01*
X131414727Y-111319680D01*
X131414275Y-111300995D01*
X131414124Y-111282021D01*
X131414294Y-111264616D01*
X131414803Y-111247314D01*
X131415650Y-111230114D01*
X131416837Y-111213017D01*
X131418364Y-111196021D01*
X131420229Y-111179127D01*
X131422433Y-111162335D01*
X131424977Y-111145646D01*
X131427859Y-111129058D01*
X131430642Y-111115175D01*
X131433996Y-111101088D01*
X131437920Y-111086795D01*
X131442416Y-111072297D01*
X131447483Y-111057594D01*
X131453120Y-111042686D01*
X131459329Y-111027573D01*
X131466108Y-111012255D01*
X131473459Y-110996732D01*
X131481380Y-110981005D01*
X131489873Y-110965072D01*
X131498114Y-110950315D01*
X131506757Y-110935903D01*
X131515801Y-110921836D01*
X131525247Y-110908113D01*
X131535094Y-110894734D01*
X131545344Y-110881700D01*
X131555994Y-110869011D01*
X131567047Y-110856666D01*
X131578501Y-110844666D01*
X131590357Y-110833010D01*
X131602614Y-110821698D01*
X131615274Y-110810731D01*
X131625846Y-110802194D01*
X131636981Y-110793852D01*
X131648680Y-110785706D01*
X131660943Y-110777757D01*
X131673769Y-110770003D01*
X131687158Y-110762445D01*
X131701111Y-110755083D01*
X131715627Y-110747917D01*
X131730707Y-110740948D01*
X131746350Y-110734174D01*
X131762557Y-110727596D01*
X131779327Y-110721214D01*
X131796660Y-110715028D01*
X131814557Y-110709038D01*
X131833017Y-110703245D01*
X131847789Y-110698725D01*
X131862806Y-110694450D01*
X131878066Y-110690418D01*
X131893571Y-110686632D01*
X131909321Y-110683089D01*
X131925314Y-110679791D01*
X131941552Y-110676737D01*
X131958035Y-110673928D01*
X131974761Y-110671363D01*
X131991732Y-110669042D01*
X132008947Y-110666965D01*
X132026407Y-110665133D01*
X132044111Y-110663545D01*
X132062059Y-110662201D01*
X132080252Y-110661102D01*
X132098689Y-110660247D01*
X132117370Y-110659636D01*
X132136296Y-110659269D01*
X132155466Y-110659147D01*
X132175277Y-110659279D01*
X132194814Y-110659672D01*
X132214075Y-110660328D01*
X132233062Y-110661247D01*
X132251773Y-110662428D01*
X132270210Y-110663872D01*
X132288371Y-110665578D01*
X132306258Y-110667547D01*
X132323869Y-110669778D01*
X132341206Y-110672271D01*
X132358267Y-110675028D01*
X132375054Y-110678046D01*
X132391565Y-110681327D01*
X132407802Y-110684871D01*
X132423763Y-110688677D01*
X132439449Y-110692745D01*
X132454861Y-110697076D01*
X132469997Y-110701670D01*
X132484859Y-110706526D01*
X132499445Y-110711644D01*
X132513756Y-110717025D01*
X132531892Y-110724260D01*
X132549435Y-110731839D01*
X132566386Y-110739763D01*
X132582745Y-110748031D01*
X132598513Y-110756643D01*
X132613688Y-110765601D01*
X132628271Y-110774902D01*
X132642261Y-110784549D01*
X132655660Y-110794540D01*
X132668467Y-110804875D01*
X132680682Y-110815555D01*
X132692304Y-110826579D01*
X132703335Y-110837948D01*
X132713773Y-110849661D01*
X132723619Y-110861719D01*
X132732874Y-110874121D01*
X132742905Y-110888513D01*
X132752529Y-110902948D01*
X132761745Y-110917424D01*
X132770554Y-110931943D01*
X132778955Y-110946503D01*
X132786948Y-110961106D01*
X132794534Y-110975752D01*
X132801713Y-110990439D01*
X132808483Y-111005168D01*
X132814847Y-111019940D01*
X132820802Y-111034754D01*
X132826350Y-111049610D01*
X132831491Y-111064508D01*
X132836223Y-111079449D01*
X132840399Y-111094326D01*
X132844265Y-111109428D01*
X132847822Y-111124755D01*
X132851069Y-111140308D01*
X132854008Y-111156085D01*
X132856637Y-111172087D01*
X132858956Y-111188314D01*
X132860967Y-111204766D01*
X132862668Y-111221443D01*
X132864060Y-111238345D01*
X132865142Y-111255472D01*
X132865915Y-111272824D01*
X132866379Y-111290401D01*
X132866534Y-111308203D01*
X132866406Y-111325467D01*
X132866024Y-111342654D01*
X132865386Y-111359765D01*
X132864493Y-111376799D01*
X132863344Y-111393756D01*
X132861941Y-111410637D01*
X132860283Y-111427442D01*
X132858369Y-111444170D01*
X132856200Y-111460821D01*
X132853776Y-111477396D01*
X132851097Y-111493894D01*
X132848162Y-111510316D01*
X132844973Y-111526661D01*
X132841528Y-111542929D01*
X132837828Y-111559121D01*
X132833873Y-111575236D01*
X132829663Y-111591275D01*
X132825198Y-111607238D01*
X133380555Y-111607238D01*
X133380555Y-111866309D01*
X133380592Y-111866309D01*
X133380592Y-111866309D01*
G37*
G36*
X132506908Y-110307747D02*
X131881277Y-110076237D01*
X131894245Y-110079908D01*
X131907654Y-110083343D01*
X131921505Y-110086540D01*
X131935797Y-110089501D01*
X131950530Y-110092224D01*
X131965705Y-110094711D01*
X131981321Y-110096961D01*
X131997379Y-110098975D01*
X132013878Y-110100751D01*
X132030818Y-110102291D01*
X132048200Y-110103593D01*
X132066024Y-110104659D01*
X132084288Y-110105488D01*
X132102994Y-110106080D01*
X132122142Y-110106435D01*
X132141731Y-110106554D01*
X132161325Y-110106435D01*
X132180489Y-110106080D01*
X132199222Y-110105488D01*
X132217524Y-110104659D01*
X132235396Y-110103593D01*
X132252836Y-110102291D01*
X132269847Y-110100751D01*
X132286426Y-110098975D01*
X132302575Y-110096961D01*
X132318293Y-110094711D01*
X132333581Y-110092224D01*
X132348437Y-110089501D01*
X132362864Y-110086540D01*
X132376859Y-110083343D01*
X132390424Y-110079908D01*
X132403558Y-110076237D01*
X132421666Y-110070224D01*
X132438909Y-110063709D01*
X132455287Y-110056694D01*
X132470799Y-110049177D01*
X132485445Y-110041160D01*
X132499226Y-110032641D01*
X132512142Y-110023621D01*
X132524192Y-110014100D01*
X132535376Y-110004078D01*
X132545695Y-109993555D01*
X132555149Y-109982530D01*
X132565762Y-109968733D01*
X132575559Y-109954902D01*
X132584540Y-109941036D01*
X132592704Y-109927137D01*
X132600052Y-109913203D01*
X132606584Y-109899236D01*
X132612300Y-109885234D01*
X132617200Y-109871198D01*
X132621283Y-109857129D01*
X132624758Y-109842719D01*
X132627824Y-109827663D01*
X132630481Y-109811960D01*
X132632730Y-109795611D01*
X132634569Y-109778615D01*
X132636000Y-109760972D01*
X132637022Y-109742684D01*
X132637636Y-109723748D01*
X132637840Y-109704167D01*
X132637636Y-109684296D01*
X132637022Y-109665105D01*
X132636000Y-109646595D01*
X132634569Y-109628766D01*
X132632730Y-109611617D01*
X132630481Y-109595149D01*
X132627824Y-109579361D01*
X132624758Y-109564253D01*
X132621283Y-109549826D01*
X132617196Y-109535757D01*
X132612294Y-109521721D01*
X132606576Y-109507720D01*
X132600043Y-109493752D01*
X132592695Y-109479819D01*
X132584531Y-109465919D01*
X132575552Y-109452054D01*
X132565758Y-109438222D01*
X132555149Y-109424425D01*
X132545695Y-109413412D01*
X132535376Y-109402923D01*
X132524192Y-109392958D01*
X132512142Y-109383517D01*
X132499226Y-109374599D01*
X132485445Y-109366206D01*
X132470799Y-109358336D01*
X132455287Y-109350990D01*
X132438909Y-109344168D01*
X132421666Y-109337870D01*
X132403558Y-109332096D01*
X132390424Y-109328258D01*
X132376859Y-109324668D01*
X132362864Y-109321325D01*
X132348437Y-109318230D01*
X132333581Y-109315382D01*
X132318293Y-109312782D01*
X132302575Y-109310430D01*
X132286426Y-109308325D01*
X132269847Y-109306468D01*
X132252836Y-109304859D01*
X132235396Y-109303497D01*
X132217524Y-109302382D01*
X132199222Y-109301516D01*
X132180489Y-109300897D01*
X132161325Y-109300525D01*
X132141731Y-109300402D01*
X132122142Y-109300525D01*
X132102994Y-109300897D01*
X132084288Y-109301516D01*
X132066024Y-109302382D01*
X132048200Y-109303497D01*
X132030818Y-109304859D01*
X132013878Y-109306468D01*
X131997379Y-109308325D01*
X131981321Y-109310430D01*
X131965705Y-109312782D01*
X131950530Y-109315382D01*
X131935797Y-109318230D01*
X131921505Y-109321325D01*
X131907654Y-109324668D01*
X131894245Y-109328258D01*
X131881277Y-109332096D01*
X131862931Y-109337870D01*
X131845472Y-109344168D01*
X131828902Y-109350990D01*
X131813219Y-109358336D01*
X131798425Y-109366206D01*
X131784520Y-109374599D01*
X131771502Y-109383517D01*
X131759372Y-109392958D01*
X131748131Y-109402923D01*
X131737778Y-109413412D01*
X131728313Y-109424425D01*
X131717700Y-109438222D01*
X131707903Y-109452054D01*
X131698922Y-109465919D01*
X131690758Y-109479819D01*
X131683409Y-109493752D01*
X131676877Y-109507720D01*
X131671162Y-109521721D01*
X131666262Y-109535757D01*
X131662179Y-109549826D01*
X131658704Y-109564253D01*
X131655638Y-109579361D01*
X131652981Y-109595149D01*
X131650732Y-109611617D01*
X131648892Y-109628766D01*
X131647462Y-109646595D01*
X131646439Y-109665105D01*
X131645826Y-109684296D01*
X131645622Y-109704167D01*
X131645826Y-109723748D01*
X131646439Y-109742684D01*
X131647462Y-109760972D01*
X131648892Y-109778615D01*
X131650732Y-109795611D01*
X131652981Y-109811960D01*
X131655638Y-109827663D01*
X131658704Y-109842719D01*
X131662179Y-109857129D01*
X131666266Y-109871198D01*
X131671168Y-109885234D01*
X131676886Y-109899236D01*
X131683419Y-109913203D01*
X131690767Y-109927137D01*
X131698931Y-109941036D01*
X131707909Y-109954902D01*
X131717704Y-109968733D01*
X131728313Y-109982530D01*
X131737778Y-109993555D01*
X131748131Y-110004078D01*
X131759372Y-110014100D01*
X131771502Y-110023621D01*
X131784520Y-110032641D01*
X131798425Y-110041160D01*
X131813219Y-110049177D01*
X131828902Y-110056694D01*
X131845472Y-110063709D01*
X131862931Y-110070224D01*
X131881277Y-110076237D01*
X132506908Y-110307747D01*
X132493119Y-110313012D01*
X132479063Y-110318031D01*
X132464740Y-110322806D01*
X132450148Y-110327336D01*
X132435289Y-110331621D01*
X132420163Y-110335661D01*
X132404768Y-110339457D01*
X132389106Y-110343007D01*
X132373177Y-110346313D01*
X132356979Y-110349373D01*
X132340514Y-110352189D01*
X132323781Y-110354760D01*
X132306781Y-110357086D01*
X132289513Y-110359168D01*
X132271977Y-110361004D01*
X132254173Y-110362596D01*
X132236102Y-110363942D01*
X132217763Y-110365044D01*
X132199157Y-110365901D01*
X132180282Y-110366513D01*
X132161141Y-110366881D01*
X132141731Y-110367003D01*
X132122324Y-110366881D01*
X132103191Y-110366513D01*
X132084331Y-110365901D01*
X132065744Y-110365044D01*
X132047431Y-110363942D01*
X132029391Y-110362596D01*
X132011624Y-110361004D01*
X131994131Y-110359168D01*
X131976911Y-110357086D01*
X131959964Y-110354760D01*
X131943291Y-110352189D01*
X131926891Y-110349373D01*
X131910765Y-110346313D01*
X131894912Y-110343007D01*
X131879332Y-110339457D01*
X131864025Y-110335661D01*
X131848992Y-110331621D01*
X131834233Y-110327336D01*
X131819746Y-110322806D01*
X131805533Y-110318031D01*
X131791594Y-110313012D01*
X131777928Y-110307747D01*
X131760519Y-110300628D01*
X131743635Y-110293214D01*
X131727276Y-110285503D01*
X131711441Y-110277497D01*
X131696130Y-110269196D01*
X131681343Y-110260599D01*
X131667081Y-110251706D01*
X131653343Y-110242517D01*
X131640130Y-110233033D01*
X131627440Y-110223253D01*
X131615276Y-110213178D01*
X131603635Y-110202807D01*
X131592519Y-110192140D01*
X131581927Y-110181178D01*
X131571860Y-110169920D01*
X131562316Y-110158366D01*
X131553298Y-110146517D01*
X131542892Y-110131928D01*
X131532937Y-110117297D01*
X131523432Y-110102624D01*
X131514376Y-110087908D01*
X131505771Y-110073150D01*
X131497616Y-110058351D01*
X131489910Y-110043509D01*
X131482655Y-110028624D01*
X131475850Y-110013698D01*
X131469495Y-109998729D01*
X131463590Y-109983719D01*
X131458135Y-109968666D01*
X131453129Y-109953570D01*
X131448574Y-109938433D01*
X131444210Y-109922979D01*
X131440168Y-109907329D01*
X131436450Y-109891481D01*
X131433056Y-109875437D01*
X131429984Y-109859196D01*
X131427236Y-109842758D01*
X131424811Y-109826123D01*
X131422710Y-109809291D01*
X131420932Y-109792263D01*
X131419477Y-109775037D01*
X131418345Y-109757615D01*
X131417537Y-109739996D01*
X131417052Y-109722180D01*
X131416890Y-109704167D01*
X131417052Y-109685971D01*
X131417537Y-109668000D01*
X131418345Y-109650254D01*
X131419477Y-109632734D01*
X131420932Y-109615438D01*
X131422710Y-109598367D01*
X131424811Y-109581521D01*
X131427236Y-109564900D01*
X131429984Y-109548505D01*
X131433056Y-109532334D01*
X131436450Y-109516388D01*
X131440168Y-109500667D01*
X131444210Y-109485171D01*
X131448574Y-109469900D01*
X131453129Y-109454573D01*
X131458135Y-109439302D01*
X131463590Y-109424087D01*
X131469495Y-109408929D01*
X131475850Y-109393827D01*
X131482655Y-109378781D01*
X131489910Y-109363791D01*
X131497616Y-109348858D01*
X131505771Y-109333981D01*
X131514376Y-109319160D01*
X131523432Y-109304395D01*
X131532937Y-109289687D01*
X131542892Y-109275034D01*
X131553298Y-109260438D01*
X131562316Y-109248589D01*
X131571860Y-109237036D01*
X131581927Y-109225778D01*
X131592519Y-109214815D01*
X131603635Y-109204149D01*
X131615276Y-109193778D01*
X131627440Y-109183702D01*
X131640130Y-109173922D01*
X131653343Y-109164438D01*
X131667081Y-109155250D01*
X131681343Y-109146357D01*
X131696130Y-109137760D01*
X131711441Y-109129458D01*
X131727276Y-109121452D01*
X131743635Y-109113742D01*
X131760519Y-109106327D01*
X131777928Y-109099208D01*
X131791594Y-109093943D01*
X131805533Y-109088924D01*
X131819746Y-109084149D01*
X131834233Y-109079619D01*
X131848992Y-109075334D01*
X131864025Y-109071294D01*
X131879332Y-109067499D01*
X131894912Y-109063948D01*
X131910765Y-109060643D01*
X131926891Y-109057582D01*
X131943291Y-109054766D01*
X131959964Y-109052195D01*
X131976911Y-109049869D01*
X131994131Y-109047788D01*
X132011624Y-109045951D01*
X132029391Y-109044360D01*
X132047431Y-109043013D01*
X132065744Y-109041911D01*
X132084331Y-109041054D01*
X132103191Y-109040442D01*
X132122324Y-109040075D01*
X132141731Y-109039952D01*
X132161141Y-109040075D01*
X132180282Y-109040442D01*
X132199157Y-109041054D01*
X132217763Y-109041911D01*
X132236102Y-109043013D01*
X132254173Y-109044360D01*
X132271977Y-109045951D01*
X132289513Y-109047788D01*
X132306781Y-109049869D01*
X132323781Y-109052195D01*
X132340514Y-109054766D01*
X132356979Y-109057582D01*
X132373177Y-109060643D01*
X132389106Y-109063948D01*
X132404768Y-109067499D01*
X132420163Y-109071294D01*
X132435289Y-109075334D01*
X132450148Y-109079619D01*
X132464740Y-109084149D01*
X132479063Y-109088924D01*
X132493119Y-109093943D01*
X132506908Y-109099208D01*
X132524159Y-109106327D01*
X132540895Y-109113742D01*
X132557117Y-109121452D01*
X132572823Y-109129458D01*
X132588015Y-109137760D01*
X132602691Y-109146357D01*
X132616853Y-109155250D01*
X132630499Y-109164438D01*
X132643631Y-109173922D01*
X132656248Y-109183702D01*
X132668349Y-109193778D01*
X132679936Y-109204149D01*
X132691008Y-109214815D01*
X132701565Y-109225778D01*
X132711607Y-109237036D01*
X132721133Y-109248589D01*
X132730145Y-109260438D01*
X132740558Y-109275034D01*
X132750535Y-109289687D01*
X132760075Y-109304395D01*
X132769180Y-109319160D01*
X132777850Y-109333981D01*
X132786083Y-109348858D01*
X132793881Y-109363791D01*
X132801242Y-109378781D01*
X132808168Y-109393827D01*
X132814658Y-109408929D01*
X132820713Y-109424087D01*
X132826331Y-109439302D01*
X132831514Y-109454573D01*
X132836261Y-109469900D01*
X132840436Y-109485171D01*
X132844303Y-109500667D01*
X132847859Y-109516388D01*
X132851107Y-109532334D01*
X132854045Y-109548505D01*
X132856674Y-109564900D01*
X132858994Y-109581521D01*
X132861004Y-109598367D01*
X132862705Y-109615438D01*
X132864097Y-109632734D01*
X132865180Y-109650254D01*
X132865953Y-109668000D01*
X132866417Y-109685971D01*
X132866572Y-109704167D01*
X132866417Y-109722180D01*
X132865953Y-109739996D01*
X132865180Y-109757615D01*
X132864097Y-109775037D01*
X132862705Y-109792263D01*
X132861004Y-109809291D01*
X132858994Y-109826123D01*
X132856674Y-109842758D01*
X132854045Y-109859196D01*
X132851107Y-109875437D01*
X132847859Y-109891481D01*
X132844303Y-109907329D01*
X132840436Y-109922979D01*
X132836261Y-109938433D01*
X132831514Y-109953570D01*
X132826331Y-109968666D01*
X132820713Y-109983719D01*
X132814658Y-109998729D01*
X132808168Y-110013698D01*
X132801242Y-110028624D01*
X132793881Y-110043509D01*
X132786083Y-110058351D01*
X132777850Y-110073150D01*
X132769180Y-110087908D01*
X132760075Y-110102624D01*
X132750535Y-110117297D01*
X132740558Y-110131928D01*
X132730145Y-110146517D01*
X132721133Y-110158366D01*
X132711607Y-110169920D01*
X132701565Y-110181178D01*
X132691008Y-110192140D01*
X132679936Y-110202807D01*
X132668349Y-110213178D01*
X132656248Y-110223253D01*
X132643631Y-110233033D01*
X132630499Y-110242517D01*
X132616853Y-110251706D01*
X132602691Y-110260599D01*
X132588015Y-110269196D01*
X132572823Y-110277497D01*
X132557117Y-110285503D01*
X132540895Y-110293214D01*
X132524159Y-110300628D01*
X132506908Y-110307747D01*
X132506908Y-110307747D01*
G37*
G36*
X132844521Y-108665126D02*
X130900122Y-108665126D01*
X130900122Y-108406055D01*
X132844521Y-108406055D01*
X132844521Y-108665126D01*
X132844521Y-108665126D01*
G37*
G36*
X131436175Y-108097374D02*
X131436175Y-107820388D01*
X132491743Y-107441428D01*
X131436175Y-107069358D01*
X131436175Y-106792372D01*
X132994738Y-107371148D01*
X133014260Y-107378556D01*
X133033300Y-107386127D01*
X133051858Y-107393860D01*
X133069934Y-107401755D01*
X133087527Y-107409813D01*
X133104639Y-107418032D01*
X133121269Y-107426415D01*
X133137417Y-107434959D01*
X133153082Y-107443666D01*
X133168266Y-107452535D01*
X133182968Y-107461567D01*
X133197187Y-107470760D01*
X133210925Y-107480116D01*
X133224181Y-107489635D01*
X133236954Y-107499315D01*
X133249246Y-107509158D01*
X133261055Y-107519164D01*
X133272383Y-107529331D01*
X133283228Y-107539661D01*
X133293592Y-107550154D01*
X133303473Y-107560808D01*
X133312873Y-107571625D01*
X133321790Y-107582604D01*
X133330225Y-107593746D01*
X133338179Y-107605050D01*
X133345650Y-107616516D01*
X133352639Y-107628144D01*
X133359147Y-107639935D01*
X133365172Y-107651888D01*
X133370715Y-107664004D01*
X133375776Y-107676281D01*
X133380356Y-107688721D01*
X133384453Y-107701324D01*
X133388068Y-107714089D01*
X133391201Y-107727016D01*
X133393852Y-107740105D01*
X133396021Y-107753356D01*
X133397708Y-107766770D01*
X133398913Y-107780347D01*
X133399637Y-107794085D01*
X133399878Y-107807986D01*
X133399878Y-107809360D01*
X133399724Y-107825044D01*
X133399265Y-107840863D01*
X133398499Y-107856816D01*
X133397427Y-107872902D01*
X133396049Y-107889123D01*
X133394365Y-107905478D01*
X133392374Y-107921966D01*
X133390077Y-107938589D01*
X133387474Y-107955346D01*
X133384564Y-107972236D01*
X133381349Y-107989261D01*
X133377827Y-108006419D01*
X133146310Y-108006419D01*
X133150514Y-107989704D01*
X133154304Y-107973181D01*
X133157682Y-107956851D01*
X133160646Y-107940714D01*
X133163197Y-107924770D01*
X133165334Y-107909019D01*
X133167059Y-107893461D01*
X133168370Y-107878096D01*
X133169268Y-107862924D01*
X133169754Y-107847945D01*
X133169392Y-107836352D01*
X133168308Y-107824910D01*
X133166501Y-107813618D01*
X133163972Y-107802476D01*
X133160719Y-107791483D01*
X133156744Y-107780641D01*
X133152046Y-107769949D01*
X133146626Y-107759407D01*
X133140483Y-107749015D01*
X133133617Y-107738773D01*
X133126028Y-107728682D01*
X133117716Y-107718740D01*
X133108682Y-107708948D01*
X133098925Y-107699306D01*
X133088445Y-107689815D01*
X133077243Y-107680473D01*
X133065318Y-107671282D01*
X133052670Y-107662240D01*
X133039299Y-107653349D01*
X133025206Y-107644608D01*
X133010389Y-107636016D01*
X132994851Y-107627575D01*
X132978589Y-107619284D01*
X132961604Y-107611143D01*
X132943897Y-107603152D01*
X132925468Y-107595311D01*
X132906315Y-107587620D01*
X132886440Y-107580079D01*
X132865841Y-107572688D01*
X132844521Y-107565447D01*
X131436175Y-108097370D01*
X131436175Y-108097374D01*
X131436175Y-108097374D01*
G37*
G36*
X131834429Y-106604959D02*
X131817058Y-106604649D01*
X131799949Y-106603718D01*
X131783102Y-106602168D01*
X131766518Y-106599998D01*
X131750195Y-106597207D01*
X131734134Y-106593797D01*
X131718334Y-106589766D01*
X131702797Y-106585115D01*
X131687522Y-106579844D01*
X131672508Y-106573953D01*
X131657757Y-106567442D01*
X131643267Y-106560310D01*
X131629039Y-106552559D01*
X131615073Y-106544187D01*
X131601369Y-106535195D01*
X131587927Y-106525584D01*
X131574747Y-106515352D01*
X131561829Y-106504500D01*
X131549173Y-106493028D01*
X131536778Y-106480935D01*
X131527162Y-106470694D01*
X131517939Y-106460033D01*
X131509107Y-106448954D01*
X131500669Y-106437455D01*
X131492623Y-106425538D01*
X131484969Y-106413202D01*
X131477708Y-106400447D01*
X131470839Y-106387273D01*
X131464363Y-106373680D01*
X131458280Y-106359668D01*
X131452589Y-106345237D01*
X131447290Y-106330387D01*
X131442384Y-106315119D01*
X131437870Y-106299431D01*
X131433749Y-106283325D01*
X131430020Y-106266799D01*
X131426684Y-106249855D01*
X131423740Y-106232492D01*
X131421189Y-106214709D01*
X131419031Y-106196508D01*
X131417264Y-106177888D01*
X131415891Y-106158849D01*
X131414909Y-106139391D01*
X131414321Y-106119514D01*
X131414124Y-106099219D01*
X131414299Y-106082573D01*
X131414822Y-106065948D01*
X131415695Y-106049344D01*
X131416917Y-106032760D01*
X131418488Y-106016198D01*
X131420407Y-105999656D01*
X131422676Y-105983135D01*
X131425294Y-105966635D01*
X131428261Y-105950156D01*
X131431577Y-105933698D01*
X131435242Y-105917260D01*
X131439256Y-105900844D01*
X131443619Y-105884448D01*
X131448331Y-105868073D01*
X131453393Y-105851719D01*
X131458803Y-105835386D01*
X131464562Y-105819073D01*
X131470671Y-105802782D01*
X131477128Y-105786511D01*
X131483935Y-105770261D01*
X131491090Y-105754032D01*
X131498595Y-105737824D01*
X131506449Y-105721636D01*
X131729686Y-105721636D01*
X131721873Y-105739045D01*
X131714440Y-105756359D01*
X131707389Y-105773580D01*
X131700718Y-105790707D01*
X131694429Y-105807740D01*
X131688521Y-105824680D01*
X131682994Y-105841526D01*
X131677849Y-105858278D01*
X131673084Y-105874936D01*
X131668701Y-105891501D01*
X131664699Y-105907971D01*
X131661078Y-105924348D01*
X131657838Y-105940632D01*
X131654979Y-105956821D01*
X131652502Y-105972917D01*
X131650405Y-105988919D01*
X131648690Y-106004828D01*
X131647356Y-106020642D01*
X131646403Y-106036363D01*
X131645831Y-106051990D01*
X131645641Y-106067524D01*
X131645888Y-106087862D01*
X131646631Y-106107432D01*
X131647869Y-106126235D01*
X131649602Y-106144271D01*
X131651831Y-106161539D01*
X131654555Y-106178039D01*
X131657774Y-106193772D01*
X131661488Y-106208738D01*
X131665697Y-106222936D01*
X131670402Y-106236367D01*
X131675602Y-106249030D01*
X131681297Y-106260926D01*
X131687487Y-106272054D01*
X131694173Y-106282415D01*
X131701353Y-106292008D01*
X131709029Y-106300834D01*
X131717201Y-106308892D01*
X131725867Y-106316183D01*
X131735029Y-106322707D01*
X131744686Y-106328463D01*
X131754838Y-106333451D01*
X131765485Y-106337672D01*
X131776628Y-106341126D01*
X131788265Y-106343812D01*
X131800398Y-106345731D01*
X131813027Y-106346882D01*
X131826150Y-106347266D01*
X131839082Y-106346347D01*
X131851537Y-106343591D01*
X131863516Y-106338997D01*
X131875018Y-106332566D01*
X131886044Y-106324298D01*
X131896593Y-106314193D01*
X131906665Y-106302250D01*
X131916260Y-106288469D01*
X131925379Y-106272851D01*
X131932327Y-106259071D01*
X131939138Y-106244790D01*
X131945812Y-106230007D01*
X131952350Y-106214723D01*
X131958750Y-106198939D01*
X131965014Y-106182653D01*
X131971140Y-106165866D01*
X131977130Y-106148578D01*
X131982983Y-106130788D01*
X131988700Y-106112498D01*
X131994279Y-106093707D01*
X131998813Y-106077594D01*
X132003509Y-106061482D01*
X132008369Y-106045369D01*
X132013392Y-106029257D01*
X132018579Y-106013144D01*
X132023928Y-105997032D01*
X132029441Y-105980919D01*
X132035117Y-105964807D01*
X132040956Y-105948695D01*
X132046958Y-105932582D01*
X132053124Y-105916470D01*
X132059453Y-105900357D01*
X132065945Y-105884245D01*
X132072145Y-105869248D01*
X132078936Y-105854575D01*
X132086318Y-105840225D01*
X132094290Y-105826198D01*
X132102853Y-105812495D01*
X132112006Y-105799116D01*
X132121750Y-105786060D01*
X132132084Y-105773327D01*
X132143009Y-105760917D01*
X132154524Y-105748831D01*
X132166630Y-105737069D01*
X132179327Y-105725630D01*
X132192614Y-105714514D01*
X132206491Y-105703722D01*
X132219078Y-105694544D01*
X132232031Y-105685958D01*
X132245349Y-105677964D01*
X132259033Y-105670563D01*
X132273083Y-105663753D01*
X132287499Y-105657536D01*
X132302281Y-105651911D01*
X132317428Y-105646878D01*
X132332942Y-105642437D01*
X132348821Y-105638588D01*
X132365066Y-105635331D01*
X132381677Y-105632667D01*
X132398654Y-105630594D01*
X132415997Y-105629114D01*
X132433706Y-105628226D01*
X132451780Y-105627930D01*
X132468613Y-105628250D01*
X132485212Y-105629211D01*
X132501577Y-105630813D01*
X132517707Y-105633056D01*
X132533603Y-105635939D01*
X132549265Y-105639464D01*
X132564693Y-105643629D01*
X132579887Y-105648435D01*
X132594846Y-105653882D01*
X132609571Y-105659969D01*
X132624061Y-105666697D01*
X132638318Y-105674066D01*
X132652340Y-105682076D01*
X132666128Y-105690727D01*
X132679682Y-105700018D01*
X132693001Y-105709950D01*
X132706086Y-105720523D01*
X132718937Y-105731737D01*
X132731554Y-105743592D01*
X132743937Y-105756087D01*
X132753189Y-105766153D01*
X132762078Y-105776635D01*
X132770604Y-105787533D01*
X132778768Y-105798847D01*
X132786569Y-105810577D01*
X132794007Y-105822722D01*
X132801082Y-105835284D01*
X132807794Y-105848261D01*
X132814143Y-105861654D01*
X132820130Y-105875463D01*
X132825754Y-105889688D01*
X132831015Y-105904328D01*
X132835913Y-105919385D01*
X132840448Y-105934857D01*
X132844621Y-105950745D01*
X132848430Y-105967049D01*
X132851877Y-105983769D01*
X132854961Y-106000905D01*
X132857682Y-106018457D01*
X132860041Y-106036424D01*
X132862036Y-106054808D01*
X132863669Y-106073607D01*
X132864939Y-106092822D01*
X132865846Y-106112453D01*
X132866390Y-106132499D01*
X132866572Y-106152962D01*
X132866415Y-106170969D01*
X132865945Y-106188831D01*
X132865163Y-106206547D01*
X132864067Y-106224117D01*
X132862658Y-106241542D01*
X132860936Y-106258822D01*
X132858901Y-106275956D01*
X132856553Y-106292944D01*
X132853892Y-106309787D01*
X132850918Y-106326485D01*
X132847630Y-106343037D01*
X132844030Y-106359443D01*
X132840116Y-106375704D01*
X132835890Y-106391819D01*
X132831350Y-106407789D01*
X132826498Y-106423613D01*
X132821332Y-106439292D01*
X132815853Y-106454825D01*
X132810061Y-106470213D01*
X132803956Y-106485455D01*
X132797538Y-106500552D01*
X132790807Y-106515503D01*
X132783762Y-106530309D01*
X132776405Y-106544969D01*
X132768735Y-106559483D01*
X132534471Y-106559483D01*
X132542904Y-106544170D01*
X132550979Y-106528774D01*
X132558694Y-106513298D01*
X132566050Y-106497740D01*
X132573048Y-106482100D01*
X132579687Y-106466380D01*
X132585967Y-106450578D01*
X132591888Y-106434694D01*
X132597450Y-106418730D01*
X132602653Y-106402684D01*
X132607498Y-106386556D01*
X132611984Y-106370348D01*
X132616110Y-106354058D01*
X132619878Y-106337686D01*
X132623288Y-106321234D01*
X132626338Y-106304700D01*
X132629029Y-106288084D01*
X132631362Y-106271387D01*
X132633335Y-106254609D01*
X132634950Y-106237750D01*
X132636206Y-106220809D01*
X132637103Y-106203787D01*
X132637642Y-106186683D01*
X132637821Y-106169499D01*
X132637821Y-106163986D01*
X132637536Y-106143593D01*
X132636680Y-106123966D01*
X132635253Y-106105105D01*
X132633256Y-106087012D01*
X132630688Y-106069684D01*
X132627549Y-106053123D01*
X132623839Y-106037329D01*
X132619559Y-106022301D01*
X132614709Y-106008039D01*
X132609287Y-105994544D01*
X132603295Y-105981816D01*
X132596732Y-105969854D01*
X132589599Y-105958658D01*
X132579414Y-105945043D01*
X132568706Y-105932861D01*
X132557475Y-105922113D01*
X132545720Y-105912797D01*
X132533441Y-105904915D01*
X132520639Y-105898466D01*
X132507314Y-105893449D01*
X132493466Y-105889867D01*
X132479093Y-105887717D01*
X132464198Y-105887000D01*
X132448696Y-105887615D01*
X132433763Y-105889460D01*
X132419400Y-105892535D01*
X132405606Y-105896840D01*
X132392383Y-105902375D01*
X132379729Y-105909140D01*
X132367645Y-105917135D01*
X132356131Y-105926360D01*
X132345186Y-105936815D01*
X132334811Y-105948499D01*
X132325006Y-105961414D01*
X132316222Y-105973817D01*
X132307783Y-105986678D01*
X132299688Y-105999999D01*
X132291938Y-106013780D01*
X132284532Y-106028020D01*
X132277470Y-106042719D01*
X132270753Y-106057877D01*
X132264380Y-106073495D01*
X132258352Y-106089572D01*
X132252668Y-106106108D01*
X132247329Y-106123104D01*
X132242334Y-106140559D01*
X132237635Y-106156884D01*
X132232872Y-106173208D01*
X132228043Y-106189533D01*
X132223149Y-106205857D01*
X132218191Y-106222182D01*
X132213167Y-106238506D01*
X132208078Y-106254830D01*
X132202925Y-106271155D01*
X132197706Y-106287479D01*
X132192422Y-106303804D01*
X132187073Y-106320128D01*
X132181660Y-106336453D01*
X132176181Y-106352777D01*
X132170178Y-106368710D01*
X132163621Y-106384285D01*
X132156510Y-106399500D01*
X132148845Y-106414357D01*
X132140626Y-106428855D01*
X132131852Y-106442994D01*
X132122524Y-106456774D01*
X132112642Y-106470196D01*
X132102206Y-106483259D01*
X132091216Y-106495963D01*
X132079671Y-106508308D01*
X132067572Y-106520295D01*
X132054919Y-106531922D01*
X132043307Y-106541336D01*
X132031254Y-106550100D01*
X132018760Y-106558215D01*
X132005824Y-106565681D01*
X131992448Y-106572498D01*
X131978631Y-106578665D01*
X131964372Y-106584183D01*
X131949673Y-106589053D01*
X131934532Y-106593272D01*
X131918951Y-106596843D01*
X131902928Y-106599764D01*
X131886465Y-106602037D01*
X131869561Y-106603660D01*
X131852215Y-106604634D01*
X131834429Y-106604958D01*
X131834429Y-106604959D01*
X131834429Y-106604959D01*
G37*
G36*
X131653900Y-105426736D02*
X131436175Y-105426736D01*
X131436175Y-105181445D01*
X131015871Y-105181445D01*
X131015871Y-104923752D01*
X131436175Y-104923752D01*
X131436175Y-104548926D01*
X131653900Y-104548926D01*
X131653900Y-104923752D01*
X132472458Y-104923752D01*
X132487149Y-104923322D01*
X132501157Y-104922032D01*
X132514482Y-104919883D01*
X132527123Y-104916873D01*
X132539081Y-104913004D01*
X132550356Y-104908275D01*
X132560948Y-104902686D01*
X132570856Y-104896237D01*
X132580081Y-104888928D01*
X132588622Y-104880760D01*
X132596480Y-104871731D01*
X132603655Y-104861843D01*
X132610147Y-104851095D01*
X132615955Y-104839487D01*
X132621080Y-104827019D01*
X132625521Y-104813691D01*
X132629280Y-104799504D01*
X132632355Y-104784456D01*
X132634746Y-104768549D01*
X132636454Y-104751782D01*
X132637479Y-104734155D01*
X132637821Y-104715668D01*
X132637821Y-104712912D01*
X132637408Y-104693909D01*
X132636168Y-104675484D01*
X132634101Y-104657639D01*
X132631207Y-104640372D01*
X132627487Y-104623684D01*
X132622940Y-104607575D01*
X132617566Y-104592044D01*
X132611366Y-104577092D01*
X132604339Y-104562720D01*
X132596485Y-104548925D01*
X132828001Y-104548925D01*
X132834162Y-104565002D01*
X132839787Y-104581080D01*
X132844876Y-104597157D01*
X132849429Y-104613234D01*
X132853447Y-104629311D01*
X132856929Y-104645388D01*
X132859875Y-104661465D01*
X132862286Y-104677542D01*
X132864161Y-104693619D01*
X132865500Y-104709696D01*
X132866304Y-104725774D01*
X132866572Y-104741851D01*
X132866572Y-104748741D01*
X132866318Y-104763449D01*
X132865558Y-104778439D01*
X132864291Y-104793710D01*
X132862517Y-104809262D01*
X132860236Y-104825095D01*
X132857448Y-104841210D01*
X132854154Y-104857606D01*
X132851106Y-104870757D01*
X132847480Y-104884486D01*
X132843277Y-104898794D01*
X132838496Y-104913680D01*
X132833138Y-104929145D01*
X132827203Y-104945188D01*
X132820690Y-104961809D01*
X132813599Y-104979009D01*
X132805931Y-104996788D01*
X132798732Y-105011092D01*
X132790668Y-105024941D01*
X132781737Y-105038334D01*
X132771942Y-105051271D01*
X132761280Y-105063753D01*
X132749754Y-105075780D01*
X132737362Y-105087351D01*
X132724104Y-105098466D01*
X132709981Y-105109126D01*
X132694992Y-105119331D01*
X132679138Y-105129079D01*
X132665928Y-105136293D01*
X132652281Y-105142972D01*
X132638198Y-105149117D01*
X132623680Y-105154728D01*
X132608726Y-105159804D01*
X132593336Y-105164346D01*
X132577510Y-105168353D01*
X132561249Y-105171827D01*
X132544551Y-105174765D01*
X132527418Y-105177170D01*
X132509849Y-105179040D01*
X132491844Y-105180376D01*
X132473404Y-105181177D01*
X132454527Y-105181445D01*
X131653882Y-105181445D01*
X131653882Y-105426735D01*
X131653900Y-105426736D01*
X131653900Y-105426736D01*
G37*
G36*
X132400792Y-104288476D02*
X132397989Y-104032162D01*
X132412300Y-104031851D01*
X132426172Y-104030917D01*
X132439603Y-104029361D01*
X132452593Y-104027182D01*
X132465144Y-104024380D01*
X132477253Y-104020956D01*
X132488923Y-104016909D01*
X132500152Y-104012240D01*
X132510941Y-104006948D01*
X132521289Y-104001033D01*
X132531198Y-103994496D01*
X132540665Y-103987336D01*
X132549693Y-103979554D01*
X132558280Y-103971149D01*
X132566426Y-103962122D01*
X132574133Y-103952472D01*
X132581399Y-103942199D01*
X132588224Y-103931304D01*
X132594609Y-103919786D01*
X132600554Y-103907645D01*
X132606059Y-103894882D01*
X132611123Y-103881497D01*
X132615747Y-103867489D01*
X132619930Y-103852858D01*
X132623673Y-103837605D01*
X132626976Y-103821729D01*
X132629838Y-103805230D01*
X132632260Y-103788109D01*
X132634242Y-103770365D01*
X132635783Y-103751999D01*
X132636884Y-103733010D01*
X132637544Y-103713399D01*
X132637765Y-103693165D01*
X132637765Y-103689031D01*
X132637540Y-103669362D01*
X132636866Y-103650317D01*
X132635742Y-103631897D01*
X132634169Y-103614101D01*
X132632146Y-103596929D01*
X132629674Y-103580382D01*
X132626753Y-103564459D01*
X132623382Y-103549161D01*
X132619561Y-103534487D01*
X132615292Y-103520437D01*
X132610572Y-103507012D01*
X132605403Y-103494211D01*
X132599785Y-103482035D01*
X132593717Y-103470483D01*
X132587200Y-103459556D01*
X132580234Y-103449253D01*
X132572818Y-103439574D01*
X132564952Y-103430520D01*
X132556637Y-103422090D01*
X132547872Y-103414285D01*
X132538659Y-103407104D01*
X132528995Y-103400548D01*
X132518882Y-103394616D01*
X132508320Y-103389308D01*
X132497308Y-103384625D01*
X132485847Y-103380566D01*
X132473936Y-103377132D01*
X132461576Y-103374322D01*
X132448766Y-103372137D01*
X132435507Y-103370575D01*
X132421799Y-103369639D01*
X132407641Y-103369327D01*
X132178871Y-103369327D01*
X132176584Y-103384105D01*
X132174452Y-103399306D01*
X132172475Y-103414928D01*
X132170654Y-103430973D01*
X132168989Y-103447439D01*
X132167479Y-103464327D01*
X132166124Y-103481637D01*
X132164925Y-103499368D01*
X132163882Y-103517522D01*
X132162994Y-103536097D01*
X132162261Y-103555094D01*
X132161685Y-103574514D01*
X132161263Y-103594354D01*
X132160997Y-103614617D01*
X132161224Y-103630872D01*
X132161903Y-103647353D01*
X132163036Y-103664058D01*
X132164622Y-103680988D01*
X132166661Y-103698143D01*
X132169153Y-103715523D01*
X132172098Y-103733129D01*
X132174692Y-103748782D01*
X132177678Y-103764737D01*
X132181054Y-103780994D01*
X132184822Y-103797552D01*
X132188980Y-103814411D01*
X132193529Y-103831572D01*
X132198470Y-103849034D01*
X132203801Y-103866798D01*
X132209058Y-103882416D01*
X132215030Y-103897421D01*
X132221717Y-103911814D01*
X132229118Y-103925595D01*
X132237233Y-103938762D01*
X132246063Y-103951318D01*
X132255608Y-103963261D01*
X132265867Y-103974591D01*
X132276840Y-103985310D01*
X132289888Y-103996291D01*
X132303539Y-104005808D01*
X132317793Y-104013861D01*
X132332650Y-104020450D01*
X132348109Y-104025574D01*
X132364170Y-104029235D01*
X132380835Y-104031431D01*
X132398102Y-104032163D01*
X132397989Y-104032162D01*
X132400792Y-104288476D01*
X132383498Y-104288170D01*
X132366525Y-104287251D01*
X132349873Y-104285720D01*
X132333541Y-104283577D01*
X132317529Y-104280821D01*
X132301838Y-104277452D01*
X132286467Y-104273471D01*
X132271417Y-104268878D01*
X132256688Y-104263672D01*
X132242279Y-104257853D01*
X132228190Y-104251422D01*
X132214422Y-104244379D01*
X132200974Y-104236723D01*
X132187847Y-104228455D01*
X132175041Y-104219575D01*
X132162555Y-104210081D01*
X132150389Y-104199976D01*
X132138544Y-104189258D01*
X132127020Y-104177927D01*
X132115816Y-104165984D01*
X132104932Y-104153429D01*
X132094369Y-104140261D01*
X132084127Y-104126480D01*
X132074205Y-104112088D01*
X132066435Y-104100180D01*
X132058929Y-104087975D01*
X132051687Y-104075473D01*
X132044708Y-104062674D01*
X132037992Y-104049578D01*
X132031539Y-104036185D01*
X132025350Y-104022495D01*
X132019424Y-104008508D01*
X132013762Y-103994224D01*
X132008363Y-103979643D01*
X132003227Y-103964765D01*
X131998355Y-103949589D01*
X131993746Y-103934117D01*
X131989401Y-103918348D01*
X131985319Y-103902281D01*
X131981500Y-103885918D01*
X131977944Y-103869257D01*
X131974652Y-103852300D01*
X131971624Y-103835045D01*
X131968858Y-103817494D01*
X131966356Y-103799645D01*
X131964118Y-103781499D01*
X131962142Y-103763056D01*
X131960431Y-103744317D01*
X131958982Y-103725280D01*
X131957797Y-103705946D01*
X131956875Y-103686315D01*
X131956217Y-103666387D01*
X131955822Y-103646162D01*
X131955690Y-103625640D01*
X131955764Y-103608038D01*
X131955984Y-103590509D01*
X131956352Y-103573054D01*
X131956867Y-103555672D01*
X131957530Y-103538364D01*
X131958339Y-103521130D01*
X131959296Y-103503969D01*
X131960400Y-103486881D01*
X131961651Y-103469867D01*
X131963049Y-103452926D01*
X131964594Y-103436059D01*
X131966287Y-103419265D01*
X131968126Y-103402545D01*
X131970113Y-103385898D01*
X131972247Y-103369325D01*
X131951682Y-103370579D01*
X131931813Y-103372396D01*
X131912640Y-103374776D01*
X131894163Y-103377718D01*
X131876382Y-103381222D01*
X131859297Y-103385290D01*
X131842909Y-103389920D01*
X131827216Y-103395112D01*
X131812219Y-103400868D01*
X131797919Y-103407186D01*
X131784315Y-103414066D01*
X131771406Y-103421510D01*
X131759194Y-103429516D01*
X131747678Y-103438084D01*
X131736858Y-103447215D01*
X131726734Y-103456909D01*
X131717306Y-103467166D01*
X131709398Y-103476766D01*
X131701917Y-103487000D01*
X131694864Y-103497868D01*
X131688238Y-103509370D01*
X131682039Y-103521505D01*
X131676269Y-103534273D01*
X131670925Y-103547676D01*
X131666009Y-103561712D01*
X131661521Y-103576382D01*
X131657460Y-103591685D01*
X131653826Y-103607623D01*
X131650620Y-103624193D01*
X131647841Y-103641398D01*
X131645490Y-103659236D01*
X131643567Y-103677708D01*
X131642070Y-103696813D01*
X131641002Y-103716552D01*
X131640360Y-103736925D01*
X131640147Y-103757932D01*
X131640280Y-103773913D01*
X131640678Y-103789984D01*
X131641342Y-103806142D01*
X131642272Y-103822390D01*
X131643468Y-103838725D01*
X131644929Y-103855150D01*
X131646656Y-103871663D01*
X131648649Y-103888264D01*
X131650907Y-103904955D01*
X131653431Y-103921733D01*
X131656221Y-103938601D01*
X131659276Y-103955556D01*
X131662597Y-103972601D01*
X131666184Y-103989734D01*
X131670036Y-104006955D01*
X131674154Y-104024266D01*
X131678538Y-104041664D01*
X131683188Y-104059152D01*
X131688103Y-104076727D01*
X131693283Y-104094392D01*
X131698730Y-104112145D01*
X131704442Y-104129986D01*
X131710420Y-104147917D01*
X131489929Y-104147917D01*
X131483988Y-104131889D01*
X131478289Y-104115779D01*
X131472832Y-104099584D01*
X131467618Y-104083305D01*
X131462646Y-104066943D01*
X131457917Y-104050497D01*
X131453431Y-104033967D01*
X131449187Y-104017354D01*
X131445185Y-104000656D01*
X131441426Y-103983875D01*
X131437910Y-103967010D01*
X131434636Y-103950061D01*
X131431604Y-103933029D01*
X131428815Y-103915912D01*
X131426269Y-103898712D01*
X131423965Y-103881428D01*
X131421904Y-103864061D01*
X131420085Y-103846609D01*
X131418508Y-103829074D01*
X131417175Y-103811455D01*
X131416083Y-103793752D01*
X131415235Y-103775965D01*
X131414628Y-103758095D01*
X131414264Y-103740141D01*
X131414143Y-103722103D01*
X131414313Y-103702683D01*
X131414823Y-103683561D01*
X131415673Y-103664735D01*
X131416863Y-103646207D01*
X131418392Y-103627975D01*
X131420262Y-103610041D01*
X131422471Y-103592403D01*
X131425021Y-103575063D01*
X131427910Y-103558020D01*
X131431139Y-103541274D01*
X131434708Y-103524824D01*
X131438618Y-103508672D01*
X131442867Y-103492817D01*
X131447455Y-103477259D01*
X131452384Y-103461998D01*
X131457653Y-103447034D01*
X131463262Y-103432367D01*
X131469210Y-103417997D01*
X131475499Y-103403925D01*
X131482127Y-103390149D01*
X131489096Y-103376670D01*
X131496404Y-103363488D01*
X131504052Y-103350604D01*
X131512040Y-103338016D01*
X131520369Y-103325725D01*
X131529036Y-103313732D01*
X131538044Y-103302035D01*
X131547392Y-103290636D01*
X131557080Y-103279534D01*
X131567108Y-103268728D01*
X131577721Y-103257894D01*
X131588652Y-103247440D01*
X131599902Y-103237366D01*
X131611469Y-103227672D01*
X131623354Y-103218359D01*
X131635556Y-103209425D01*
X131648077Y-103200872D01*
X131660916Y-103192699D01*
X131674072Y-103184905D01*
X131687546Y-103177493D01*
X131701338Y-103170460D01*
X131715448Y-103163807D01*
X131729876Y-103157535D01*
X131744622Y-103151642D01*
X131759685Y-103146130D01*
X131775067Y-103140998D01*
X131790766Y-103136246D01*
X131806783Y-103131875D01*
X131823118Y-103127883D01*
X131839771Y-103124272D01*
X131856741Y-103121041D01*
X131874030Y-103118189D01*
X131891636Y-103115718D01*
X131909561Y-103113628D01*
X131927803Y-103111917D01*
X131946363Y-103110586D01*
X131965241Y-103109636D01*
X131984436Y-103109066D01*
X132003950Y-103108876D01*
X132410463Y-103108876D01*
X132425621Y-103109144D01*
X132440780Y-103109948D01*
X132455938Y-103111287D01*
X132471097Y-103113163D01*
X132486255Y-103115575D01*
X132501414Y-103118522D01*
X132514548Y-103121419D01*
X132528751Y-103125385D01*
X132544022Y-103130419D01*
X132560362Y-103136521D01*
X132577769Y-103143693D01*
X132596245Y-103151933D01*
X132615789Y-103161241D01*
X132631188Y-103168897D01*
X132646144Y-103177165D01*
X132660658Y-103186046D01*
X132674729Y-103195539D01*
X132688357Y-103205645D01*
X132701543Y-103216363D01*
X132714285Y-103227693D01*
X132726585Y-103239636D01*
X132738443Y-103252192D01*
X132747074Y-103262240D01*
X132755514Y-103273092D01*
X132763763Y-103284748D01*
X132771820Y-103297208D01*
X132779686Y-103310471D01*
X132787361Y-103324539D01*
X132794845Y-103339410D01*
X132802137Y-103355085D01*
X132809238Y-103371564D01*
X132816148Y-103388847D01*
X132822866Y-103406934D01*
X132829394Y-103425824D01*
X132833898Y-103440434D01*
X132838112Y-103455323D01*
X132842035Y-103470492D01*
X132845667Y-103485941D01*
X132849009Y-103501670D01*
X132852060Y-103517679D01*
X132854821Y-103533968D01*
X132857291Y-103550537D01*
X132859471Y-103567386D01*
X132861360Y-103584514D01*
X132862958Y-103601923D01*
X132864266Y-103619611D01*
X132865283Y-103637580D01*
X132866009Y-103655828D01*
X132866445Y-103674356D01*
X132866590Y-103693164D01*
X132866440Y-103712478D01*
X132865988Y-103731491D01*
X132865234Y-103750202D01*
X132864180Y-103768612D01*
X132862824Y-103786720D01*
X132861166Y-103804527D01*
X132859208Y-103822032D01*
X132856948Y-103839236D01*
X132854387Y-103856139D01*
X132851524Y-103872740D01*
X132848360Y-103889039D01*
X132844895Y-103905037D01*
X132841128Y-103920734D01*
X132837060Y-103936129D01*
X132832691Y-103951223D01*
X132828020Y-103966016D01*
X132821271Y-103985136D01*
X132814349Y-104003452D01*
X132807256Y-104020965D01*
X132799990Y-104037674D01*
X132792553Y-104053578D01*
X132784944Y-104068679D01*
X132777162Y-104082977D01*
X132769209Y-104096470D01*
X132761084Y-104109159D01*
X132752787Y-104121045D01*
X132744318Y-104132127D01*
X132735677Y-104142404D01*
X132725012Y-104154021D01*
X132713960Y-104165170D01*
X132702523Y-104175849D01*
X132690699Y-104186061D01*
X132678489Y-104195803D01*
X132665894Y-104205078D01*
X132652912Y-104213883D01*
X132639544Y-104222220D01*
X132625790Y-104230089D01*
X132611650Y-104237489D01*
X132594125Y-104245693D01*
X132577376Y-104253078D01*
X132561402Y-104259645D01*
X132546202Y-104265394D01*
X132531778Y-104270325D01*
X132518128Y-104274438D01*
X132505254Y-104277732D01*
X132493154Y-104280208D01*
X132477570Y-104282735D01*
X132462064Y-104284802D01*
X132446634Y-104286410D01*
X132431283Y-104287559D01*
X132416008Y-104288248D01*
X132400811Y-104288477D01*
X132400792Y-104288476D01*
X132400792Y-104288476D01*
G37*
G36*
X132679157Y-102645855D02*
X132668313Y-102655480D01*
X132657199Y-102664826D01*
X132645814Y-102673893D01*
X132634160Y-102682681D01*
X132622236Y-102691190D01*
X132610041Y-102699420D01*
X132597577Y-102707371D01*
X132584843Y-102715043D01*
X132571838Y-102722436D01*
X132558564Y-102729550D01*
X132545020Y-102736385D01*
X132531206Y-102742941D01*
X132517122Y-102749218D01*
X132502768Y-102755216D01*
X132488143Y-102760935D01*
X132473249Y-102766375D01*
X132458085Y-102771537D01*
X132442651Y-102776419D01*
X132426947Y-102781022D01*
X132410973Y-102785346D01*
X132394729Y-102789391D01*
X132378215Y-102793158D01*
X132361431Y-102796645D01*
X132344377Y-102799853D01*
X132327053Y-102802783D01*
X132309459Y-102805433D01*
X132291596Y-102807804D01*
X132273462Y-102809897D01*
X132255058Y-102811710D01*
X132236384Y-102813244D01*
X132217440Y-102814500D01*
X132198226Y-102815476D01*
X132178743Y-102816174D01*
X132158989Y-102816592D01*
X132138965Y-102816732D01*
X132118943Y-102816592D01*
X132099192Y-102816174D01*
X132079714Y-102815476D01*
X132060508Y-102814500D01*
X132041575Y-102813244D01*
X132022913Y-102811710D01*
X132004524Y-102809897D01*
X131986407Y-102807804D01*
X131968563Y-102805433D01*
X131950991Y-102802783D01*
X131933690Y-102799853D01*
X131916663Y-102796645D01*
X131899907Y-102793158D01*
X131883424Y-102789391D01*
X131867213Y-102785346D01*
X131851274Y-102781022D01*
X131835607Y-102776419D01*
X131820213Y-102771537D01*
X131805091Y-102766375D01*
X131790241Y-102760935D01*
X131775664Y-102755216D01*
X131761359Y-102749218D01*
X131747326Y-102742941D01*
X131733565Y-102736385D01*
X131720076Y-102729550D01*
X131706860Y-102722436D01*
X131693916Y-102715043D01*
X131681244Y-102707371D01*
X131668845Y-102699420D01*
X131656718Y-102691190D01*
X131644863Y-102682681D01*
X131633280Y-102673893D01*
X131621969Y-102664826D01*
X131610931Y-102655480D01*
X131600165Y-102645855D01*
X131589061Y-102635361D01*
X131578298Y-102624591D01*
X131567877Y-102613545D01*
X131557798Y-102602223D01*
X131548060Y-102590626D01*
X131538664Y-102578753D01*
X131529610Y-102566603D01*
X131520897Y-102554178D01*
X131512526Y-102541477D01*
X131504497Y-102528500D01*
X131496809Y-102515248D01*
X131489463Y-102501719D01*
X131482459Y-102487915D01*
X131475796Y-102473834D01*
X131469475Y-102459478D01*
X131463496Y-102444846D01*
X131457859Y-102429938D01*
X131452563Y-102414755D01*
X131447608Y-102399295D01*
X131442996Y-102383560D01*
X131438725Y-102367548D01*
X131434796Y-102351261D01*
X131431208Y-102334698D01*
X131427962Y-102317859D01*
X131425058Y-102300744D01*
X131422495Y-102283354D01*
X131420274Y-102265687D01*
X131418395Y-102247745D01*
X131416858Y-102229527D01*
X131415662Y-102211033D01*
X131414808Y-102192263D01*
X131414295Y-102173217D01*
X131414124Y-102153895D01*
X131414250Y-102136722D01*
X131414627Y-102119597D01*
X131415256Y-102102520D01*
X131416135Y-102085492D01*
X131417266Y-102068512D01*
X131418649Y-102051581D01*
X131420283Y-102034698D01*
X131422168Y-102017864D01*
X131424305Y-102001079D01*
X131426693Y-101984341D01*
X131429332Y-101967653D01*
X131432223Y-101951013D01*
X131435365Y-101934421D01*
X131438758Y-101917878D01*
X131442403Y-101901384D01*
X131446299Y-101884937D01*
X131450447Y-101868540D01*
X131454846Y-101852191D01*
X131459496Y-101835890D01*
X131464398Y-101819638D01*
X131469551Y-101803435D01*
X131474955Y-101787280D01*
X131480611Y-101771173D01*
X131486518Y-101755115D01*
X131492676Y-101739106D01*
X131737965Y-101739106D01*
X131730432Y-101755075D01*
X131723219Y-101771059D01*
X131716326Y-101787057D01*
X131709755Y-101803070D01*
X131703504Y-101819097D01*
X131697573Y-101835138D01*
X131691963Y-101851193D01*
X131686674Y-101867263D01*
X131681705Y-101883348D01*
X131677057Y-101899446D01*
X131672729Y-101915559D01*
X131668722Y-101931687D01*
X131665035Y-101947828D01*
X131661669Y-101963984D01*
X131658624Y-101980155D01*
X131655899Y-101996340D01*
X131653495Y-102012539D01*
X131651411Y-102028752D01*
X131649648Y-102044980D01*
X131648205Y-102061222D01*
X131647083Y-102077479D01*
X131646282Y-102093750D01*
X131645801Y-102110035D01*
X131645641Y-102126334D01*
X131645641Y-102131847D01*
X131645892Y-102151067D01*
X131646647Y-102169867D01*
X131647904Y-102188247D01*
X131649664Y-102206206D01*
X131651927Y-102223745D01*
X131654693Y-102240864D01*
X131657962Y-102257562D01*
X131661734Y-102273840D01*
X131666009Y-102289698D01*
X131670787Y-102305136D01*
X131676067Y-102320153D01*
X131681851Y-102334750D01*
X131688137Y-102348926D01*
X131694927Y-102362682D01*
X131702219Y-102376018D01*
X131710014Y-102388934D01*
X131718313Y-102401429D01*
X131727114Y-102413504D01*
X131736418Y-102425159D01*
X131746225Y-102436394D01*
X131754145Y-102444711D01*
X131762640Y-102452702D01*
X131771710Y-102460367D01*
X131781355Y-102467705D01*
X131791575Y-102474718D01*
X131802369Y-102481404D01*
X131813738Y-102487764D01*
X131825682Y-102493798D01*
X131838201Y-102499506D01*
X131851295Y-102504888D01*
X131864963Y-102509943D01*
X131879206Y-102514673D01*
X131894024Y-102519076D01*
X131909417Y-102523153D01*
X131925385Y-102526904D01*
X131941927Y-102530329D01*
X131959044Y-102533427D01*
X131976736Y-102536200D01*
X131995003Y-102538646D01*
X132013845Y-102540766D01*
X132033261Y-102542560D01*
X132053252Y-102544027D01*
X132073818Y-102545169D01*
X132094959Y-102545984D01*
X132116675Y-102546474D01*
X132138965Y-102546637D01*
X132159496Y-102546496D01*
X132179562Y-102546073D01*
X132199162Y-102545369D01*
X132218296Y-102544383D01*
X132236965Y-102543115D01*
X132255168Y-102541566D01*
X132272906Y-102539734D01*
X132290178Y-102537621D01*
X132306984Y-102535227D01*
X132323325Y-102532550D01*
X132339200Y-102529592D01*
X132354610Y-102526352D01*
X132369554Y-102522830D01*
X132384032Y-102519027D01*
X132398045Y-102514942D01*
X132416154Y-102508678D01*
X132433396Y-102501913D01*
X132449774Y-102494647D01*
X132465286Y-102486880D01*
X132479932Y-102478612D01*
X132493713Y-102469842D01*
X132506629Y-102460572D01*
X132518679Y-102450801D01*
X132529863Y-102440528D01*
X132540182Y-102429754D01*
X132549636Y-102418479D01*
X132560249Y-102404086D01*
X132570046Y-102389694D01*
X132579027Y-102375301D01*
X132587191Y-102360908D01*
X132594540Y-102346515D01*
X132601072Y-102332122D01*
X132606787Y-102317729D01*
X132611687Y-102303336D01*
X132615770Y-102288944D01*
X132618916Y-102275466D01*
X132621731Y-102261493D01*
X132624214Y-102247024D01*
X132626367Y-102232058D01*
X132628188Y-102216597D01*
X132629678Y-102200639D01*
X132630837Y-102184185D01*
X132631665Y-102167235D01*
X132632162Y-102149789D01*
X132632327Y-102131847D01*
X132632172Y-102114988D01*
X132631705Y-102098171D01*
X132630928Y-102081398D01*
X132629839Y-102064668D01*
X132628439Y-102047981D01*
X132626729Y-102031337D01*
X132624707Y-102014736D01*
X132622374Y-101998178D01*
X132619730Y-101981663D01*
X132616776Y-101965191D01*
X132613510Y-101948762D01*
X132609933Y-101932376D01*
X132606045Y-101916034D01*
X132601846Y-101899734D01*
X132597336Y-101883477D01*
X132592515Y-101867264D01*
X132587383Y-101851094D01*
X132581940Y-101834966D01*
X132576186Y-101818882D01*
X132570121Y-101802841D01*
X132563745Y-101786842D01*
X132557057Y-101770887D01*
X132550059Y-101754975D01*
X132542750Y-101739106D01*
X132788039Y-101739106D01*
X132794197Y-101755116D01*
X132800104Y-101771174D01*
X132805760Y-101787280D01*
X132811164Y-101803435D01*
X132816317Y-101819639D01*
X132821219Y-101835891D01*
X132825869Y-101852191D01*
X132830268Y-101868541D01*
X132834416Y-101884938D01*
X132838312Y-101901384D01*
X132841957Y-101917879D01*
X132845350Y-101934422D01*
X132848492Y-101951013D01*
X132851383Y-101967653D01*
X132854022Y-101984342D01*
X132856410Y-102001079D01*
X132858547Y-102017865D01*
X132860432Y-102034699D01*
X132862066Y-102051581D01*
X132863448Y-102068513D01*
X132864580Y-102085492D01*
X132865459Y-102102520D01*
X132866088Y-102119597D01*
X132866465Y-102136722D01*
X132866590Y-102153896D01*
X132866418Y-102173218D01*
X132865902Y-102192263D01*
X132865042Y-102211033D01*
X132863837Y-102229527D01*
X132862288Y-102247746D01*
X132860395Y-102265688D01*
X132858158Y-102283354D01*
X132855576Y-102300745D01*
X132852651Y-102317860D01*
X132849381Y-102334699D01*
X132845767Y-102351262D01*
X132841808Y-102367549D01*
X132837506Y-102383560D01*
X132832859Y-102399296D01*
X132827868Y-102414755D01*
X132822533Y-102429939D01*
X132816854Y-102444847D01*
X132810831Y-102459479D01*
X132804463Y-102473835D01*
X132797751Y-102487915D01*
X132790695Y-102501720D01*
X132783295Y-102515248D01*
X132775551Y-102528501D01*
X132767462Y-102541478D01*
X132759029Y-102554179D01*
X132750252Y-102566604D01*
X132741131Y-102578753D01*
X132731666Y-102590626D01*
X132721856Y-102602224D01*
X132711703Y-102613546D01*
X132701205Y-102624592D01*
X132690362Y-102635361D01*
X132679176Y-102645856D01*
X132679157Y-102645855D01*
X132679157Y-102645855D01*
G37*
G36*
X132844521Y-101431803D02*
X130900122Y-101431803D01*
X130900122Y-101174110D01*
X132025982Y-101174110D01*
X131436175Y-100565017D01*
X131436175Y-100214996D01*
X132023216Y-100826844D01*
X132844521Y-100133691D01*
X132844521Y-100476823D01*
X132189953Y-100999099D01*
X132359456Y-101174110D01*
X132844521Y-101174110D01*
X132844521Y-101431803D01*
X132844521Y-101431803D01*
G37*
D11*
X135675000Y-117450000D02*
X135675000Y-118450000D01*
X134325000Y-118450000D02*
X134325000Y-117450000D01*
M02*
