G04 #@! TF.FileFunction,Legend,Top*
%FSLAX46Y46*%
G04 Gerber Fmt 4.6, Leading zero omitted, Abs format (unit mm)*
G04 Created by KiCad (PCBNEW 4.0.1-stable) date Friday, March 04, 2016 'AMt' 01:12:27 AM*
%MOMM*%
G01*
G04 APERTURE LIST*
%ADD10C,0.100000*%
%ADD11C,0.150000*%
%ADD12C,0.010000*%
G04 APERTURE END LIST*
D10*
D11*
X135064762Y-112362381D02*
X135112381Y-112457619D01*
X135112381Y-112648096D01*
X135064762Y-112743334D01*
X135017143Y-112790953D01*
X134921905Y-112838572D01*
X134636190Y-112838572D01*
X134540952Y-112790953D01*
X134493333Y-112743334D01*
X134445714Y-112648096D01*
X134445714Y-112457619D01*
X134493333Y-112362381D01*
X135112381Y-111933810D02*
X134112381Y-111933810D01*
X134731429Y-111838572D02*
X135112381Y-111552857D01*
X134445714Y-111552857D02*
X134826667Y-111933810D01*
X135112381Y-110695714D02*
X134112381Y-110695714D01*
X135064762Y-110695714D02*
X135112381Y-110790952D01*
X135112381Y-110981429D01*
X135064762Y-111076667D01*
X135017143Y-111124286D01*
X134921905Y-111171905D01*
X134636190Y-111171905D01*
X134540952Y-111124286D01*
X134493333Y-111076667D01*
X134445714Y-110981429D01*
X134445714Y-110790952D01*
X134493333Y-110695714D01*
X135017143Y-110219524D02*
X135064762Y-110171905D01*
X135112381Y-110219524D01*
X135064762Y-110267143D01*
X135017143Y-110219524D01*
X135112381Y-110219524D01*
X134445714Y-109886191D02*
X134445714Y-109505239D01*
X134112381Y-109743334D02*
X134969524Y-109743334D01*
X135064762Y-109695715D01*
X135112381Y-109600477D01*
X135112381Y-109505239D01*
X135064762Y-108790952D02*
X135112381Y-108886190D01*
X135112381Y-109076667D01*
X135064762Y-109171905D01*
X134969524Y-109219524D01*
X134588571Y-109219524D01*
X134493333Y-109171905D01*
X134445714Y-109076667D01*
X134445714Y-108886190D01*
X134493333Y-108790952D01*
X134588571Y-108743333D01*
X134683810Y-108743333D01*
X134779048Y-109219524D01*
X135064762Y-107886190D02*
X135112381Y-107981428D01*
X135112381Y-108171905D01*
X135064762Y-108267143D01*
X135017143Y-108314762D01*
X134921905Y-108362381D01*
X134636190Y-108362381D01*
X134540952Y-108314762D01*
X134493333Y-108267143D01*
X134445714Y-108171905D01*
X134445714Y-107981428D01*
X134493333Y-107886190D01*
X135112381Y-107457619D02*
X134112381Y-107457619D01*
X135112381Y-107029047D02*
X134588571Y-107029047D01*
X134493333Y-107076666D01*
X134445714Y-107171904D01*
X134445714Y-107314762D01*
X134493333Y-107410000D01*
X134540952Y-107457619D01*
X134064762Y-105838571D02*
X135350476Y-106695714D01*
X135064762Y-105552857D02*
X135112381Y-105457619D01*
X135112381Y-105267143D01*
X135064762Y-105171904D01*
X134969524Y-105124285D01*
X134921905Y-105124285D01*
X134826667Y-105171904D01*
X134779048Y-105267143D01*
X134779048Y-105410000D01*
X134731429Y-105505238D01*
X134636190Y-105552857D01*
X134588571Y-105552857D01*
X134493333Y-105505238D01*
X134445714Y-105410000D01*
X134445714Y-105267143D01*
X134493333Y-105171904D01*
X134445714Y-104695714D02*
X135445714Y-104695714D01*
X134493333Y-104695714D02*
X134445714Y-104600476D01*
X134445714Y-104409999D01*
X134493333Y-104314761D01*
X134540952Y-104267142D01*
X134636190Y-104219523D01*
X134921905Y-104219523D01*
X135017143Y-104267142D01*
X135064762Y-104314761D01*
X135112381Y-104409999D01*
X135112381Y-104600476D01*
X135064762Y-104695714D01*
X135064762Y-103362380D02*
X135112381Y-103457618D01*
X135112381Y-103648095D01*
X135064762Y-103743333D01*
X135017143Y-103790952D01*
X134921905Y-103838571D01*
X134636190Y-103838571D01*
X134540952Y-103790952D01*
X134493333Y-103743333D01*
X134445714Y-103648095D01*
X134445714Y-103457618D01*
X134493333Y-103362380D01*
X135112381Y-102933809D02*
X134445714Y-102933809D01*
X134636190Y-102933809D02*
X134540952Y-102886190D01*
X134493333Y-102838571D01*
X134445714Y-102743333D01*
X134445714Y-102648094D01*
X134064762Y-101600475D02*
X135350476Y-102457618D01*
X134445714Y-101362380D02*
X135112381Y-101124285D01*
X134445714Y-100886189D01*
X134112381Y-100600475D02*
X134112381Y-99981427D01*
X134493333Y-100314761D01*
X134493333Y-100171903D01*
X134540952Y-100076665D01*
X134588571Y-100029046D01*
X134683810Y-99981427D01*
X134921905Y-99981427D01*
X135017143Y-100029046D01*
X135064762Y-100076665D01*
X135112381Y-100171903D01*
X135112381Y-100457618D01*
X135064762Y-100552856D01*
X135017143Y-100600475D01*
D12*
G36*
X131762173Y-108388657D02*
X131767779Y-108317989D01*
X131777766Y-108246115D01*
X131786682Y-108198618D01*
X131792279Y-108173163D01*
X131798526Y-108147495D01*
X131805225Y-108122218D01*
X131812177Y-108097936D01*
X131819184Y-108075250D01*
X131826047Y-108054766D01*
X131832567Y-108037085D01*
X131838546Y-108022812D01*
X131843786Y-108012549D01*
X131848087Y-108006901D01*
X131850081Y-108005977D01*
X131853499Y-108006464D01*
X131862235Y-108007889D01*
X131875983Y-108010198D01*
X131894442Y-108013340D01*
X131917305Y-108017259D01*
X131944270Y-108021903D01*
X131975033Y-108027220D01*
X132009290Y-108033154D01*
X132046736Y-108039654D01*
X132087068Y-108046666D01*
X132129982Y-108054137D01*
X132175174Y-108062013D01*
X132222340Y-108070242D01*
X132271177Y-108078769D01*
X132321380Y-108087543D01*
X132372645Y-108096508D01*
X132424668Y-108105613D01*
X132477146Y-108114804D01*
X132529775Y-108124028D01*
X132582250Y-108133231D01*
X132634268Y-108142360D01*
X132685525Y-108151363D01*
X132735717Y-108160185D01*
X132784540Y-108168773D01*
X132831690Y-108177075D01*
X132876863Y-108185037D01*
X132919756Y-108192605D01*
X132960063Y-108199727D01*
X132997483Y-108206349D01*
X133031709Y-108212418D01*
X133062440Y-108217881D01*
X133089370Y-108222684D01*
X133112195Y-108226774D01*
X133130613Y-108230098D01*
X133144319Y-108232603D01*
X133153008Y-108234236D01*
X133154977Y-108234625D01*
X133219946Y-108249030D01*
X133282006Y-108265070D01*
X133340722Y-108282590D01*
X133395660Y-108301440D01*
X133446386Y-108321465D01*
X133492464Y-108342513D01*
X133533461Y-108364431D01*
X133546595Y-108372321D01*
X133592499Y-108403589D01*
X133634126Y-108437712D01*
X133671188Y-108474404D01*
X133703397Y-108513376D01*
X133730464Y-108554340D01*
X133732675Y-108558180D01*
X133748664Y-108589826D01*
X133763437Y-108626072D01*
X133776698Y-108665883D01*
X133788152Y-108708224D01*
X133797503Y-108752062D01*
X133804455Y-108796362D01*
X133806853Y-108817490D01*
X133808560Y-108838737D01*
X133809889Y-108863293D01*
X133810814Y-108889671D01*
X133811308Y-108916385D01*
X133811344Y-108941950D01*
X133810895Y-108964878D01*
X133809934Y-108983684D01*
X133809872Y-108984488D01*
X133801108Y-109061161D01*
X133786763Y-109138788D01*
X133779748Y-109168955D01*
X133775460Y-109185713D01*
X133770890Y-109202388D01*
X133766365Y-109217903D01*
X133762210Y-109231179D01*
X133758750Y-109241140D01*
X133756312Y-109246707D01*
X133756196Y-109246891D01*
X133754332Y-109248042D01*
X133750254Y-109248433D01*
X133743284Y-109247997D01*
X133732743Y-109246664D01*
X133717955Y-109244366D01*
X133698380Y-109241058D01*
X133643000Y-109231492D01*
X133641419Y-109048965D01*
X133641074Y-109011086D01*
X133640734Y-108978450D01*
X133640384Y-108950593D01*
X133640010Y-108927049D01*
X133639598Y-108907355D01*
X133639132Y-108891045D01*
X133638598Y-108877655D01*
X133637982Y-108866720D01*
X133637269Y-108857776D01*
X133636445Y-108850358D01*
X133635495Y-108844001D01*
X133634907Y-108840753D01*
X133626777Y-108803552D01*
X133617465Y-108771059D01*
X133606626Y-108742336D01*
X133593913Y-108716444D01*
X133581594Y-108696290D01*
X133571416Y-108682871D01*
X133557726Y-108667376D01*
X133541715Y-108650961D01*
X133524576Y-108634782D01*
X133507500Y-108619998D01*
X133491680Y-108607762D01*
X133487085Y-108604580D01*
X133460628Y-108588467D01*
X133429677Y-108572327D01*
X133395422Y-108556680D01*
X133359050Y-108542045D01*
X133321750Y-108528943D01*
X133296080Y-108521064D01*
X133283606Y-108517663D01*
X133268400Y-108513808D01*
X133251521Y-108509737D01*
X133234029Y-108505685D01*
X133216985Y-108501891D01*
X133201450Y-108498592D01*
X133188483Y-108496023D01*
X133179145Y-108494423D01*
X133175007Y-108494000D01*
X133173844Y-108495696D01*
X133174862Y-108501102D01*
X133178194Y-108510698D01*
X133183259Y-108523253D01*
X133200106Y-108566574D01*
X133214483Y-108609798D01*
X133226027Y-108651685D01*
X133234376Y-108690999D01*
X133236867Y-108706618D01*
X133238324Y-108720820D01*
X133239395Y-108739286D01*
X133240080Y-108760681D01*
X133240378Y-108783673D01*
X133240289Y-108806926D01*
X133239812Y-108829109D01*
X133238945Y-108848887D01*
X133237689Y-108864925D01*
X133236969Y-108870753D01*
X133232711Y-108895252D01*
X133227038Y-108921000D01*
X133220462Y-108945951D01*
X133213494Y-108968062D01*
X133210728Y-108975612D01*
X133196239Y-109005752D01*
X133176844Y-109034560D01*
X133153321Y-109061230D01*
X133126448Y-109084959D01*
X133097001Y-109104941D01*
X133074402Y-109116666D01*
X133032405Y-109132918D01*
X132985963Y-109145607D01*
X132935095Y-109154734D01*
X132879815Y-109160296D01*
X132820141Y-109162292D01*
X132756090Y-109160721D01*
X132752696Y-109160466D01*
X132752696Y-108903552D01*
X132799856Y-108903305D01*
X132844444Y-108900646D01*
X132885594Y-108895602D01*
X132922444Y-108888204D01*
X132924355Y-108887723D01*
X132957702Y-108876796D01*
X132986776Y-108862098D01*
X133011578Y-108843626D01*
X133032110Y-108821375D01*
X133048374Y-108795343D01*
X133060373Y-108765526D01*
X133068107Y-108731919D01*
X133071580Y-108694520D01*
X133070793Y-108653323D01*
X133067556Y-108621053D01*
X133064529Y-108602750D01*
X133060159Y-108582893D01*
X133054733Y-108562283D01*
X133048535Y-108541723D01*
X133041854Y-108522013D01*
X133034974Y-108503955D01*
X133028182Y-108488351D01*
X133021764Y-108476002D01*
X133016007Y-108467709D01*
X133011626Y-108464377D01*
X133008288Y-108463720D01*
X132999674Y-108462138D01*
X132986116Y-108459689D01*
X132967949Y-108456433D01*
X132945504Y-108452427D01*
X132919116Y-108447732D01*
X132889118Y-108442405D01*
X132855842Y-108436505D01*
X132819623Y-108430090D01*
X132780793Y-108423221D01*
X132739686Y-108415954D01*
X132696635Y-108408350D01*
X132651973Y-108400466D01*
X132606033Y-108392361D01*
X132559149Y-108384094D01*
X132511654Y-108375724D01*
X132463881Y-108367309D01*
X132416164Y-108358908D01*
X132368836Y-108350580D01*
X132322229Y-108342383D01*
X132276678Y-108334376D01*
X132232515Y-108326618D01*
X132190074Y-108319168D01*
X132149688Y-108312084D01*
X132111690Y-108305424D01*
X132076414Y-108299249D01*
X132044192Y-108293615D01*
X132015358Y-108288582D01*
X131990246Y-108284209D01*
X131969188Y-108280554D01*
X131952518Y-108277677D01*
X131940569Y-108275634D01*
X131933675Y-108274487D01*
X131932034Y-108274247D01*
X131931080Y-108276985D01*
X131930339Y-108284744D01*
X131929800Y-108296840D01*
X131929454Y-108312592D01*
X131929290Y-108331316D01*
X131929296Y-108352329D01*
X131929464Y-108374950D01*
X131929781Y-108398494D01*
X131930238Y-108422280D01*
X131930824Y-108445624D01*
X131931528Y-108467844D01*
X131932340Y-108488257D01*
X131933249Y-108506180D01*
X131934245Y-108520930D01*
X131935316Y-108531825D01*
X131936093Y-108536727D01*
X131945095Y-108571814D01*
X131956721Y-108602754D01*
X131971641Y-108630759D01*
X131990523Y-108657045D01*
X132014036Y-108682825D01*
X132019480Y-108688150D01*
X132048881Y-108713333D01*
X132083477Y-108737488D01*
X132122812Y-108760395D01*
X132166430Y-108781836D01*
X132213877Y-108801592D01*
X132264697Y-108819443D01*
X132318434Y-108835171D01*
X132333045Y-108838939D01*
X132363889Y-108846254D01*
X132399201Y-108853902D01*
X132437768Y-108861665D01*
X132478376Y-108869325D01*
X132519811Y-108876663D01*
X132560861Y-108883461D01*
X132600311Y-108889500D01*
X132636949Y-108894564D01*
X132654112Y-108896694D01*
X132703827Y-108901358D01*
X132752696Y-108903552D01*
X132752696Y-109160466D01*
X132687679Y-109155581D01*
X132639842Y-109150195D01*
X132576957Y-109141441D01*
X132514010Y-109131136D01*
X132451778Y-109119459D01*
X132391039Y-109106589D01*
X132332569Y-109092705D01*
X132277146Y-109077984D01*
X132225546Y-109062606D01*
X132178546Y-109046749D01*
X132160389Y-109039998D01*
X132105643Y-109017301D01*
X132056038Y-108993091D01*
X132011143Y-108967106D01*
X131970530Y-108939084D01*
X131933770Y-108908762D01*
X131912089Y-108888051D01*
X131879834Y-108852260D01*
X131852096Y-108814512D01*
X131828536Y-108774177D01*
X131808815Y-108730624D01*
X131792593Y-108683222D01*
X131783642Y-108649539D01*
X131771685Y-108588559D01*
X131764123Y-108524428D01*
X131760954Y-108457632D01*
X131762173Y-108388657D01*
X131762173Y-108388657D01*
G37*
X131762173Y-108388657D02*
X131767779Y-108317989D01*
X131777766Y-108246115D01*
X131786682Y-108198618D01*
X131792279Y-108173163D01*
X131798526Y-108147495D01*
X131805225Y-108122218D01*
X131812177Y-108097936D01*
X131819184Y-108075250D01*
X131826047Y-108054766D01*
X131832567Y-108037085D01*
X131838546Y-108022812D01*
X131843786Y-108012549D01*
X131848087Y-108006901D01*
X131850081Y-108005977D01*
X131853499Y-108006464D01*
X131862235Y-108007889D01*
X131875983Y-108010198D01*
X131894442Y-108013340D01*
X131917305Y-108017259D01*
X131944270Y-108021903D01*
X131975033Y-108027220D01*
X132009290Y-108033154D01*
X132046736Y-108039654D01*
X132087068Y-108046666D01*
X132129982Y-108054137D01*
X132175174Y-108062013D01*
X132222340Y-108070242D01*
X132271177Y-108078769D01*
X132321380Y-108087543D01*
X132372645Y-108096508D01*
X132424668Y-108105613D01*
X132477146Y-108114804D01*
X132529775Y-108124028D01*
X132582250Y-108133231D01*
X132634268Y-108142360D01*
X132685525Y-108151363D01*
X132735717Y-108160185D01*
X132784540Y-108168773D01*
X132831690Y-108177075D01*
X132876863Y-108185037D01*
X132919756Y-108192605D01*
X132960063Y-108199727D01*
X132997483Y-108206349D01*
X133031709Y-108212418D01*
X133062440Y-108217881D01*
X133089370Y-108222684D01*
X133112195Y-108226774D01*
X133130613Y-108230098D01*
X133144319Y-108232603D01*
X133153008Y-108234236D01*
X133154977Y-108234625D01*
X133219946Y-108249030D01*
X133282006Y-108265070D01*
X133340722Y-108282590D01*
X133395660Y-108301440D01*
X133446386Y-108321465D01*
X133492464Y-108342513D01*
X133533461Y-108364431D01*
X133546595Y-108372321D01*
X133592499Y-108403589D01*
X133634126Y-108437712D01*
X133671188Y-108474404D01*
X133703397Y-108513376D01*
X133730464Y-108554340D01*
X133732675Y-108558180D01*
X133748664Y-108589826D01*
X133763437Y-108626072D01*
X133776698Y-108665883D01*
X133788152Y-108708224D01*
X133797503Y-108752062D01*
X133804455Y-108796362D01*
X133806853Y-108817490D01*
X133808560Y-108838737D01*
X133809889Y-108863293D01*
X133810814Y-108889671D01*
X133811308Y-108916385D01*
X133811344Y-108941950D01*
X133810895Y-108964878D01*
X133809934Y-108983684D01*
X133809872Y-108984488D01*
X133801108Y-109061161D01*
X133786763Y-109138788D01*
X133779748Y-109168955D01*
X133775460Y-109185713D01*
X133770890Y-109202388D01*
X133766365Y-109217903D01*
X133762210Y-109231179D01*
X133758750Y-109241140D01*
X133756312Y-109246707D01*
X133756196Y-109246891D01*
X133754332Y-109248042D01*
X133750254Y-109248433D01*
X133743284Y-109247997D01*
X133732743Y-109246664D01*
X133717955Y-109244366D01*
X133698380Y-109241058D01*
X133643000Y-109231492D01*
X133641419Y-109048965D01*
X133641074Y-109011086D01*
X133640734Y-108978450D01*
X133640384Y-108950593D01*
X133640010Y-108927049D01*
X133639598Y-108907355D01*
X133639132Y-108891045D01*
X133638598Y-108877655D01*
X133637982Y-108866720D01*
X133637269Y-108857776D01*
X133636445Y-108850358D01*
X133635495Y-108844001D01*
X133634907Y-108840753D01*
X133626777Y-108803552D01*
X133617465Y-108771059D01*
X133606626Y-108742336D01*
X133593913Y-108716444D01*
X133581594Y-108696290D01*
X133571416Y-108682871D01*
X133557726Y-108667376D01*
X133541715Y-108650961D01*
X133524576Y-108634782D01*
X133507500Y-108619998D01*
X133491680Y-108607762D01*
X133487085Y-108604580D01*
X133460628Y-108588467D01*
X133429677Y-108572327D01*
X133395422Y-108556680D01*
X133359050Y-108542045D01*
X133321750Y-108528943D01*
X133296080Y-108521064D01*
X133283606Y-108517663D01*
X133268400Y-108513808D01*
X133251521Y-108509737D01*
X133234029Y-108505685D01*
X133216985Y-108501891D01*
X133201450Y-108498592D01*
X133188483Y-108496023D01*
X133179145Y-108494423D01*
X133175007Y-108494000D01*
X133173844Y-108495696D01*
X133174862Y-108501102D01*
X133178194Y-108510698D01*
X133183259Y-108523253D01*
X133200106Y-108566574D01*
X133214483Y-108609798D01*
X133226027Y-108651685D01*
X133234376Y-108690999D01*
X133236867Y-108706618D01*
X133238324Y-108720820D01*
X133239395Y-108739286D01*
X133240080Y-108760681D01*
X133240378Y-108783673D01*
X133240289Y-108806926D01*
X133239812Y-108829109D01*
X133238945Y-108848887D01*
X133237689Y-108864925D01*
X133236969Y-108870753D01*
X133232711Y-108895252D01*
X133227038Y-108921000D01*
X133220462Y-108945951D01*
X133213494Y-108968062D01*
X133210728Y-108975612D01*
X133196239Y-109005752D01*
X133176844Y-109034560D01*
X133153321Y-109061230D01*
X133126448Y-109084959D01*
X133097001Y-109104941D01*
X133074402Y-109116666D01*
X133032405Y-109132918D01*
X132985963Y-109145607D01*
X132935095Y-109154734D01*
X132879815Y-109160296D01*
X132820141Y-109162292D01*
X132756090Y-109160721D01*
X132752696Y-109160466D01*
X132752696Y-108903552D01*
X132799856Y-108903305D01*
X132844444Y-108900646D01*
X132885594Y-108895602D01*
X132922444Y-108888204D01*
X132924355Y-108887723D01*
X132957702Y-108876796D01*
X132986776Y-108862098D01*
X133011578Y-108843626D01*
X133032110Y-108821375D01*
X133048374Y-108795343D01*
X133060373Y-108765526D01*
X133068107Y-108731919D01*
X133071580Y-108694520D01*
X133070793Y-108653323D01*
X133067556Y-108621053D01*
X133064529Y-108602750D01*
X133060159Y-108582893D01*
X133054733Y-108562283D01*
X133048535Y-108541723D01*
X133041854Y-108522013D01*
X133034974Y-108503955D01*
X133028182Y-108488351D01*
X133021764Y-108476002D01*
X133016007Y-108467709D01*
X133011626Y-108464377D01*
X133008288Y-108463720D01*
X132999674Y-108462138D01*
X132986116Y-108459689D01*
X132967949Y-108456433D01*
X132945504Y-108452427D01*
X132919116Y-108447732D01*
X132889118Y-108442405D01*
X132855842Y-108436505D01*
X132819623Y-108430090D01*
X132780793Y-108423221D01*
X132739686Y-108415954D01*
X132696635Y-108408350D01*
X132651973Y-108400466D01*
X132606033Y-108392361D01*
X132559149Y-108384094D01*
X132511654Y-108375724D01*
X132463881Y-108367309D01*
X132416164Y-108358908D01*
X132368836Y-108350580D01*
X132322229Y-108342383D01*
X132276678Y-108334376D01*
X132232515Y-108326618D01*
X132190074Y-108319168D01*
X132149688Y-108312084D01*
X132111690Y-108305424D01*
X132076414Y-108299249D01*
X132044192Y-108293615D01*
X132015358Y-108288582D01*
X131990246Y-108284209D01*
X131969188Y-108280554D01*
X131952518Y-108277677D01*
X131940569Y-108275634D01*
X131933675Y-108274487D01*
X131932034Y-108274247D01*
X131931080Y-108276985D01*
X131930339Y-108284744D01*
X131929800Y-108296840D01*
X131929454Y-108312592D01*
X131929290Y-108331316D01*
X131929296Y-108352329D01*
X131929464Y-108374950D01*
X131929781Y-108398494D01*
X131930238Y-108422280D01*
X131930824Y-108445624D01*
X131931528Y-108467844D01*
X131932340Y-108488257D01*
X131933249Y-108506180D01*
X131934245Y-108520930D01*
X131935316Y-108531825D01*
X131936093Y-108536727D01*
X131945095Y-108571814D01*
X131956721Y-108602754D01*
X131971641Y-108630759D01*
X131990523Y-108657045D01*
X132014036Y-108682825D01*
X132019480Y-108688150D01*
X132048881Y-108713333D01*
X132083477Y-108737488D01*
X132122812Y-108760395D01*
X132166430Y-108781836D01*
X132213877Y-108801592D01*
X132264697Y-108819443D01*
X132318434Y-108835171D01*
X132333045Y-108838939D01*
X132363889Y-108846254D01*
X132399201Y-108853902D01*
X132437768Y-108861665D01*
X132478376Y-108869325D01*
X132519811Y-108876663D01*
X132560861Y-108883461D01*
X132600311Y-108889500D01*
X132636949Y-108894564D01*
X132654112Y-108896694D01*
X132703827Y-108901358D01*
X132752696Y-108903552D01*
X132752696Y-109160466D01*
X132687679Y-109155581D01*
X132639842Y-109150195D01*
X132576957Y-109141441D01*
X132514010Y-109131136D01*
X132451778Y-109119459D01*
X132391039Y-109106589D01*
X132332569Y-109092705D01*
X132277146Y-109077984D01*
X132225546Y-109062606D01*
X132178546Y-109046749D01*
X132160389Y-109039998D01*
X132105643Y-109017301D01*
X132056038Y-108993091D01*
X132011143Y-108967106D01*
X131970530Y-108939084D01*
X131933770Y-108908762D01*
X131912089Y-108888051D01*
X131879834Y-108852260D01*
X131852096Y-108814512D01*
X131828536Y-108774177D01*
X131808815Y-108730624D01*
X131792593Y-108683222D01*
X131783642Y-108649539D01*
X131771685Y-108588559D01*
X131764123Y-108524428D01*
X131760954Y-108457632D01*
X131762173Y-108388657D01*
G36*
X131481859Y-105901132D02*
X131485611Y-105901843D01*
X131494303Y-105903411D01*
X131507336Y-105905733D01*
X131524108Y-105908704D01*
X131544021Y-105912217D01*
X131566473Y-105916168D01*
X131590864Y-105920452D01*
X131616595Y-105924964D01*
X131643064Y-105929600D01*
X131669673Y-105934253D01*
X131695821Y-105938820D01*
X131720907Y-105943195D01*
X131744331Y-105947273D01*
X131765494Y-105950949D01*
X131783794Y-105954118D01*
X131798633Y-105956675D01*
X131809409Y-105958516D01*
X131815523Y-105959535D01*
X131816703Y-105959708D01*
X131816907Y-105956930D01*
X131817121Y-105948902D01*
X131817340Y-105936080D01*
X131817559Y-105918923D01*
X131817774Y-105897887D01*
X131817981Y-105873430D01*
X131818176Y-105846010D01*
X131818353Y-105816083D01*
X131818509Y-105784106D01*
X131818604Y-105760507D01*
X131819337Y-105561306D01*
X131882590Y-105572543D01*
X131945843Y-105583781D01*
X131948640Y-105594087D01*
X131950624Y-105601385D01*
X131953612Y-105612354D01*
X131957102Y-105625158D01*
X131958899Y-105631747D01*
X131973118Y-105690405D01*
X131984627Y-105751637D01*
X131993193Y-105813726D01*
X131998581Y-105874956D01*
X132000556Y-105933612D01*
X132000561Y-105936568D01*
X132000561Y-105993501D01*
X132008410Y-105995111D01*
X132012716Y-105995903D01*
X132022247Y-105997595D01*
X132036604Y-106000117D01*
X132055385Y-106003401D01*
X132078193Y-106007376D01*
X132104625Y-106011975D01*
X132134284Y-106017127D01*
X132166768Y-106022764D01*
X132201678Y-106028816D01*
X132238613Y-106035215D01*
X132277175Y-106041891D01*
X132316962Y-106048776D01*
X132357576Y-106055799D01*
X132398616Y-106062893D01*
X132439682Y-106069988D01*
X132480374Y-106077014D01*
X132520293Y-106083904D01*
X132559038Y-106090586D01*
X132596210Y-106096994D01*
X132631408Y-106103057D01*
X132664233Y-106108706D01*
X132694285Y-106113872D01*
X132721164Y-106118486D01*
X132744469Y-106122479D01*
X132763802Y-106125782D01*
X132778762Y-106128326D01*
X132788949Y-106130042D01*
X132793955Y-106130858D01*
X132832407Y-106135100D01*
X132870073Y-106136229D01*
X132906109Y-106134328D01*
X132939669Y-106129480D01*
X132969906Y-106121766D01*
X132995976Y-106111272D01*
X132996464Y-106111027D01*
X133009859Y-106102870D01*
X133024112Y-106091904D01*
X133037647Y-106079541D01*
X133048889Y-106067197D01*
X133055096Y-106058415D01*
X133058603Y-106052177D01*
X133061580Y-106046051D01*
X133064074Y-106039516D01*
X133066134Y-106032057D01*
X133067809Y-106023155D01*
X133069146Y-106012293D01*
X133070194Y-105998952D01*
X133071002Y-105982615D01*
X133071618Y-105962765D01*
X133072090Y-105938883D01*
X133072467Y-105910453D01*
X133072797Y-105876955D01*
X133072874Y-105868171D01*
X133074096Y-105726691D01*
X133120245Y-105734696D01*
X133140959Y-105738254D01*
X133156800Y-105741031D01*
X133168494Y-105743351D01*
X133176769Y-105745540D01*
X133182349Y-105747922D01*
X133185962Y-105750823D01*
X133188335Y-105754568D01*
X133190193Y-105759482D01*
X133192263Y-105765890D01*
X133192677Y-105767116D01*
X133201359Y-105795499D01*
X133209713Y-105828493D01*
X133217525Y-105865004D01*
X133224583Y-105903935D01*
X133230673Y-105944193D01*
X133235583Y-105984681D01*
X133236302Y-105991682D01*
X133239322Y-106026074D01*
X133241016Y-106056314D01*
X133241412Y-106083794D01*
X133240534Y-106109909D01*
X133238835Y-106131760D01*
X133232772Y-106176618D01*
X133223585Y-106216784D01*
X133211114Y-106252444D01*
X133195199Y-106283786D01*
X133175679Y-106310996D01*
X133152395Y-106334260D01*
X133125186Y-106353765D01*
X133093892Y-106369698D01*
X133058353Y-106382243D01*
X133018408Y-106391589D01*
X133015134Y-106392184D01*
X132999756Y-106394177D01*
X132980007Y-106395606D01*
X132957196Y-106396459D01*
X132932632Y-106396726D01*
X132907627Y-106396394D01*
X132883489Y-106395452D01*
X132861529Y-106393889D01*
X132858168Y-106393567D01*
X132850604Y-106392795D01*
X132843157Y-106391992D01*
X132835522Y-106391108D01*
X132827397Y-106390093D01*
X132818476Y-106388895D01*
X132808455Y-106387465D01*
X132797032Y-106385754D01*
X132783901Y-106383709D01*
X132768758Y-106381283D01*
X132751300Y-106378423D01*
X132731222Y-106375081D01*
X132708220Y-106371205D01*
X132681990Y-106366746D01*
X132652229Y-106361654D01*
X132618632Y-106355877D01*
X132580895Y-106349367D01*
X132538713Y-106342073D01*
X132491784Y-106333945D01*
X132439803Y-106324932D01*
X132389729Y-106316244D01*
X132344043Y-106308325D01*
X132299852Y-106300679D01*
X132257489Y-106293365D01*
X132217286Y-106286438D01*
X132179575Y-106279956D01*
X132144688Y-106273975D01*
X132112956Y-106268551D01*
X132084712Y-106263742D01*
X132060288Y-106259604D01*
X132040016Y-106256195D01*
X132024228Y-106253569D01*
X132013255Y-106251785D01*
X132007430Y-106250899D01*
X132006589Y-106250809D01*
X132004864Y-106250924D01*
X132003504Y-106251675D01*
X132002466Y-106253667D01*
X132001706Y-106257508D01*
X132001181Y-106263804D01*
X132000848Y-106273162D01*
X132000662Y-106286189D01*
X132000581Y-106303491D01*
X132000562Y-106325676D01*
X132000561Y-106335000D01*
X132000510Y-106360220D01*
X132000342Y-106380221D01*
X132000036Y-106395491D01*
X131999572Y-106406518D01*
X131998929Y-106413790D01*
X131998086Y-106417794D01*
X131997023Y-106419019D01*
X131996994Y-106419019D01*
X131993395Y-106418467D01*
X131984898Y-106416985D01*
X131972214Y-106414704D01*
X131956056Y-106411752D01*
X131937134Y-106408259D01*
X131916159Y-106404355D01*
X131906382Y-106402524D01*
X131819337Y-106386202D01*
X131818582Y-106300534D01*
X131817828Y-106214866D01*
X131646635Y-106185034D01*
X131475443Y-106155202D01*
X131475440Y-106027434D01*
X131475438Y-105899666D01*
X131481859Y-105901132D01*
X131481859Y-105901132D01*
G37*
X131481859Y-105901132D02*
X131485611Y-105901843D01*
X131494303Y-105903411D01*
X131507336Y-105905733D01*
X131524108Y-105908704D01*
X131544021Y-105912217D01*
X131566473Y-105916168D01*
X131590864Y-105920452D01*
X131616595Y-105924964D01*
X131643064Y-105929600D01*
X131669673Y-105934253D01*
X131695821Y-105938820D01*
X131720907Y-105943195D01*
X131744331Y-105947273D01*
X131765494Y-105950949D01*
X131783794Y-105954118D01*
X131798633Y-105956675D01*
X131809409Y-105958516D01*
X131815523Y-105959535D01*
X131816703Y-105959708D01*
X131816907Y-105956930D01*
X131817121Y-105948902D01*
X131817340Y-105936080D01*
X131817559Y-105918923D01*
X131817774Y-105897887D01*
X131817981Y-105873430D01*
X131818176Y-105846010D01*
X131818353Y-105816083D01*
X131818509Y-105784106D01*
X131818604Y-105760507D01*
X131819337Y-105561306D01*
X131882590Y-105572543D01*
X131945843Y-105583781D01*
X131948640Y-105594087D01*
X131950624Y-105601385D01*
X131953612Y-105612354D01*
X131957102Y-105625158D01*
X131958899Y-105631747D01*
X131973118Y-105690405D01*
X131984627Y-105751637D01*
X131993193Y-105813726D01*
X131998581Y-105874956D01*
X132000556Y-105933612D01*
X132000561Y-105936568D01*
X132000561Y-105993501D01*
X132008410Y-105995111D01*
X132012716Y-105995903D01*
X132022247Y-105997595D01*
X132036604Y-106000117D01*
X132055385Y-106003401D01*
X132078193Y-106007376D01*
X132104625Y-106011975D01*
X132134284Y-106017127D01*
X132166768Y-106022764D01*
X132201678Y-106028816D01*
X132238613Y-106035215D01*
X132277175Y-106041891D01*
X132316962Y-106048776D01*
X132357576Y-106055799D01*
X132398616Y-106062893D01*
X132439682Y-106069988D01*
X132480374Y-106077014D01*
X132520293Y-106083904D01*
X132559038Y-106090586D01*
X132596210Y-106096994D01*
X132631408Y-106103057D01*
X132664233Y-106108706D01*
X132694285Y-106113872D01*
X132721164Y-106118486D01*
X132744469Y-106122479D01*
X132763802Y-106125782D01*
X132778762Y-106128326D01*
X132788949Y-106130042D01*
X132793955Y-106130858D01*
X132832407Y-106135100D01*
X132870073Y-106136229D01*
X132906109Y-106134328D01*
X132939669Y-106129480D01*
X132969906Y-106121766D01*
X132995976Y-106111272D01*
X132996464Y-106111027D01*
X133009859Y-106102870D01*
X133024112Y-106091904D01*
X133037647Y-106079541D01*
X133048889Y-106067197D01*
X133055096Y-106058415D01*
X133058603Y-106052177D01*
X133061580Y-106046051D01*
X133064074Y-106039516D01*
X133066134Y-106032057D01*
X133067809Y-106023155D01*
X133069146Y-106012293D01*
X133070194Y-105998952D01*
X133071002Y-105982615D01*
X133071618Y-105962765D01*
X133072090Y-105938883D01*
X133072467Y-105910453D01*
X133072797Y-105876955D01*
X133072874Y-105868171D01*
X133074096Y-105726691D01*
X133120245Y-105734696D01*
X133140959Y-105738254D01*
X133156800Y-105741031D01*
X133168494Y-105743351D01*
X133176769Y-105745540D01*
X133182349Y-105747922D01*
X133185962Y-105750823D01*
X133188335Y-105754568D01*
X133190193Y-105759482D01*
X133192263Y-105765890D01*
X133192677Y-105767116D01*
X133201359Y-105795499D01*
X133209713Y-105828493D01*
X133217525Y-105865004D01*
X133224583Y-105903935D01*
X133230673Y-105944193D01*
X133235583Y-105984681D01*
X133236302Y-105991682D01*
X133239322Y-106026074D01*
X133241016Y-106056314D01*
X133241412Y-106083794D01*
X133240534Y-106109909D01*
X133238835Y-106131760D01*
X133232772Y-106176618D01*
X133223585Y-106216784D01*
X133211114Y-106252444D01*
X133195199Y-106283786D01*
X133175679Y-106310996D01*
X133152395Y-106334260D01*
X133125186Y-106353765D01*
X133093892Y-106369698D01*
X133058353Y-106382243D01*
X133018408Y-106391589D01*
X133015134Y-106392184D01*
X132999756Y-106394177D01*
X132980007Y-106395606D01*
X132957196Y-106396459D01*
X132932632Y-106396726D01*
X132907627Y-106396394D01*
X132883489Y-106395452D01*
X132861529Y-106393889D01*
X132858168Y-106393567D01*
X132850604Y-106392795D01*
X132843157Y-106391992D01*
X132835522Y-106391108D01*
X132827397Y-106390093D01*
X132818476Y-106388895D01*
X132808455Y-106387465D01*
X132797032Y-106385754D01*
X132783901Y-106383709D01*
X132768758Y-106381283D01*
X132751300Y-106378423D01*
X132731222Y-106375081D01*
X132708220Y-106371205D01*
X132681990Y-106366746D01*
X132652229Y-106361654D01*
X132618632Y-106355877D01*
X132580895Y-106349367D01*
X132538713Y-106342073D01*
X132491784Y-106333945D01*
X132439803Y-106324932D01*
X132389729Y-106316244D01*
X132344043Y-106308325D01*
X132299852Y-106300679D01*
X132257489Y-106293365D01*
X132217286Y-106286438D01*
X132179575Y-106279956D01*
X132144688Y-106273975D01*
X132112956Y-106268551D01*
X132084712Y-106263742D01*
X132060288Y-106259604D01*
X132040016Y-106256195D01*
X132024228Y-106253569D01*
X132013255Y-106251785D01*
X132007430Y-106250899D01*
X132006589Y-106250809D01*
X132004864Y-106250924D01*
X132003504Y-106251675D01*
X132002466Y-106253667D01*
X132001706Y-106257508D01*
X132001181Y-106263804D01*
X132000848Y-106273162D01*
X132000662Y-106286189D01*
X132000581Y-106303491D01*
X132000562Y-106325676D01*
X132000561Y-106335000D01*
X132000510Y-106360220D01*
X132000342Y-106380221D01*
X132000036Y-106395491D01*
X131999572Y-106406518D01*
X131998929Y-106413790D01*
X131998086Y-106417794D01*
X131997023Y-106419019D01*
X131996994Y-106419019D01*
X131993395Y-106418467D01*
X131984898Y-106416985D01*
X131972214Y-106414704D01*
X131956056Y-106411752D01*
X131937134Y-106408259D01*
X131916159Y-106404355D01*
X131906382Y-106402524D01*
X131819337Y-106386202D01*
X131818582Y-106300534D01*
X131817828Y-106214866D01*
X131646635Y-106185034D01*
X131475443Y-106155202D01*
X131475440Y-106027434D01*
X131475438Y-105899666D01*
X131481859Y-105901132D01*
G36*
X131191549Y-104663029D02*
X131193652Y-104609981D01*
X131197410Y-104556678D01*
X131202738Y-104504086D01*
X131209553Y-104453168D01*
X131217771Y-104404889D01*
X131227308Y-104360214D01*
X131238081Y-104320107D01*
X131238776Y-104317832D01*
X131242911Y-104304953D01*
X131246061Y-104296767D01*
X131248650Y-104292435D01*
X131251103Y-104291120D01*
X131252248Y-104291281D01*
X131256075Y-104292092D01*
X131264416Y-104293681D01*
X131276249Y-104295867D01*
X131290553Y-104298468D01*
X131306306Y-104301301D01*
X131322487Y-104304184D01*
X131338074Y-104306936D01*
X131352047Y-104309374D01*
X131363383Y-104311316D01*
X131371063Y-104312581D01*
X131374016Y-104312989D01*
X131374229Y-104315770D01*
X131374455Y-104323826D01*
X131374690Y-104336724D01*
X131374928Y-104354029D01*
X131375167Y-104375309D01*
X131375401Y-104400130D01*
X131375626Y-104428059D01*
X131375837Y-104458663D01*
X131376032Y-104491508D01*
X131376204Y-104526160D01*
X131376243Y-104534882D01*
X131376431Y-104577758D01*
X131376621Y-104615369D01*
X131376844Y-104648158D01*
X131377128Y-104676570D01*
X131377502Y-104701046D01*
X131377995Y-104722030D01*
X131378636Y-104739965D01*
X131379454Y-104755295D01*
X131380479Y-104768462D01*
X131381739Y-104779909D01*
X131383264Y-104790081D01*
X131385082Y-104799419D01*
X131387222Y-104808367D01*
X131389714Y-104817369D01*
X131392587Y-104826867D01*
X131395869Y-104837304D01*
X131396125Y-104838112D01*
X131410214Y-104876420D01*
X131427070Y-104910430D01*
X131447281Y-104941120D01*
X131471431Y-104969466D01*
X131480177Y-104978289D01*
X131512872Y-105006234D01*
X131549563Y-105030366D01*
X131589873Y-105050540D01*
X131633423Y-105066609D01*
X131679836Y-105078429D01*
X131728733Y-105085853D01*
X131765783Y-105088413D01*
X131799546Y-105088696D01*
X131829047Y-105086755D01*
X131855405Y-105082264D01*
X131879741Y-105074896D01*
X131903177Y-105064325D01*
X131926832Y-105050223D01*
X131947764Y-105035357D01*
X131965520Y-105021227D01*
X131982301Y-105006194D01*
X131998405Y-104989824D01*
X132014128Y-104971682D01*
X132029765Y-104951335D01*
X132045612Y-104928348D01*
X132061967Y-104902288D01*
X132079125Y-104872721D01*
X132097383Y-104839212D01*
X132117036Y-104801329D01*
X132138381Y-104758636D01*
X132142802Y-104749640D01*
X132158646Y-104718120D01*
X132173318Y-104690818D01*
X132187555Y-104666572D01*
X132202091Y-104644219D01*
X132217660Y-104622598D01*
X132234998Y-104600545D01*
X132243867Y-104589820D01*
X132270005Y-104560453D01*
X132295763Y-104535515D01*
X132322414Y-104513976D01*
X132351232Y-104494802D01*
X132382491Y-104477471D01*
X132413847Y-104462731D01*
X132443922Y-104451513D01*
X132474127Y-104443492D01*
X132505875Y-104438348D01*
X132540577Y-104435755D01*
X132567067Y-104435287D01*
X132622995Y-104437494D01*
X132679387Y-104444112D01*
X132718533Y-104451156D01*
X132780803Y-104465433D01*
X132838005Y-104481948D01*
X132890394Y-104500873D01*
X132938221Y-104522379D01*
X132981740Y-104546638D01*
X133021205Y-104573822D01*
X133056868Y-104604102D01*
X133088983Y-104637651D01*
X133117802Y-104674640D01*
X133143580Y-104715241D01*
X133163360Y-104752867D01*
X133180635Y-104791518D01*
X133195320Y-104830714D01*
X133207661Y-104871396D01*
X133217901Y-104914506D01*
X133226283Y-104960987D01*
X133233053Y-105011781D01*
X133234941Y-105029326D01*
X133236059Y-105043028D01*
X133237122Y-105061184D01*
X133238108Y-105082800D01*
X133238994Y-105106882D01*
X133239757Y-105132437D01*
X133240374Y-105158472D01*
X133240823Y-105183993D01*
X133241080Y-105208006D01*
X133241122Y-105229519D01*
X133240927Y-105247537D01*
X133240472Y-105261067D01*
X133240334Y-105263348D01*
X133237565Y-105302091D01*
X133234759Y-105336264D01*
X133231779Y-105367006D01*
X133228490Y-105395452D01*
X133224756Y-105422740D01*
X133220442Y-105450009D01*
X133215412Y-105478394D01*
X133213457Y-105488809D01*
X133209976Y-105506118D01*
X133206003Y-105524252D01*
X133201778Y-105542274D01*
X133197539Y-105559250D01*
X133193529Y-105574247D01*
X133189985Y-105586329D01*
X133187148Y-105594563D01*
X133185452Y-105597859D01*
X133182320Y-105597871D01*
X133174553Y-105597020D01*
X133163133Y-105595464D01*
X133149041Y-105593360D01*
X133133258Y-105590866D01*
X133116765Y-105588140D01*
X133100545Y-105585338D01*
X133085578Y-105582619D01*
X133072845Y-105580139D01*
X133066118Y-105578705D01*
X133060022Y-105577335D01*
X133058497Y-105352561D01*
X133058178Y-105307763D01*
X133057848Y-105268208D01*
X133057483Y-105233431D01*
X133057060Y-105202967D01*
X133056552Y-105176351D01*
X133055937Y-105153117D01*
X133055190Y-105132802D01*
X133054285Y-105114939D01*
X133053199Y-105099065D01*
X133051908Y-105084713D01*
X133050386Y-105071419D01*
X133048609Y-105058719D01*
X133046553Y-105046146D01*
X133044194Y-105033236D01*
X133041506Y-105019525D01*
X133040797Y-105016003D01*
X133029598Y-104969690D01*
X133015605Y-104928121D01*
X132998670Y-104890981D01*
X132978643Y-104857957D01*
X132955373Y-104828734D01*
X132947869Y-104820794D01*
X132919166Y-104794438D01*
X132887923Y-104771405D01*
X132853630Y-104751450D01*
X132815775Y-104734326D01*
X132773849Y-104719787D01*
X132727340Y-104707589D01*
X132701202Y-104702095D01*
X132684285Y-104699588D01*
X132664303Y-104697876D01*
X132642633Y-104696958D01*
X132620650Y-104696832D01*
X132599732Y-104697500D01*
X132581254Y-104698960D01*
X132566593Y-104701212D01*
X132562786Y-104702141D01*
X132539384Y-104710144D01*
X132516803Y-104721137D01*
X132494053Y-104735716D01*
X132470143Y-104754476D01*
X132457866Y-104765229D01*
X132440801Y-104782312D01*
X132422809Y-104803666D01*
X132403780Y-104829460D01*
X132383604Y-104859868D01*
X132362172Y-104895062D01*
X132339374Y-104935213D01*
X132315101Y-104980494D01*
X132292270Y-105025045D01*
X132275892Y-105057045D01*
X132261077Y-105084708D01*
X132247250Y-105108987D01*
X132233837Y-105130838D01*
X132220266Y-105151217D01*
X132205963Y-105171077D01*
X132199274Y-105179920D01*
X132166722Y-105218281D01*
X132131555Y-105251702D01*
X132093321Y-105280521D01*
X132051570Y-105305078D01*
X132006269Y-105325549D01*
X131970080Y-105337189D01*
X131929815Y-105345342D01*
X131885918Y-105350012D01*
X131838832Y-105351202D01*
X131788998Y-105348913D01*
X131736859Y-105343150D01*
X131682858Y-105333914D01*
X131635258Y-105323195D01*
X131575991Y-105306095D01*
X131521192Y-105285501D01*
X131470763Y-105261345D01*
X131424606Y-105233557D01*
X131382622Y-105202068D01*
X131344714Y-105166809D01*
X131310783Y-105127711D01*
X131280731Y-105084704D01*
X131269382Y-105065704D01*
X131251685Y-105030664D01*
X131235774Y-104991095D01*
X131221932Y-104947971D01*
X131210439Y-104902269D01*
X131201575Y-104854963D01*
X131195998Y-104811000D01*
X131192638Y-104764503D01*
X131191183Y-104714858D01*
X131191549Y-104663029D01*
X131191549Y-104663029D01*
G37*
X131191549Y-104663029D02*
X131193652Y-104609981D01*
X131197410Y-104556678D01*
X131202738Y-104504086D01*
X131209553Y-104453168D01*
X131217771Y-104404889D01*
X131227308Y-104360214D01*
X131238081Y-104320107D01*
X131238776Y-104317832D01*
X131242911Y-104304953D01*
X131246061Y-104296767D01*
X131248650Y-104292435D01*
X131251103Y-104291120D01*
X131252248Y-104291281D01*
X131256075Y-104292092D01*
X131264416Y-104293681D01*
X131276249Y-104295867D01*
X131290553Y-104298468D01*
X131306306Y-104301301D01*
X131322487Y-104304184D01*
X131338074Y-104306936D01*
X131352047Y-104309374D01*
X131363383Y-104311316D01*
X131371063Y-104312581D01*
X131374016Y-104312989D01*
X131374229Y-104315770D01*
X131374455Y-104323826D01*
X131374690Y-104336724D01*
X131374928Y-104354029D01*
X131375167Y-104375309D01*
X131375401Y-104400130D01*
X131375626Y-104428059D01*
X131375837Y-104458663D01*
X131376032Y-104491508D01*
X131376204Y-104526160D01*
X131376243Y-104534882D01*
X131376431Y-104577758D01*
X131376621Y-104615369D01*
X131376844Y-104648158D01*
X131377128Y-104676570D01*
X131377502Y-104701046D01*
X131377995Y-104722030D01*
X131378636Y-104739965D01*
X131379454Y-104755295D01*
X131380479Y-104768462D01*
X131381739Y-104779909D01*
X131383264Y-104790081D01*
X131385082Y-104799419D01*
X131387222Y-104808367D01*
X131389714Y-104817369D01*
X131392587Y-104826867D01*
X131395869Y-104837304D01*
X131396125Y-104838112D01*
X131410214Y-104876420D01*
X131427070Y-104910430D01*
X131447281Y-104941120D01*
X131471431Y-104969466D01*
X131480177Y-104978289D01*
X131512872Y-105006234D01*
X131549563Y-105030366D01*
X131589873Y-105050540D01*
X131633423Y-105066609D01*
X131679836Y-105078429D01*
X131728733Y-105085853D01*
X131765783Y-105088413D01*
X131799546Y-105088696D01*
X131829047Y-105086755D01*
X131855405Y-105082264D01*
X131879741Y-105074896D01*
X131903177Y-105064325D01*
X131926832Y-105050223D01*
X131947764Y-105035357D01*
X131965520Y-105021227D01*
X131982301Y-105006194D01*
X131998405Y-104989824D01*
X132014128Y-104971682D01*
X132029765Y-104951335D01*
X132045612Y-104928348D01*
X132061967Y-104902288D01*
X132079125Y-104872721D01*
X132097383Y-104839212D01*
X132117036Y-104801329D01*
X132138381Y-104758636D01*
X132142802Y-104749640D01*
X132158646Y-104718120D01*
X132173318Y-104690818D01*
X132187555Y-104666572D01*
X132202091Y-104644219D01*
X132217660Y-104622598D01*
X132234998Y-104600545D01*
X132243867Y-104589820D01*
X132270005Y-104560453D01*
X132295763Y-104535515D01*
X132322414Y-104513976D01*
X132351232Y-104494802D01*
X132382491Y-104477471D01*
X132413847Y-104462731D01*
X132443922Y-104451513D01*
X132474127Y-104443492D01*
X132505875Y-104438348D01*
X132540577Y-104435755D01*
X132567067Y-104435287D01*
X132622995Y-104437494D01*
X132679387Y-104444112D01*
X132718533Y-104451156D01*
X132780803Y-104465433D01*
X132838005Y-104481948D01*
X132890394Y-104500873D01*
X132938221Y-104522379D01*
X132981740Y-104546638D01*
X133021205Y-104573822D01*
X133056868Y-104604102D01*
X133088983Y-104637651D01*
X133117802Y-104674640D01*
X133143580Y-104715241D01*
X133163360Y-104752867D01*
X133180635Y-104791518D01*
X133195320Y-104830714D01*
X133207661Y-104871396D01*
X133217901Y-104914506D01*
X133226283Y-104960987D01*
X133233053Y-105011781D01*
X133234941Y-105029326D01*
X133236059Y-105043028D01*
X133237122Y-105061184D01*
X133238108Y-105082800D01*
X133238994Y-105106882D01*
X133239757Y-105132437D01*
X133240374Y-105158472D01*
X133240823Y-105183993D01*
X133241080Y-105208006D01*
X133241122Y-105229519D01*
X133240927Y-105247537D01*
X133240472Y-105261067D01*
X133240334Y-105263348D01*
X133237565Y-105302091D01*
X133234759Y-105336264D01*
X133231779Y-105367006D01*
X133228490Y-105395452D01*
X133224756Y-105422740D01*
X133220442Y-105450009D01*
X133215412Y-105478394D01*
X133213457Y-105488809D01*
X133209976Y-105506118D01*
X133206003Y-105524252D01*
X133201778Y-105542274D01*
X133197539Y-105559250D01*
X133193529Y-105574247D01*
X133189985Y-105586329D01*
X133187148Y-105594563D01*
X133185452Y-105597859D01*
X133182320Y-105597871D01*
X133174553Y-105597020D01*
X133163133Y-105595464D01*
X133149041Y-105593360D01*
X133133258Y-105590866D01*
X133116765Y-105588140D01*
X133100545Y-105585338D01*
X133085578Y-105582619D01*
X133072845Y-105580139D01*
X133066118Y-105578705D01*
X133060022Y-105577335D01*
X133058497Y-105352561D01*
X133058178Y-105307763D01*
X133057848Y-105268208D01*
X133057483Y-105233431D01*
X133057060Y-105202967D01*
X133056552Y-105176351D01*
X133055937Y-105153117D01*
X133055190Y-105132802D01*
X133054285Y-105114939D01*
X133053199Y-105099065D01*
X133051908Y-105084713D01*
X133050386Y-105071419D01*
X133048609Y-105058719D01*
X133046553Y-105046146D01*
X133044194Y-105033236D01*
X133041506Y-105019525D01*
X133040797Y-105016003D01*
X133029598Y-104969690D01*
X133015605Y-104928121D01*
X132998670Y-104890981D01*
X132978643Y-104857957D01*
X132955373Y-104828734D01*
X132947869Y-104820794D01*
X132919166Y-104794438D01*
X132887923Y-104771405D01*
X132853630Y-104751450D01*
X132815775Y-104734326D01*
X132773849Y-104719787D01*
X132727340Y-104707589D01*
X132701202Y-104702095D01*
X132684285Y-104699588D01*
X132664303Y-104697876D01*
X132642633Y-104696958D01*
X132620650Y-104696832D01*
X132599732Y-104697500D01*
X132581254Y-104698960D01*
X132566593Y-104701212D01*
X132562786Y-104702141D01*
X132539384Y-104710144D01*
X132516803Y-104721137D01*
X132494053Y-104735716D01*
X132470143Y-104754476D01*
X132457866Y-104765229D01*
X132440801Y-104782312D01*
X132422809Y-104803666D01*
X132403780Y-104829460D01*
X132383604Y-104859868D01*
X132362172Y-104895062D01*
X132339374Y-104935213D01*
X132315101Y-104980494D01*
X132292270Y-105025045D01*
X132275892Y-105057045D01*
X132261077Y-105084708D01*
X132247250Y-105108987D01*
X132233837Y-105130838D01*
X132220266Y-105151217D01*
X132205963Y-105171077D01*
X132199274Y-105179920D01*
X132166722Y-105218281D01*
X132131555Y-105251702D01*
X132093321Y-105280521D01*
X132051570Y-105305078D01*
X132006269Y-105325549D01*
X131970080Y-105337189D01*
X131929815Y-105345342D01*
X131885918Y-105350012D01*
X131838832Y-105351202D01*
X131788998Y-105348913D01*
X131736859Y-105343150D01*
X131682858Y-105333914D01*
X131635258Y-105323195D01*
X131575991Y-105306095D01*
X131521192Y-105285501D01*
X131470763Y-105261345D01*
X131424606Y-105233557D01*
X131382622Y-105202068D01*
X131344714Y-105166809D01*
X131310783Y-105127711D01*
X131280731Y-105084704D01*
X131269382Y-105065704D01*
X131251685Y-105030664D01*
X131235774Y-104991095D01*
X131221932Y-104947971D01*
X131210439Y-104902269D01*
X131201575Y-104854963D01*
X131195998Y-104811000D01*
X131192638Y-104764503D01*
X131191183Y-104714858D01*
X131191549Y-104663029D01*
G36*
X131481859Y-103646587D02*
X131485639Y-103647314D01*
X131494363Y-103648899D01*
X131507428Y-103651235D01*
X131524233Y-103654217D01*
X131544176Y-103657742D01*
X131566657Y-103661702D01*
X131591073Y-103665993D01*
X131616822Y-103670510D01*
X131643303Y-103675148D01*
X131669915Y-103679801D01*
X131696056Y-103684364D01*
X131721124Y-103688732D01*
X131744518Y-103692799D01*
X131765636Y-103696461D01*
X131783876Y-103699612D01*
X131798638Y-103702147D01*
X131809318Y-103703961D01*
X131815317Y-103704948D01*
X131816407Y-103705101D01*
X131816661Y-103702323D01*
X131816921Y-103694295D01*
X131817183Y-103681474D01*
X131817442Y-103664318D01*
X131817692Y-103643283D01*
X131817929Y-103618828D01*
X131818147Y-103591410D01*
X131818341Y-103561486D01*
X131818507Y-103529515D01*
X131818604Y-103506009D01*
X131819337Y-103306918D01*
X131882612Y-103318131D01*
X131945886Y-103329343D01*
X131948662Y-103339565D01*
X131950636Y-103346822D01*
X131953614Y-103357757D01*
X131957098Y-103370539D01*
X131958899Y-103377140D01*
X131973118Y-103435798D01*
X131984627Y-103497030D01*
X131993193Y-103559119D01*
X131998581Y-103620349D01*
X132000556Y-103679005D01*
X132000561Y-103681961D01*
X132000561Y-103738895D01*
X132008410Y-103740554D01*
X132015749Y-103741990D01*
X132028176Y-103744280D01*
X132045290Y-103747358D01*
X132066687Y-103751153D01*
X132091968Y-103755598D01*
X132120730Y-103760623D01*
X132152572Y-103766161D01*
X132187093Y-103772142D01*
X132223891Y-103778499D01*
X132262564Y-103785162D01*
X132302711Y-103792063D01*
X132343930Y-103799134D01*
X132385821Y-103806305D01*
X132427981Y-103813509D01*
X132470009Y-103820676D01*
X132511503Y-103827739D01*
X132552063Y-103834628D01*
X132591285Y-103841276D01*
X132628770Y-103847613D01*
X132664115Y-103853570D01*
X132696919Y-103859081D01*
X132726781Y-103864075D01*
X132753298Y-103868484D01*
X132776070Y-103872241D01*
X132794695Y-103875275D01*
X132808771Y-103877519D01*
X132817897Y-103878904D01*
X132821067Y-103879320D01*
X132861292Y-103881739D01*
X132899086Y-103880574D01*
X132934084Y-103875940D01*
X132965924Y-103867955D01*
X132994241Y-103856739D01*
X133018672Y-103842407D01*
X133038854Y-103825078D01*
X133054422Y-103804869D01*
X133055228Y-103803523D01*
X133058707Y-103797357D01*
X133061660Y-103791276D01*
X133064135Y-103784763D01*
X133066180Y-103777301D01*
X133067842Y-103768374D01*
X133069170Y-103757464D01*
X133070212Y-103744057D01*
X133071015Y-103727634D01*
X133071628Y-103707679D01*
X133072099Y-103683676D01*
X133072475Y-103655107D01*
X133072805Y-103621457D01*
X133072874Y-103613620D01*
X133074096Y-103472196D01*
X133127254Y-103481546D01*
X133144110Y-103484544D01*
X133159100Y-103487273D01*
X133171289Y-103489557D01*
X133179741Y-103491221D01*
X133183522Y-103492090D01*
X133183542Y-103492098D01*
X133185693Y-103495286D01*
X133188908Y-103503024D01*
X133192880Y-103514322D01*
X133197305Y-103528188D01*
X133201878Y-103543633D01*
X133206292Y-103559664D01*
X133210242Y-103575291D01*
X133213128Y-103588090D01*
X133223652Y-103643273D01*
X133231763Y-103696230D01*
X133237410Y-103746399D01*
X133240544Y-103793220D01*
X133241114Y-103836135D01*
X133239070Y-103874582D01*
X133238951Y-103875836D01*
X133232953Y-103920357D01*
X133223968Y-103960182D01*
X133211918Y-103995527D01*
X133196720Y-104026608D01*
X133178295Y-104053642D01*
X133168664Y-104064832D01*
X133154991Y-104078536D01*
X133141328Y-104089656D01*
X133125756Y-104099593D01*
X133108914Y-104108491D01*
X133077772Y-104121693D01*
X133043864Y-104131702D01*
X133006847Y-104138550D01*
X132966376Y-104142267D01*
X132922109Y-104142883D01*
X132873700Y-104140429D01*
X132820806Y-104134935D01*
X132817098Y-104134460D01*
X132810292Y-104133455D01*
X132798222Y-104131530D01*
X132781248Y-104128747D01*
X132759727Y-104125166D01*
X132734019Y-104120850D01*
X132704483Y-104115858D01*
X132671478Y-104110252D01*
X132635364Y-104104093D01*
X132596498Y-104097442D01*
X132555240Y-104090360D01*
X132511949Y-104082908D01*
X132466984Y-104075147D01*
X132420704Y-104067138D01*
X132397898Y-104063184D01*
X132351675Y-104055171D01*
X132306951Y-104047432D01*
X132264053Y-104040022D01*
X132223308Y-104032998D01*
X132185046Y-104026416D01*
X132149592Y-104020331D01*
X132117275Y-104014799D01*
X132088422Y-104009878D01*
X132063360Y-104005621D01*
X132042417Y-104002087D01*
X132025921Y-103999330D01*
X132014199Y-103997406D01*
X132007579Y-103996372D01*
X132006196Y-103996202D01*
X132004586Y-103996384D01*
X132003315Y-103997332D01*
X132002345Y-103999652D01*
X132001634Y-104003948D01*
X132001142Y-104010826D01*
X132000830Y-104020889D01*
X132000655Y-104034743D01*
X132000579Y-104052993D01*
X132000562Y-104076243D01*
X132000561Y-104080726D01*
X132000561Y-104165249D01*
X131992713Y-104163744D01*
X131987969Y-104162860D01*
X131978389Y-104161095D01*
X131964750Y-104158591D01*
X131947831Y-104155491D01*
X131928411Y-104151938D01*
X131907268Y-104148075D01*
X131901388Y-104147002D01*
X131817911Y-104131764D01*
X131817910Y-104046101D01*
X131817910Y-103960438D01*
X131646674Y-103930562D01*
X131475438Y-103900685D01*
X131475438Y-103645060D01*
X131481859Y-103646587D01*
X131481859Y-103646587D01*
G37*
X131481859Y-103646587D02*
X131485639Y-103647314D01*
X131494363Y-103648899D01*
X131507428Y-103651235D01*
X131524233Y-103654217D01*
X131544176Y-103657742D01*
X131566657Y-103661702D01*
X131591073Y-103665993D01*
X131616822Y-103670510D01*
X131643303Y-103675148D01*
X131669915Y-103679801D01*
X131696056Y-103684364D01*
X131721124Y-103688732D01*
X131744518Y-103692799D01*
X131765636Y-103696461D01*
X131783876Y-103699612D01*
X131798638Y-103702147D01*
X131809318Y-103703961D01*
X131815317Y-103704948D01*
X131816407Y-103705101D01*
X131816661Y-103702323D01*
X131816921Y-103694295D01*
X131817183Y-103681474D01*
X131817442Y-103664318D01*
X131817692Y-103643283D01*
X131817929Y-103618828D01*
X131818147Y-103591410D01*
X131818341Y-103561486D01*
X131818507Y-103529515D01*
X131818604Y-103506009D01*
X131819337Y-103306918D01*
X131882612Y-103318131D01*
X131945886Y-103329343D01*
X131948662Y-103339565D01*
X131950636Y-103346822D01*
X131953614Y-103357757D01*
X131957098Y-103370539D01*
X131958899Y-103377140D01*
X131973118Y-103435798D01*
X131984627Y-103497030D01*
X131993193Y-103559119D01*
X131998581Y-103620349D01*
X132000556Y-103679005D01*
X132000561Y-103681961D01*
X132000561Y-103738895D01*
X132008410Y-103740554D01*
X132015749Y-103741990D01*
X132028176Y-103744280D01*
X132045290Y-103747358D01*
X132066687Y-103751153D01*
X132091968Y-103755598D01*
X132120730Y-103760623D01*
X132152572Y-103766161D01*
X132187093Y-103772142D01*
X132223891Y-103778499D01*
X132262564Y-103785162D01*
X132302711Y-103792063D01*
X132343930Y-103799134D01*
X132385821Y-103806305D01*
X132427981Y-103813509D01*
X132470009Y-103820676D01*
X132511503Y-103827739D01*
X132552063Y-103834628D01*
X132591285Y-103841276D01*
X132628770Y-103847613D01*
X132664115Y-103853570D01*
X132696919Y-103859081D01*
X132726781Y-103864075D01*
X132753298Y-103868484D01*
X132776070Y-103872241D01*
X132794695Y-103875275D01*
X132808771Y-103877519D01*
X132817897Y-103878904D01*
X132821067Y-103879320D01*
X132861292Y-103881739D01*
X132899086Y-103880574D01*
X132934084Y-103875940D01*
X132965924Y-103867955D01*
X132994241Y-103856739D01*
X133018672Y-103842407D01*
X133038854Y-103825078D01*
X133054422Y-103804869D01*
X133055228Y-103803523D01*
X133058707Y-103797357D01*
X133061660Y-103791276D01*
X133064135Y-103784763D01*
X133066180Y-103777301D01*
X133067842Y-103768374D01*
X133069170Y-103757464D01*
X133070212Y-103744057D01*
X133071015Y-103727634D01*
X133071628Y-103707679D01*
X133072099Y-103683676D01*
X133072475Y-103655107D01*
X133072805Y-103621457D01*
X133072874Y-103613620D01*
X133074096Y-103472196D01*
X133127254Y-103481546D01*
X133144110Y-103484544D01*
X133159100Y-103487273D01*
X133171289Y-103489557D01*
X133179741Y-103491221D01*
X133183522Y-103492090D01*
X133183542Y-103492098D01*
X133185693Y-103495286D01*
X133188908Y-103503024D01*
X133192880Y-103514322D01*
X133197305Y-103528188D01*
X133201878Y-103543633D01*
X133206292Y-103559664D01*
X133210242Y-103575291D01*
X133213128Y-103588090D01*
X133223652Y-103643273D01*
X133231763Y-103696230D01*
X133237410Y-103746399D01*
X133240544Y-103793220D01*
X133241114Y-103836135D01*
X133239070Y-103874582D01*
X133238951Y-103875836D01*
X133232953Y-103920357D01*
X133223968Y-103960182D01*
X133211918Y-103995527D01*
X133196720Y-104026608D01*
X133178295Y-104053642D01*
X133168664Y-104064832D01*
X133154991Y-104078536D01*
X133141328Y-104089656D01*
X133125756Y-104099593D01*
X133108914Y-104108491D01*
X133077772Y-104121693D01*
X133043864Y-104131702D01*
X133006847Y-104138550D01*
X132966376Y-104142267D01*
X132922109Y-104142883D01*
X132873700Y-104140429D01*
X132820806Y-104134935D01*
X132817098Y-104134460D01*
X132810292Y-104133455D01*
X132798222Y-104131530D01*
X132781248Y-104128747D01*
X132759727Y-104125166D01*
X132734019Y-104120850D01*
X132704483Y-104115858D01*
X132671478Y-104110252D01*
X132635364Y-104104093D01*
X132596498Y-104097442D01*
X132555240Y-104090360D01*
X132511949Y-104082908D01*
X132466984Y-104075147D01*
X132420704Y-104067138D01*
X132397898Y-104063184D01*
X132351675Y-104055171D01*
X132306951Y-104047432D01*
X132264053Y-104040022D01*
X132223308Y-104032998D01*
X132185046Y-104026416D01*
X132149592Y-104020331D01*
X132117275Y-104014799D01*
X132088422Y-104009878D01*
X132063360Y-104005621D01*
X132042417Y-104002087D01*
X132025921Y-103999330D01*
X132014199Y-103997406D01*
X132007579Y-103996372D01*
X132006196Y-103996202D01*
X132004586Y-103996384D01*
X132003315Y-103997332D01*
X132002345Y-103999652D01*
X132001634Y-104003948D01*
X132001142Y-104010826D01*
X132000830Y-104020889D01*
X132000655Y-104034743D01*
X132000579Y-104052993D01*
X132000562Y-104076243D01*
X132000561Y-104080726D01*
X132000561Y-104165249D01*
X131992713Y-104163744D01*
X131987969Y-104162860D01*
X131978389Y-104161095D01*
X131964750Y-104158591D01*
X131947831Y-104155491D01*
X131928411Y-104151938D01*
X131907268Y-104148075D01*
X131901388Y-104147002D01*
X131817911Y-104131764D01*
X131817910Y-104046101D01*
X131817910Y-103960438D01*
X131646674Y-103930562D01*
X131475438Y-103900685D01*
X131475438Y-103645060D01*
X131481859Y-103646587D01*
G36*
X131762728Y-102496761D02*
X131763545Y-102467796D01*
X131764818Y-102441148D01*
X131766544Y-102417962D01*
X131767582Y-102407989D01*
X131773724Y-102363232D01*
X131781677Y-102317620D01*
X131791174Y-102272231D01*
X131801951Y-102228141D01*
X131813742Y-102186427D01*
X131826284Y-102148167D01*
X131839310Y-102114438D01*
X131840495Y-102111665D01*
X131844257Y-102103647D01*
X131847361Y-102099824D01*
X131851128Y-102099036D01*
X131854293Y-102099547D01*
X131857787Y-102100184D01*
X131866656Y-102101760D01*
X131880652Y-102104231D01*
X131899527Y-102107555D01*
X131923034Y-102111686D01*
X131950925Y-102116583D01*
X131982951Y-102122202D01*
X132018866Y-102128498D01*
X132058422Y-102135430D01*
X132101370Y-102142953D01*
X132147463Y-102151024D01*
X132196453Y-102159599D01*
X132248093Y-102168636D01*
X132302134Y-102178091D01*
X132358329Y-102187920D01*
X132416430Y-102198080D01*
X132476189Y-102208527D01*
X132531393Y-102218176D01*
X132592417Y-102228843D01*
X132651996Y-102239260D01*
X132709882Y-102249385D01*
X132765830Y-102259173D01*
X132819590Y-102268583D01*
X132870918Y-102277569D01*
X132919564Y-102286090D01*
X132965283Y-102294101D01*
X133007828Y-102301559D01*
X133046950Y-102308422D01*
X133082403Y-102314645D01*
X133113941Y-102320186D01*
X133141315Y-102325000D01*
X133164279Y-102329045D01*
X133182586Y-102332278D01*
X133195988Y-102334655D01*
X133204239Y-102336132D01*
X133207061Y-102336658D01*
X133213483Y-102338176D01*
X133213483Y-102549258D01*
X133127865Y-102549258D01*
X133127865Y-102556521D01*
X133129633Y-102562322D01*
X133134643Y-102571702D01*
X133142449Y-102583881D01*
X133147769Y-102591482D01*
X133176223Y-102635912D01*
X133199637Y-102682885D01*
X133217945Y-102732146D01*
X133231083Y-102783440D01*
X133238983Y-102836512D01*
X133241582Y-102891106D01*
X133238847Y-102946616D01*
X133232913Y-102989413D01*
X133223733Y-103029341D01*
X133211496Y-103065878D01*
X133196388Y-103098497D01*
X133178598Y-103126674D01*
X133171076Y-103136224D01*
X133147970Y-103160636D01*
X133122085Y-103181963D01*
X133093043Y-103200369D01*
X133060467Y-103216014D01*
X133023978Y-103229059D01*
X132983200Y-103239665D01*
X132937755Y-103247995D01*
X132897168Y-103253194D01*
X132857873Y-103256017D01*
X132813739Y-103256650D01*
X132802714Y-103256307D01*
X132802714Y-102997351D01*
X132848808Y-102994581D01*
X132890466Y-102988999D01*
X132927532Y-102980612D01*
X132959854Y-102969427D01*
X132974985Y-102962379D01*
X132994748Y-102950190D01*
X133013656Y-102934837D01*
X133030335Y-102917639D01*
X133043413Y-102899917D01*
X133047474Y-102892691D01*
X133058352Y-102865819D01*
X133066086Y-102835026D01*
X133070574Y-102801219D01*
X133071714Y-102765308D01*
X133069405Y-102728200D01*
X133067513Y-102713359D01*
X133058501Y-102668930D01*
X133044589Y-102624155D01*
X133028831Y-102586055D01*
X133016085Y-102558639D01*
X132964239Y-102549495D01*
X132955837Y-102548013D01*
X132942141Y-102545596D01*
X132923477Y-102542302D01*
X132900173Y-102538189D01*
X132872555Y-102533314D01*
X132840951Y-102527736D01*
X132805686Y-102521511D01*
X132767087Y-102514697D01*
X132725482Y-102507353D01*
X132681198Y-102499536D01*
X132634560Y-102491303D01*
X132585896Y-102482713D01*
X132535533Y-102473822D01*
X132483797Y-102464689D01*
X132431016Y-102455371D01*
X132422943Y-102453946D01*
X132370912Y-102444769D01*
X132320392Y-102435876D01*
X132271672Y-102427315D01*
X132225038Y-102419138D01*
X132180776Y-102411393D01*
X132139173Y-102404130D01*
X132100516Y-102397400D01*
X132065092Y-102391252D01*
X132033188Y-102385735D01*
X132005089Y-102380899D01*
X131981084Y-102376795D01*
X131961458Y-102373471D01*
X131946499Y-102370978D01*
X131936493Y-102369365D01*
X131931727Y-102368682D01*
X131931353Y-102368669D01*
X131930726Y-102371761D01*
X131930214Y-102379821D01*
X131929816Y-102392109D01*
X131929528Y-102407888D01*
X131929349Y-102426418D01*
X131929276Y-102446960D01*
X131929305Y-102468775D01*
X131929435Y-102491124D01*
X131929663Y-102513270D01*
X131929986Y-102534471D01*
X131930402Y-102553991D01*
X131930908Y-102571090D01*
X131931502Y-102585028D01*
X131932142Y-102594645D01*
X131937323Y-102633416D01*
X131945850Y-102668158D01*
X131958106Y-102699718D01*
X131974475Y-102728946D01*
X131995339Y-102756690D01*
X132014735Y-102777600D01*
X132028378Y-102790421D01*
X132043793Y-102803657D01*
X132058953Y-102815621D01*
X132069056Y-102822823D01*
X132084332Y-102832310D01*
X132103624Y-102843216D01*
X132125629Y-102854892D01*
X132149043Y-102866687D01*
X132172563Y-102877953D01*
X132194887Y-102888037D01*
X132214709Y-102896291D01*
X132221587Y-102898912D01*
X132261039Y-102912271D01*
X132305995Y-102925335D01*
X132356256Y-102938057D01*
X132411621Y-102950392D01*
X132471892Y-102962295D01*
X132536871Y-102973720D01*
X132577056Y-102980175D01*
X132639354Y-102988721D01*
X132697832Y-102994428D01*
X132752337Y-102997302D01*
X132802714Y-102997351D01*
X132802714Y-103256307D01*
X132765181Y-103255136D01*
X132712613Y-103251519D01*
X132656449Y-103245844D01*
X132597102Y-103238154D01*
X132534987Y-103228493D01*
X132470518Y-103216907D01*
X132404108Y-103203437D01*
X132380134Y-103198209D01*
X132305191Y-103180027D01*
X132235599Y-103159946D01*
X132171318Y-103137948D01*
X132112311Y-103114013D01*
X132058539Y-103088123D01*
X132009963Y-103060259D01*
X131966545Y-103030404D01*
X131928245Y-102998539D01*
X131895563Y-102965253D01*
X131867675Y-102930863D01*
X131843489Y-102894890D01*
X131822763Y-102856745D01*
X131805253Y-102815839D01*
X131790717Y-102771585D01*
X131778912Y-102723394D01*
X131769594Y-102670679D01*
X131767414Y-102655154D01*
X131765487Y-102636306D01*
X131764020Y-102612913D01*
X131763011Y-102586118D01*
X131762459Y-102557065D01*
X131762365Y-102526898D01*
X131762728Y-102496761D01*
X131762728Y-102496761D01*
G37*
X131762728Y-102496761D02*
X131763545Y-102467796D01*
X131764818Y-102441148D01*
X131766544Y-102417962D01*
X131767582Y-102407989D01*
X131773724Y-102363232D01*
X131781677Y-102317620D01*
X131791174Y-102272231D01*
X131801951Y-102228141D01*
X131813742Y-102186427D01*
X131826284Y-102148167D01*
X131839310Y-102114438D01*
X131840495Y-102111665D01*
X131844257Y-102103647D01*
X131847361Y-102099824D01*
X131851128Y-102099036D01*
X131854293Y-102099547D01*
X131857787Y-102100184D01*
X131866656Y-102101760D01*
X131880652Y-102104231D01*
X131899527Y-102107555D01*
X131923034Y-102111686D01*
X131950925Y-102116583D01*
X131982951Y-102122202D01*
X132018866Y-102128498D01*
X132058422Y-102135430D01*
X132101370Y-102142953D01*
X132147463Y-102151024D01*
X132196453Y-102159599D01*
X132248093Y-102168636D01*
X132302134Y-102178091D01*
X132358329Y-102187920D01*
X132416430Y-102198080D01*
X132476189Y-102208527D01*
X132531393Y-102218176D01*
X132592417Y-102228843D01*
X132651996Y-102239260D01*
X132709882Y-102249385D01*
X132765830Y-102259173D01*
X132819590Y-102268583D01*
X132870918Y-102277569D01*
X132919564Y-102286090D01*
X132965283Y-102294101D01*
X133007828Y-102301559D01*
X133046950Y-102308422D01*
X133082403Y-102314645D01*
X133113941Y-102320186D01*
X133141315Y-102325000D01*
X133164279Y-102329045D01*
X133182586Y-102332278D01*
X133195988Y-102334655D01*
X133204239Y-102336132D01*
X133207061Y-102336658D01*
X133213483Y-102338176D01*
X133213483Y-102549258D01*
X133127865Y-102549258D01*
X133127865Y-102556521D01*
X133129633Y-102562322D01*
X133134643Y-102571702D01*
X133142449Y-102583881D01*
X133147769Y-102591482D01*
X133176223Y-102635912D01*
X133199637Y-102682885D01*
X133217945Y-102732146D01*
X133231083Y-102783440D01*
X133238983Y-102836512D01*
X133241582Y-102891106D01*
X133238847Y-102946616D01*
X133232913Y-102989413D01*
X133223733Y-103029341D01*
X133211496Y-103065878D01*
X133196388Y-103098497D01*
X133178598Y-103126674D01*
X133171076Y-103136224D01*
X133147970Y-103160636D01*
X133122085Y-103181963D01*
X133093043Y-103200369D01*
X133060467Y-103216014D01*
X133023978Y-103229059D01*
X132983200Y-103239665D01*
X132937755Y-103247995D01*
X132897168Y-103253194D01*
X132857873Y-103256017D01*
X132813739Y-103256650D01*
X132802714Y-103256307D01*
X132802714Y-102997351D01*
X132848808Y-102994581D01*
X132890466Y-102988999D01*
X132927532Y-102980612D01*
X132959854Y-102969427D01*
X132974985Y-102962379D01*
X132994748Y-102950190D01*
X133013656Y-102934837D01*
X133030335Y-102917639D01*
X133043413Y-102899917D01*
X133047474Y-102892691D01*
X133058352Y-102865819D01*
X133066086Y-102835026D01*
X133070574Y-102801219D01*
X133071714Y-102765308D01*
X133069405Y-102728200D01*
X133067513Y-102713359D01*
X133058501Y-102668930D01*
X133044589Y-102624155D01*
X133028831Y-102586055D01*
X133016085Y-102558639D01*
X132964239Y-102549495D01*
X132955837Y-102548013D01*
X132942141Y-102545596D01*
X132923477Y-102542302D01*
X132900173Y-102538189D01*
X132872555Y-102533314D01*
X132840951Y-102527736D01*
X132805686Y-102521511D01*
X132767087Y-102514697D01*
X132725482Y-102507353D01*
X132681198Y-102499536D01*
X132634560Y-102491303D01*
X132585896Y-102482713D01*
X132535533Y-102473822D01*
X132483797Y-102464689D01*
X132431016Y-102455371D01*
X132422943Y-102453946D01*
X132370912Y-102444769D01*
X132320392Y-102435876D01*
X132271672Y-102427315D01*
X132225038Y-102419138D01*
X132180776Y-102411393D01*
X132139173Y-102404130D01*
X132100516Y-102397400D01*
X132065092Y-102391252D01*
X132033188Y-102385735D01*
X132005089Y-102380899D01*
X131981084Y-102376795D01*
X131961458Y-102373471D01*
X131946499Y-102370978D01*
X131936493Y-102369365D01*
X131931727Y-102368682D01*
X131931353Y-102368669D01*
X131930726Y-102371761D01*
X131930214Y-102379821D01*
X131929816Y-102392109D01*
X131929528Y-102407888D01*
X131929349Y-102426418D01*
X131929276Y-102446960D01*
X131929305Y-102468775D01*
X131929435Y-102491124D01*
X131929663Y-102513270D01*
X131929986Y-102534471D01*
X131930402Y-102553991D01*
X131930908Y-102571090D01*
X131931502Y-102585028D01*
X131932142Y-102594645D01*
X131937323Y-102633416D01*
X131945850Y-102668158D01*
X131958106Y-102699718D01*
X131974475Y-102728946D01*
X131995339Y-102756690D01*
X132014735Y-102777600D01*
X132028378Y-102790421D01*
X132043793Y-102803657D01*
X132058953Y-102815621D01*
X132069056Y-102822823D01*
X132084332Y-102832310D01*
X132103624Y-102843216D01*
X132125629Y-102854892D01*
X132149043Y-102866687D01*
X132172563Y-102877953D01*
X132194887Y-102888037D01*
X132214709Y-102896291D01*
X132221587Y-102898912D01*
X132261039Y-102912271D01*
X132305995Y-102925335D01*
X132356256Y-102938057D01*
X132411621Y-102950392D01*
X132471892Y-102962295D01*
X132536871Y-102973720D01*
X132577056Y-102980175D01*
X132639354Y-102988721D01*
X132697832Y-102994428D01*
X132752337Y-102997302D01*
X132802714Y-102997351D01*
X132802714Y-103256307D01*
X132765181Y-103255136D01*
X132712613Y-103251519D01*
X132656449Y-103245844D01*
X132597102Y-103238154D01*
X132534987Y-103228493D01*
X132470518Y-103216907D01*
X132404108Y-103203437D01*
X132380134Y-103198209D01*
X132305191Y-103180027D01*
X132235599Y-103159946D01*
X132171318Y-103137948D01*
X132112311Y-103114013D01*
X132058539Y-103088123D01*
X132009963Y-103060259D01*
X131966545Y-103030404D01*
X131928245Y-102998539D01*
X131895563Y-102965253D01*
X131867675Y-102930863D01*
X131843489Y-102894890D01*
X131822763Y-102856745D01*
X131805253Y-102815839D01*
X131790717Y-102771585D01*
X131778912Y-102723394D01*
X131769594Y-102670679D01*
X131767414Y-102655154D01*
X131765487Y-102636306D01*
X131764020Y-102612913D01*
X131763011Y-102586118D01*
X131762459Y-102557065D01*
X131762365Y-102526898D01*
X131762728Y-102496761D01*
G36*
X131762664Y-101225327D02*
X131763237Y-101198733D01*
X131764216Y-101173831D01*
X131765593Y-101151852D01*
X131767361Y-101134025D01*
X131767485Y-101133068D01*
X131771671Y-101104136D01*
X131776726Y-101073563D01*
X131782316Y-101043169D01*
X131788105Y-101014773D01*
X131793758Y-100990195D01*
X131793910Y-100989584D01*
X131797978Y-100973990D01*
X131802415Y-100958177D01*
X131806888Y-100943212D01*
X131811062Y-100930165D01*
X131814603Y-100920104D01*
X131817177Y-100914099D01*
X131817827Y-100913107D01*
X131821153Y-100912864D01*
X131829198Y-100913530D01*
X131841069Y-100914994D01*
X131855869Y-100917144D01*
X131872704Y-100919868D01*
X131874551Y-100920182D01*
X131929213Y-100929531D01*
X131929238Y-101068007D01*
X131929303Y-101097209D01*
X131929478Y-101125990D01*
X131929751Y-101153579D01*
X131930110Y-101179202D01*
X131930543Y-101202084D01*
X131931037Y-101221453D01*
X131931580Y-101236535D01*
X131932063Y-101245304D01*
X131937442Y-101290075D01*
X131946952Y-101331063D01*
X131960765Y-101368601D01*
X131979058Y-101403022D01*
X132002004Y-101434656D01*
X132029778Y-101463838D01*
X132060031Y-101489020D01*
X132089610Y-101509623D01*
X132121624Y-101528761D01*
X132156427Y-101546556D01*
X132194374Y-101563127D01*
X132235820Y-101578596D01*
X132281119Y-101593084D01*
X132330626Y-101606710D01*
X132384696Y-101619596D01*
X132443683Y-101631862D01*
X132507943Y-101643629D01*
X132521245Y-101645897D01*
X132564967Y-101653071D01*
X132603888Y-101659005D01*
X132638758Y-101663771D01*
X132670333Y-101667441D01*
X132699363Y-101670089D01*
X132726602Y-101671785D01*
X132752804Y-101672604D01*
X132778719Y-101672616D01*
X132795382Y-101672238D01*
X132837671Y-101669827D01*
X132875083Y-101665275D01*
X132908084Y-101658441D01*
X132937144Y-101649181D01*
X132962731Y-101637353D01*
X132985312Y-101622816D01*
X133000786Y-101609836D01*
X133018829Y-101591295D01*
X133033213Y-101572376D01*
X133044598Y-101551835D01*
X133053646Y-101528430D01*
X133061018Y-101500918D01*
X133062589Y-101493672D01*
X133064929Y-101481015D01*
X133066938Y-101466785D01*
X133068639Y-101450523D01*
X133070050Y-101431767D01*
X133071191Y-101410056D01*
X133072084Y-101384929D01*
X133072748Y-101355926D01*
X133073202Y-101322584D01*
X133073469Y-101284444D01*
X133073566Y-101242514D01*
X133073640Y-101104455D01*
X133081488Y-101105938D01*
X133086871Y-101106901D01*
X133096756Y-101108617D01*
X133110018Y-101110894D01*
X133125533Y-101113539D01*
X133137122Y-101115503D01*
X133184908Y-101123585D01*
X133190583Y-101140775D01*
X133196679Y-101161155D01*
X133203107Y-101186080D01*
X133209639Y-101214418D01*
X133216045Y-101245034D01*
X133222096Y-101276794D01*
X133227564Y-101308565D01*
X133232218Y-101339212D01*
X133235015Y-101360595D01*
X133236323Y-101374141D01*
X133237542Y-101391719D01*
X133238637Y-101412180D01*
X133239573Y-101434380D01*
X133240316Y-101457170D01*
X133240831Y-101479404D01*
X133241083Y-101499934D01*
X133241036Y-101517615D01*
X133240657Y-101531298D01*
X133240347Y-101536112D01*
X133235740Y-101582529D01*
X133230130Y-101623858D01*
X133223323Y-101660657D01*
X133215130Y-101693487D01*
X133205360Y-101722909D01*
X133193821Y-101749482D01*
X133180323Y-101773768D01*
X133164674Y-101796327D01*
X133146684Y-101817718D01*
X133143009Y-101821671D01*
X133118093Y-101845152D01*
X133090491Y-101865422D01*
X133059722Y-101882698D01*
X133025304Y-101897199D01*
X132986754Y-101909143D01*
X132943591Y-101918749D01*
X132919528Y-101922836D01*
X132898215Y-101925410D01*
X132872483Y-101927359D01*
X132843587Y-101928661D01*
X132812783Y-101929301D01*
X132781327Y-101929259D01*
X132750475Y-101928516D01*
X132721483Y-101927055D01*
X132706910Y-101925949D01*
X132655675Y-101920690D01*
X132600554Y-101913535D01*
X132542952Y-101904732D01*
X132484274Y-101894526D01*
X132425925Y-101883165D01*
X132369309Y-101870896D01*
X132315832Y-101857964D01*
X132307359Y-101855771D01*
X132235868Y-101835288D01*
X132169626Y-101812588D01*
X132108618Y-101787661D01*
X132052830Y-101760498D01*
X132002248Y-101731091D01*
X131956858Y-101699432D01*
X131916645Y-101665510D01*
X131881595Y-101629318D01*
X131851693Y-101590846D01*
X131835039Y-101564661D01*
X131817653Y-101530906D01*
X131802053Y-101492509D01*
X131788504Y-101450332D01*
X131777270Y-101405233D01*
X131768616Y-101358075D01*
X131766165Y-101340618D01*
X131764590Y-101324018D01*
X131763461Y-101302959D01*
X131762768Y-101278670D01*
X131762505Y-101252383D01*
X131762664Y-101225327D01*
X131762664Y-101225327D01*
G37*
X131762664Y-101225327D02*
X131763237Y-101198733D01*
X131764216Y-101173831D01*
X131765593Y-101151852D01*
X131767361Y-101134025D01*
X131767485Y-101133068D01*
X131771671Y-101104136D01*
X131776726Y-101073563D01*
X131782316Y-101043169D01*
X131788105Y-101014773D01*
X131793758Y-100990195D01*
X131793910Y-100989584D01*
X131797978Y-100973990D01*
X131802415Y-100958177D01*
X131806888Y-100943212D01*
X131811062Y-100930165D01*
X131814603Y-100920104D01*
X131817177Y-100914099D01*
X131817827Y-100913107D01*
X131821153Y-100912864D01*
X131829198Y-100913530D01*
X131841069Y-100914994D01*
X131855869Y-100917144D01*
X131872704Y-100919868D01*
X131874551Y-100920182D01*
X131929213Y-100929531D01*
X131929238Y-101068007D01*
X131929303Y-101097209D01*
X131929478Y-101125990D01*
X131929751Y-101153579D01*
X131930110Y-101179202D01*
X131930543Y-101202084D01*
X131931037Y-101221453D01*
X131931580Y-101236535D01*
X131932063Y-101245304D01*
X131937442Y-101290075D01*
X131946952Y-101331063D01*
X131960765Y-101368601D01*
X131979058Y-101403022D01*
X132002004Y-101434656D01*
X132029778Y-101463838D01*
X132060031Y-101489020D01*
X132089610Y-101509623D01*
X132121624Y-101528761D01*
X132156427Y-101546556D01*
X132194374Y-101563127D01*
X132235820Y-101578596D01*
X132281119Y-101593084D01*
X132330626Y-101606710D01*
X132384696Y-101619596D01*
X132443683Y-101631862D01*
X132507943Y-101643629D01*
X132521245Y-101645897D01*
X132564967Y-101653071D01*
X132603888Y-101659005D01*
X132638758Y-101663771D01*
X132670333Y-101667441D01*
X132699363Y-101670089D01*
X132726602Y-101671785D01*
X132752804Y-101672604D01*
X132778719Y-101672616D01*
X132795382Y-101672238D01*
X132837671Y-101669827D01*
X132875083Y-101665275D01*
X132908084Y-101658441D01*
X132937144Y-101649181D01*
X132962731Y-101637353D01*
X132985312Y-101622816D01*
X133000786Y-101609836D01*
X133018829Y-101591295D01*
X133033213Y-101572376D01*
X133044598Y-101551835D01*
X133053646Y-101528430D01*
X133061018Y-101500918D01*
X133062589Y-101493672D01*
X133064929Y-101481015D01*
X133066938Y-101466785D01*
X133068639Y-101450523D01*
X133070050Y-101431767D01*
X133071191Y-101410056D01*
X133072084Y-101384929D01*
X133072748Y-101355926D01*
X133073202Y-101322584D01*
X133073469Y-101284444D01*
X133073566Y-101242514D01*
X133073640Y-101104455D01*
X133081488Y-101105938D01*
X133086871Y-101106901D01*
X133096756Y-101108617D01*
X133110018Y-101110894D01*
X133125533Y-101113539D01*
X133137122Y-101115503D01*
X133184908Y-101123585D01*
X133190583Y-101140775D01*
X133196679Y-101161155D01*
X133203107Y-101186080D01*
X133209639Y-101214418D01*
X133216045Y-101245034D01*
X133222096Y-101276794D01*
X133227564Y-101308565D01*
X133232218Y-101339212D01*
X133235015Y-101360595D01*
X133236323Y-101374141D01*
X133237542Y-101391719D01*
X133238637Y-101412180D01*
X133239573Y-101434380D01*
X133240316Y-101457170D01*
X133240831Y-101479404D01*
X133241083Y-101499934D01*
X133241036Y-101517615D01*
X133240657Y-101531298D01*
X133240347Y-101536112D01*
X133235740Y-101582529D01*
X133230130Y-101623858D01*
X133223323Y-101660657D01*
X133215130Y-101693487D01*
X133205360Y-101722909D01*
X133193821Y-101749482D01*
X133180323Y-101773768D01*
X133164674Y-101796327D01*
X133146684Y-101817718D01*
X133143009Y-101821671D01*
X133118093Y-101845152D01*
X133090491Y-101865422D01*
X133059722Y-101882698D01*
X133025304Y-101897199D01*
X132986754Y-101909143D01*
X132943591Y-101918749D01*
X132919528Y-101922836D01*
X132898215Y-101925410D01*
X132872483Y-101927359D01*
X132843587Y-101928661D01*
X132812783Y-101929301D01*
X132781327Y-101929259D01*
X132750475Y-101928516D01*
X132721483Y-101927055D01*
X132706910Y-101925949D01*
X132655675Y-101920690D01*
X132600554Y-101913535D01*
X132542952Y-101904732D01*
X132484274Y-101894526D01*
X132425925Y-101883165D01*
X132369309Y-101870896D01*
X132315832Y-101857964D01*
X132307359Y-101855771D01*
X132235868Y-101835288D01*
X132169626Y-101812588D01*
X132108618Y-101787661D01*
X132052830Y-101760498D01*
X132002248Y-101731091D01*
X131956858Y-101699432D01*
X131916645Y-101665510D01*
X131881595Y-101629318D01*
X131851693Y-101590846D01*
X131835039Y-101564661D01*
X131817653Y-101530906D01*
X131802053Y-101492509D01*
X131788504Y-101450332D01*
X131777270Y-101405233D01*
X131768616Y-101358075D01*
X131766165Y-101340618D01*
X131764590Y-101324018D01*
X131763461Y-101302959D01*
X131762768Y-101278670D01*
X131762505Y-101252383D01*
X131762664Y-101225327D01*
G36*
X131226432Y-110404410D02*
X131231161Y-110405271D01*
X131240749Y-110406942D01*
X131254429Y-110409292D01*
X131271430Y-110412190D01*
X131290984Y-110415503D01*
X131312321Y-110419102D01*
X131319898Y-110420376D01*
X131341584Y-110424030D01*
X131361673Y-110427437D01*
X131379412Y-110430468D01*
X131394049Y-110432993D01*
X131404829Y-110434883D01*
X131410999Y-110436007D01*
X131411938Y-110436197D01*
X131418359Y-110437637D01*
X131418359Y-111149829D01*
X131764398Y-111211849D01*
X131808070Y-111219670D01*
X131850204Y-111227205D01*
X131890458Y-111234393D01*
X131928489Y-111241173D01*
X131963952Y-111247484D01*
X131996505Y-111253266D01*
X132025803Y-111258457D01*
X132051504Y-111262996D01*
X132073264Y-111266823D01*
X132090738Y-111269877D01*
X132103585Y-111272097D01*
X132111460Y-111273422D01*
X132114005Y-111273799D01*
X132114598Y-111272738D01*
X132115125Y-111269397D01*
X132115591Y-111263504D01*
X132115998Y-111254786D01*
X132116350Y-111242969D01*
X132116650Y-111227781D01*
X132116901Y-111208950D01*
X132117107Y-111186202D01*
X132117271Y-111159264D01*
X132117395Y-111127864D01*
X132117484Y-111091729D01*
X132117541Y-111050586D01*
X132117569Y-111004162D01*
X132117573Y-110975494D01*
X132117585Y-110925983D01*
X132117625Y-110881906D01*
X132117695Y-110842992D01*
X132117799Y-110808967D01*
X132117940Y-110779559D01*
X132118121Y-110754495D01*
X132118346Y-110733501D01*
X132118617Y-110716305D01*
X132118939Y-110702635D01*
X132119313Y-110692217D01*
X132119745Y-110684778D01*
X132120236Y-110680047D01*
X132120790Y-110677749D01*
X132121140Y-110677424D01*
X132124716Y-110677937D01*
X132133232Y-110679318D01*
X132146003Y-110681450D01*
X132162346Y-110684219D01*
X132181577Y-110687508D01*
X132203014Y-110691202D01*
X132218887Y-110693953D01*
X132313067Y-110710316D01*
X132315921Y-111309308D01*
X132662674Y-111369827D01*
X132708674Y-111377855D01*
X132754622Y-111385874D01*
X132800032Y-111393800D01*
X132844419Y-111401547D01*
X132887297Y-111409031D01*
X132928181Y-111416167D01*
X132966586Y-111422870D01*
X133002026Y-111429055D01*
X133034015Y-111434639D01*
X133062068Y-111439535D01*
X133085700Y-111443660D01*
X133104424Y-111446929D01*
X133111455Y-111448156D01*
X133213483Y-111465968D01*
X133213483Y-111721112D01*
X133192792Y-111717286D01*
X133188429Y-111716506D01*
X133178653Y-111714776D01*
X133163672Y-111712134D01*
X133143694Y-111708615D01*
X133118928Y-111704256D01*
X133089583Y-111699095D01*
X133055867Y-111693167D01*
X133017989Y-111686510D01*
X132976156Y-111679159D01*
X132930579Y-111671152D01*
X132881464Y-111662526D01*
X132829021Y-111653315D01*
X132773459Y-111643559D01*
X132714985Y-111633292D01*
X132653808Y-111622552D01*
X132590137Y-111611375D01*
X132524181Y-111599799D01*
X132456147Y-111587858D01*
X132386245Y-111575591D01*
X132314682Y-111563034D01*
X132241668Y-111550223D01*
X132203191Y-111543472D01*
X132129649Y-111530569D01*
X132057517Y-111517912D01*
X131987002Y-111505538D01*
X131918307Y-111493482D01*
X131851638Y-111481780D01*
X131787199Y-111470469D01*
X131725196Y-111459584D01*
X131665833Y-111449161D01*
X131609316Y-111439237D01*
X131555848Y-111429847D01*
X131505635Y-111421027D01*
X131458883Y-111412813D01*
X131415795Y-111405242D01*
X131376577Y-111398349D01*
X131341433Y-111392170D01*
X131310569Y-111386742D01*
X131284190Y-111382100D01*
X131262500Y-111378280D01*
X131245704Y-111375318D01*
X131234007Y-111373251D01*
X131227614Y-111372113D01*
X131226432Y-111371897D01*
X131218584Y-111370310D01*
X131218584Y-110402827D01*
X131226432Y-110404410D01*
X131226432Y-110404410D01*
G37*
X131226432Y-110404410D02*
X131231161Y-110405271D01*
X131240749Y-110406942D01*
X131254429Y-110409292D01*
X131271430Y-110412190D01*
X131290984Y-110415503D01*
X131312321Y-110419102D01*
X131319898Y-110420376D01*
X131341584Y-110424030D01*
X131361673Y-110427437D01*
X131379412Y-110430468D01*
X131394049Y-110432993D01*
X131404829Y-110434883D01*
X131410999Y-110436007D01*
X131411938Y-110436197D01*
X131418359Y-110437637D01*
X131418359Y-111149829D01*
X131764398Y-111211849D01*
X131808070Y-111219670D01*
X131850204Y-111227205D01*
X131890458Y-111234393D01*
X131928489Y-111241173D01*
X131963952Y-111247484D01*
X131996505Y-111253266D01*
X132025803Y-111258457D01*
X132051504Y-111262996D01*
X132073264Y-111266823D01*
X132090738Y-111269877D01*
X132103585Y-111272097D01*
X132111460Y-111273422D01*
X132114005Y-111273799D01*
X132114598Y-111272738D01*
X132115125Y-111269397D01*
X132115591Y-111263504D01*
X132115998Y-111254786D01*
X132116350Y-111242969D01*
X132116650Y-111227781D01*
X132116901Y-111208950D01*
X132117107Y-111186202D01*
X132117271Y-111159264D01*
X132117395Y-111127864D01*
X132117484Y-111091729D01*
X132117541Y-111050586D01*
X132117569Y-111004162D01*
X132117573Y-110975494D01*
X132117585Y-110925983D01*
X132117625Y-110881906D01*
X132117695Y-110842992D01*
X132117799Y-110808967D01*
X132117940Y-110779559D01*
X132118121Y-110754495D01*
X132118346Y-110733501D01*
X132118617Y-110716305D01*
X132118939Y-110702635D01*
X132119313Y-110692217D01*
X132119745Y-110684778D01*
X132120236Y-110680047D01*
X132120790Y-110677749D01*
X132121140Y-110677424D01*
X132124716Y-110677937D01*
X132133232Y-110679318D01*
X132146003Y-110681450D01*
X132162346Y-110684219D01*
X132181577Y-110687508D01*
X132203014Y-110691202D01*
X132218887Y-110693953D01*
X132313067Y-110710316D01*
X132315921Y-111309308D01*
X132662674Y-111369827D01*
X132708674Y-111377855D01*
X132754622Y-111385874D01*
X132800032Y-111393800D01*
X132844419Y-111401547D01*
X132887297Y-111409031D01*
X132928181Y-111416167D01*
X132966586Y-111422870D01*
X133002026Y-111429055D01*
X133034015Y-111434639D01*
X133062068Y-111439535D01*
X133085700Y-111443660D01*
X133104424Y-111446929D01*
X133111455Y-111448156D01*
X133213483Y-111465968D01*
X133213483Y-111721112D01*
X133192792Y-111717286D01*
X133188429Y-111716506D01*
X133178653Y-111714776D01*
X133163672Y-111712134D01*
X133143694Y-111708615D01*
X133118928Y-111704256D01*
X133089583Y-111699095D01*
X133055867Y-111693167D01*
X133017989Y-111686510D01*
X132976156Y-111679159D01*
X132930579Y-111671152D01*
X132881464Y-111662526D01*
X132829021Y-111653315D01*
X132773459Y-111643559D01*
X132714985Y-111633292D01*
X132653808Y-111622552D01*
X132590137Y-111611375D01*
X132524181Y-111599799D01*
X132456147Y-111587858D01*
X132386245Y-111575591D01*
X132314682Y-111563034D01*
X132241668Y-111550223D01*
X132203191Y-111543472D01*
X132129649Y-111530569D01*
X132057517Y-111517912D01*
X131987002Y-111505538D01*
X131918307Y-111493482D01*
X131851638Y-111481780D01*
X131787199Y-111470469D01*
X131725196Y-111459584D01*
X131665833Y-111449161D01*
X131609316Y-111439237D01*
X131555848Y-111429847D01*
X131505635Y-111421027D01*
X131458883Y-111412813D01*
X131415795Y-111405242D01*
X131376577Y-111398349D01*
X131341433Y-111392170D01*
X131310569Y-111386742D01*
X131284190Y-111382100D01*
X131262500Y-111378280D01*
X131245704Y-111375318D01*
X131234007Y-111373251D01*
X131227614Y-111372113D01*
X131226432Y-111371897D01*
X131218584Y-111370310D01*
X131218584Y-110402827D01*
X131226432Y-110404410D01*
G36*
X131218601Y-109988952D02*
X131218664Y-109963706D01*
X131218790Y-109943209D01*
X131218994Y-109926982D01*
X131219294Y-109914545D01*
X131219706Y-109905419D01*
X131220247Y-109899124D01*
X131220933Y-109895182D01*
X131221782Y-109893113D01*
X131222809Y-109892438D01*
X131222989Y-109892427D01*
X131225967Y-109892913D01*
X131234322Y-109894343D01*
X131247810Y-109896674D01*
X131266186Y-109899864D01*
X131289206Y-109903868D01*
X131316625Y-109908645D01*
X131348199Y-109914152D01*
X131383683Y-109920346D01*
X131422832Y-109927183D01*
X131465403Y-109934622D01*
X131511150Y-109942619D01*
X131559829Y-109951131D01*
X131611196Y-109960116D01*
X131665006Y-109969531D01*
X131721013Y-109979332D01*
X131778975Y-109989478D01*
X131838646Y-109999924D01*
X131899782Y-110010629D01*
X131962138Y-110021549D01*
X132025469Y-110032642D01*
X132089532Y-110043865D01*
X132154081Y-110055174D01*
X132218873Y-110066528D01*
X132283661Y-110077883D01*
X132348203Y-110089196D01*
X132412253Y-110100425D01*
X132475567Y-110111526D01*
X132537901Y-110122457D01*
X132599009Y-110133175D01*
X132658647Y-110143638D01*
X132716572Y-110153801D01*
X132772537Y-110163623D01*
X132826299Y-110173061D01*
X132877613Y-110182071D01*
X132926235Y-110190611D01*
X132971919Y-110198638D01*
X133014422Y-110206109D01*
X133053499Y-110212982D01*
X133088906Y-110219213D01*
X133120397Y-110224759D01*
X133147729Y-110229579D01*
X133170656Y-110233628D01*
X133188934Y-110236864D01*
X133202320Y-110239245D01*
X133204207Y-110239582D01*
X133213483Y-110241242D01*
X133213483Y-110367924D01*
X133213469Y-110398220D01*
X133213416Y-110423295D01*
X133213305Y-110443638D01*
X133213118Y-110459737D01*
X133212837Y-110472079D01*
X133212444Y-110481152D01*
X133211920Y-110487444D01*
X133211246Y-110491442D01*
X133210405Y-110493635D01*
X133209379Y-110494510D01*
X133208738Y-110494606D01*
X133205601Y-110494118D01*
X133197045Y-110492676D01*
X133183271Y-110490316D01*
X133164480Y-110487073D01*
X133140875Y-110482983D01*
X133112656Y-110478080D01*
X133080026Y-110472400D01*
X133043186Y-110465978D01*
X133002338Y-110458850D01*
X132957684Y-110451051D01*
X132909426Y-110442615D01*
X132857764Y-110433579D01*
X132802902Y-110423977D01*
X132745040Y-110413845D01*
X132684380Y-110403218D01*
X132621124Y-110392132D01*
X132555474Y-110380621D01*
X132487631Y-110368721D01*
X132417797Y-110356467D01*
X132346174Y-110343894D01*
X132272963Y-110331039D01*
X132213063Y-110320517D01*
X132138753Y-110307463D01*
X132065885Y-110294663D01*
X131994658Y-110282154D01*
X131925273Y-110269970D01*
X131857932Y-110258147D01*
X131792835Y-110246719D01*
X131730183Y-110235722D01*
X131670177Y-110225192D01*
X131613018Y-110215163D01*
X131558907Y-110205670D01*
X131508044Y-110196750D01*
X131460632Y-110188436D01*
X131416869Y-110180765D01*
X131376959Y-110173772D01*
X131341100Y-110167491D01*
X131309495Y-110161958D01*
X131282344Y-110157209D01*
X131259848Y-110153278D01*
X131242208Y-110150201D01*
X131229625Y-110148013D01*
X131222300Y-110146749D01*
X131220358Y-110146427D01*
X131219991Y-110143668D01*
X131219649Y-110135775D01*
X131219341Y-110123319D01*
X131219074Y-110106874D01*
X131218858Y-110087011D01*
X131218699Y-110064305D01*
X131218606Y-110039328D01*
X131218584Y-110019427D01*
X131218601Y-109988952D01*
X131218601Y-109988952D01*
G37*
X131218601Y-109988952D02*
X131218664Y-109963706D01*
X131218790Y-109943209D01*
X131218994Y-109926982D01*
X131219294Y-109914545D01*
X131219706Y-109905419D01*
X131220247Y-109899124D01*
X131220933Y-109895182D01*
X131221782Y-109893113D01*
X131222809Y-109892438D01*
X131222989Y-109892427D01*
X131225967Y-109892913D01*
X131234322Y-109894343D01*
X131247810Y-109896674D01*
X131266186Y-109899864D01*
X131289206Y-109903868D01*
X131316625Y-109908645D01*
X131348199Y-109914152D01*
X131383683Y-109920346D01*
X131422832Y-109927183D01*
X131465403Y-109934622D01*
X131511150Y-109942619D01*
X131559829Y-109951131D01*
X131611196Y-109960116D01*
X131665006Y-109969531D01*
X131721013Y-109979332D01*
X131778975Y-109989478D01*
X131838646Y-109999924D01*
X131899782Y-110010629D01*
X131962138Y-110021549D01*
X132025469Y-110032642D01*
X132089532Y-110043865D01*
X132154081Y-110055174D01*
X132218873Y-110066528D01*
X132283661Y-110077883D01*
X132348203Y-110089196D01*
X132412253Y-110100425D01*
X132475567Y-110111526D01*
X132537901Y-110122457D01*
X132599009Y-110133175D01*
X132658647Y-110143638D01*
X132716572Y-110153801D01*
X132772537Y-110163623D01*
X132826299Y-110173061D01*
X132877613Y-110182071D01*
X132926235Y-110190611D01*
X132971919Y-110198638D01*
X133014422Y-110206109D01*
X133053499Y-110212982D01*
X133088906Y-110219213D01*
X133120397Y-110224759D01*
X133147729Y-110229579D01*
X133170656Y-110233628D01*
X133188934Y-110236864D01*
X133202320Y-110239245D01*
X133204207Y-110239582D01*
X133213483Y-110241242D01*
X133213483Y-110367924D01*
X133213469Y-110398220D01*
X133213416Y-110423295D01*
X133213305Y-110443638D01*
X133213118Y-110459737D01*
X133212837Y-110472079D01*
X133212444Y-110481152D01*
X133211920Y-110487444D01*
X133211246Y-110491442D01*
X133210405Y-110493635D01*
X133209379Y-110494510D01*
X133208738Y-110494606D01*
X133205601Y-110494118D01*
X133197045Y-110492676D01*
X133183271Y-110490316D01*
X133164480Y-110487073D01*
X133140875Y-110482983D01*
X133112656Y-110478080D01*
X133080026Y-110472400D01*
X133043186Y-110465978D01*
X133002338Y-110458850D01*
X132957684Y-110451051D01*
X132909426Y-110442615D01*
X132857764Y-110433579D01*
X132802902Y-110423977D01*
X132745040Y-110413845D01*
X132684380Y-110403218D01*
X132621124Y-110392132D01*
X132555474Y-110380621D01*
X132487631Y-110368721D01*
X132417797Y-110356467D01*
X132346174Y-110343894D01*
X132272963Y-110331039D01*
X132213063Y-110320517D01*
X132138753Y-110307463D01*
X132065885Y-110294663D01*
X131994658Y-110282154D01*
X131925273Y-110269970D01*
X131857932Y-110258147D01*
X131792835Y-110246719D01*
X131730183Y-110235722D01*
X131670177Y-110225192D01*
X131613018Y-110215163D01*
X131558907Y-110205670D01*
X131508044Y-110196750D01*
X131460632Y-110188436D01*
X131416869Y-110180765D01*
X131376959Y-110173772D01*
X131341100Y-110167491D01*
X131309495Y-110161958D01*
X131282344Y-110157209D01*
X131259848Y-110153278D01*
X131242208Y-110150201D01*
X131229625Y-110148013D01*
X131222300Y-110146749D01*
X131220358Y-110146427D01*
X131219991Y-110143668D01*
X131219649Y-110135775D01*
X131219341Y-110123319D01*
X131219074Y-110106874D01*
X131218858Y-110087011D01*
X131218699Y-110064305D01*
X131218606Y-110039328D01*
X131218584Y-110019427D01*
X131218601Y-109988952D01*
G36*
X131789774Y-109528576D02*
X131789840Y-109505798D01*
X131789948Y-109480772D01*
X131790054Y-109461050D01*
X131790797Y-109334151D01*
X132500000Y-109459065D01*
X132562767Y-109470119D01*
X132624063Y-109480913D01*
X132683651Y-109491403D01*
X132741292Y-109501549D01*
X132796749Y-109511308D01*
X132849783Y-109520639D01*
X132900158Y-109529499D01*
X132947634Y-109537848D01*
X132991975Y-109545643D01*
X133032942Y-109552843D01*
X133070298Y-109559405D01*
X133103804Y-109565289D01*
X133133224Y-109570451D01*
X133158318Y-109574851D01*
X133178850Y-109578446D01*
X133194581Y-109581195D01*
X133205273Y-109583055D01*
X133210690Y-109583986D01*
X133211342Y-109584090D01*
X133211786Y-109586872D01*
X133212198Y-109594789D01*
X133212570Y-109607266D01*
X133212891Y-109623731D01*
X133213152Y-109643610D01*
X133213344Y-109666330D01*
X133213456Y-109691317D01*
X133213483Y-109711202D01*
X133213447Y-109743002D01*
X133213334Y-109769478D01*
X133213133Y-109791011D01*
X133212834Y-109807985D01*
X133212425Y-109820781D01*
X133211897Y-109829784D01*
X133211240Y-109835374D01*
X133210442Y-109837936D01*
X133210026Y-109838202D01*
X133206952Y-109837716D01*
X133198557Y-109836292D01*
X133185131Y-109833980D01*
X133166962Y-109830831D01*
X133144339Y-109826897D01*
X133117553Y-109822228D01*
X133086891Y-109816875D01*
X133052643Y-109810888D01*
X133015099Y-109804319D01*
X132974547Y-109797219D01*
X132931277Y-109789638D01*
X132885577Y-109781626D01*
X132837738Y-109773236D01*
X132788047Y-109764518D01*
X132736795Y-109755522D01*
X132684271Y-109746299D01*
X132630763Y-109736901D01*
X132576561Y-109727378D01*
X132521954Y-109717781D01*
X132467232Y-109708161D01*
X132412682Y-109698568D01*
X132358596Y-109689054D01*
X132305261Y-109679669D01*
X132252967Y-109670464D01*
X132202003Y-109661490D01*
X132152659Y-109652798D01*
X132105223Y-109644438D01*
X132059984Y-109636462D01*
X132017233Y-109628921D01*
X131977257Y-109621864D01*
X131940347Y-109615343D01*
X131906791Y-109609410D01*
X131876878Y-109604114D01*
X131850898Y-109599506D01*
X131829140Y-109595638D01*
X131811894Y-109592560D01*
X131799447Y-109590323D01*
X131792090Y-109588977D01*
X131790054Y-109588574D01*
X131789916Y-109585683D01*
X131789819Y-109577661D01*
X131789763Y-109565084D01*
X131789748Y-109548531D01*
X131789774Y-109528576D01*
X131789774Y-109528576D01*
G37*
X131789774Y-109528576D02*
X131789840Y-109505798D01*
X131789948Y-109480772D01*
X131790054Y-109461050D01*
X131790797Y-109334151D01*
X132500000Y-109459065D01*
X132562767Y-109470119D01*
X132624063Y-109480913D01*
X132683651Y-109491403D01*
X132741292Y-109501549D01*
X132796749Y-109511308D01*
X132849783Y-109520639D01*
X132900158Y-109529499D01*
X132947634Y-109537848D01*
X132991975Y-109545643D01*
X133032942Y-109552843D01*
X133070298Y-109559405D01*
X133103804Y-109565289D01*
X133133224Y-109570451D01*
X133158318Y-109574851D01*
X133178850Y-109578446D01*
X133194581Y-109581195D01*
X133205273Y-109583055D01*
X133210690Y-109583986D01*
X133211342Y-109584090D01*
X133211786Y-109586872D01*
X133212198Y-109594789D01*
X133212570Y-109607266D01*
X133212891Y-109623731D01*
X133213152Y-109643610D01*
X133213344Y-109666330D01*
X133213456Y-109691317D01*
X133213483Y-109711202D01*
X133213447Y-109743002D01*
X133213334Y-109769478D01*
X133213133Y-109791011D01*
X133212834Y-109807985D01*
X133212425Y-109820781D01*
X133211897Y-109829784D01*
X133211240Y-109835374D01*
X133210442Y-109837936D01*
X133210026Y-109838202D01*
X133206952Y-109837716D01*
X133198557Y-109836292D01*
X133185131Y-109833980D01*
X133166962Y-109830831D01*
X133144339Y-109826897D01*
X133117553Y-109822228D01*
X133086891Y-109816875D01*
X133052643Y-109810888D01*
X133015099Y-109804319D01*
X132974547Y-109797219D01*
X132931277Y-109789638D01*
X132885577Y-109781626D01*
X132837738Y-109773236D01*
X132788047Y-109764518D01*
X132736795Y-109755522D01*
X132684271Y-109746299D01*
X132630763Y-109736901D01*
X132576561Y-109727378D01*
X132521954Y-109717781D01*
X132467232Y-109708161D01*
X132412682Y-109698568D01*
X132358596Y-109689054D01*
X132305261Y-109679669D01*
X132252967Y-109670464D01*
X132202003Y-109661490D01*
X132152659Y-109652798D01*
X132105223Y-109644438D01*
X132059984Y-109636462D01*
X132017233Y-109628921D01*
X131977257Y-109621864D01*
X131940347Y-109615343D01*
X131906791Y-109609410D01*
X131876878Y-109604114D01*
X131850898Y-109599506D01*
X131829140Y-109595638D01*
X131811894Y-109592560D01*
X131799447Y-109590323D01*
X131792090Y-109588977D01*
X131790054Y-109588574D01*
X131789916Y-109585683D01*
X131789819Y-109577661D01*
X131789763Y-109565084D01*
X131789748Y-109548531D01*
X131789774Y-109528576D01*
G36*
X131218987Y-107272382D02*
X131219053Y-107260944D01*
X131219159Y-107254205D01*
X131219268Y-107252577D01*
X131222119Y-107253068D01*
X131230229Y-107254489D01*
X131243236Y-107256775D01*
X131260776Y-107259862D01*
X131282490Y-107263688D01*
X131308013Y-107268187D01*
X131336984Y-107273297D01*
X131369041Y-107278953D01*
X131403822Y-107285091D01*
X131440965Y-107291648D01*
X131480107Y-107298559D01*
X131520886Y-107305762D01*
X131525382Y-107306556D01*
X131566315Y-107313778D01*
X131605650Y-107320704D01*
X131643025Y-107327268D01*
X131678078Y-107333410D01*
X131710447Y-107339066D01*
X131739770Y-107344173D01*
X131765684Y-107348667D01*
X131787828Y-107352487D01*
X131805840Y-107355569D01*
X131819357Y-107357851D01*
X131828017Y-107359268D01*
X131831459Y-107359759D01*
X131831503Y-107359754D01*
X131830832Y-107356982D01*
X131828344Y-107350475D01*
X131824895Y-107342375D01*
X131819187Y-107328438D01*
X131812492Y-107310445D01*
X131805299Y-107289850D01*
X131798098Y-107268109D01*
X131791379Y-107246679D01*
X131785631Y-107227015D01*
X131783648Y-107219719D01*
X131773996Y-107176867D01*
X131767077Y-107132276D01*
X131762855Y-107086735D01*
X131761293Y-107041034D01*
X131762356Y-106995960D01*
X131766007Y-106952304D01*
X131772209Y-106910854D01*
X131780928Y-106872400D01*
X131792125Y-106837729D01*
X131802240Y-106814460D01*
X131818968Y-106786448D01*
X131840022Y-106760572D01*
X131864304Y-106738021D01*
X131888320Y-106721367D01*
X131914013Y-106708905D01*
X131944155Y-106698892D01*
X131977991Y-106691430D01*
X132014768Y-106686617D01*
X132053733Y-106684554D01*
X132094131Y-106685341D01*
X132133354Y-106688845D01*
X132138508Y-106689623D01*
X132148939Y-106691324D01*
X132164303Y-106693886D01*
X132184254Y-106697251D01*
X132208448Y-106701358D01*
X132236538Y-106706148D01*
X132268180Y-106711561D01*
X132303029Y-106717536D01*
X132340739Y-106724015D01*
X132380966Y-106730937D01*
X132423364Y-106738243D01*
X132467588Y-106745873D01*
X132513293Y-106753766D01*
X132560134Y-106761864D01*
X132607766Y-106770106D01*
X132655842Y-106778432D01*
X132704020Y-106786783D01*
X132751952Y-106795099D01*
X132799294Y-106803320D01*
X132845701Y-106811386D01*
X132890828Y-106819238D01*
X132934329Y-106826815D01*
X132975859Y-106834058D01*
X133015074Y-106840907D01*
X133051628Y-106847303D01*
X133085176Y-106853184D01*
X133115372Y-106858493D01*
X133141872Y-106863167D01*
X133164330Y-106867149D01*
X133182401Y-106870378D01*
X133195741Y-106872795D01*
X133204003Y-106874338D01*
X133205634Y-106874662D01*
X133213483Y-106876273D01*
X133213483Y-107130549D01*
X133201353Y-107128619D01*
X133197303Y-107127929D01*
X133187920Y-107126302D01*
X133173494Y-107123789D01*
X133154317Y-107120442D01*
X133130676Y-107116310D01*
X133102863Y-107111444D01*
X133071166Y-107105896D01*
X133035876Y-107099716D01*
X132997283Y-107092954D01*
X132955676Y-107085662D01*
X132911345Y-107077890D01*
X132864579Y-107069689D01*
X132815669Y-107061110D01*
X132764905Y-107052203D01*
X132712575Y-107043020D01*
X132684078Y-107038018D01*
X132621453Y-107027027D01*
X132564185Y-107016981D01*
X132512008Y-107007839D01*
X132464658Y-106999555D01*
X132421870Y-106992087D01*
X132383380Y-106985393D01*
X132348922Y-106979427D01*
X132318231Y-106974147D01*
X132291043Y-106969511D01*
X132267093Y-106965473D01*
X132246116Y-106961992D01*
X132227847Y-106959024D01*
X132212021Y-106956525D01*
X132198373Y-106954453D01*
X132186639Y-106952764D01*
X132176554Y-106951414D01*
X132167852Y-106950360D01*
X132160270Y-106949560D01*
X132153541Y-106948970D01*
X132147402Y-106948546D01*
X132141587Y-106948245D01*
X132135832Y-106948024D01*
X132133032Y-106947934D01*
X132114760Y-106947468D01*
X132100812Y-106947415D01*
X132089815Y-106947868D01*
X132080395Y-106948918D01*
X132071176Y-106950657D01*
X132063111Y-106952582D01*
X132049625Y-106956438D01*
X132036040Y-106961061D01*
X132024993Y-106965545D01*
X132023668Y-106966173D01*
X132010084Y-106974520D01*
X131995281Y-106986403D01*
X131980779Y-107000348D01*
X131968096Y-107014882D01*
X131958751Y-107028531D01*
X131958004Y-107029892D01*
X131948672Y-107051684D01*
X131941265Y-107077825D01*
X131935859Y-107107263D01*
X131932530Y-107138947D01*
X131931353Y-107171826D01*
X131932406Y-107204848D01*
X131935763Y-107236962D01*
X131941023Y-107265108D01*
X131947429Y-107289327D01*
X131955474Y-107314830D01*
X131964444Y-107339563D01*
X131973625Y-107361475D01*
X131977030Y-107368653D01*
X131987168Y-107389160D01*
X132005994Y-107392344D01*
X132010607Y-107393139D01*
X132020573Y-107394868D01*
X132035621Y-107397483D01*
X132055482Y-107400937D01*
X132079886Y-107405184D01*
X132108562Y-107410177D01*
X132141241Y-107415868D01*
X132177651Y-107422210D01*
X132217524Y-107429157D01*
X132260589Y-107436661D01*
X132306576Y-107444675D01*
X132355214Y-107453152D01*
X132406234Y-107462045D01*
X132459366Y-107471307D01*
X132514339Y-107480891D01*
X132570884Y-107490750D01*
X132618438Y-107499042D01*
X133212056Y-107602555D01*
X133212799Y-107730199D01*
X133213542Y-107857842D01*
X133204237Y-107856126D01*
X133200754Y-107855508D01*
X133191853Y-107853938D01*
X133177736Y-107851453D01*
X133158608Y-107848088D01*
X133134671Y-107843878D01*
X133106129Y-107838860D01*
X133073185Y-107833069D01*
X133036042Y-107826540D01*
X132994904Y-107819310D01*
X132949974Y-107811415D01*
X132901455Y-107802889D01*
X132849551Y-107793769D01*
X132794464Y-107784090D01*
X132736400Y-107773889D01*
X132675559Y-107763201D01*
X132612147Y-107752061D01*
X132546365Y-107740505D01*
X132478419Y-107728570D01*
X132408510Y-107716290D01*
X132336842Y-107703702D01*
X132263619Y-107690841D01*
X132207471Y-107680980D01*
X131220011Y-107507551D01*
X131219268Y-107380045D01*
X131219130Y-107353687D01*
X131219034Y-107329170D01*
X131218977Y-107307066D01*
X131218962Y-107287946D01*
X131218987Y-107272382D01*
X131218987Y-107272382D01*
G37*
X131218987Y-107272382D02*
X131219053Y-107260944D01*
X131219159Y-107254205D01*
X131219268Y-107252577D01*
X131222119Y-107253068D01*
X131230229Y-107254489D01*
X131243236Y-107256775D01*
X131260776Y-107259862D01*
X131282490Y-107263688D01*
X131308013Y-107268187D01*
X131336984Y-107273297D01*
X131369041Y-107278953D01*
X131403822Y-107285091D01*
X131440965Y-107291648D01*
X131480107Y-107298559D01*
X131520886Y-107305762D01*
X131525382Y-107306556D01*
X131566315Y-107313778D01*
X131605650Y-107320704D01*
X131643025Y-107327268D01*
X131678078Y-107333410D01*
X131710447Y-107339066D01*
X131739770Y-107344173D01*
X131765684Y-107348667D01*
X131787828Y-107352487D01*
X131805840Y-107355569D01*
X131819357Y-107357851D01*
X131828017Y-107359268D01*
X131831459Y-107359759D01*
X131831503Y-107359754D01*
X131830832Y-107356982D01*
X131828344Y-107350475D01*
X131824895Y-107342375D01*
X131819187Y-107328438D01*
X131812492Y-107310445D01*
X131805299Y-107289850D01*
X131798098Y-107268109D01*
X131791379Y-107246679D01*
X131785631Y-107227015D01*
X131783648Y-107219719D01*
X131773996Y-107176867D01*
X131767077Y-107132276D01*
X131762855Y-107086735D01*
X131761293Y-107041034D01*
X131762356Y-106995960D01*
X131766007Y-106952304D01*
X131772209Y-106910854D01*
X131780928Y-106872400D01*
X131792125Y-106837729D01*
X131802240Y-106814460D01*
X131818968Y-106786448D01*
X131840022Y-106760572D01*
X131864304Y-106738021D01*
X131888320Y-106721367D01*
X131914013Y-106708905D01*
X131944155Y-106698892D01*
X131977991Y-106691430D01*
X132014768Y-106686617D01*
X132053733Y-106684554D01*
X132094131Y-106685341D01*
X132133354Y-106688845D01*
X132138508Y-106689623D01*
X132148939Y-106691324D01*
X132164303Y-106693886D01*
X132184254Y-106697251D01*
X132208448Y-106701358D01*
X132236538Y-106706148D01*
X132268180Y-106711561D01*
X132303029Y-106717536D01*
X132340739Y-106724015D01*
X132380966Y-106730937D01*
X132423364Y-106738243D01*
X132467588Y-106745873D01*
X132513293Y-106753766D01*
X132560134Y-106761864D01*
X132607766Y-106770106D01*
X132655842Y-106778432D01*
X132704020Y-106786783D01*
X132751952Y-106795099D01*
X132799294Y-106803320D01*
X132845701Y-106811386D01*
X132890828Y-106819238D01*
X132934329Y-106826815D01*
X132975859Y-106834058D01*
X133015074Y-106840907D01*
X133051628Y-106847303D01*
X133085176Y-106853184D01*
X133115372Y-106858493D01*
X133141872Y-106863167D01*
X133164330Y-106867149D01*
X133182401Y-106870378D01*
X133195741Y-106872795D01*
X133204003Y-106874338D01*
X133205634Y-106874662D01*
X133213483Y-106876273D01*
X133213483Y-107130549D01*
X133201353Y-107128619D01*
X133197303Y-107127929D01*
X133187920Y-107126302D01*
X133173494Y-107123789D01*
X133154317Y-107120442D01*
X133130676Y-107116310D01*
X133102863Y-107111444D01*
X133071166Y-107105896D01*
X133035876Y-107099716D01*
X132997283Y-107092954D01*
X132955676Y-107085662D01*
X132911345Y-107077890D01*
X132864579Y-107069689D01*
X132815669Y-107061110D01*
X132764905Y-107052203D01*
X132712575Y-107043020D01*
X132684078Y-107038018D01*
X132621453Y-107027027D01*
X132564185Y-107016981D01*
X132512008Y-107007839D01*
X132464658Y-106999555D01*
X132421870Y-106992087D01*
X132383380Y-106985393D01*
X132348922Y-106979427D01*
X132318231Y-106974147D01*
X132291043Y-106969511D01*
X132267093Y-106965473D01*
X132246116Y-106961992D01*
X132227847Y-106959024D01*
X132212021Y-106956525D01*
X132198373Y-106954453D01*
X132186639Y-106952764D01*
X132176554Y-106951414D01*
X132167852Y-106950360D01*
X132160270Y-106949560D01*
X132153541Y-106948970D01*
X132147402Y-106948546D01*
X132141587Y-106948245D01*
X132135832Y-106948024D01*
X132133032Y-106947934D01*
X132114760Y-106947468D01*
X132100812Y-106947415D01*
X132089815Y-106947868D01*
X132080395Y-106948918D01*
X132071176Y-106950657D01*
X132063111Y-106952582D01*
X132049625Y-106956438D01*
X132036040Y-106961061D01*
X132024993Y-106965545D01*
X132023668Y-106966173D01*
X132010084Y-106974520D01*
X131995281Y-106986403D01*
X131980779Y-107000348D01*
X131968096Y-107014882D01*
X131958751Y-107028531D01*
X131958004Y-107029892D01*
X131948672Y-107051684D01*
X131941265Y-107077825D01*
X131935859Y-107107263D01*
X131932530Y-107138947D01*
X131931353Y-107171826D01*
X131932406Y-107204848D01*
X131935763Y-107236962D01*
X131941023Y-107265108D01*
X131947429Y-107289327D01*
X131955474Y-107314830D01*
X131964444Y-107339563D01*
X131973625Y-107361475D01*
X131977030Y-107368653D01*
X131987168Y-107389160D01*
X132005994Y-107392344D01*
X132010607Y-107393139D01*
X132020573Y-107394868D01*
X132035621Y-107397483D01*
X132055482Y-107400937D01*
X132079886Y-107405184D01*
X132108562Y-107410177D01*
X132141241Y-107415868D01*
X132177651Y-107422210D01*
X132217524Y-107429157D01*
X132260589Y-107436661D01*
X132306576Y-107444675D01*
X132355214Y-107453152D01*
X132406234Y-107462045D01*
X132459366Y-107471307D01*
X132514339Y-107480891D01*
X132570884Y-107490750D01*
X132618438Y-107499042D01*
X133212056Y-107602555D01*
X133212799Y-107730199D01*
X133213542Y-107857842D01*
X133204237Y-107856126D01*
X133200754Y-107855508D01*
X133191853Y-107853938D01*
X133177736Y-107851453D01*
X133158608Y-107848088D01*
X133134671Y-107843878D01*
X133106129Y-107838860D01*
X133073185Y-107833069D01*
X133036042Y-107826540D01*
X132994904Y-107819310D01*
X132949974Y-107811415D01*
X132901455Y-107802889D01*
X132849551Y-107793769D01*
X132794464Y-107784090D01*
X132736400Y-107773889D01*
X132675559Y-107763201D01*
X132612147Y-107752061D01*
X132546365Y-107740505D01*
X132478419Y-107728570D01*
X132408510Y-107716290D01*
X132336842Y-107703702D01*
X132263619Y-107690841D01*
X132207471Y-107680980D01*
X131220011Y-107507551D01*
X131219268Y-107380045D01*
X131219130Y-107353687D01*
X131219034Y-107329170D01*
X131218977Y-107307066D01*
X131218962Y-107287946D01*
X131218987Y-107272382D01*
G36*
X131218987Y-100297416D02*
X131219052Y-100285973D01*
X131219159Y-100279228D01*
X131219268Y-100277594D01*
X131222107Y-100278091D01*
X131230311Y-100279536D01*
X131243625Y-100281885D01*
X131261792Y-100285093D01*
X131284557Y-100289114D01*
X131311665Y-100293904D01*
X131342860Y-100299416D01*
X131377885Y-100305607D01*
X131416486Y-100312431D01*
X131458407Y-100319842D01*
X131503393Y-100327796D01*
X131551186Y-100336247D01*
X131601533Y-100345150D01*
X131654177Y-100354459D01*
X131708863Y-100364131D01*
X131765335Y-100374118D01*
X131823337Y-100384377D01*
X131830752Y-100385689D01*
X131888934Y-100395974D01*
X131945621Y-100405984D01*
X132000559Y-100415674D01*
X132053490Y-100424998D01*
X132104159Y-100433913D01*
X132152310Y-100442373D01*
X132197688Y-100450334D01*
X132240036Y-100457751D01*
X132279098Y-100464579D01*
X132314620Y-100470775D01*
X132346344Y-100476292D01*
X132374016Y-100481086D01*
X132397379Y-100485113D01*
X132416177Y-100488327D01*
X132430154Y-100490685D01*
X132439056Y-100492141D01*
X132442625Y-100492650D01*
X132442683Y-100492645D01*
X132442683Y-100490630D01*
X132440365Y-100488759D01*
X132433853Y-100483500D01*
X132423394Y-100475053D01*
X132409234Y-100463616D01*
X132391620Y-100449388D01*
X132370798Y-100432569D01*
X132347015Y-100413357D01*
X132320516Y-100391952D01*
X132291550Y-100368553D01*
X132260361Y-100343358D01*
X132227196Y-100316567D01*
X132192303Y-100288379D01*
X132155926Y-100258993D01*
X132118314Y-100228608D01*
X132115432Y-100226281D01*
X131789370Y-99962874D01*
X131789370Y-99821616D01*
X131789379Y-99789588D01*
X131789417Y-99762817D01*
X131789499Y-99740850D01*
X131789642Y-99723235D01*
X131789862Y-99709521D01*
X131790176Y-99699257D01*
X131790600Y-99691990D01*
X131791149Y-99687269D01*
X131791841Y-99684642D01*
X131792691Y-99683656D01*
X131793716Y-99683862D01*
X131794303Y-99684274D01*
X131797026Y-99686529D01*
X131803880Y-99692243D01*
X131814619Y-99701213D01*
X131829000Y-99713231D01*
X131846776Y-99728095D01*
X131867704Y-99745598D01*
X131891537Y-99765535D01*
X131918031Y-99787702D01*
X131946941Y-99811894D01*
X131978021Y-99837905D01*
X132011027Y-99865530D01*
X132045714Y-99894565D01*
X132081837Y-99924805D01*
X132119149Y-99956044D01*
X132124760Y-99960741D01*
X132162218Y-99992103D01*
X132198516Y-100022491D01*
X132233410Y-100051701D01*
X132266653Y-100079528D01*
X132298003Y-100105767D01*
X132327214Y-100130214D01*
X132354042Y-100152665D01*
X132378242Y-100172914D01*
X132399571Y-100190756D01*
X132417782Y-100205989D01*
X132432632Y-100218405D01*
X132443877Y-100227802D01*
X132451271Y-100233975D01*
X132454570Y-100236718D01*
X132454697Y-100236821D01*
X132455989Y-100236988D01*
X132458723Y-100236377D01*
X132463128Y-100234881D01*
X132469433Y-100232391D01*
X132477868Y-100228800D01*
X132488663Y-100223998D01*
X132502046Y-100217878D01*
X132518249Y-100210331D01*
X132537499Y-100201249D01*
X132560027Y-100190524D01*
X132586063Y-100178047D01*
X132615835Y-100163710D01*
X132649573Y-100147404D01*
X132687508Y-100129022D01*
X132729868Y-100108454D01*
X132776883Y-100085593D01*
X132828782Y-100060331D01*
X132831147Y-100059179D01*
X132874502Y-100038073D01*
X132916493Y-100017641D01*
X132956831Y-99998026D01*
X132995226Y-99979367D01*
X133031385Y-99961806D01*
X133065020Y-99945483D01*
X133095840Y-99930538D01*
X133123554Y-99917114D01*
X133147872Y-99905350D01*
X133168503Y-99895388D01*
X133185156Y-99887368D01*
X133197542Y-99881431D01*
X133205370Y-99877717D01*
X133208333Y-99876373D01*
X133209502Y-99876222D01*
X133210479Y-99876883D01*
X133211283Y-99878818D01*
X133211929Y-99882487D01*
X133212434Y-99888353D01*
X133212817Y-99896876D01*
X133213094Y-99908518D01*
X133213281Y-99923741D01*
X133213397Y-99943006D01*
X133213457Y-99966774D01*
X133213480Y-99995507D01*
X133213483Y-100015686D01*
X133213483Y-100156633D01*
X132846039Y-100325916D01*
X132802784Y-100345851D01*
X132760943Y-100365149D01*
X132720810Y-100383673D01*
X132682679Y-100401288D01*
X132646844Y-100417856D01*
X132613600Y-100433241D01*
X132583241Y-100447308D01*
X132556060Y-100459919D01*
X132532353Y-100470938D01*
X132512412Y-100480229D01*
X132496533Y-100487656D01*
X132485009Y-100493082D01*
X132478134Y-100496371D01*
X132476173Y-100497378D01*
X132475597Y-100497733D01*
X132474948Y-100498029D01*
X132474504Y-100498318D01*
X132474541Y-100498650D01*
X132475339Y-100499074D01*
X132477175Y-100499642D01*
X132480328Y-100500404D01*
X132485076Y-100501409D01*
X132491696Y-100502709D01*
X132500467Y-100504354D01*
X132511667Y-100506394D01*
X132525573Y-100508880D01*
X132542465Y-100511862D01*
X132562620Y-100515390D01*
X132586316Y-100519515D01*
X132613831Y-100524287D01*
X132645444Y-100529757D01*
X132681432Y-100535975D01*
X132722074Y-100542990D01*
X132767647Y-100550855D01*
X132818430Y-100559619D01*
X132845325Y-100564261D01*
X132889674Y-100571919D01*
X132932527Y-100579326D01*
X132973540Y-100586421D01*
X133012371Y-100593145D01*
X133048676Y-100599439D01*
X133082113Y-100605242D01*
X133112339Y-100610495D01*
X133139009Y-100615138D01*
X133161782Y-100619113D01*
X133180314Y-100622358D01*
X133194261Y-100624815D01*
X133203281Y-100626423D01*
X133207031Y-100627124D01*
X133207061Y-100627131D01*
X133213483Y-100628670D01*
X133213483Y-100755616D01*
X133213436Y-100781911D01*
X133213303Y-100806361D01*
X133213093Y-100828394D01*
X133212816Y-100847437D01*
X133212481Y-100862917D01*
X133212098Y-100874264D01*
X133211677Y-100880904D01*
X133211342Y-100882451D01*
X133208403Y-100881954D01*
X133200043Y-100880504D01*
X133186463Y-100878136D01*
X133167863Y-100874885D01*
X133144444Y-100870786D01*
X133116406Y-100865875D01*
X133083950Y-100860187D01*
X133047278Y-100853757D01*
X133006588Y-100846620D01*
X132962083Y-100838811D01*
X132913962Y-100830366D01*
X132862426Y-100821320D01*
X132807677Y-100811708D01*
X132749914Y-100801565D01*
X132689338Y-100790927D01*
X132626150Y-100779828D01*
X132560550Y-100768304D01*
X132492739Y-100756390D01*
X132422918Y-100744122D01*
X132351288Y-100731534D01*
X132278048Y-100718662D01*
X132214606Y-100707511D01*
X131220011Y-100532682D01*
X131219268Y-100405105D01*
X131219130Y-100378741D01*
X131219034Y-100354218D01*
X131218977Y-100332109D01*
X131218962Y-100312985D01*
X131218987Y-100297416D01*
X131218987Y-100297416D01*
G37*
X131218987Y-100297416D02*
X131219052Y-100285973D01*
X131219159Y-100279228D01*
X131219268Y-100277594D01*
X131222107Y-100278091D01*
X131230311Y-100279536D01*
X131243625Y-100281885D01*
X131261792Y-100285093D01*
X131284557Y-100289114D01*
X131311665Y-100293904D01*
X131342860Y-100299416D01*
X131377885Y-100305607D01*
X131416486Y-100312431D01*
X131458407Y-100319842D01*
X131503393Y-100327796D01*
X131551186Y-100336247D01*
X131601533Y-100345150D01*
X131654177Y-100354459D01*
X131708863Y-100364131D01*
X131765335Y-100374118D01*
X131823337Y-100384377D01*
X131830752Y-100385689D01*
X131888934Y-100395974D01*
X131945621Y-100405984D01*
X132000559Y-100415674D01*
X132053490Y-100424998D01*
X132104159Y-100433913D01*
X132152310Y-100442373D01*
X132197688Y-100450334D01*
X132240036Y-100457751D01*
X132279098Y-100464579D01*
X132314620Y-100470775D01*
X132346344Y-100476292D01*
X132374016Y-100481086D01*
X132397379Y-100485113D01*
X132416177Y-100488327D01*
X132430154Y-100490685D01*
X132439056Y-100492141D01*
X132442625Y-100492650D01*
X132442683Y-100492645D01*
X132442683Y-100490630D01*
X132440365Y-100488759D01*
X132433853Y-100483500D01*
X132423394Y-100475053D01*
X132409234Y-100463616D01*
X132391620Y-100449388D01*
X132370798Y-100432569D01*
X132347015Y-100413357D01*
X132320516Y-100391952D01*
X132291550Y-100368553D01*
X132260361Y-100343358D01*
X132227196Y-100316567D01*
X132192303Y-100288379D01*
X132155926Y-100258993D01*
X132118314Y-100228608D01*
X132115432Y-100226281D01*
X131789370Y-99962874D01*
X131789370Y-99821616D01*
X131789379Y-99789588D01*
X131789417Y-99762817D01*
X131789499Y-99740850D01*
X131789642Y-99723235D01*
X131789862Y-99709521D01*
X131790176Y-99699257D01*
X131790600Y-99691990D01*
X131791149Y-99687269D01*
X131791841Y-99684642D01*
X131792691Y-99683656D01*
X131793716Y-99683862D01*
X131794303Y-99684274D01*
X131797026Y-99686529D01*
X131803880Y-99692243D01*
X131814619Y-99701213D01*
X131829000Y-99713231D01*
X131846776Y-99728095D01*
X131867704Y-99745598D01*
X131891537Y-99765535D01*
X131918031Y-99787702D01*
X131946941Y-99811894D01*
X131978021Y-99837905D01*
X132011027Y-99865530D01*
X132045714Y-99894565D01*
X132081837Y-99924805D01*
X132119149Y-99956044D01*
X132124760Y-99960741D01*
X132162218Y-99992103D01*
X132198516Y-100022491D01*
X132233410Y-100051701D01*
X132266653Y-100079528D01*
X132298003Y-100105767D01*
X132327214Y-100130214D01*
X132354042Y-100152665D01*
X132378242Y-100172914D01*
X132399571Y-100190756D01*
X132417782Y-100205989D01*
X132432632Y-100218405D01*
X132443877Y-100227802D01*
X132451271Y-100233975D01*
X132454570Y-100236718D01*
X132454697Y-100236821D01*
X132455989Y-100236988D01*
X132458723Y-100236377D01*
X132463128Y-100234881D01*
X132469433Y-100232391D01*
X132477868Y-100228800D01*
X132488663Y-100223998D01*
X132502046Y-100217878D01*
X132518249Y-100210331D01*
X132537499Y-100201249D01*
X132560027Y-100190524D01*
X132586063Y-100178047D01*
X132615835Y-100163710D01*
X132649573Y-100147404D01*
X132687508Y-100129022D01*
X132729868Y-100108454D01*
X132776883Y-100085593D01*
X132828782Y-100060331D01*
X132831147Y-100059179D01*
X132874502Y-100038073D01*
X132916493Y-100017641D01*
X132956831Y-99998026D01*
X132995226Y-99979367D01*
X133031385Y-99961806D01*
X133065020Y-99945483D01*
X133095840Y-99930538D01*
X133123554Y-99917114D01*
X133147872Y-99905350D01*
X133168503Y-99895388D01*
X133185156Y-99887368D01*
X133197542Y-99881431D01*
X133205370Y-99877717D01*
X133208333Y-99876373D01*
X133209502Y-99876222D01*
X133210479Y-99876883D01*
X133211283Y-99878818D01*
X133211929Y-99882487D01*
X133212434Y-99888353D01*
X133212817Y-99896876D01*
X133213094Y-99908518D01*
X133213281Y-99923741D01*
X133213397Y-99943006D01*
X133213457Y-99966774D01*
X133213480Y-99995507D01*
X133213483Y-100015686D01*
X133213483Y-100156633D01*
X132846039Y-100325916D01*
X132802784Y-100345851D01*
X132760943Y-100365149D01*
X132720810Y-100383673D01*
X132682679Y-100401288D01*
X132646844Y-100417856D01*
X132613600Y-100433241D01*
X132583241Y-100447308D01*
X132556060Y-100459919D01*
X132532353Y-100470938D01*
X132512412Y-100480229D01*
X132496533Y-100487656D01*
X132485009Y-100493082D01*
X132478134Y-100496371D01*
X132476173Y-100497378D01*
X132475597Y-100497733D01*
X132474948Y-100498029D01*
X132474504Y-100498318D01*
X132474541Y-100498650D01*
X132475339Y-100499074D01*
X132477175Y-100499642D01*
X132480328Y-100500404D01*
X132485076Y-100501409D01*
X132491696Y-100502709D01*
X132500467Y-100504354D01*
X132511667Y-100506394D01*
X132525573Y-100508880D01*
X132542465Y-100511862D01*
X132562620Y-100515390D01*
X132586316Y-100519515D01*
X132613831Y-100524287D01*
X132645444Y-100529757D01*
X132681432Y-100535975D01*
X132722074Y-100542990D01*
X132767647Y-100550855D01*
X132818430Y-100559619D01*
X132845325Y-100564261D01*
X132889674Y-100571919D01*
X132932527Y-100579326D01*
X132973540Y-100586421D01*
X133012371Y-100593145D01*
X133048676Y-100599439D01*
X133082113Y-100605242D01*
X133112339Y-100610495D01*
X133139009Y-100615138D01*
X133161782Y-100619113D01*
X133180314Y-100622358D01*
X133194261Y-100624815D01*
X133203281Y-100626423D01*
X133207031Y-100627124D01*
X133207061Y-100627131D01*
X133213483Y-100628670D01*
X133213483Y-100755616D01*
X133213436Y-100781911D01*
X133213303Y-100806361D01*
X133213093Y-100828394D01*
X133212816Y-100847437D01*
X133212481Y-100862917D01*
X133212098Y-100874264D01*
X133211677Y-100880904D01*
X133211342Y-100882451D01*
X133208403Y-100881954D01*
X133200043Y-100880504D01*
X133186463Y-100878136D01*
X133167863Y-100874885D01*
X133144444Y-100870786D01*
X133116406Y-100865875D01*
X133083950Y-100860187D01*
X133047278Y-100853757D01*
X133006588Y-100846620D01*
X132962083Y-100838811D01*
X132913962Y-100830366D01*
X132862426Y-100821320D01*
X132807677Y-100811708D01*
X132749914Y-100801565D01*
X132689338Y-100790927D01*
X132626150Y-100779828D01*
X132560550Y-100768304D01*
X132492739Y-100756390D01*
X132422918Y-100744122D01*
X132351288Y-100731534D01*
X132278048Y-100718662D01*
X132214606Y-100707511D01*
X131220011Y-100532682D01*
X131219268Y-100405105D01*
X131219130Y-100378741D01*
X131219034Y-100354218D01*
X131218977Y-100332109D01*
X131218962Y-100312985D01*
X131218987Y-100297416D01*
G36*
X131276066Y-109440105D02*
X131276132Y-109417328D01*
X131276240Y-109392305D01*
X131276346Y-109372607D01*
X131277089Y-109245738D01*
X131396955Y-109266416D01*
X131424061Y-109271092D01*
X131450823Y-109275708D01*
X131476406Y-109280120D01*
X131499976Y-109284185D01*
X131520696Y-109287757D01*
X131537733Y-109290694D01*
X131550251Y-109292851D01*
X131553207Y-109293361D01*
X131589595Y-109299628D01*
X131589595Y-109426218D01*
X131589584Y-109456442D01*
X131589537Y-109481449D01*
X131589435Y-109501731D01*
X131589259Y-109517779D01*
X131588990Y-109530083D01*
X131588607Y-109539137D01*
X131588092Y-109545430D01*
X131587425Y-109549453D01*
X131586587Y-109551699D01*
X131585558Y-109552658D01*
X131584601Y-109552829D01*
X131581069Y-109552367D01*
X131572604Y-109551043D01*
X131559831Y-109548967D01*
X131543375Y-109546243D01*
X131523861Y-109542979D01*
X131501914Y-109539283D01*
X131478160Y-109535260D01*
X131453224Y-109531019D01*
X131427730Y-109526665D01*
X131402304Y-109522307D01*
X131377571Y-109518050D01*
X131354156Y-109514001D01*
X131332684Y-109510269D01*
X131313781Y-109506959D01*
X131298071Y-109504178D01*
X131286180Y-109502034D01*
X131278732Y-109500633D01*
X131276346Y-109500098D01*
X131276208Y-109497207D01*
X131276111Y-109489186D01*
X131276055Y-109476611D01*
X131276040Y-109460058D01*
X131276066Y-109440105D01*
X131276066Y-109440105D01*
G37*
X131276066Y-109440105D02*
X131276132Y-109417328D01*
X131276240Y-109392305D01*
X131276346Y-109372607D01*
X131277089Y-109245738D01*
X131396955Y-109266416D01*
X131424061Y-109271092D01*
X131450823Y-109275708D01*
X131476406Y-109280120D01*
X131499976Y-109284185D01*
X131520696Y-109287757D01*
X131537733Y-109290694D01*
X131550251Y-109292851D01*
X131553207Y-109293361D01*
X131589595Y-109299628D01*
X131589595Y-109426218D01*
X131589584Y-109456442D01*
X131589537Y-109481449D01*
X131589435Y-109501731D01*
X131589259Y-109517779D01*
X131588990Y-109530083D01*
X131588607Y-109539137D01*
X131588092Y-109545430D01*
X131587425Y-109549453D01*
X131586587Y-109551699D01*
X131585558Y-109552658D01*
X131584601Y-109552829D01*
X131581069Y-109552367D01*
X131572604Y-109551043D01*
X131559831Y-109548967D01*
X131543375Y-109546243D01*
X131523861Y-109542979D01*
X131501914Y-109539283D01*
X131478160Y-109535260D01*
X131453224Y-109531019D01*
X131427730Y-109526665D01*
X131402304Y-109522307D01*
X131377571Y-109518050D01*
X131354156Y-109514001D01*
X131332684Y-109510269D01*
X131313781Y-109506959D01*
X131298071Y-109504178D01*
X131286180Y-109502034D01*
X131278732Y-109500633D01*
X131276346Y-109500098D01*
X131276208Y-109497207D01*
X131276111Y-109489186D01*
X131276055Y-109476611D01*
X131276040Y-109460058D01*
X131276066Y-109440105D01*
M02*
